<svg preserveAspectRatio="none" viewBox="0 0 1920 240" xmlns="http://www.w3.org/2000/svg"><path d="M0 240S0 40 0 40c20.1680941421673-4.84997717850675 40.3361882843346-9.6999543570135 73-8 32.6638117156654 1.6999543570135 77.8233410048289 9.94984024954723 104 14s33.3704476963499 3.90059335882457 61 5 75.6948682097714 3.44778631515453 109-1 51.8500794645647-15.6917386194427 75-18c23.1499205354353-2.30826138055732 50.9048139319702 4.31916816261619 75 3s44.5306648075543-10.5849340310221 76-10 73.9725268378126 11.0205679614722 107 16 56.5792278411954 4.5026621851332 81 5 49.7105617974058 1.96878329799498 74-1 47.5785249691812-10.3777953771131 72-9 49.97533832587 11.5423982104576 81 14 67.5201217273386-2.79179746471728 96-5 48.9441747647763-1.37520835158846 81-5 75.7031792135565-11.7073691289289 1e2-13 29.2431083809986 4.204684867304 55 8 72.3243872624496 5.88862965971287 106 8 54.459342569203 4.24079649384451 83 4 64.8382424607382-2.85181563509094 89-8 36.1876875878436-12.8335339534808 60-12 59.4110071878879 10.1859514490141 94 15 68.1682836606033 5.08972815742455 96 4 49.9158581696984-3.54486407871228 72-6V240z" fill="#013384" opacity=".09999999999999999"/><path d="M0 240S0 80 0 80c24.3180419934123-6.9131168565784 48.6360839868245-13.8262337131568 75-14s54.7737060461141 6.39181799604879 85 13c30.2262939538858 6.60818200395121 62.2690918287188 13.2589617289616 89 8s48.1499266390106-22.4276649118953 74-21 56.1312016152388 21.4516979186196 82 28c25.8687983847612 6.54830208138036 47.3252669000344-.37912676258324 81-4 33.6747330999656-3.62087323741677 79.5677307846235-3.9351908682867 107-5s36.4038099614718-2.88010976426995 60-4 61.8170293694897-1.54437007463352 96 1 64.3280725605697 8.05759006280402 91 11 49.8706803882316 3.31400982341739 79 1 64.1892058865046-7.31362935647363 93-9 51.3724960657501-.059492397522888 79 0 60.3208098504949-1.44840105343476 92-2 62.3442645322705-.146903388738053 82-4 28.3021320204227-11.9639853916131 56-8 74.4472073860388 20.0028449551902 108 21 53.9090384354208-13.0473944291479 82-18 63.916638872277-.813267238598471 86 3 30.4244060754722 7.30046338354184 58 8 74.3857368258343-1.38858629556896 104-6 42.03264662119-11.746118201266 66-12 59.483676689405 6.373059100633 95 13V240z" fill="#013384" opacity=".19999999999999998"/><path d="M0 240S0 120 0 120c31.0518342978582-6.57002709123439 62.1036685957165-13.1400541824688 87-11s43.6371599149924 12.9901896386408 75 14c31.3628400850076 1.0098103613592 75.3476917443138-7.82070437209435 101-6s32.9720731077525 14.2926278497366 61 17 76.7640158246763-4.34980702685198 106-6c29.2359841753237-1.65019297314804 38.9718635935419 2.10660025767129 66 0 27.0281364064581-2.1066002576713 71.3485298011561-10.0765940038333 103-15s50.6340172018337-6.80022424233816 70-3 39.1154013915091 13.2774909731859 67 14 63.9043772321302-7.30973965040543 98-8 66.2670896799698 5.96146762843593 97 7 60.0272640479905-3.5361308633383 83-8 39.6238541280684-8.8169441750827 64-6 56.4773194397369 12.8039075636691 89 15 65.4668681129849-3.39868607959392 90-3 40.6552081083239 6.7908367547065 64 6 53.9122994537197-8.76466093923214 89-13 74.6955940767973-4.73219299777792 107-4 57.3053242390902 2.6934329303438 76 2 31.083108966842-4.04153872359733 62-2 80.3622398935424 9.47272196404543 111 12 42.467931458988.150650867415607 65-1 55.7660342705065-1.0753254337078 89-1V240z" fill="#013384" opacity=".3"/><path d="M0 240s0-80 0-80c36.8141459100919 6.96550525287847 73.6282918201837 13.9310105057569 97 12s33.300978629357-12.7585367701492 56-15 58.1677936623883 4.10313657484005 91 3 63.0278467210898-9.65400952921098 88-11 44.7208194532526 4.51290154200373 76 9 74.0888754659 7.60240336119603 106 9 52.9236786831476 1.0774850132122 77 1 51.2164098015096.0876565859552159 79-1 56.2106821108137-3.42811135703309 86-7 60.940861755236-8.3752111578228 87-7 47.0258708682424 8.92895598832425 74 13 59.9556547717946 4.65938720452584 88 0 51.1515100445799-14.5665048064276 80-15 63.4383050498857 8.60663202118448 91 13 48.0952697558782 4.13997672168955 72 3 51.1806159266018-3.16653890794274 77-7 50.1822665377151-9.47382108991857 80-12 65.0903179225363-1.93817673238303 95 3 54.456461772138 14.2265280194507 86 17 70.0838349889111-.967935345419733 96-5 39.2081982722164-8.35478663777161 60-8 49.0833719222239 5.38708189650615 80 7 64.4583140388879-.193540948253087 98-2v80z" fill="#013384" opacity=".39999999999999997"/><path d="M0 240s0-40 0-40c20.6360428600754-.291415744320972 41.2720857201508-.582831488641915 72-3s71.5476999794723-6.9600897897532 104-5 56.5371143619601 10.4231906476548 84 10 58.3038425726873-9.73267280086583 82-14 40.2475153472909-3.49249944419148 67 3 63.7060960381494 18.7026705776318 91 16 44.9281005001111-20.3181828663359 73-21 66.5815019614063 15.5700608877118 101 21 64.7458916542636.0379393154886429 89-1 42.4349314215394 2.2781818503336 70 3 64.5143826595786-1.15066671682317 96-4 57.5075379401462-6.6755149830409 79-6 38.4554655798363 5.85272664898676 70 6 77.6705997405074-4.7353916129062 103-9 29.8621354581333-7.91116019736199 56-5 73.8808584269591 12.3800324023542 107 14 51.6144308340299-4.60896941205485 75-2 51.6614182369217 14.0558452458652 80 10 56.7398962182831-23.6144115714059 88-23 65.3789968899448 21.4018010397583 91 24 42.7441162219377-12.9927925876272 71-16 67.6445382223037 6.56936931075063 98 9 51.6777308888479-2.28468465537532 73-7v40z" fill="#013384" opacity=".49999999999999994"/></svg>