<?xml version="1.0" encoding="UTF-8" standalone="no"?><!DOCTYPE svg PUBLIC "-//W3C//DTD SVG 1.1//EN" "http://www.w3.org/Graphics/SVG/1.1/DTD/svg11.dtd"><svg width="100%" height="100%" viewBox="0 0 355 278" version="1.1" xmlns="http://www.w3.org/2000/svg" xmlns:xlink="http://www.w3.org/1999/xlink" xml:space="preserve" xmlns:serif="http://www.serif.com/" style="fill-rule:evenodd;clip-rule:evenodd;stroke-linejoin:round;stroke-miterlimit:2;"><path d="M154.008,108.354c-0,4.029 -2.583,5.712 -6.517,5.712c-1.351,-0 -3.176,-0.474 -4.005,-0.948l0.758,-2.062c0.853,0.332 1.825,0.522 2.868,0.522c2.084,-0 3.175,-0.759 3.175,-2.703c-0,-2.725 -1.492,-3.034 -2.631,-3.034c-1.161,-0 -2.085,0.167 -2.559,0.238l-0.948,-1.754l-0.024,-0l-0,-6.802l8.746,-0l-0,2.702l-5.783,-0l-0,3.317c0.64,-0.118 1.327,-0.142 1.966,-0.142c3.011,-0 4.954,1.588 4.954,4.954" style="fill:#1d1d1b;fill-rule:nonzero;"/><path d="M166.615,101.978c-0.284,-0.402 -0.451,-1.469 -0.474,-1.872c-0.451,-0.118 -1.114,-0.213 -1.707,-0.213c-1.113,-0 -1.92,0.616 -1.92,1.635c0,1.043 0.356,1.588 1.992,2.062l2.109,0.617c1.92,0.568 3.721,1.682 3.721,4.645c0,3.342 -2.749,5.214 -6.067,5.214c-1.755,-0 -4.029,-0.451 -5.428,-1.399c-0.071,-0.995 0.237,-2.677 0.64,-3.507l2.252,-0c0.213,0.426 0.403,1.232 0.449,1.966c0.617,0.262 1.399,0.356 1.968,0.356c1.351,-0 2.488,-0.663 2.488,-2.014c0,-0.735 -0.094,-1.494 -1.564,-1.944l-2.441,-0.71c-2.061,-0.593 -3.721,-1.92 -3.721,-4.74c0,-2.915 2.347,-4.741 5.594,-4.741c1.588,-0 3.436,0.403 5.001,1.138c0.07,0.995 -0.238,2.678 -0.641,3.507l-2.251,-0Z" style="fill:#1d1d1b;fill-rule:nonzero;"/><path d="M183.346,100.935l-1.493,0.19c-0.237,-0.19 -0.427,-0.569 -0.593,-0.995l-2.844,0l0,10.996c0.546,0.213 1.043,0.474 1.304,0.782l-0.237,1.967l-5.545,0l-0.238,-1.967c0.238,-0.308 0.735,-0.569 1.303,-0.782l0,-10.996l-2.844,0c-0.165,0.426 -0.355,0.805 -0.592,0.995l-1.492,-0.19l0,-3.389l13.271,0l0,3.389Z" style="fill:#1d1d1b;fill-rule:nonzero;"/><path d="M186.758,107.027l3.389,-0l-0.901,-2.891c-0.616,-1.968 -0.64,-3.414 -0.64,-3.414l-0.331,-0c0,-0 0,1.446 -0.593,3.366l-0.924,2.939Zm8.199,4.052c0.593,0.214 1.138,0.522 1.4,0.83l-0.239,1.967l-5.545,-0l-0.237,-1.967c0.214,-0.285 0.641,-0.521 1.138,-0.711l-0.64,-1.991l-4.74,-0l-0.593,1.92c0.522,0.213 0.972,0.497 1.233,0.782l-0.237,1.967l-5.404,-0l-0.236,-1.967c0.284,-0.356 0.9,-0.688 1.588,-0.901l4.549,-13.604l3.247,-0l4.716,13.675Z" style="fill:#1d1d1b;fill-rule:nonzero;"/><path d="M200.811,100.106l0,4.504l1.351,-0c2.014,-0 3.199,-0.499 3.199,-2.204c0,-1.826 -1.279,-2.3 -3.152,-2.3l-1.398,-0Zm1.564,-2.583c4.077,0.071 6.541,0.972 6.541,4.787c0,2.346 -1.777,3.698 -3.531,4.361c0.569,0.237 1.256,0.641 1.564,1.209l1.731,3.294c0.64,0.214 1.232,0.521 1.516,0.877l-0.238,1.825l-4.004,-0l-2.726,-5.806c-0.143,-0.332 -0.45,-0.878 -0.876,-0.878l-1.541,-0l0,3.792c0.948,0.214 1.849,0.546 2.157,0.925l-0.237,1.967l-6.399,-0l-0.237,-1.967c0.237,-0.308 0.735,-0.569 1.303,-0.782l0,-10.831c-0.568,-0.213 -1.066,-0.498 -1.303,-0.806l0.237,-1.967l6.043,-0Z" style="fill:#1d1d1b;fill-rule:nonzero;"/><path d="M332.102,56.704l-1.908,19.005l14.574,12.346l-18.664,4.059l-7.238,17.676l-9.627,-16.497l-19.048,-1.421l12.714,-14.254l-4.533,-18.555l17.485,7.687l16.245,-10.046Z" style="fill:#eda214;fill-rule:nonzero;"/><path d="M332.115,56.703l-15.249,24.384l13.341,-5.379l1.908,-19.005Zm12.653,31.352l-27.902,-6.968l9.238,11.027l18.664,-4.059Zm-46.381,-29.005l18.479,22.037l-0.993,-14.35l-17.486,-7.687Zm10.847,34.231l9.628,16.497l-1.996,-28.691l-7.632,12.194Zm-19.038,-1.43l26.67,-10.764l-13.955,-3.49l-12.715,14.254Z" style="fill:#eda214;fill-rule:nonzero;"/><path d="M21,56.704l16.245,10.046l17.485,-7.687l-4.534,18.555l12.715,14.254l-19.048,1.421l-9.627,16.497l-7.238,-17.676l-18.665,-4.059l14.575,-12.346l-1.908,-19.005Z" style="fill:#eda214;fill-rule:nonzero;"/><path d="M21.005,56.693l15.231,24.395l1.015,-14.349l-16.246,-10.046Zm33.726,2.371l-18.495,22.024l13.96,-3.47l4.535,-18.554Zm-46.402,28.972l27.907,-6.948l-13.333,-5.398l-14.574,12.346Zm35.521,5.257l19.048,-1.422l-26.662,-10.783l7.614,12.205Zm-9.63,16.484l2.016,-28.689l-9.254,11.013l7.238,17.676Z" style="fill:#eda214;fill-rule:nonzero;"/><path d="M257.582,21.967l3.405,18.795l17.412,7.85l-16.822,9.046l-2.086,18.987l-13.801,-13.204l-18.702,3.884l8.293,-17.207l-9.472,-16.586l18.926,2.57l12.847,-14.135Z" style="fill:#eda214;fill-rule:nonzero;"/><path d="M257.595,21.963l-7.937,27.643l11.341,-8.848l-3.404,-18.795Zm20.805,26.649l-28.742,0.994l11.919,8.053l16.823,-9.047Zm-52.579,-15.097l23.837,16.091l-4.911,-13.521l-18.926,-2.57Zm19.861,29.916l13.803,13.204l-9.827,-27.029l-3.976,13.825Zm-18.693,3.873l22.669,-17.698l-14.377,0.491l-8.292,17.207Z" style="fill:#eda214;fill-rule:nonzero;"/><path d="M95.52,21.967l12.847,14.135l18.926,-2.57l-9.472,16.586l8.293,17.207l-18.702,-3.884l-13.802,13.204l-2.085,-18.987l-16.823,-9.046l17.413,-7.85l3.405,-18.795Z" style="fill:#eda214;fill-rule:nonzero;"/><path d="M95.527,21.958l7.917,27.648l4.931,-13.514l-12.848,-14.134Zm31.766,11.575l-23.849,16.073l14.376,0.513l9.473,-16.586Zm-52.59,15.059l28.741,1.014l-11.329,-8.864l-17.412,7.85Zm32.697,14.845l18.701,3.883l-22.657,-17.714l3.956,13.831Zm-13.801,13.191l9.845,-27.022l-11.931,8.036l2.086,18.986Z" style="fill:#eda214;fill-rule:nonzero;"/><path d="M176.244,9.338l8.453,17.128l18.902,2.747l-13.677,13.332l3.228,18.826l-16.906,-8.888l-16.907,8.888l3.229,-18.826l-13.677,-13.332l18.902,-2.747l8.453,-17.128Z" style="fill:#eda214;fill-rule:nonzero;"/><path d="M176.253,9.33l-0.01,28.76l8.464,-11.632l-8.454,-17.128Zm27.346,19.882l-27.356,8.878l13.678,4.455l13.678,-13.333Zm-54.705,-0.019l27.349,8.897l-8.447,-11.644l-18.902,2.747Zm27.338,23.282l16.908,8.888l-16.897,-23.273l-0.011,14.385Zm-16.901,8.876l16.912,-23.261l-13.684,4.435l-3.228,18.826Z" style="fill:#eda214;fill-rule:nonzero;"/><path d="M351.544,65.84c-0.705,0 -1.415,-0.224 -2.017,-0.685c-50.013,-38.28 -109.826,-58.513 -172.976,-58.513c-62.357,-0 -121.568,19.775 -171.233,57.189c-1.463,1.103 -3.545,0.809 -4.65,-0.655c-1.103,-1.463 -0.811,-3.546 0.655,-4.649c50.825,-38.289 111.418,-58.527 175.228,-58.527c64.62,0 125.831,20.708 177.014,59.882c1.455,1.115 1.732,3.199 0.618,4.655c-0.654,0.854 -1.64,1.303 -2.639,1.303" style="fill:#1d1d1b;fill-rule:nonzero;"/><path d="M299.582,116.644c-0.653,0 -1.311,-0.191 -1.888,-0.59c-35.687,-24.692 -77.578,-37.742 -121.143,-37.742c-43.494,0 -85.33,13.012 -120.984,37.63c-1.507,1.043 -3.578,0.663 -4.62,-0.846c-1.042,-1.509 -0.662,-3.577 0.846,-4.619c36.77,-25.388 79.91,-38.807 124.758,-38.807c44.922,0 88.12,13.46 124.924,38.922c1.507,1.044 1.883,3.113 0.841,4.62c-0.645,0.932 -1.681,1.432 -2.734,1.432" style="fill:#1d1d1b;fill-rule:nonzero;"/><rect x="2.229" y="198.61" width="349.689" height="78.751" style="fill:#1d1d1b;"/><path d="M56.123,222.088l-4.723,0.601c-0.75,-0.601 -1.35,-1.8 -1.875,-3.15l-8.997,-0l0,34.79c1.724,0.675 3.299,1.5 4.124,2.475l-0.751,6.223l-17.544,-0l-0.751,-6.223c0.751,-0.975 2.325,-1.8 4.124,-2.475l0,-34.79l-8.997,-0c-0.525,1.35 -1.125,2.549 -1.875,3.15l-4.723,-0.601l0,-10.722l41.988,-0l0,10.722Z" style="fill:#fff;fill-rule:nonzero;"/><path d="M74.048,219.463l-0,14.246l4.274,0c6.373,0 10.122,-1.575 10.122,-6.973c-0,-5.773 -4.048,-7.273 -9.972,-7.273l-4.424,0Zm4.949,-8.173c12.896,0.226 20.694,3.074 20.694,15.146c-0,7.423 -5.623,11.697 -11.172,13.796c1.8,0.751 3.974,2.025 4.948,3.826l5.475,10.422c2.024,0.674 3.898,1.649 4.798,2.774l-0.75,5.772l-12.671,0l-8.624,-18.369c-0.449,-1.049 -1.423,-2.774 -2.773,-2.774l-4.874,-0l-0,11.996c2.999,0.675 5.848,1.726 6.824,2.925l-0.751,6.222l-20.244,0l-0.75,-6.222c0.75,-0.976 2.325,-1.8 4.124,-2.476l-0,-34.265c-1.799,-0.675 -3.374,-1.575 -4.124,-2.549l0.75,-6.224l19.12,0Z" style="fill:#fff;fill-rule:nonzero;"/><path d="M123.54,241.358l10.722,0l-2.849,-9.147c-1.95,-6.224 -2.025,-10.798 -2.025,-10.798l-1.049,0c-0,0 -0,4.574 -1.875,10.647l-2.924,9.298Zm25.942,12.82c1.875,0.676 3.6,1.651 4.425,2.625l-0.751,6.224l-17.545,0l-0.75,-6.224c0.676,-0.9 2.025,-1.649 3.599,-2.25l-2.024,-6.298l-14.996,0l-1.875,6.074c1.65,0.675 3.075,1.574 3.899,2.474l-0.749,6.224l-17.096,0l-0.749,-6.224c0.899,-1.125 2.849,-2.174 5.024,-2.849l14.396,-43.038l10.271,0l14.921,43.262Z" style="fill:#fff;fill-rule:nonzero;"/><path d="M173.629,217.514c-0.823,0.975 -2.398,1.874 -4.124,2.549l0,34.265c1.726,0.675 3.301,1.5 4.124,2.475l-0.749,6.224l-17.545,0l-0.75,-6.224c0.75,-0.975 2.325,-1.8 4.124,-2.475l0,-34.265c-1.799,-0.675 -3.374,-1.574 -4.124,-2.549l0.75,-6.224l17.545,0l0.749,6.224Z" style="fill:#fff;fill-rule:nonzero;"/><path d="M189.002,254.479c1.725,0.675 3.225,1.649 4.124,2.774l-0.749,5.774l-14.696,0l-0.75,-5.774c0.9,-1.125 2.399,-2.099 4.124,-2.774l0,-34.641c-1.799,-0.674 -3.449,-1.65 -4.274,-2.774l0.75,-5.773l15.446,0l14.921,29.091c1.799,3.525 3.748,10.198 3.748,10.198l0.826,-0.299c0,0 -1.051,-6.524 -1.051,-10.948l0,-19.42c-1.724,-0.674 -3.224,-1.725 -4.123,-2.849l0.75,-5.773l14.695,0l0.749,5.773c-0.899,1.124 -2.398,2.175 -4.122,2.849l0,43.114l-11.772,0l-15.071,-29.318c-1.8,-3.524 -3.75,-10.197 -3.75,-10.197l-0.824,0.3c0,0 1.049,6.523 1.049,10.947l0,19.72Z" style="fill:#fff;fill-rule:nonzero;"/><path d="M245.168,217.514c-0.824,0.975 -2.4,1.874 -4.124,2.549l0,34.265c1.724,0.675 3.3,1.5 4.124,2.475l-0.75,6.224l-17.545,0l-0.751,-6.224c0.751,-0.975 2.325,-1.8 4.124,-2.475l0,-34.265c-1.799,-0.675 -3.373,-1.574 -4.124,-2.549l0.751,-6.224l17.545,0l0.75,6.224Z" style="fill:#fff;fill-rule:nonzero;"/><path d="M260.541,254.479c1.724,0.675 3.225,1.649 4.124,2.774l-0.75,5.774l-14.697,0l-0.748,-5.774c0.899,-1.125 2.398,-2.099 4.124,-2.774l0,-34.641c-1.8,-0.674 -3.449,-1.65 -4.276,-2.774l0.75,-5.773l15.448,0l14.92,29.091c1.798,3.525 3.749,10.198 3.749,10.198l0.824,-0.299c0,0 -1.049,-6.524 -1.049,-10.948l0,-19.42c-1.726,-0.674 -3.225,-1.725 -4.124,-2.849l0.75,-5.773l14.695,0l0.75,5.773c-0.899,1.124 -2.4,2.175 -4.124,2.849l0,43.114l-11.77,0l-15.074,-29.318c-1.798,-3.524 -3.747,-10.197 -3.747,-10.197l-0.824,0.3c0,0 1.049,6.523 1.049,10.947l0,19.72Z" style="fill:#fff;fill-rule:nonzero;"/><path d="M307.26,236.633c0,13.047 3.823,18.521 10.196,18.521c2.7,0 5.173,-0.451 7.2,-1.275l0,-8.474c-2.027,-0.674 -3.827,-1.648 -4.726,-2.773l0.751,-5.924l17.544,0l0.751,5.924c-0.751,0.899 -2.025,1.649 -3.526,2.324l0,13.871c-4.872,3.599 -10.271,4.799 -18.669,4.799c-14.021,0 -20.769,-7.123 -20.769,-26.317c0,-18.445 8.848,-26.617 22.568,-26.617c6.899,-0 12.223,1.5 16.721,4.722c0.226,3.15 -0.75,8.474 -2.023,11.099l-6.899,-0c-0.675,-1.275 -1.274,-3.825 -1.499,-6.224c-2.176,-0.75 -4.199,-1.125 -6.898,-1.125c-6.149,-0 -10.722,3.749 -10.722,17.469" style="fill:#fff;fill-rule:nonzero;"/><path d="M75.603,179.357c6.385,0 10.666,-4.432 10.666,-18.026c0,-13.746 -4.582,-18.027 -10.816,-18.027c-6.159,0 -10.441,3.755 -10.441,17.5c0,13.671 4.582,18.553 10.591,18.553m0.451,-44.541c13.896,0 21.482,6.384 21.482,25.687c0,18.404 -8.638,27.341 -22.534,27.341c-13.745,0 -21.257,-7.134 -21.257,-26.363c0,-18.478 8.563,-26.665 22.309,-26.665" style="fill:#1d1d1b;fill-rule:nonzero;"/><path d="M112.029,178.68c1.728,0.677 3.23,1.653 4.131,2.78l-0.751,5.783l-14.722,0l-0.751,-5.783c0.902,-1.127 2.404,-2.103 4.131,-2.78l0,-34.701c-1.803,-0.675 -3.455,-1.653 -4.281,-2.779l0.751,-5.784l15.473,0l14.948,29.144c1.802,3.53 3.755,10.216 3.755,10.216l0.826,-0.301c0,0 -1.052,-6.535 -1.052,-10.967l0,-19.454c-1.727,-0.676 -3.229,-1.728 -4.13,-2.854l0.751,-5.784l14.721,0l0.752,5.784c-0.902,1.126 -2.404,2.178 -4.132,2.854l0,43.189l-11.792,0l-15.098,-29.369c-1.802,-3.53 -3.756,-10.215 -3.756,-10.215l-0.826,0.3c0,0 1.052,6.535 1.052,10.967l0,19.754Z" style="fill:#1d1d1b;fill-rule:nonzero;"/><path d="M150.709,187.244l-0.751,-6.233c0.751,-0.978 2.328,-1.803 4.131,-2.48l-0,-34.326c-1.803,-0.677 -3.38,-1.577 -4.131,-2.554l0.751,-6.235l17.576,-0l0.751,6.235c-0.826,0.977 -2.404,1.877 -4.131,2.554l-0,34.851l11.868,-0c0.601,-2.328 1.652,-4.506 2.779,-5.558l5.559,0.677l-0,13.069l-34.402,-0Z" style="fill:#1d1d1b;fill-rule:nonzero;"/><path d="M206.74,141.65c-0.826,0.977 -2.403,1.877 -4.131,2.554l-0,34.326c1.728,0.677 3.305,1.502 4.131,2.48l-0.751,6.233l-17.576,0l-0.751,-6.233c0.751,-0.978 2.329,-1.803 4.132,-2.48l-0,-34.326c-1.803,-0.677 -3.381,-1.577 -4.132,-2.554l0.751,-6.234l17.576,0l0.751,6.234Z" style="fill:#1d1d1b;fill-rule:nonzero;"/><path d="M222.887,178.68c1.728,0.677 3.23,1.653 4.131,2.78l-0.751,5.783l-14.722,0l-0.751,-5.783c0.902,-1.127 2.404,-2.103 4.131,-2.78l0,-34.701c-1.803,-0.675 -3.455,-1.653 -4.281,-2.779l0.751,-5.784l15.473,0l14.948,29.144c1.802,3.53 3.756,10.216 3.756,10.216l0.825,-0.301c0,0 -1.051,-6.535 -1.051,-10.967l0,-19.454c-1.728,-0.676 -3.23,-1.728 -4.132,-2.854l0.751,-5.784l14.723,0l0.751,5.784c-0.902,1.126 -2.404,2.178 -4.131,2.854l0,43.189l-11.793,0l-15.098,-29.369c-1.802,-3.53 -3.755,-10.215 -3.755,-10.215l-0.827,0.3c0,0 1.052,6.535 1.052,10.967l0,19.754Z" style="fill:#1d1d1b;fill-rule:nonzero;"/><path d="M296.418,187.244l-34.852,-0l-0.751,-6.233c0.751,-0.978 2.329,-1.803 4.131,-2.48l0,-34.326c-1.802,-0.677 -3.38,-1.577 -4.131,-2.554l0.751,-6.235l34.251,-0l0,13.07l-5.558,0.676c-1.126,-0.976 -2.178,-3.23 -2.779,-5.558l-11.717,-0l0,12.919l10.44,-0c0.527,-1.351 1.127,-2.478 1.878,-3.154l4.733,0.524l0,13.371l-4.733,0.601c-0.751,-0.601 -1.351,-1.803 -1.878,-3.154l-10.44,-0l0,14.345l12.318,-0c0.601,-2.328 1.652,-4.506 2.779,-5.558l5.558,0.677l0,13.069Z" style="fill:#1d1d1b;fill-rule:nonzero;"/></svg>