<svg xmlns="http://www.w3.org/2000/svg" width="272.752" height="75.499"><path d="M101.903 42.182c-1.36-.453-2.852-.666-4.45-.666-3.279 0-6.504 1.518-6.504 5.676 0 6.157 8.155 4.691 8.155 8.236 0 1.679-1.892 2.399-3.305 2.399-1.466 0-2.931-.454-4.21-1.147l-.347 3.359c1.839.453 2.745.72 4.77.72 3.759 0 6.984-1.546 6.984-5.624 0-6.237-8.156-4.878-8.156-8.103 0-2.025 1.652-2.585 2.932-2.585a9.63 9.63 0 0 1 3.785.8l.346-3.065"/><path d="M104.52 53.669c0 3.945 2.638 7.09 7.17 7.09 4.557 0 7.195-3.145 7.195-7.09 0-4.531-3.118-7.276-7.195-7.276-4.052 0-7.17 2.745-7.17 7.276zm3.731-.427c0-2.052 1.12-4.077 3.439-4.077 2.344 0 3.464 1.972 3.464 4.077 0 2.292-.72 4.745-3.464 4.745-2.72 0-3.439-2.48-3.439-4.745" fill-rule="evenodd"/><path d="M133.63 46.713h-3.571v6.716c0 1.759-.56 4.558-3.146 4.558-2.29 0-2.318-2.266-2.318-3.945v-7.33h-3.571v8.663c0 3.091 1.412 5.383 4.664 5.383 1.865 0 3.41-.853 4.504-2.185h.053v1.866h3.384V46.713M137.82 56.307c0 2.72 1.547 4.451 4.345 4.451 1.066 0 1.892-.106 2.638-.32l-.106-2.824c-.373.24-.986.373-1.626.373-1.36 0-1.68-1.093-1.68-2.266v-6.396h3.173v-2.612h-3.172V42.82l-3.572 1.146v2.746h-2.639v2.612h2.639v6.982M146.35 60.439h3.573v-6.717c0-1.759.56-4.557 3.145-4.557 2.292 0 2.319 2.265 2.319 3.944v7.33h3.57v-8.662c0-3.092-1.412-5.384-4.664-5.384-1.865 0-3.41.853-4.317 2.185h-.053V40.45h-3.572v19.99"/><path d="M179.113 53.242h-5.437l2.692-7.675h.053zM167.12 60.44h3.864l1.625-4.265h7.543l1.599 4.265h4.132l-7.303-18.604h-4.21l-7.25 18.604" fill-rule="evenodd"/><path d="M199.91 46.713h-3.571v6.716c0 1.759-.56 4.558-3.146 4.558-2.292 0-2.318-2.266-2.318-3.945v-7.33h-3.572v8.663c0 3.091 1.413 5.383 4.665 5.383 1.865 0 3.41-.853 4.504-2.185h.053v1.866h3.386V46.713M211.323 46.899c-1.12-.24-2.212-.506-3.891-.506-2.799 0-5.384 1.306-5.384 4.264 0 4.958 6.21 3.119 6.21 5.81 0 1.333-1.44 1.68-2.345 1.68-1.226 0-2.398-.347-3.518-.907l-.214 2.932c1.306.346 2.692.586 4.05.586 2.906 0 5.758-1.279 5.758-4.477 0-4.958-6.21-3.572-6.21-5.757 0-1.173 1.146-1.52 2.106-1.52 1.306 0 2.106.214 3.198.587l.24-2.692M215.27 56.307c0 2.72 1.547 4.451 4.345 4.451 1.066 0 1.893-.106 2.638-.32l-.106-2.824c-.372.24-.986.373-1.626.373-1.358 0-1.678-1.093-1.678-2.266v-6.396h3.172v-2.612h-3.172V42.82l-3.572 1.146v2.746h-2.64v2.612h2.64v6.982M223.881 60.439h3.572V55.4c0-1.972 0-5.597 2.904-5.597.64 0 1.28.107 1.6.293V46.5c-.373-.106-.746-.106-1.093-.106-2.132 0-3.597 2.159-3.757 3.438h-.054v-3.118h-3.172v13.726"/><path d="M234.224 50.497c1.2-.906 2.719-1.492 4.239-1.492 2.105 0 3.09.746 3.09 2.958h-1.972c-1.492 0-3.25.133-4.61.8-1.36.666-2.346 1.865-2.346 3.917 0 2.612 2.372 4.078 4.798 4.078 1.625 0 3.412-.853 4.237-2.372h.053c.028.427.028 1.333.16 2.053h3.146a60.535 60.535 0 0 1-.16-3.066 120.665 120.665 0 0 1-.054-3.438v-1.759c0-4.05-1.732-5.783-5.916-5.783-1.52 0-3.385.4-4.772 1.04zm1.812 5.97c0-2.105 2.373-2.372 3.972-2.372h1.545c0 1.066-.16 2.052-.745 2.825-.56.747-1.412 1.226-2.505 1.226-1.28 0-2.267-.506-2.267-1.679" fill-rule="evenodd"/><path d="M247.743 60.439h3.57v-19.99h-3.57v19.99"/><path d="M254.485 60.439h3.572V46.713h-3.572zm0-16.232h3.572v-3.411h-3.572v3.411M261.868 50.497c1.2-.906 2.719-1.492 4.237-1.492 2.106 0 3.092.746 3.092 2.958h-1.972c-1.492 0-3.252.133-4.61.8-1.36.666-2.346 1.865-2.346 3.917 0 2.612 2.372 4.078 4.798 4.078 1.625 0 3.41-.853 4.237-2.372h.053c.027.427.027 1.333.16 2.053h3.146a60.535 60.535 0 0 1-.16-3.066 120.665 120.665 0 0 1-.054-3.438v-1.759c0-4.05-1.732-5.783-5.917-5.783-1.519 0-3.384.4-4.77 1.04zm1.813 5.97c0-2.105 2.37-2.372 3.97-2.372h1.546c0 1.066-.16 2.052-.746 2.825-.56.747-1.412 1.226-2.504 1.226-1.28 0-2.266-.506-2.266-1.679" fill-rule="evenodd"/><path d="M106.327 15.622c-1.599-.48-3.305-.773-5.463-.773-6.317 0-10.208 3.571-10.208 9.941 0 6.29 4.184 9.302 10.208 9.302 1.998 0 4.05-.427 6.023-.96V23.111h-7.516v2.932h3.944v4.85c-.64.16-1.439.267-2.451.267-3.972 0-6.317-2.852-6.317-6.637 0-3.811 2.398-6.742 6.743-6.742 1.492 0 3.358.32 4.797.986l.24-3.145"/><path d="M108.947 27.002c0 3.945 2.639 7.09 7.17 7.09 4.558 0 7.196-3.145 7.196-7.09 0-4.53-3.118-7.276-7.196-7.276-4.051 0-7.17 2.745-7.17 7.276zm3.732-.426c0-2.053 1.119-4.078 3.438-4.078 2.346 0 3.464 1.972 3.464 4.078 0 2.292-.718 4.744-3.464 4.744-2.719 0-3.438-2.479-3.438-4.744" fill-rule="evenodd"/><path d="M129.023 33.772h4.024l5.064-13.726h-3.572l-3.304 9.995h-.054l-3.412-9.995h-3.837l5.09 13.726"/><path d="M142.14 25.563c.16-1.839 1.173-3.225 3.172-3.225s2.799 1.493 2.905 3.225zm8.476 4.53c-1.332.747-2.825 1.387-4.557 1.387-2.212 0-3.76-1.253-3.92-3.465h9.49c0-4.797-1.44-8.289-6.53-8.289-4.264 0-6.37 3.278-6.37 7.25 0 4.504 2.639 7.116 7.17 7.116 1.918 0 3.412-.373 4.717-1.093v-2.905" fill-rule="evenodd"/><path d="M153.847 33.772h3.57v-5.038c0-1.971 0-5.596 2.906-5.596.638 0 1.278.106 1.598.293v-3.598c-.373-.107-.746-.107-1.093-.107-2.132 0-3.597 2.159-3.757 3.438h-.054v-3.118h-3.17v13.726M163.95 33.772h3.57v-6.717c0-1.759.56-4.557 3.145-4.557 2.292 0 2.319 2.266 2.319 3.945v7.329h3.572V25.11c0-3.092-1.413-5.384-4.665-5.384-1.866 0-3.384.613-4.504 2.185h-.054v-1.865h-3.384v13.726M179.52 33.772h3.57v-6.663c0-1.786.294-4.611 2.666-4.611 2.052 0 2.052 1.812 2.052 3.092v8.182h3.572v-6.663c0-1.786.293-4.611 2.665-4.611 2.052 0 2.052 1.812 2.052 3.092v8.182h3.572V25.11c0-3.065-.96-5.384-4.345-5.384-1.679 0-3.464.773-4.29 2.426-.774-1.706-2.133-2.426-4.051-2.426-1.334 0-2.96.56-4.078 2.24h-.054v-1.92h-3.331v13.726"/><path d="M205.144 25.563c.159-1.839 1.172-3.225 3.17-3.225 2 0 2.8 1.493 2.906 3.225zm8.475 4.53c-1.332.747-2.826 1.387-4.558 1.387-2.212 0-3.758-1.253-3.917-3.465h9.488c0-4.797-1.44-8.289-6.53-8.289-4.265 0-6.37 3.278-6.37 7.25 0 4.504 2.639 7.116 7.17 7.116 1.918 0 3.411-.373 4.717-1.093v-2.905" fill-rule="evenodd"/><path d="M216.768 33.772h3.572v-6.717c0-1.759.56-4.557 3.145-4.557 2.292 0 2.319 2.266 2.319 3.945v7.329h3.57V25.11c0-3.092-1.411-5.384-4.663-5.384-1.866 0-3.384.613-4.504 2.185h-.054v-1.865h-3.385v13.726M233.565 29.64c0 2.72 1.547 4.452 4.346 4.452 1.065 0 1.892-.107 2.637-.32l-.107-2.825c-.372.24-.985.373-1.625.373-1.359 0-1.679-1.093-1.679-2.266v-6.396h3.17v-2.612h-3.17v-3.891l-3.572 1.146v2.745h-2.638v2.612h2.638v6.983"/><path d="M247.96 27.002c0 3.945 2.639 7.09 7.17 7.09 4.557 0 7.195-3.145 7.195-7.09 0-4.53-3.118-7.276-7.196-7.276-4.05 0-7.17 2.745-7.17 7.276zm3.73-.426c0-2.053 1.12-4.078 3.44-4.078 2.345 0 3.463 1.972 3.463 4.078 0 2.292-.718 4.744-3.464 4.744-2.718 0-3.438-2.479-3.438-4.744" fill-rule="evenodd"/><path d="M265.77 33.772h3.571V22.658h3.119v-2.612h-3.119V18.34c0-1.066.372-2.105 1.572-2.105.774 0 1.226.293 1.547.48l.292-2.959a12.592 12.592 0 0 0-2.612-.293c-2.825 0-4.37 1.919-4.37 4.664v1.919h-2.64v2.612h2.64v11.114"/><path d="M56.098 28.992c3.518 6.782 2.168 16.238-2.891 21.876-5.265 5.975-12.806 8.324-20.624 6.457-6.975-1.385-13.36-8.216-14.745-15.082-1.951-8.385 1.434-16.384 8.336-21.25 5.795-4.229 15.155-4.614 21.347-.964 3.542 1.855 6.89 5.409 8.577 8.963zm.53.337c3.445 7.204 1.759 16.709-3.759 22.406-5.3 5.59-12.913 7.794-20.527 5.88C24.91 56 18.284 48.627 17.26 41.134c-1.385-8.156 2-15.517 8.53-20.287 5.974-4.517 15.9-4.83 22.26-.915 3.615 2.011 6.964 5.71 8.578 9.396M15.43 45.471c.517.928 1.13 1.82 1.54 2.795-.36.156-.41-.398-.722-.482l-.482.096-4.481 2.506c-.53.385-.735.904-.77 1.494.048.915.54 1.867 1.444 2.216 2 .17 3.518-1.42 5.252-2.216.41-.265.688-.687.723-1.157l-.096-.674h.193l1.35 2.457-.097.097c-.434-.446-1-.723-1.639-.53l-4.385 2.312c-.807.145-1.746.049-2.313-.674-.794-.976-1.361-2.12-1.108-3.47.109-.577.675-1.011 1.157-1.3l4.24-2.362c.446-.313-.036-.77.048-1.108h.145" fill-rule="evenodd"/><path d="M59.52 46.194c.023.434-.326 1.06.336 1.205L65.591 50c.458 0 .458-.771.867-.579-.446.964-.831 2-1.35 2.892h-.144c0-.338.217-.699 0-1.012l-5.975-2.795c-.458-.073-.542.566-.916.626.338-1.024.807-1.987 1.302-2.94h.144M54.652 53.663c.073.361-.53.614-.24 1.06l4.722 4.385c.602.277.987-.458 1.3-.82.747-1.011.483-2.686-.144-3.661.036-.085.132-.037.193-.048l1.686 2.312c-1.373 1.482-2.722 2.927-4.192 4.289-.048.012-.072-.024-.096-.048.048-.338.434-.603.289-.964l-4.77-4.481c-.422-.302-.808.662-1.012.144l2.12-2.168h.144"/><path d="M23.572 56.12c.109.265.217.53.482.723l.434-.096v.289c-.494.674-.94 1.373-1.494 2.023h-.145c.278-1.036.976-2.493-.047-3.469-.29-.361-.7-.446-1.11-.53-.493.036-.963.41-1.155.868-.242 2.023 2.59 3.734.674 5.686-.506.481-1.12.71-1.83.674-1.253-.096-2.253-1.168-2.843-2.217-.194-.24-.422-.144-.675-.096v-.24c.686-.784 1.409-1.603 2.071-2.362h.145c-.482 1.072-1.325 2.349-.578 3.566.398.433.867.903 1.494.916.602.036 1.108-.374 1.397-.868.554-2.156-3.012-4.192-.29-6.023 1.242-.687 2.796-.097 3.47 1.156" fill-rule="evenodd"/><path d="M27.957 58.77c1.747.603 3.446 1.337 5.3 1.687-.072.94-.216 1.855-.433 2.747-.24-.265-.12-.771-.29-1.109-.204-.807-.818-1.735-1.685-1.975l-2.314 6.408c.073.47.651.446.868.771l-.096.097c-1.121-.398-2.277-.735-3.374-1.205v-.096c.337-.073.735.145 1.109 0 .951-2.06 1.602-4.24 2.41-6.36.035-.157-.145-.193-.242-.242-1.301-.133-2.301.47-3.18 1.35-.217-.037 0-.23 0-.338l1.349-2.12.578.385"/><path d="M12.441 39.882c-.723.578-1.614.987-2.457 1.397l-.193-2.072zM6.9 37.762c1.77 1.144 3.951 1.288 5.927 1.927.602-.71 1.18.385 1.879.289l.096.096c-2.349 1.314-4.722 2.759-7.083 4.144-.41.17-.132.76-.482.82-.168-.989-.265-2.072-.337-3.036-.012-.085.132-.036.193-.048.144.24.06.723.482.723.722-.326 1.481-.663 2.072-1.205l-.241-2.362c-.663-.204-1.47-.638-2.169-.192-.421.192-.156.795-.578.867-.12-.891-.29-1.819-.29-2.698.35.024.302.47.531.674M39.956 61.324c.662.687.59 1.795.24 2.602-.481.639-1.252.567-1.975.627-.108-1.145-.205-2.35-.096-3.518.638.024 1.337-.096 1.83.289zm1.638.193c.35.446.542 1 .385 1.59-.325.928-1.313 1.29-2.12 1.542.614.217 1.41.639 1.687 1.35.518.758.795 2.156 2.024 2.071v.145c-.724.036-1.422.132-2.169.096-.807-1.12-1.18-2.554-2.41-3.373-.216-.084-.481-.036-.722-.048l-.097.144.145 2.844c.217.325.59.265.916.337.072.192-.145.265-.29.24l-2.89.097-.097-.096c.205-.337.771-.097.916-.578l-.242-6.41c-.156-.47-.71-.276-.963-.53l.144-.095c1.928.084 4.277-.712 5.783.674M50.026 62.53l-1.879.914c-.229-.855-.156-1.83-.24-2.746.722.554 1.47 1.205 2.12 1.831zm4.385 1.3v.096c-.927.434-1.843.904-2.794 1.253-.085-.337.735-.446.433-.915l-1.686-1.494c-.795.325-1.627.674-2.313 1.156.132.76.024 1.747.915 2.073h.675v.144c-.831.35-1.675.855-2.506 1.06.687-.542.771-1.458.771-2.265l-.289-4.433c-.927-.29-.036-1.253-.385-1.927l.096-.097 6.36 5.35h.723M65.302 42.34c-.88-.254-1.639-.808-2.458-1.206.807-.361 1.735-.65 2.65-.867zm3.613-5.109c-.012.964-.156 1.988-.24 2.988l-.145.048c-.181-.24-.012-.638-.337-.819-.844.096-1.675.337-2.362.723l-.24 2.36c.614.374 1.24.856 2.023.675.446-.096.422-.686.82-.77-.097.927-.049 1.903-.338 2.746a2.58 2.58 0 0 0-1.204-1.59L62.41 41.23c-.734.662-1.132-.65-1.83-.675v-.145c2.65-.794 5.287-1.65 7.902-2.553.289-.145.108-.579.433-.627" fill-rule="evenodd"/><path d="M41.305 6.633c-.109.301-.554.217-.771.482-.639.59-.446 1.518-.482 2.361-.145 1.59.735 4.216-1.397 4.915-1.181.362-2.614.217-3.614-.434-.591-.47-.784-1.084-.82-1.782l-.144-4.916c-.181-.445-.783-.108-.916-.481 1.036-.181 2.241-.06 3.277-.097.049.422-.506.181-.723.386l-.193.289.145 5.397c.085.518.53 1.024 1.012 1.253.71.252 1.662.373 2.313-.097.602-.47.855-1.156.819-1.927-.217-1.53.289-3.361-.433-4.674-.253-.362-.748-.374-.964-.627l.337-.096c.855.157 1.698-.108 2.554.048M51.857 9.814h.338c-.12.94-.313 1.855-.578 2.746-.121-.41-.181-.94-.29-1.397-.24-.699-.734-1.506-1.494-1.783-.963 2.084-1.758 4.228-2.601 6.36.096.446.578.53.867.82-.048.156-.313.108-.434.048-.975-.47-2.023-.795-2.987-1.301.156-.217.578 0 .867 0 .482.06.506-.494.675-.772.662-1.927 1.553-3.758 2.216-5.686-1.3-.53-2.517.302-3.517 1.061.397-.831.89-1.615 1.494-2.361l.626.433 4.818 1.832M59.182 15.066c-.013.06.036.156-.048.192-.374-.012-.579-.566-1.012-.289l-1.976 2.024c.65.88 1.494 1.458 2.217 2.265h.144c.542-.976 2.807-1.723 1.638-2.94.109-.228.265.013.386.049l2.024 2.072-.097.144c-.361-.024-.59-.554-1.012-.289l-4.626 4.723c-.096.373.35.53.338.867h-.241c-.71-.735-1.518-1.433-2.12-2.217.385-.204.855.723 1.252.049l2.12-2.12c-.638-.82-1.481-1.543-2.216-2.314h-.144l-2.313 2.362c-.253.385.662.77.145.963l-2.17-2.168v-.145c.374-.048.736.65 1.158.193l4.529-4.578c.24-.457-.675-.807-.145-1.012l2.169 2.169"/><path d="M18.272 16.56v.192c-1.024-.385-2.373-1.132-3.42-.289-.447.338-.64.771-.724 1.253.048.458.385.831.77 1.108 1.94.337 3.482-1.855 5.446-.722.614.433.88 1.108 1.012 1.782.096 1.157-.627 2.048-1.542 2.699-.374.193-.808.361-1.06.722-.037.157.06.253.096.386l-.096.097c-.88-.675-1.723-1.519-2.506-2.313l.096-.097c.976.59 2.036 1.265 3.277.916.65-.314 1.241-.988 1.253-1.735-.036-.542-.386-1.036-.867-1.301-2.097-.494-4.952 3-6.216-.386-.218-.976.072-1.975.867-2.65.446-.506 1.614-.421 1.397-1.35h.145l2.072 1.687M28.583 12.801c.35.903.422 2.301-.24 3.084-.506.542-1.133.783-1.832.867-2.035-.12-2.975-2.385-3.469-3.999-.193-.904-.144-1.94.53-2.602.65-.602 1.59-.916 2.458-.579 1.313.543 2.084 2 2.553 3.23zm1.06-1.59c.615 1.12.518 2.722-.096 3.807-.71 1.204-1.988 2.072-3.373 2.168-1.433.036-2.698-.446-3.614-1.59a4.359 4.359 0 0 1-.675-3.663c.459-1.493 1.953-2.794 3.518-2.939 1.771-.132 3.434.639 4.24 2.217" fill-rule="evenodd"/><path d="M2.566 24.307C7.983 10.096 21.73 0 37.844 0c16.123 0 29.885 10.107 35.295 24.331l-3.822 1.419C64.488 13.085 52.204 4.105 37.844 4.105c-14.354 0-26.608 8.988-31.441 21.643l-3.837-1.44M4.747 43.809c2.854 15.69 16.584 27.586 33.097 27.586s30.252-11.896 33.105-27.586l4.035.761c-3.21 17.594-18.62 30.93-37.14 30.93C19.326 75.5 3.923 62.166.71 44.576l4.037-.768"/><path d="M34.016 44.538c-.086.22-.218.423-.421.596-.578-.205-1.084-.085-1.542.289-.397-.096-.578-.831-1.06-.578-.253.193-.458.638-.819.434-.18-.193-.277-.458-.53-.579-.337 0-.735.434-1.012 0-.033-.047-.066-.104-.102-.162zm5.647 0a.279.279 0 0 1-.045.114c-.133.566-.47 1.048-.77 1.542l.24.145c-.29.915-.662 1.842-1.494 2.505-.951-.578-1.313-1.662-1.59-2.65h.337c-.06-.482-.42-.964-.626-1.445a.434.434 0 0 1-.063-.21l-.63-.001c.06.506-.008 1-.367 1.463-1.156.831-1.976 2.687-3.758 2.12-.723.639-2.048-.108-2.603.82a.91.91 0 0 0 .193.915c.434.265 1.157.193 1.542.145.265.156.518.3.868.24.301-.47.626-.011.963.049.35.012.639-.422.964-.193-.325.53-.699 1.024-.82 1.638-.035.434.675.314.483.82.108.373.506.24.722.433.025.627.723.458 1.109.627.12 1.084 1.313-.145 1.541.867.254 0 .447-.169.675-.241.29.036.506.361.675.578.482.386.663-.253 1.012-.482l.867.338.578-.675c.675.494.916-.494 1.542-.29.434.049.386-.445.579-.673.746.108.638-.928 1.348-.916.049-.843-.71-1.338-.915-2.072.29-.169.518.084.723.24.446.145.675-.228 1.012-.337.614.952 1.228-.36 2.024-.096.361-.12.698-.494.626-.915-.084-.193-.204-.446-.433-.483-1.193.145-2-.65-3.23-.433l-2.023-1.928c-.581-.398-.711-.965-.668-1.552zm7.045 0c-.132.262-.236.54-.536.451-.241-.084-.434-.41-.723-.24-.157.192-.302.433-.482.578-.337-.06-.65-.495-1.012-.193-.168.169-.325.373-.578.337-.17-.253-.506-.626-.82-.337-.192.229-.445.18-.674.048a1.398 1.398 0 0 1-.465-.65zm-8.873 4.788c.41.988.603 2.12.579 3.228-1.422-.602-.542-2.192-.723-3.228zm-.626 0c.012 1.036.518 2.506-.626 3.18h-.145c-.06-1.192.421-2.204.77-3.18zm1.06-.24c.41 1.023 1.216 1.89 1.446 2.986.048.17-.157.374-.29.338-.325-1.144-1.06-2.12-1.253-3.325zm-7.71-.049c.012.23-.24.421-.433.482-.422.024-1.085.204-1.35-.193.157-.71 1.12-.253 1.687-.385zm5.156 3.42c-.145.134-.325-.059-.385-.192.265-1.216.963-2.252 1.446-3.373-.097 1.23-.711 2.374-1.06 3.566zm.723-3.565c-.337 1.097-1.29 1.952-1.783 2.988-.085.036-.133-.048-.193-.097.543-1.012 1.181-2.072 1.976-2.89zm-2.602 2.457h-.096c.3-.987 1.397-1.685 2.12-2.457-.277.928-1.579 1.506-2.024 2.457zm.193-2.408c-.277.156-.554.867-1.06.53-.037-.241.216-.41.385-.53.193-.073.482-.073.675 0zm-1.976 0c.132.204 0 .505-.241.53-.349-.037-.578.084-.867-.097a.864.864 0 0 1 .289-.433c.241-.073.578-.073.82 0zm14.07.096c-.144.795-1.156.29-1.734.433.036-.325.397-.47.626-.626.374.06.904-.156 1.108.193zm-2.024-.096c.012.228-.24.421-.433.481-.229.097-.555.048-.675-.144-.06-.265.157-.362.338-.434.253.036.578-.084.77.097zm-1.83.096c-.049.156-.073.325-.241.433-.458.181-.772-.289-1.109-.53.35-.108 1.06-.229 1.35.097zm-1.542 2.698c-.024.12.06.278-.097.337-.578-1.108-1.831-2.071-2.024-3.324zm1.108-1.06v.145c-.88-.675-1.627-1.59-2.361-2.41.88.627 1.59 1.458 2.36 2.265zm-2.891-2.265c.988.964 1.722 1.904 2.553 2.94.012.156 0 .301-.144.385-.831-1.156-1.831-2.12-2.554-3.325zm-5.445 2.169h-.145c.073-.675.927-1 1.398-1.494l.963-.675c-.614.82-1.518 1.35-2.216 2.169zm2.409-3.132c-.518 1.084-1.867.94-2.94.867.06-.35.59-.662.916-.915.747.18 1.951-1.747 2.024.048zm5.011-.482c.458.373.928.783 1.301 1.253-1-.085-2.385.493-2.987-.675l.385-1.156c.35.41.867.385 1.301.578" fill-rule="evenodd"/><path d="M28.53 44.538c-.138-.222-.315-.462-.621-.272a1.22 1.22 0 0 1-.723.145l-.482-.82c-.434-.168-1.108.387-1.205-.288-.035-.205-.072-.554-.385-.482-.53-.012-1.12.252-1.59-.049.036-.445.301-.867.337-1.252-.494-.12-1.277.084-1.638-.386.06-.42.18-.819.337-1.204-.602-.133-1.289-.097-1.83-.386-.121-.445.276-.783.48-1.156-.408-.313-.963-.337-1.3-.723.024-.638.71-.927 1.06-1.397-.265-.458-.819-.639-1.156-1.109.313-.494.831-.903 1.3-1.204-.276-.554-1-.868-1.06-1.446.41-.253.796-.578 1.302-.578l.144-.144c-.253-.422-.71-.747-.867-1.205.638-.265 1.458-.06 2.072-.386-.18-.566-.88-.915-1.012-1.493.65-.374 1.373.084 2.024 0-.518-.507-1.012-1.109-1.012-1.88.422-.29.807.109 1.205.193.602.386 1.228.723 1.88 1.012l.095-.097c-.53-.867-1.71-1.53-1.59-2.602 1.3.241 2.289 1.181 3.421 1.976.036-.41-.41-.747-.53-1.156-.313-.832-.927-1.542-.819-2.554.53-.013.976.602 1.35 1.012l1.108 1.542c.337-.543-.193-.964-.29-1.446.012-.856-.47-1.795.048-2.554.784.18.904 1.145 1.206 1.783.168.602.228 1.24.53 1.783.011-1.18.289-2.361.048-3.518.096-.494.385-1.024.819-1.253l.193.386c.12.71.168 1.446.144 2.216l.096.097c.313-.12.362-.554.723-.578.867 2.566-.325 5.12-.626 7.613.036 1.398.422 2.638 1.012 3.807-.314 1.18 1.084 1.65 1.204 2.65.253.397.675.06 1.012.096.337.024.518.554.915.29.579-.362.507-1.06.434-1.64-.482-.637-1.445-.734-1.734-1.54.482-.05 1 .084 1.446.24l.096-.096c-.362-.542-.916-.844-1.446-1.108.24-.254.771-.133 1.108-.097 1.542.614 3.53 1.097 4.193 2.94.132.397.108.867.385 1.204.506-.108 1.024.23 1.446-.096 1.855-1.579 1.324-4.132 2.312-6.072-.18-2.759-.397-5.397-.24-8.24.048-.12.217-.12.288-.048.133.133.17.386.386.386.242-.675.024-1.53.578-2.072.543.144.723.783.771 1.3v1.928l.097.097c.337-.784.542-1.65 1.3-2.217.181-.12.35.097.338.29-.108 1.131-.084 2.336-.771 3.227.024.206 0 .422.145.579.758-.94 1.41-2.361 2.699-2.747.432.687-.146 1.446-.435 2.072-.542.47-.686 1.096-1.06 1.638l.097.097c.867-1.06 2.024-2.036 3.325-2.361.252.277-.06.542-.097.82-.53.397-.457 1.047-.867 1.492-.434.555-1.06.856-1.446 1.35.53-.096.988-.675 1.542-.867.759-.41 1.53-.772 2.458-.772.204.555-.542.904-.916 1.253-.398.254-.71.567-.963.964.855-.132 1.806-.759 2.746-.385-.145.614-.807.891-1.108 1.445.229.193.542 0 .819 0 .41.06.855.036 1.156.386-.096.578-.867.747-1.108 1.252.482.278 1.12.206 1.542.627v.24l-1.06.965.048.144c.59.265 1.18.615 1.639 1.108l-.049.242c-.458.3-.951.493-1.397.819.204.433.891.614.915 1.156l-1.493.723c.12.482.747.94.578 1.542-.518.168-1.157.048-1.638.289.168.41.421.867.385 1.3-.566.181-1.277.013-1.783.338.012.41.024.82-.24 1.109l-1.012.047-.627.916c-.482.084-.964-.397-1.35.049l-.385.674c-.361.024-.614-.205-.963-.193-.102.075-.172.196-.235.321l-5.29-.001c-.2-.544-.176-1.173-.499-1.62-.204-.097-.361.143-.385.288-.111.412-.25.882-.283 1.34l-.588-.008c.076-.328-.23-.936.34-.85l.193-1.205c-.758-1.493-1-3.493-.53-5.204-.011-.698-.252-1.433-.915-1.734-.47.216-.277.867-.53 1.252-.446.735-1.18 1.181-2.024 1.157-.602-.048-.156.506-.29.82.122 1.782-1.517 3.252-.577 4.963l.096-.097c.504-.01.2.51.226.9l-.63-.002c-.076-.639-.363-1.293-.512-1.91-.192-.012-.24.205-.289.338-.04.533-.02 1.095-.205 1.57zm8.968-9.764c.012.096-.012.253-.144.193h-.145v-.29c.096.037.289-.084.289.097zm6.409.096c.265-.024.265-.361.578-.289.241.506-.795.699-.338 1.06.266-.096.58-.397.868-.145-.012.398-.53.398-.626.723.421.024.819.181 1.06.53.072.193-.145.266-.29.241-.36.073-.734-.144-1.012 0 .218.374.784.434.723.964-.493.193-.806-.325-1.252-.386-.121.35.458.53.385.916-.446.145-.77-.301-1.108-.482-.085.23.072.47.193.675-.35.168-.699-.084-.868-.386-.482-.686.422-1.156.626-1.734.64-.627.627-1.53 1.013-2.265.084.217-.18.41.048.578zM32.92 36.364c.482.313.615.855.771 1.35.037.445-.204.83-.578 1.06-.205.011-.349-.133-.337-.338-.085-.157.18-.29-.048-.385-.253.168-.482.517-.82.337-.12-.337.193-.615.29-.916-.386-.048-.663.59-1.157.29-.108-.41.241-.627.434-.916-.386-.217-.675.217-1.06 0 .024-.35.614-.47.915-.723-.265-.18-.686-.422-.722-.82.445-.24.746.458 1.156.146.012-.362-.422-.675-.193-1.012.169.072.29.253.434.385.301-.084.036-.385.048-.578.434.602.072 1.626.867 2.12zm3.663-1.88c-.109.242.06.687-.338.723-.337-.024-.602-.204-.867-.385.325-.157.807.325 1.109-.048.06-.494-.435-.76-.724-1.108a.76.76 0 0 1 .82.819zm9.251-1.252c.024.458-.506.24-.723.434-.132-.277.326-.434.53-.53.073 0 .205-.013.193.096zm.29-.723c-.218.337-.663.325-1.013.434.12-.325.615-.663 1.012-.771.217.084 0 .229 0 .337zm-.049-1.253c-.096.47-.686.796-1.06 1.109-.157-.53.482-.976.867-1.398.157-.024.23.156.193.29zm-15.178-.144c-.193.951-.35 1.855-.145 2.843-.325.012-.566-.181-.82-.338a.807.807 0 0 1-.143-.578c.24-.108.457.41.722.096-.06-.47-.662-.626-.819-1.06.35-.24.687.506.916 0-.145-.41-.952-.566-.723-1.108l.482.24c.024-.397-.362-.686-.241-1.059.325.205.518.639.77.964zm14.889-1.013c-.06.458-.458.892-.77 1.302h-.05c.037-.47.447-.988.82-1.302zm-14.745.483c-.265-.398-.71-.988-.385-1.494.3.385.252 1 .385 1.494zm13.83-1.59c-.109.397-.398.842-.193 1.252.265-.168.24-.626.578-.723a3.145 3.145 0 0 1-.578 1.543c-.362-.735-.337-1.735-.193-2.555.277.013.253.326.385.483zm-13.3-1.06c.024.722.193 1.445-.144 2.071.108-.686-1-1.65.144-2.072" fill-rule="evenodd"/><path d="M0 37.446h4.078v1.029H0v-1.029M.049 36.707l.04-1.022 4.055.16-.04 1.023-4.055-.16M.167 35.008l.081-1.016 4.032.321L4.2 35.33l-4.032-.322M.354 33.31l.121-1.011 4.01.482-.122 1.01-4.01-.481M.608 31.611l.162-1.005 3.987.643-.162 1.005-3.987-.643M.863 29.913l.202-1 3.965.803-.202 1-3.965-.803M1.255 28.249l.242-.994 3.943.963-.243.994-3.942-.963M1.999 25.596l3.92 1.124-.284.988-3.92-1.124.284-.988M75.577 37.446h-4.078v1.029h4.078v-1.029M75.528 36.707l-.04-1.022-4.056.16.04 1.023 4.056-.16M75.41 35.008l-.081-1.016-4.033.321.082 1.017 4.032-.322M75.223 33.31l-.12-1.011-4.01.482.12 1.01 4.01-.481M74.969 31.611l-.162-1.005-3.987.643.161 1.005 3.988-.643M74.714 29.913l-.203-1-3.964.803.202 1 3.965-.803M74.322 28.249l-.243-.994-3.942.963.243.994 3.942-.963M73.578 25.596l-3.92 1.124.284.988 3.92-1.124-.284-.988"/></svg>