<?xml version="1.0" encoding="utf-8"?>
<!-- Generator: Adobe Illustrator 19.0.0, SVG Export Plug-In . SVG Version: 6.00 Build 0)  -->
<svg version="1.1" id="layer" xmlns="http://www.w3.org/2000/svg" xmlns:xlink="http://www.w3.org/1999/xlink" x="0px" y="0px"
	 viewBox="-153 -46 652 652" style="enable-background:new -153 -46 652 652;" xml:space="preserve">
<style type="text/css">
	.st0{fill:#E36F1E;}
</style>
<path class="st0" d="M-84.6,229.7c-4.3,0.7-8.4,7.5-6.6,12.6c2.5,7.1,7.7,18.9,15.1,19.1c7.3-0.2,12.6-11.9,15.1-19.1
	c1.8-5.1-2.4-11.7-6.6-12.6C-71.9,228.8-79.1,228.8-84.6,229.7 M-119.9,254.8c-2.1,3.9,0.5,11.4,5.5,13.2c7,2.4,19.2,5.6,24-0.1
	c4.5-6-1.3-17.5-5.2-23.9c-2.8-4.6-10.5-5.4-13.8-2.6C-112.7,244.1-117.2,249.8-119.9,254.8 M-122.7,298.7c1.6,4.1,9,6.7,13.5,3.8
	c6.2-4.1,16.3-11.9,14.8-19.3c-1.8-7.3-14.2-9.9-21.5-10.8c-5.3-0.6-10.6,5-10.6,9.4C-126.4,286.2-124.8,293.4-122.7,298.7
	 M-90.9,328.4c4.1,1.3,10.8-3,11.4-8.5c0.8-7.5,1.1-20.4-5.5-23.9c-6.7-3.1-16.4,5.2-21.7,10.5c-3.8,3.8-2.8,11.6,0.6,14.3
	C-102.7,323.5-96.3,326.7-90.9,328.4 M-48.4,321.4c3.5-2.5,4.4-10.5,0.6-14.4c-5.3-5.3-15-13.6-21.7-10.5
	c-6.5,3.4-6.3,16.4-5.5,23.8c0.6,5.4,7.2,9.5,11.3,8.5C-59.5,327.8-53,324.6-48.4,321.4 M-27.3,283c0.3-4.4-5.3-10.1-10.6-9.4
	c-7.3,0.9-19.7,3.5-21.5,10.8c-1.5,7.4,8.6,15.2,14.8,19.2c4.5,2.9,11.7,0.2,13.5-3.8C-29.2,295.9-27.6,288.8-27.3,283 M-43.4,242.2
	c-3.2-3-11-2-13.8,2.6c-3.9,6.5-9.6,17.9-5.2,23.9c4.7,5.8,17,2.6,24,0.2c5-1.8,7.4-9.2,5.5-13.2C-34.7,251.8-39.2,246.1-43.4,242.2
	"/>
<path d="M444.1,298.9c-0.6-1.7-1.3-3.4-1.9-5.1c-0.1-0.4-0.6-0.6-1-0.4c-1.9,1-4.1,1.5-6.6,1.5c-0.9,0-0.2,1-0.1,1.1
	c1.1,2.6,2.1,5.3,2.9,8c1,3.2,2,3.8,4.7,3.5c0.8-0.1,2,0,3.1,0h0.5c0.6,0,1-0.1,1.2-0.4c0.2-0.3,0.1-0.8,0-1.1
	C445.9,303.8,445,301.3,444.1,298.9 M300.7,301.5c0-1-0.4-1.4-1.4-1.4c-1.9,0-3.8,0-5.7,0h-1.8l0,0c-0.2,0-0.2,0-0.7,0
	c-1.1,0-1.5,0.4-1.5,1.5c0,1.5,0,3.1,0,4.7c0,1,0.4,1.4,1.4,1.4c0.7,0,0.7,0,2.4,0l0,0c2.2,0,4.7,0,5.8,0c1.1,0,1.5-0.4,1.5-1.5
	C300.7,304.6,300.7,303.1,300.7,301.5 M280.1,281.2L280.1,281.2c0,0.6,0,1.1,0,2.3c0,1,0,2,0,2.9c0,0.1,0,0.3,0,0.5
	c0,0.3,0.4,0.4,0.6,0.2c1.7-1.9,3.6-3.2,5.7-3.7c0.8-0.2,1.1-0.5,1.1-1.2v-2.4c0-1.6,0.3-1.9,1.9-1.9c3.9,0.1,5.7,0,9.6,0
	c1.2,0,1.7-0.4,1.6-1.7c-0.1-1.4-0.1-2.8,0-4.2c0.1-1.3-0.5-1.7-1.6-1.7c-6.7,0-17.7,0-17.7,0c-1.1,0-1.3,0.4-1.3,1.4c0,3,0,6,0,9.1
	l0,0c0,0,0,0.1,0,0.1V281.2z M296,292.8c1.2,0,1.7-0.5,1.5-2c-0.1-1.1-0.2-2.5,0-3.6c0.2-1.6-0.3-2.2-1.6-2.2c-1.1,0-2.2,0-3.3,0
	h-2.2c-0.1,0-0.2,0-0.2,0c-5.5,0-9.4,3.7-9.9,9.3c0,4,0,7.9,0,11.9c0,0.9,0.7,1.4,1.3,1.4c0,0,2.5,0,4.8,0c0.8,0,1.4-0.6,1.4-1.4
	v-7.3c0-0.2,0-0.4,0-0.6v-4c0-1,0.3-1.6,1.4-1.6h3.9C293.9,292.7,294.9,292.7,296,292.8 M418.3,278.2c-1.6-5.5-6.6-8.9-12.3-8.4
	c-5.8,0.5-10.2,4.6-10.9,10.3c-0.1,0.7-0.1,3.8-0.1,6.8c0.2,5.4,2.9,9.3,7.2,10.8c0.2,0.1,0.4,0.1,0.5,0.2c0.3,0,0-0.5-0.1-0.7
	c0-0.3-0.1-0.6-0.1-0.9c0-1.3,0-2.6,0-4v-9.9c0-2.5,1-4.2,2.8-4.9c0.1,0,0.2-0.1,0.3-0.1c0.1,0,0.4-0.1,0.5-0.1
	c0.2,0,0.4-0.1,0.7-0.1c0,0,0.2,0,0.2,0c0.2,0,0.4,0,0.7,0.1c0,0,0.2,0.1,0.3,0.1c0.1,0,0.1,0,0.2,0.1c0.1,0,0.1,0,0.3,0.1
	c1.8,0.7,2.8,2.4,2.8,4.9v13.7c0,2.6-1.7,4.3-4.2,4.4c-0.2,0-1.2,0-1.4,0c-4.5-0.2-8.2-2.3-10.5-5.7c-0.4-0.6-0.3,0.1-0.3,0.2
	c0,0.2,0,1.1,0,1.3c0,0.7,0.1,1.3,0.1,2c0.7,5.7,5.1,9.7,10.9,10.2c5.8,0.5,10.8-2.9,12.3-8.4c0.6-2,0.5-4,0.5-6v-9.9
	C418.8,282.1,418.8,280.1,418.3,278.2 M367.1,289.5c0-5.7,0-11.5,0-17.2c0-1.4-0.4-1.9-1.8-1.8c-1.3,0.1-2.7,0.1-4,0
	c-1.3-0.1-1.7,0.5-1.7,1.7c0,5.8,0,11.7,0,17.5c0,5.9,0,10.4,0,16.3c0,1.2,0.4,1.7,1.6,1.6c1.3-0.1,2.7-0.1,4,0
	c1.5,0.1,1.9-0.5,1.9-1.9C367,299.8,367.1,295.4,367.1,289.5 M385.3,292.7c0-0.9,0-8.5,0-9.5c0,0,0-2.7,0-2.7c0-5.5-3.7-9.4-9.3-9.9
	h-3.3c-1.4,0-2,0.4-1.9,1.9c0.1,1.3,0.1,2.7,0,4c-0.1,1.3,0.4,1.6,1.6,1.6h3.9c0.9,0,1.5,0.2,1.6,1c0,0.8,0,1.5,0,2.1v2.2l0,0
	c0,1.7,0,3.5,0,6.1c0,0.5,0,1.1,0,1.6c0,5.2,0,9.3,0,14.7c0,1.4,0.4,2,1.9,1.9c1.3-0.1,2.7-0.1,4,0c1.3,0.1,1.6-0.4,1.6-1.6
	C385.3,301.1,385.3,297.2,385.3,292.7 M392.8,272.3c0.1-1.4-0.4-1.8-1.8-1.8c0,0-2.9,0-4.1,0c-1,0-2,0-2.9,0c-0.1,0-0.3,0-0.5,0
	c-0.3,0-0.4,0.4-0.2,0.6c1.9,1.7,3.2,3.6,3.7,5.7c0.2,0.8,0.5,1.1,1.2,1.1h2.9c1.3,0,1.8-0.3,1.7-1.7
	C392.7,275,392.7,273.6,392.8,272.3 M459.1,280.6c-0.4-1.1-1-2.4-1.5-3.5c-0.8-2.1-1.4-3.1-2.2-5.3c-0.4-1-0.9-1.4-1.9-1.4
	c-0.1,0-0.1,0-0.2,0c-1.2,0.1-3.2,0-4.3,0c-0.4,0-0.7,0-1.1,0h0c-0.3,0-0.6,0-0.7,0.2c-0.1,0.1-0.2,0.3-0.2,0.6l0.1,0.2
	c0.1,0.2,0.2,0.5,0.3,0.7c0.7,1.5,1.3,3,1.9,4.5c1.6,3.6,3,6.7,4.5,10.4c0.2,0.5,0.5,0.8,0.7,0.9c0.3,0.1,0.6,0,1.2-0.3
	C457.5,286.8,459.8,282.4,459.1,280.6 M473.5,270.9c-0.1-0.2-0.6-0.3-1.5-0.3c-0.4,0-1.1,0-1.6,0c-0.8,0-2.1,0-3,0
	c-1.2-0.1-1.8,0.3-2.3,1.6c-1.6,4.1-2.5,6.5-4.7,11.8c-0.7,1.8-2,5.9-4.9,6.7c-0.1,0-0.2,0.1-0.3,0.2c0,0.1,0,0.3,0.1,0.5
	c1.3,2,1.2,4.3,1.2,6.5c0,0.6,0,1.3,0,1.9c0,2.3,0,4.6,0,6.9c0,0.6,0.1,0.9,0.3,1.1s0.5,0.3,1,0.2c0.7,0,1.8,0,2.5,0
	c0.7,0,1.7,0,2.5,0c0.5,0,0.8-0.1,1-0.2c0.2-0.2,0.3-0.5,0.3-1c0-1.4,0-2.8,0-4.5c0-0.8,0-1.6,0-2.5c0-4.3,0.9-7.5,2.6-11.2
	c1.7-3.7,3.3-8.2,4.8-11.9c0.6-1.3,1.1-2.7,1.7-4C473.5,271.5,473.6,271.1,473.5,270.9 M261.2,306c0,1.2,0.4,1.7,1.6,1.6
	c1.3-0.1,2.7-0.1,4,0c1.5,0.1,1.9-0.5,1.9-1.9c0-5.4,0-9.5,0-14.7c0-0.5,0-1,0-1.6c0-2.6,0-4.4,0-6.1l0,0v-2.2c0-0.7,0-1.4,0-2.1
	c0.1-0.8,0.7-1,1.6-1h3.9c1.2,0,1.7-0.4,1.6-1.6c-0.1-1.3-0.1-2.7,0-4c0.1-1.5-0.5-1.9-1.9-1.9h-3.3c-5.6,0.5-9.3,4.4-9.3,9.9
	c0,0.1,0,2.7,0,2.7c0,1,0,8.6,0,9.5C261.2,297.2,261.2,301.1,261.2,306 M253.7,276.3c-0.1,1.3,0.5,1.7,1.7,1.7h2.9
	c0.7,0,1-0.3,1.2-1.1c0.5-2.2,1.8-4.1,3.7-5.7c0.2-0.2,0.1-0.6-0.2-0.6c-0.2,0-0.4,0-0.5,0c-1,0-2,0-2.9,0c-1.2,0-4.1,0-4.1,0
	c-1.4,0-1.9,0.4-1.8,1.8C253.8,273.6,253.8,275,253.7,276.3 M443.8,288.9c1.6-1.8,2.5-4,2.5-6.5c0-6.8-4.4-11.9-11.2-11.9
	c0,0-3.3,0-5.1,0s-4.8,0-4.8,0c-1.5,0-2.1,0.7-2.1,2.1c0,6.1,0.1,13.1,0.1,13.1c0,0.4-0.1,0.8,0.2,1.2c0,0.1,0.1,0.1,0.2,0
	c2.3-2.3,2.6-2.5,6.2-3.5c0.7-0.2,0.9-0.5,0.9-1.2c0-1,0-1.9,0-2.6c-0.1-1.1,0.2-1.6,1.4-1.5c0.7,0,2,0,3.1,0c2,0,3.7,1.8,3.7,3.7
	c0,2-1.7,3.7-3.6,3.7c0,0-0.9,0-1.6,0s-1.5,0-1.5,0c-0.2,0-0.6,0-0.6,0c-5,0-8.3,3.6-8.3,8.9l0,0c0,4.3,0,9-0.1,11.7
	c0,0.7,0.1,1.1,0.4,1.3c0.2,0.2,0.6,0.3,1.3,0.3c1.6-0.1,3-0.1,4.3,0c0.6,0,1,0,1.3-0.3c0.3-0.2,0.4-0.7,0.4-1.4c0-5.2,0-4.6,0-9.7
	v-1.7c0-1.1,0.5-1.6,1.5-1.5l3,0c3.3,0,6.1-1.2,8.1-3.3L443.8,288.9z M353,298.9c-0.6-1.7-1.3-3.4-1.9-5.1c-0.1-0.4-0.6-0.6-1-0.4
	c-1.9,1-4.1,1.5-6.6,1.5c-0.9,0-0.2,1-0.1,1.1c1.1,2.6,2.1,5.3,2.9,8c1,3.2,2,3.8,4.7,3.5c0.8-0.1,2,0,3.1,0h0.5
	c0.6,0,1-0.1,1.2-0.4c0.2-0.3,0.1-0.8,0-1.1C354.8,303.8,353.9,301.3,353,298.9 M352.7,288.9c1.6-1.8,2.5-4,2.5-6.5
	c0-6.8-4.4-11.9-11.2-11.9c0,0-3.3,0-5.1,0c-1.8,0-4.8,0-4.8,0c-1.5,0-2.1,0.7-2.1,2.1c0,6.1,0.1,13.1,0.1,13.1
	c0,0.4-0.1,0.8,0.2,1.2c0,0.1,0.1,0.1,0.2,0c2.3-2.3,2.6-2.5,6.2-3.5c0.7-0.2,0.9-0.5,0.9-1.2c0-1,0-1.9,0-2.6
	c-0.1-1.1,0.2-1.6,1.4-1.5c0.7,0,2,0,3.1,0c2,0,3.7,1.8,3.7,3.7c0,2-1.7,3.7-3.6,3.7c0,0-0.9,0-1.6,0c-0.7,0-1.5,0-1.5,0
	c-0.2,0-0.6,0-0.6,0c-5,0-8.3,3.6-8.3,8.9l0,0c0,4.3,0,9-0.1,11.7c0,0.7,0.1,1.1,0.4,1.3c0.2,0.2,0.6,0.3,1.3,0.3
	c1.6-0.1,3-0.1,4.3,0c0.6,0,1,0,1.3-0.3c0.3-0.2,0.4-0.7,0.4-1.4c0-5.2,0-4.6,0-9.7v-1.7c0-1.1,0.5-1.6,1.5-1.5l3,0
	c3.3,0,6.1-1.2,8.1-3.3L352.7,288.9z M371,243.2c0-4.1,0-8.3,0-12.4c0-1,0.2-1.4,1.3-1.4c0,0,11.1,0,17.7,0c1.1,0,1.7,0.3,1.6,1.5
	c-0.1,1.5,0,3,0,4.5c0,1.2-0.5,1.5-1.6,1.5c-4,0-5.7,0.1-9.6,0c-1.6,0-1.9,0.3-1.9,1.9v3.6c0,1,0.3,1.6,1.4,1.6h3.5
	c1.1,0,2.2,0,3.4,0c1.1,0,1.7,0.4,1.6,1.6c0,1.5,0,3,0,4.5c0,1.1-0.5,1.5-1.5,1.5c-1,0-2,0-3,0h-3.9l0,0l0,0c0,0,0,0-0.1,0h-6.4
	c-0.1,0-0.6,0-0.9,0c-1.1,0-1.7-0.4-1.6-1.5V243.2z M359.6,241.2c0,0.7,0.3,1,1.1,1.2c2.2,0.5,4.1,1.8,5.7,3.7
	c0.2,0.2,0.6,0.1,0.6-0.2c0-0.2,0-0.4,0-0.5c0-1,0-2,0-2.9c0-1.2,0-11.4,0-11.4c0-1.3-0.6-1.8-2.2-1.6c-1.1,0.2-2.3,0.1-3.4,0
	c-1.4-0.2-2,0.3-2,1.5l0,7.9V241.2z M352.3,254.2c0-0.7-0.3-1-1.1-1.2c-2.2-0.5-4.1-1.8-5.7-3.7c-0.2-0.2-0.6-0.1-0.6,0.2
	c0,0.2,0,0.4,0,0.5c0,1,0,2,0,2.9c0,1.2,0,11.9,0,11.9c0,1.3,0.6,1.8,2.2,1.6c1.1-0.2,2.3-0.1,3.4,0c1.4,0.2,2-0.3,2-1.5l0-8.4
	V254.2z M367.1,253.3c-0.5-5.6-4.4-9.3-9.9-9.3h-0.5h-3c-1.2,0.1-1.4-0.6-1.4-1.6v-4.1c0-0.2,0-0.4,0-0.6v-6.8
	c0-0.8-0.6-1.4-1.4-1.4c-2.3,0-4.8,0-4.8,0c-1.1,0-1.3,0.4-1.3,1.4c0,4,0,7.4,0,11.3c0.5,5.6,4.4,9.3,9.9,9.3h3.5
	c1.2-0.1,1.4,0.6,1.4,1.6v4.1c0,0.2,0,0.4,0,0.6v7.4c0,0.8,0.6,1.4,1.4,1.4c2.3,0,4.8,0,4.8,0c1.1,0,1.3-0.4,1.3-1.4
	C367.1,261.2,367.1,257.2,367.1,253.3 M339.2,229.4h-18.3c-1.4,0-1.9,0.4-1.8,1.8c0.1,1.3,0.1,2.7,0,4c-0.1,1.3,0.5,1.7,1.7,1.7
	h18.6c1.2,0,1.7-0.4,1.6-1.6c-0.1-1.3-0.1-2.7,0-4C341.2,229.8,340.6,229.4,339.2,229.4 M332.3,239c-0.3,0-0.8,0-0.9,0h-2.5
	c-0.1,0-0.6,0-0.9,0c-1.1,0-1.7,0.4-1.6,1.5l0,0c0,5.8,0,2.3,0,8.1c0,5.9,0,10.4,0,16.3c0,1.2,0.4,1.7,1.6,1.6c1.3-0.1,2.7-0.1,4,0
	c1.5,0.1,1.9-0.5,1.9-1.9c-0.1-5.9,0-10.4,0-16.3c0-5.7,0-2.2,0-7.9l0,0l0,0C333.9,239.3,333.4,239,332.3,239 M391.6,260.9
	c0.1-1.5-0.5-1.9-1.9-1.9c-2.9,0-9.9,0-9.9,0c0,0-0.1,0-0.3,0c-0.9,0-1.2-0.7-1.2-1.6l0,0c0,0,0,0,0,0c0-0.9,0-1.9,0-2.3
	c0-1.2-0.5-1.5-1.6-1.5c-0.3,0-0.8,0-0.9,0h-2.5c-0.1,0-0.6,0-0.9,0c-1.1,0-1.7,0.4-1.6,1.5c0,0.7,0,0.8,0,1.2l0,0c0,0.3,0,3,0,4
	c0,0.1,0,0.1,0,0.2c0,0.7,0,0.8,0,1.2l0,0c0,1.2,0,2,0,3.5c0,1,0.2,1.4,1.3,1.4c0,0,7.1,0,8.5,0c1.3,0,6.6,0,8.9,0
	c0.1,0,0.2,0,0.3,0c1.2,0,1.7-0.4,1.6-1.6C391.5,263.6,391.5,262.2,391.6,260.9 M270.7,320L270.7,320c0.7-1,1.1-2.2,1.1-3.6
	c-0.3-2.8-2.2-4.9-5.2-4.9c0,0-1.4,0-2.2,0s-2.2,0-2.2,0c-0.7,0-1,0.3-1,1c0,0,0,12.5,0,15.4l0,0l0,0v0l0,0c0,0.7,0.3,1,1,1
	c0,0,1.4,0,2.2,0s2.6,0,2.6,0c2.9,0,4.9-2,5.2-4.8c0-0.1,0-0.2,0-0.3c0-1.5-0.5-2.7-1.3-3.6C270.8,320.1,270.7,320,270.7,320
	 M264.7,315.7c0-0.5,0.1-0.7,0.7-0.7c0.3,0,0.7,0,1.3,0c0.9,0,1.7,0.8,1.7,1.7c0,1-0.8,1.7-1.7,1.7h-0.9h-0.2c-0.1,0-0.5,0-0.6,0
	c-0.2,0-0.3-0.2-0.3-0.5C264.6,317.9,264.7,315.8,264.7,315.7 M266.9,325.4c-0.5,0-1.3,0-1.6,0c-0.4,0-0.6-0.1-0.7-0.3
	c0-0.2,0-0.3,0-0.3c0-0.5,0-2,0-2c0-0.5,0.1-0.7,0.7-0.7c0,0,0.4,0,0.7,0c0.4,0,1,0,1,0c0.7,0,1.3,0.5,1.6,1.2c0,0,0,0,0,0l0,0
	c0,0.1,0.1,0.3,0.1,0.5C268.6,324.6,267.9,325.4,266.9,325.4 M295.7,311.6c0.4,0,0.6,0.2,0.6,0.7c0,2,0,3.7,0,5.3c0,0.5,0,1.1,0,1.6
	v0l0,0c0,1.1,0,2.2,0,3.6v1c0,2.4-1.6,4.5-3.8,5.1c-0.5,0.2-1,0.2-1.6,0.2c-0.6,0-1.1-0.1-1.6-0.2c-2.2-0.7-3.8-2.7-3.8-5.1v-1
	c0-1.4,0-2.5,0-3.6l0,0v0c0-0.6,0-1.1,0-1.7c0-1.7,0-3.3,0-5.3c0-0.5,0.2-0.7,0.6-0.7h0c0,0,0,0,0,0c0,0,0,0,0,0s0,0,0.1,0
	c0.1,0,0.2,0,0.3,0c0.1,0,0.2,0,0.3,0c0.1,0,0.1,0,0.2,0c0,0,0.1,0,0.1,0c0.1,0,0.2,0,0.4,0c0.1,0,0.2,0,0.4,0c0.1,0,0.2,0,0.3,0
	c0.5,0,0.7,0.2,0.7,0.8c0,3.4,0,6.1,0,9.5v1.9c0,0.1,0,0.1,0,0.2c0,0,0,0.1,0,0.1v0c0,0.1,0,0.2,0.1,0.3c0.3,0.7,1,1.2,1.8,1.2
	c0.8,0,1.5-0.5,1.8-1.2c0-0.1,0.1-0.2,0.1-0.3v0c0,0,0-0.1,0-0.1c0-0.1,0-0.1,0-0.2v-1.9c0-3.4,0-6.1,0-9.5c0-0.6,0.2-0.8,0.7-0.8
	c0.1,0,0.2,0,0.3,0c0.1,0,0.2,0,0.4,0c0.1,0,0.2,0,0.4,0c0,0,0.1,0,0.1,0c0.1,0,0.1,0,0.2,0c0.1,0,0.2,0,0.3,0c0.1,0,0.2,0,0.3,0
	c0,0,0,0,0.1,0C295.6,311.6,295.6,311.6,295.7,311.6C295.7,311.6,295.7,311.6,295.7,311.6C295.7,311.6,295.7,311.6,295.7,311.6
	 M308,311.6c0.7-0.1,0.9,0.1,0.9,0.7c0,2.1,0,4.3,0,6.4c0,1.3,0,5.4,0,7.2c0,0.8,0,1.9,0,2.3c0,0.5-0.2,0.7-0.8,0.6
	c-0.6-0.1-1.2-0.1-1.8,0c-0.7,0.1-1-0.1-1.3-0.7c-0.7-1.7-3.1-7.7-3.1-7.7c-0.1-0.3-0.2-0.1-0.2,0.2c0,0,0,5,0,7.3
	c0,0.7-0.2,1.1-1.1,0.9c-0.5-0.1-1-0.1-1.4,0c-0.7,0.1-1-0.1-1-0.8c0-2.1,0-4.2,0-6.3v-2.4c0-0.6,0-6.4,0-7c0-0.5,0.2-0.7,0.6-0.6
	c0.4,0,0.8,0,1.1,0c2,0,1.6-0.2,2.4,1.6c0.7,1.7,1.4,3.4,2.1,5.1l0.2,0.4c0.2,0.5,0.3,0.9,0.5,1.4c0.1,0.3,0.2,0,0.2-0.1v-7.6
	c0-0.7,0.2-0.9,0.9-0.8C306.9,311.7,307.5,311.7,308,311.6 M354.8,327.3c0,0.1-0.1,0.1-0.1,0.2c0,0-0.1,0.1-0.1,0.1
	c0,0.1-0.1,0.1-0.2,0.2c0,0-0.1,0-0.1,0.1c-0.1,0.1-0.1,0.1-0.2,0.2c0,0,0,0-0.1,0.1c-0.1,0.1-0.2,0.1-0.2,0.2c0,0,0,0,0,0
	c-0.2,0.1-0.4,0.3-0.7,0.4c-0.4,0.2-0.9,0.4-1.3,0.5c0,0,0,0-0.1,0c0,0,0,0,0,0c0,0-0.1,0-0.2,0c-0.4,0.1-0.8,0.1-1.1,0.1
	c-0.4,0-0.7,0-1.1-0.1l0,0c0,0,0,0,0,0c0,0-0.1,0-0.1,0c-0.1,0-0.2,0-0.3-0.1h0c0,0,0,0,0,0c-1.8-0.6-3.6-2.2-3.7-4.2l0-0.3
	c-0.1-0.9,0-1,0.9-1l0,0l0,0c0.2,0,0.5,0,0.7,0c0,0,0,0,0.1,0c0.1,0,0.2,0,0.3,0c0.1,0,0.2,0,0.4,0c0.1,0,0.1,0,0.2,0
	c0.5,0,0.7,0.2,0.9,0.6l0,0.2c0.2,0.8,0.8,1.6,1.9,1.6c1,0,2-0.6,2-1.7c0-1.1-0.7-1.7-1.6-2c0,0-2-0.6-2.6-0.9c0,0-0.1-0.1-0.2-0.1
	c-0.1,0-0.2-0.1-0.2-0.1c-0.1,0-0.1-0.1-0.2-0.1c-0.1,0-0.1-0.1-0.2-0.1c-0.1,0-0.1-0.1-0.2-0.1c-0.1-0.1-0.2-0.2-0.3-0.2
	c0,0-0.1-0.1-0.1-0.1c-0.1,0-0.1-0.1-0.2-0.2c0,0-0.1-0.1-0.1-0.1c-0.1-0.1-0.2-0.2-0.3-0.3c0,0,0,0-0.1-0.1
	c-0.1-0.1-0.1-0.2-0.2-0.3c0,0,0-0.1-0.1-0.1c-0.1-0.1-0.1-0.2-0.2-0.3c0,0,0,0,0-0.1c-0.1-0.1-0.1-0.2-0.2-0.4c0,0,0,0,0,0v0
	c-0.2-0.5-0.3-1-0.3-1.5v0l0,0c0-2.1,0.8-3.9,2.8-5c0.4-0.2,0.9-0.4,1.3-0.5c0,0,0,0,0.1,0c0,0,0,0,0,0c0,0,0.1,0,0.2,0
	c0.4-0.1,0.8-0.1,1.1-0.1s0.7,0,1.1,0.1l0,0c0,0,0,0,0,0c0,0,0.1,0,0.1,0c0.1,0,0.2,0,0.3,0.1h0c0,0,0,0,0,0
	c1.8,0.6,3.6,2.2,3.7,4.2l0,0.4c0.1,0.6-0.1,0.9-0.8,0.9l0,0l0,0c-0.3,0-0.7,0-1,0c-0.3,0-0.7,0-1,0l0,0l0,0c-0.3,0-0.6-0.1-0.7-0.5
	l-0.1-0.3c-0.2-0.8-0.8-1.6-1.9-1.6c-1,0-2,0.6-2,1.7c0,1.1,0.7,1.4,1.6,1.7c0,0,2,0.7,2.6,0.9c2,1,3.1,2.4,3.2,4.3
	c0,0.1,0,0.2,0,0.3c0,0,0,0.1,0,0.1c0,0,0,0.1,0,0.1v0c0,0.8-0.2,1.5-0.5,2.2v0c0,0,0,0.1-0.1,0.2c0,0,0,0.1-0.1,0.1
	c0,0.1-0.1,0.1-0.1,0.2c0,0,0,0.1-0.1,0.1c0,0.1-0.1,0.1-0.1,0.2C354.9,327.2,354.9,327.2,354.8,327.3 M321.7,322.5
	c0-0.7,0-1.5,0-2.3c0-0.7,0-1.6,0-2.3c0-0.4,0-0.9,0-1.3c0-0.2,0-0.4,0-0.5c-0.1-0.7-0.3-1.2-0.5-1.8c-0.8-1.6-2.4-2.7-4.4-2.8
	c-0.1,0-0.3,0-0.4,0l0,0c0,0,0,0,0,0c-0.1,0-0.1,0-0.2,0c-0.1,0-0.4,0-0.6,0h-1.4c-0.8,0-2.2,0-2.2,0c-0.3,0-0.6,0.1-0.7,0.2
	c-0.1,0.1-0.1,0.2-0.2,0.3s0,0.3,0,0.4c0,0.5,0,1,0,1.5c0,0,0,0.1,0,0.2c0,0,0,0.1,0,0.2c0,0.7,0,2.2,0,2.3c0,0,0,0.6,0,0.9
	c0,0.9,0,1.9,0,2.6s0,1.7,0,2.6c0,0.3,0,0.6,0,0.9l0,0c0,0,0,0,0,0.1c0,0.8,0,1.5,0,2.2c0,0,0,0.1,0,0.2s0,0.1,0,0.2
	c0,0.5,0,1.1,0,1.5c0,0.3,0,0.6,0.2,0.7c0.2,0.2,0.4,0.2,0.7,0.2c0,0,1.4,0,2.2,0h1.4c0.2,0,0.4,0,0.6,0c0.1,0,0.1,0,0.2,0
	c0,0,0,0,0,0l0,0c0.1,0,0.3,0,0.4,0c2-0.2,3.5-1.3,4.4-2.8c0.3-0.5,0.5-1.1,0.5-1.8c0-0.1,0-0.2,0-0.5
	C321.7,323.3,321.8,322.9,321.7,322.5 M316.6,325.4C316.5,325.4,316.5,325.4,316.6,325.4c-0.1,0-0.2,0-0.3,0h-1.2
	c-0.6,0-0.7-0.2-0.7-0.7l0-2.3v-2.2V318l0-2.3c0-0.5,0.1-0.7,0.7-0.7h1.2c0.1,0,0.1,0,0.2,0c0,0,0.1,0,0.1,0h0c0,0,0.1,0,0.1,0
	c0,0,0.2,0,0.2,0.1c0,0,0.1,0,0.1,0c0.8,0.3,1.3,1.1,1.3,2.1c0,0.5,0,0.9,0,1.4v3.1c0,0.5,0,0.9,0,1.4c0,1.1-0.5,1.8-1.3,2.1
	c0,0-0.1,0-0.1,0c0,0-0.2,0-0.2,0.1C316.7,325.4,316.6,325.4,316.6,325.4C316.6,325.4,316.6,325.4,316.6,325.4 M284.2,317.7
	C284.2,317.6,284.2,317.6,284.2,317.7c0-0.9,0-1.7-0.2-2.5c-0.7-2.4-2.8-4-5.3-3.9c-2.5,0-4.6,1.5-5.3,3.9c-0.2,0.8-0.2,1.6-0.2,2.5
	c0,0,0,0,0,0c0,0.1,0,0.2,0,0.3v4.6c0,0.9,0,1.9,0.2,2.8c0.7,2.4,2.8,4,5.3,3.9c2.5,0,4.6-1.5,5.3-3.9c0.3-0.9,0.2-1.8,0.2-2.8v-4.6
	C284.2,317.8,284.2,317.8,284.2,317.7 M280.7,317.7c0,0.4,0,0.9,0,1.1v4.6c0,1.2-0.5,2-1.3,2.3c0,0-0.1,0-0.1,0c0,0-0.2,0-0.2,0.1
	c-0.1,0-0.2,0-0.3,0c0,0,0,0,0,0s0,0,0,0c-0.1,0-0.2,0-0.3,0c0,0-0.2,0-0.2-0.1c0,0-0.1,0-0.1,0c-0.8-0.3-1.3-1.1-1.3-2.3v-4.6
	c0-0.2,0-0.7,0-1.1V317c0-1.2,0.8-2,1.9-2c0,0,0.1,0,0.1,0c0,0,0.1,0,0.1,0c1.2,0,1.9,0.8,1.9,2V317.7z M430,320.6
	c0,2.8,0,4.8,0,7.6c0,0.7-0.2,0.9-0.9,0.9c-0.6,0-1.3,0-1.9,0c-0.6,0-0.8-0.2-0.7-0.8c0-2.8,0-4.8,0-7.6c0-2.7,0-5.5,0-8.2
	c0-0.6,0.2-0.9,0.8-0.8c0.6,0,1.3,0,1.9,0c0.7,0,0.8,0.2,0.8,0.8C430,315.2,430,317.9,430,320.6 M366.9,327.3c0,0.1-0.1,0.1-0.1,0.2
	c0,0-0.1,0.1-0.1,0.1c0,0.1-0.1,0.1-0.2,0.2c0,0-0.1,0-0.1,0.1c-0.1,0.1-0.1,0.1-0.2,0.2c0,0,0,0-0.1,0.1c-0.1,0.1-0.2,0.1-0.2,0.2
	c0,0,0,0,0,0c-0.2,0.1-0.4,0.3-0.7,0.4c-0.4,0.2-0.9,0.4-1.3,0.5c0,0,0,0-0.1,0c0,0,0,0,0,0c0,0-0.1,0-0.2,0
	c-0.4,0.1-0.8,0.1-1.1,0.1c-0.4,0-0.7,0-1.1-0.1l0,0c0,0,0,0,0,0c0,0-0.1,0-0.1,0c-0.1,0-0.2,0-0.3-0.1h0c0,0,0,0,0,0
	c-1.8-0.6-3.6-2.2-3.7-4.2l0-0.3c-0.1-0.9,0-1,0.9-1l0,0l0,0c0.2,0,0.5,0,0.7,0c0,0,0,0,0.1,0c0.1,0,0.2,0,0.3,0c0.1,0,0.2,0,0.4,0
	c0.1,0,0.1,0,0.2,0c0.5,0,0.7,0.2,0.9,0.6l0,0.2c0.2,0.8,0.8,1.6,1.9,1.6c1,0,2-0.6,2-1.7c0-1.1-0.7-1.7-1.6-2c0,0-2-0.6-2.6-0.9
	c0,0-0.1-0.1-0.2-0.1c-0.1,0-0.2-0.1-0.2-0.1c-0.1,0-0.1-0.1-0.2-0.1c-0.1,0-0.1-0.1-0.2-0.1c-0.1,0-0.1-0.1-0.2-0.1
	c-0.1-0.1-0.2-0.2-0.3-0.2c0,0-0.1-0.1-0.1-0.1c-0.1,0-0.1-0.1-0.2-0.2c0,0-0.1-0.1-0.1-0.1c-0.1-0.1-0.2-0.2-0.3-0.3
	c0,0,0,0-0.1-0.1c-0.1-0.1-0.1-0.2-0.2-0.3c0,0,0-0.1-0.1-0.1c-0.1-0.1-0.1-0.2-0.2-0.3c0,0,0,0,0-0.1c-0.1-0.1-0.1-0.2-0.2-0.4
	c0,0,0,0,0,0v0c-0.2-0.5-0.3-1-0.3-1.5v0l0,0c0-2.1,0.8-3.9,2.8-5c0.4-0.2,0.9-0.4,1.3-0.5c0,0,0,0,0.1,0c0,0,0,0,0,0
	c0,0,0.1,0,0.2,0c0.4-0.1,0.8-0.1,1.1-0.1s0.7,0,1.1,0.1l0,0c0,0,0,0,0,0c0,0,0.1,0,0.1,0c0.1,0,0.2,0,0.3,0.1h0c0,0,0,0,0,0
	c1.8,0.6,3.6,2.2,3.7,4.2l0,0.4c0.1,0.6-0.1,0.9-0.8,0.9l0,0l0,0c-0.3,0-0.7,0-1,0c-0.3,0-0.7,0-1,0l0,0l0,0c-0.3,0-0.6-0.1-0.7-0.5
	l-0.1-0.3c-0.2-0.8-0.8-1.6-1.9-1.6c-1,0-2,0.6-2,1.7c0,1.1,0.7,1.4,1.6,1.7c0,0,2,0.7,2.6,0.9c2,1,3.1,2.4,3.2,4.3
	c0,0.1,0,0.2,0,0.3c0,0,0,0.1,0,0.1c0,0,0,0.1,0,0.1v0c0,0.8-0.2,1.5-0.5,2.2v0c0,0,0,0.1-0.1,0.2c0,0,0,0.1-0.1,0.1
	c0,0.1-0.1,0.1-0.1,0.2c0,0,0,0.1-0.1,0.1c0,0.1-0.1,0.1-0.1,0.2C366.9,327.2,366.9,327.2,366.9,327.3 M400.7,322.7v-4.6
	c0-0.9,0-1.9-0.2-2.8c-0.7-2.4-2.8-4-5.3-3.9c-2.5,0-4.6,1.5-5.3,3.9c-0.3,0.9-0.2,1.8-0.2,2.8v4.6c0,0.1,0,0.2,0,0.3c0,0,0,0,0,0
	c0,0.8,0,1.6,0.2,2.5c0.7,2.4,2.8,4,5.3,3.9c2.5,0,4.6-1.5,5.3-3.9c0.2-0.8,0.2-1.6,0.2-2.5c0,0,0,0,0,0
	C400.7,322.8,400.7,322.8,400.7,322.7 M397.2,323.6c0,1.2-0.8,2-1.9,2c0,0-0.1,0-0.1,0c0,0-0.1,0-0.1,0c-1.2,0-1.9-0.8-1.9-2v-0.7
	c0-0.4,0-0.9,0-1.1v-4.6c0-1.2,0.5-1.9,1.3-2.3c0,0,0.1,0,0.1,0c0,0,0.2,0,0.2-0.1c0.1,0,0.2,0,0.3,0c0,0,0,0,0,0s0,0,0,0
	c0.1,0,0.2,0,0.3,0c0,0,0.2,0,0.2,0.1c0,0,0.1,0,0.1,0c0.8,0.3,1.3,1.1,1.3,2.3v4.6c0,0.2,0,0.7,0,1.1V323.6z M411.8,327.3
	c0,0.1-0.1,0.1-0.1,0.2c0,0-0.1,0.1-0.1,0.1c0,0.1-0.1,0.1-0.2,0.2c0,0-0.1,0-0.1,0.1c-0.1,0.1-0.1,0.1-0.2,0.2c0,0,0,0-0.1,0.1
	c-0.1,0.1-0.2,0.1-0.2,0.2c0,0,0,0,0,0c-0.2,0.1-0.4,0.3-0.7,0.4c-0.4,0.2-0.9,0.4-1.3,0.5c0,0,0,0-0.1,0c0,0,0,0,0,0
	c0,0-0.1,0-0.2,0c-0.4,0.1-0.8,0.1-1.1,0.1s-0.7,0-1.1-0.1l0,0c0,0,0,0,0,0c0,0-0.1,0-0.1,0c-0.1,0-0.2,0-0.3-0.1h0c0,0,0,0,0,0
	c-1.8-0.6-3.6-2.2-3.7-4.2l0-0.3c-0.1-0.9,0-1,0.9-1l0,0l0,0c0.2,0,0.5,0,0.7,0c0,0,0,0,0.1,0c0.1,0,0.2,0,0.3,0c0.1,0,0.2,0,0.4,0
	c0.1,0,0.1,0,0.2,0c0.5,0,0.7,0.2,0.9,0.6l0,0.2c0.2,0.8,0.8,1.6,1.9,1.6c1,0,2-0.6,2-1.7c0-1.1-0.7-1.7-1.6-2c0,0-2-0.6-2.6-0.9
	c0,0-0.1-0.1-0.2-0.1c-0.1,0-0.2-0.1-0.2-0.1c-0.1,0-0.1-0.1-0.2-0.1c-0.1,0-0.1-0.1-0.2-0.1c-0.1,0-0.1-0.1-0.2-0.1
	c-0.1-0.1-0.2-0.2-0.3-0.2c0,0-0.1-0.1-0.1-0.1c-0.1,0-0.1-0.1-0.2-0.2c0,0-0.1-0.1-0.1-0.1c-0.1-0.1-0.2-0.2-0.3-0.3
	c0,0,0,0-0.1-0.1c-0.1-0.1-0.1-0.2-0.2-0.3c0,0,0-0.1-0.1-0.1c-0.1-0.1-0.1-0.2-0.2-0.3c0,0,0,0,0-0.1c-0.1-0.1-0.1-0.2-0.2-0.4
	c0,0,0,0,0,0v0c-0.2-0.5-0.3-1-0.3-1.5v0l0,0c0-2.1,0.8-3.9,2.8-5c0.4-0.2,0.9-0.4,1.3-0.5c0,0,0,0,0.1,0c0,0,0,0,0,0
	c0,0,0.1,0,0.2,0c0.4-0.1,0.8-0.1,1.1-0.1s0.7,0,1.1,0.1l0,0c0,0,0,0,0,0c0,0,0.1,0,0.1,0c0.1,0,0.2,0,0.3,0.1h0c0,0,0,0,0,0
	c1.8,0.6,3.6,2.2,3.7,4.2l0,0.4c0.1,0.6-0.1,0.9-0.8,0.9l0,0l0,0c-0.3,0-0.7,0-1,0c-0.3,0-0.7,0-1,0l0,0l0,0c-0.3,0-0.6-0.1-0.7-0.5
	l-0.1-0.3c-0.2-0.8-0.8-1.6-1.9-1.6c-1,0-2,0.6-2,1.7c0,1.1,0.7,1.4,1.6,1.7c0,0,2,0.7,2.6,0.9c2,1,3.1,2.4,3.2,4.3
	c0,0.1,0,0.2,0,0.3c0,0,0,0.1,0,0.1c0,0,0,0.1,0,0.1v0c0,0.8-0.2,1.5-0.5,2.2v0c0,0,0,0.1-0.1,0.2c0,0,0,0.1-0.1,0.1
	c0,0.1-0.1,0.1-0.1,0.2c0,0,0,0.1-0.1,0.1c0,0.1-0.1,0.1-0.1,0.2C411.9,327.2,411.8,327.2,411.8,327.3 M423.8,327.3
	c0,0.1-0.1,0.1-0.1,0.2c0,0-0.1,0.1-0.1,0.1c0,0.1-0.1,0.1-0.2,0.2c0,0-0.1,0-0.1,0.1c-0.1,0.1-0.1,0.1-0.2,0.2c0,0,0,0-0.1,0.1
	c-0.1,0.1-0.2,0.1-0.2,0.2c0,0,0,0,0,0c-0.2,0.1-0.4,0.3-0.7,0.4c-0.4,0.2-0.9,0.4-1.3,0.5c0,0,0,0-0.1,0c0,0,0,0,0,0
	c0,0-0.1,0-0.2,0c-0.4,0.1-0.8,0.1-1.1,0.1s-0.7,0-1.1-0.1l0,0c0,0,0,0,0,0c0,0-0.1,0-0.1,0c-0.1,0-0.2,0-0.3-0.1h0c0,0,0,0,0,0
	c-1.8-0.6-3.6-2.2-3.7-4.2l0-0.3c-0.1-0.9,0-1,0.9-1l0,0l0,0c0.2,0,0.5,0,0.7,0c0,0,0,0,0.1,0c0.1,0,0.2,0,0.3,0c0.1,0,0.2,0,0.4,0
	c0.1,0,0.1,0,0.2,0c0.5,0,0.7,0.2,0.9,0.6l0,0.2c0.2,0.8,0.8,1.6,1.9,1.6c1,0,2-0.6,2-1.7c0-1.1-0.7-1.7-1.6-2c0,0-2-0.6-2.6-0.9
	c0,0-0.1-0.1-0.2-0.1c-0.1,0-0.2-0.1-0.2-0.1c-0.1,0-0.1-0.1-0.2-0.1c-0.1,0-0.1-0.1-0.2-0.1c-0.1,0-0.1-0.1-0.2-0.1
	c-0.1-0.1-0.2-0.2-0.3-0.2c0,0-0.1-0.1-0.1-0.1c-0.1,0-0.1-0.1-0.2-0.2c0,0-0.1-0.1-0.1-0.1c-0.1-0.1-0.2-0.2-0.3-0.3
	c0,0,0,0-0.1-0.1c-0.1-0.1-0.1-0.2-0.2-0.3c0,0,0-0.1-0.1-0.1c-0.1-0.1-0.1-0.2-0.2-0.3c0,0,0,0,0-0.1c-0.1-0.1-0.1-0.2-0.2-0.4
	c0,0,0,0,0,0v0c-0.2-0.5-0.3-1-0.3-1.5v0l0,0c0-2.1,0.8-3.9,2.8-5c0.4-0.2,0.9-0.4,1.3-0.5c0,0,0,0,0.1,0c0,0,0,0,0,0
	c0,0,0.1,0,0.2,0c0.4-0.1,0.8-0.1,1.1-0.1s0.7,0,1.1,0.1l0,0c0,0,0,0,0,0c0,0,0.1,0,0.1,0c0.1,0,0.2,0,0.3,0.1h0c0,0,0,0,0,0
	c1.8,0.6,3.6,2.2,3.7,4.2l0,0.4c0.1,0.6-0.1,0.9-0.8,0.9l0,0l0,0c-0.3,0-0.7,0-1,0c-0.3,0-0.7,0-1,0l0,0l0,0c-0.3,0-0.6-0.1-0.7-0.5
	l-0.1-0.3c-0.2-0.8-0.8-1.6-1.9-1.6c-1,0-2,0.6-2,1.7c0,1.1,0.7,1.4,1.6,1.7c0,0,2,0.7,2.6,0.9c2,1,3.1,2.4,3.2,4.3
	c0,0.1,0,0.2,0,0.3c0,0,0,0.1,0,0.1c0,0,0,0.1,0,0.1v0c0,0.8-0.2,1.5-0.5,2.2v0c0,0,0,0.1-0.1,0.2c0,0,0,0.1-0.1,0.1
	c0,0.1-0.1,0.1-0.1,0.2c0,0,0,0.1-0.1,0.1c0,0.1-0.1,0.1-0.1,0.2C423.9,327.2,423.9,327.2,423.8,327.3 M441.1,320.2L441.1,320.2
	c0.7-1,1.1-2.2,1.1-3.6c-0.3-2.8-2.2-4.9-5.2-4.9c0,0-1.4,0-2.2,0c-0.8,0-2.2,0-2.2,0c-0.7,0-1,0.3-1,1c0,0,0,12.5,0,15.4l0,0l0,0v0
	l0,0c0,0.7,0.3,1,1,1c0,0,1.4,0,2.2,0c0.8,0,2.6,0,2.6,0c2.9,0,4.9-2,5.2-4.8c0-0.1,0-0.2,0-0.3c0-1.5-0.5-2.7-1.3-3.6
	C441.2,320.3,441.1,320.2,441.1,320.2 M435.1,315.9c0-0.5,0.1-0.7,0.7-0.7c0.3,0,0.7,0,1.3,0c0.9,0,1.7,0.8,1.7,1.7
	c0,1-0.8,1.7-1.7,1.7h-0.9h-0.2c-0.1,0-0.5,0-0.6,0c-0.2-0.1-0.3-0.2-0.3-0.5C435,318.1,435.1,316,435.1,315.9 M437.3,325.6
	c-0.5,0-1.3,0-1.6,0c-0.4,0-0.6-0.1-0.7-0.3c0-0.2,0-0.3,0-0.3c0-0.5,0-2,0-2c0-0.5,0.1-0.7,0.7-0.7c0,0,0.4,0,0.7,0c0.4,0,1,0,1,0
	c0.7,0,1.3,0.5,1.6,1.2c0,0,0,0,0,0l0,0c0,0.1,0.1,0.3,0.1,0.5C439,324.8,438.3,325.6,437.3,325.6 M463.3,325.5
	c0.7,0,0.9,0.2,0.9,0.9c0,0.6,0,1.3,0,1.9c0,0.6-0.2,0.7-0.8,0.7c-0.1,0-0.1,0-0.1,0c-1.1,0-3.5,0-4.1,0c-0.7,0-3.9,0-3.9,0
	c-0.5,0-0.6-0.2-0.6-0.7c0-0.7,0-1.1,0-1.6l0,0c0-0.1,0-8.6,0-8.6c0-1.9,0-3.8,0-5.8c0-0.5,0.1-0.7,0.6-0.7c0,0,5.1,0,8.2,0
	c0.5,0,0.8,0.1,0.7,0.7c0,0.7,0,1.4,0,2.1c0,0.6-0.2,0.7-0.7,0.7c-1.8,0-2.6,0-4.5,0c-0.8,0-0.9,0.1-0.9,0.9v1.7
	c0,0.5,0.1,0.8,0.7,0.7h1.6c0.5,0,1,0,1.6,0c0.5,0,0.8,0.2,0.8,0.7c0,0.7,0,1.4,0,2.1c0,0.5-0.2,0.7-0.7,0.7c-0.5,0-0.9,0-1.4,0
	h-1.8c0,0,0,0,0,0c-0.5,0-0.6,0.3-0.6,0.7v0.1c0,0.4,0,0.8,0,1c0,0,0,0,0,0.1v0.7c0,0,0,0,0,0.1v0c0,0.5,0.1,0.8,0.7,0.7
	c0.1,0,0.2,0,0.2,0h0.4C460.5,325.5,461.9,325.5,463.3,325.5 M342.9,325.3c0.7,0,0.9,0.2,0.9,0.9c0,0.6,0,1.3,0,1.9
	c0,0.6-0.2,0.7-0.8,0.7c-0.1,0-0.1,0-0.1,0c-1.1,0-3.5,0-4.1,0c-0.7,0-3.9,0-3.9,0c-0.5,0-0.6-0.2-0.6-0.7c0-0.7,0-1.1,0-1.6l0,0
	c0-0.1,0-8.6,0-8.6c0-1.9,0-3.8,0-5.8c0-0.5,0.1-0.7,0.6-0.7c0,0,5.1,0,8.2,0c0.5,0,0.8,0.1,0.7,0.7c0,0.7,0,1.4,0,2.1
	c0,0.6-0.2,0.7-0.7,0.7c-1.8,0-2.6,0-4.5,0c-0.8,0-0.9,0.1-0.9,0.9v1.7c0,0.5,0.1,0.8,0.7,0.7h1.6c0.5,0,1,0,1.6,0
	c0.5,0,0.8,0.2,0.8,0.7c0,0.7,0,1.4,0,2.1c0,0.5-0.2,0.7-0.7,0.7c-0.5,0-0.9,0-1.4,0h-1.8c0,0,0,0,0,0c-0.5,0-0.6,0.3-0.6,0.7v0.1
	c0,0.4,0,0.8,0,1c0,0,0,0,0,0.1v0.7c0,0,0,0,0,0.1v0c0,0.5,0.1,0.8,0.7,0.7c0.1,0,0.2,0,0.2,0h0.4
	C340.2,325.3,341.6,325.3,342.9,325.3 M332.1,325.3c0.7,0,0.9,0.2,0.9,0.9c0,0.6,0,1.3,0,1.9c0,0.5-0.1,0.7-0.6,0.7
	c-0.1,0-0.2,0-0.4,0c-3.1,0-8,0-8,0c-0.4,0-0.6-0.1-0.6-0.5c0,0,0-0.1,0-0.2c0-0.7,0-1.1,0-1.6l0,0c0-0.1,0-8.6,0-8.6
	c0-0.2,0-0.3,0-0.5v-2.6c0-0.9,0-1.7,0-2.6v0c0-0.5,0.1-0.7,0.6-0.7l0,0c0,0,0.1,0,0.1,0c0.7,0,1.4,0,2,0c0.5,0,0.7,0.2,0.7,0.7
	c0,0.9,0,5.1,0,5.7v5l0,1.1c0,0,0,0,0,0.1v0.3c0,0,0,0,0,0.1v0c0,0.5,0.1,0.8,0.7,0.7c0.1,0,0.2,0,0.2,0h0.4
	C329.4,325.3,330.8,325.3,332.1,325.3 M383.2,311.8c0,0-1.5,0-2.4,0c-0.8,0-2.2,0-2.2,0c-0.7,0-1,0.3-1,1c0,2.4,0,5.1,0,5.9v4.2l0,0
	c0,2,0,4.2,0,5.4c0,0.3,0,0.5,0.2,0.6c0.1,0.1,0.3,0.1,0.6,0.1c0.7,0,1.4,0,2,0c0.3,0,0.5,0,0.6-0.1c0.1-0.1,0.2-0.3,0.2-0.7
	c0-2.4,0-2.2,0-4.5v-0.8c0-0.5,0.2-0.7,0.7-0.7c0.3,0,0.5,0,0.8,0c3.4,0,5.8-2.2,5.8-4.9C388.4,314.1,386.4,311.8,383.2,311.8
	 M383.3,318.7c0,0-0.4,0-0.8,0s-0.7,0-0.7,0c0,0-0.1,0-0.2,0c0,0,0,0-0.1,0h0l0,0c0,0,0,0,0,0c-0.2,0-0.4-0.3-0.4-0.5l0,0v-1.4l0,0
	c0-0.3,0-0.5,0-0.7c0-0.5,0.1-0.7,0.7-0.7c0.3,0,0.9,0,1.4,0c0.9,0,1.7,0.8,1.7,1.7C385,317.9,384.2,318.7,383.3,318.7 M452.4,325.5
	c0.7,0,0.9,0.2,0.9,0.9c0,0.6,0,1.3,0,1.9c0,0.5-0.1,0.7-0.6,0.7c-0.1,0-0.2,0-0.4,0c-3.1,0-8,0-8,0c-0.4,0-0.6-0.1-0.6-0.5
	c0,0,0-0.1,0-0.2c0-0.7,0-1.1,0-1.6l0,0c0-0.1,0-8.6,0-8.6c0-0.2,0-0.3,0-0.5v-2.6c0-0.9,0-1.7,0-2.6v0c0-0.5,0.1-0.7,0.6-0.7l0,0
	c0,0,0.1,0,0.1,0c0.7,0,1.4,0,2,0c0.5,0,0.7,0.2,0.7,0.7c0,0.9,0,5.1,0,5.7v5l0,1.1c0,0,0,0,0,0.1v0.3c0,0,0,0,0,0.1v0
	c0,0.5,0.1,0.8,0.7,0.7c0.1,0,0.2,0,0.2,0h0.4C449.7,325.5,451.1,325.5,452.4,325.5 M312.4,296.6
	C312.4,296.5,312.4,296.5,312.4,296.6c0-1.1-0.2-1.6-1.2-1.7h-0.5c-1.4,0-2.8,0-4.2,0h-0.4c-1,0-1.3,0.6-1.3,1.6c0,0,0,0.1,0,0.1
	c0,2.7,0,6-0.1,8.9c0,1.5,0.6,2.1,2.1,2.1c0,0,1.7,0,4,0c0.8,0,1.4-0.6,1.4-1.4c0-3.5,0-5.5,0-7.6
	C312.4,298.2,312.4,297.4,312.4,296.6z M327.9,306.2c-0.9-2.4-1.8-4.8-2.7-7.2c-0.9-2.3-1.7-4.7-2.6-7c0,0,0-0.1-0.1-0.1
	c-0.1-0.4-0.1-0.6,0-0.8c3-2,4.8-5.6,4.8-10.1c-0.6-6-4.7-10.4-11-10.4c0,0-2.9,0-4.7,0s-4.7,0-4.7,0c-1.5,0-2.1,0.7-2.1,2.1
	c0,0.6,0,4.7,0.1,9l0,0c0,1,0.2,1.5,1.1,1.6h0.5c1.4,0,2.8,0,4.1,0h0.4c0.9,0,1.3-0.6,1.3-1.6c0,0,0-0.1,0-0.1c0-0.8,0-1.6,0-2
	c-0.1-1.1,0.2-1.5,1.4-1.5c0.7,0,1.6,0,2.7,0c2,0,3.6,1.7,3.6,3.7c0,2.2-1.5,3.4-3.6,3.4h-2.4c-0.1,0-0.4,0-0.6,0h-6.9
	c-1.3,0-1.8,0.7-1.7,2c0.1,1.3,0.1,2.5,0,3.8c-0.2,1.6,0.6,2,2,2c0,0,0,0,0,0h5.6c0.6,0,1.7,0.2,2,1l0,0c0.1,0.3,0.2,0.5,0.3,0.8
	l0,0c1.1,2.6,2.8,6.9,3.6,9.6c1,3.2,2,3.8,4.7,3.5c0.8-0.1,2,0,3.1,0h0.5c0.6,0,1-0.1,1.2-0.4c0.1-0.1,0.1-0.2,0.1-0.4
	C328,306.7,328,306.4,327.9,306.2z M-2.4,268.8l-11-19.1v19.1h-4.9v-26.2h5.5l10.8,19.1v-19.1H3v26.2H-2.4z M19.9,246.8
	c-5,0-8.9,3.8-8.9,8.9c0,5,3.9,8.9,8.9,8.9s8.6-3.8,8.6-8.8C28.6,250.7,24.8,246.8,19.9,246.8 M20,269.3c-7.7,0-13.8-6-13.8-13.5
	c0-7.7,6-13.6,13.8-13.6c7.5,0,13.5,6.1,13.5,13.5C33.5,263.4,27.6,269.3,20,269.3 M43.8,247.3h-2.2v7.9H44c3.8,0,5.3-1.2,5.3-4
	C49.4,248.8,48.4,247.3,43.8,247.3 M48.5,268.8l-6.9-10v10h-4.9v-26.2h7.5c3.6,0,5.5,0.5,7.2,2c1.8,1.5,2.8,3.8,2.8,6.5
	c0,4.1-2.1,6.9-6.8,8.1l7.1,9.7H48.5L48.5,268.8z M64.7,247.3v21.6h-4.8v-21.6H55v-4.6h14.6v4.6H64.7z M85.8,268.8v-11h-9.3v11h-4.9
	v-26.2h4.9v10.6h9.3v-10.6h4.9v26.2H85.8z M95.1,268.8v-26.2h14.1v4.6H100v6.2h8.8v4.6H100v6.1h9.2v4.6H95.1z M120.1,247.3h-2.2v7.9
	h2.4c3.8,0,5.3-1.2,5.3-4C125.6,248.8,124.7,247.3,120.1,247.3 M124.8,268.8l-6.9-10v10H113v-26.2h7.5c3.6,0,5.5,0.5,7.2,2
	c1.8,1.5,2.8,3.8,2.8,6.5c0,4.1-2.1,6.9-6.8,8.1l7.1,9.7H124.8L124.8,268.8z M148.8,268.8l-10.9-19.1v19.1H133v-26.2h5.5l10.8,19.1
	v-19.1h4.9v26.2H148.8z M-11.1,278.1v20.6h-4.6v-20.6h-4.6v-4.4h13.9v4.4H-11.1z M-4,298.7v-25H9.5v4.4H0.7v5.9h8.4v4.4H0.7v5.8h8.8
	v4.4H-4z M19.1,278.1h-2v7.5h2.3c3.6,0,5.1-1.2,5.1-3.8C24.5,279.6,23.5,278.1,19.1,278.1 M23.6,298.7l-6.6-9.6v9.6h-4.6v-25h7.2
	c3.4,0,5.2,0.5,6.8,1.9c1.7,1.4,2.6,3.6,2.6,6.1c0,3.9-2,6.6-6.5,7.8l6.8,9.2L23.6,298.7L23.6,298.7z M38.3,278.1h-2.1v7.5h2.3
	c3.6,0,5.1-1.2,5.1-3.8C43.6,279.6,42.7,278.1,38.3,278.1 M42.8,298.7l-6.6-9.6v9.6h-4.6v-25h7.2c3.4,0,5.2,0.5,6.8,1.9
	c1.7,1.4,2.6,3.6,2.6,6.1c0,3.9-2,6.6-6.5,7.8l6.8,9.2L42.8,298.7L42.8,298.7z M50.7,273.7h4.6v25h-4.6V273.7z M66.9,278.1v20.6
	h-4.6v-20.6h-4.6v-4.4h13.9v4.4H66.9z M84.5,277.7c-4.8,0-8.5,3.7-8.5,8.5c0,4.7,3.7,8.5,8.5,8.5c4.7,0,8.3-3.6,8.3-8.4
	C92.7,281.4,89.1,277.7,84.5,277.7 M84.5,299.1c-7.3,0-13.2-5.7-13.2-12.9c0-7.3,5.8-13,13.2-13c7.1,0,12.9,5.8,12.9,12.9
	C97.4,293.4,91.8,299.1,84.5,299.1 M106.6,278.1h-2.1v7.5h2.3c3.6,0,5.1-1.2,5.1-3.8C111.9,279.6,111,278.1,106.6,278.1
	 M111.1,298.7l-6.6-9.6v9.6h-4.6v-25h7.2c3.4,0,5.2,0.5,6.8,1.9c1.7,1.4,2.6,3.6,2.6,6.1c0,3.9-2,6.6-6.5,7.8l6.8,9.2H111.1z
	 M129.2,289.4v9.2h-4.6v-9.2l-8.2-15.8h5l5.5,11.5l5.5-11.5h5L129.2,289.4z M-10.9,318.9c-4.9,0-8.7-3.6-8.7-8.3
	c0-4.6,3.7-8.3,8.5-8.3c3.5,0,6.5,1.8,7.6,4.6h-1.8c-1.1-2-3.2-3.1-5.7-3.1c-4,0-7,3-7,6.8c0,3.8,3.1,6.8,7,6.8
	c3.2,0,5.9-2.2,6.5-4.7h-9v-1.4h10.9C-2.9,315.3-6.3,318.9-10.9,318.9 M7.7,303.8c-3.7,0-6.9,3.1-6.9,6.8c0,3.8,3.1,6.9,6.9,6.9
	c3.7,0,6.8-3.1,6.8-6.8C14.5,306.9,11.4,303.8,7.7,303.8 M7.7,318.9c-4.7,0-8.5-3.7-8.5-8.4c0-4.5,3.9-8.2,8.5-8.2
	c4.6,0,8.5,3.7,8.5,8.3C16.2,315.2,12.3,318.9,7.7,318.9 M24.6,318.6h-1.5l-6.6-16h1.8l5.6,14l5.7-14h1.7L24.6,318.6z M33.1,318.6
	v-16h8.8v1.5h-7.2v5.7h6.9v1.5h-6.9v5.9h7.2v1.5H33.1z M50.9,312.6l4.5,6h-2l-5.4-7.3c4.5,0,6-0.8,6-3.7c0-2.7-1.6-3.6-5.4-3.6h-2.3
	v14.6h-1.6v-16h4c5,0,6.9,1.8,6.9,5.2C55.6,310.6,54,312.3,50.9,312.6 M69,318.6l-9.5-14.1v14.1h-1.6v-16h2.2l9,13.3v-13.3h1.6v16
	H69z M89,318.6v-14.3l-6,14.3h-1.4l-6-14.3v14.3H74v-16h2.5l5.8,13.7l5.8-13.7h2.5v16H89z M93.9,318.6v-16h8.7v1.5h-7.2v5.7h6.9v1.5
	h-6.9v5.9h7.2v1.5H93.9z M116.6,318.6l-9.6-14.1v14.1h-1.6v-16h2.2l9,13.3v-13.3h1.6v16H116.6z M125.3,304.1v14.6h-1.6v-14.6H120
	v-1.5h8.9v1.5H125.3z M-65.2,256.2c-0.6,3.2-4.7,11.5-1.4,15.7c3.6,4.6,12.1,2,15.4,2.2l-0.4,0.1c-2.8,1.6-11.7,3.4-12.9,8.7
	c-1.3,5.7,6.1,10.9,7.9,13.7l-0.4-0.3c-2.9-1.3-9.9-7.2-14.7-4.9c-5.2,2.5-4.5,11.6-5.5,14.8l0-0.5c-0.8-3.2-0.7-12.4-5.4-14.8
	c-5.2-2.6-11.7,3.6-14.8,4.8l0.3-0.3c1.9-2.6,9.1-8.3,7.9-13.6c-1.3-5.7-10.1-7.1-13-8.8l0.5,0.1c3.2-0.1,12,2.1,15.3-2.1
	c3.6-4.6-0.8-12.5-1.3-15.8l0.2,0.4c2.1,2.5,5.9,11,11.1,11c5.7,0,9-8.5,11.3-11L-65.2,256.2z M203.2,229.4h1.9v99.4h-1.9V229.4z"/>
</svg>
