<?xml version="1.0" encoding="utf-8"?>
<!-- Generator: Adobe Illustrator 19.2.1, SVG Export Plug-In . SVG Version: 6.00 Build 0)  -->
<svg version="1.1" id="layer" xmlns="http://www.w3.org/2000/svg" xmlns:xlink="http://www.w3.org/1999/xlink" x="0px" y="0px"
	 viewBox="0 0 652 652" style="enable-background:new 0 0 652 652;" xml:space="preserve">
<style type="text/css">
	.st0{fill:#231815;}
	.st1{fill:#CABB15;}
	.st2{fill:#004C94;}
</style>
<g>
	<path class="st0" d="M337.2,322.9c13.6,4.8,19.7,5.6,38.9,3.9c-9.8,4.9-5.9,12.6-21.6,10.7C339.9,335.8,344.5,330.6,337.2,322.9"/>
	<path class="st1" d="M224.8,170.4c0,0-1.4-9.9-26.5-41.2c36.4,13,44.8,18.6,66.6,37.1C246,166.2,224.8,170.4,224.8,170.4"/>
	<path class="st1" d="M449.2,171.2c0,0,8.8-38.2,39.5-73.4c-36,15.8-54.4,46.7-62.3,68.6C438.7,169.9,449.2,171.2,449.2,171.2"/>
	<path class="st0" d="M334.7,232.8c1.1,0.7,2.7,1.2,3.1,2.6l-0.2,0.3c2,7.6,3.6,16.1,2.8,24.6c-0.2,0.2-0.6,0.3-0.7,0.1
		c-11.4-14.4-22.6-24.2-35.2-30.4c-0.3-0.1,0.4-0.7,0.7-0.7l5.4-1C318.9,228,327.4,229.5,334.7,232.8"/>
	<path class="st0" d="M374.8,232.8c-1.1,0.7-2.7,1.2-3.1,2.6l0.2,0.3c-2,7.6-3.6,16.1-2.8,24.6c0.2,0.2,0.6,0.3,0.7,0.1
		c11.4-14.4,22.6-24.2,35.2-30.4c0.3-0.1-0.4-0.7-0.7-0.7l-5.4-1C390.6,228,382.1,229.5,374.8,232.8"/>
	<path class="st1" d="M276.7,203.4c0,0,39.9,64.4,46,113.8c-79.1-12-120.3-0.9-158.7,40.5c-7.7-38.6-3.8-68.9,0.9-87.4
		c20.1,12.3,39.3,30.3,39.3,30.3s-19.8-42.3-38.3-62.3c6.6-21.7,21.7-40.5,21.7-40.5s37.6,18.2,58.5,59.4
		c-4.6-40.1-17.3-77.4-17.3-77.4S244.6,191.6,276.7,203.4"/>
	<path class="st2" d="M166.7,368.6c0,0,21.8-28.5,65.3-32.7c75.2-7.3,167.1,81.5,252.7-29.8c-4.6,54-58.3,109.7-150.5,84
		c-49.5-13.8-69.4-35.7-107.8-36C190.1,354,166.7,368.6,166.7,368.6"/>
	<path class="st1" d="M445.7,188.3c-8.2,2.1-27.2,16.6-27.2,16.6s-7,16.7-16.7,55.3c-8.5,33.9-14.4,65.1-14.4,65.1s60.9-2.7,88.1-30
		c-12.3-20.2,0.9-63.2,14-79.9c-26.3,9.7-48.3,46.5-48.3,46.5S431.6,218.1,445.7,188.3"/>
	<path class="st0" d="M291.6,151c0,0,19.5-21.6,57.1-23.1c40.2-1.7,49.4,7.7,49.4,7.7s-14.9-30.3-29.8-32.4
		c-16.9-2.3-32.3,3.7-43.7,10.3C312.2,120.6,300.9,128.3,291.6,151"/>
	<path class="st0" d="M291.8,71.8c0,0,25.1-1.5,48.7,6.2c-36.5,7.2-65.7,38.7-76.5,68.9C263.5,122.3,258.3,92.3,291.8,71.8"/>
	<polygon class="st0" points="140.1,419.5 116.5,419.5 116.5,477.7 107.7,477.7 107.7,419.5 84.1,419.5 84.1,411.7 140.1,411.7 	"/>
	<path class="st0" d="M176.3,477.7H168v-5.3c-0.7,0.5-1.7,1.2-3,2.1c-1.3,0.9-2.5,1.6-3.7,2.1c-1.4,0.7-3,1.2-4.8,1.7
		c-1.8,0.5-3.9,0.7-6.3,0.7c-4.5,0-8.2-1.5-11.3-4.4c-3.1-3-4.7-6.7-4.7-11.3c0-3.8,0.8-6.8,2.4-9.1c1.6-2.3,3.9-4.1,6.9-5.5
		c3-1.3,6.6-2.2,10.9-2.7c4.2-0.5,8.8-0.8,13.6-1.1v-1.3c0-1.9-0.3-3.5-1-4.7s-1.6-2.2-2.9-2.9c-1.2-0.7-2.6-1.1-4.3-1.4
		c-1.7-0.2-3.4-0.4-5.2-0.4c-2.2,0-4.6,0.3-7.3,0.9c-2.7,0.6-5.5,1.4-8.3,2.5h-0.4v-8.5c1.6-0.4,4-0.9,7-1.5
		c3.1-0.5,6.1-0.8,9.1-0.8c3.5,0,6.5,0.3,9.1,0.9c2.6,0.6,4.8,1.6,6.7,2.9c1.9,1.4,3.3,3.1,4.3,5.3c1,2.2,1.5,4.8,1.5,8V477.7z
		 M168,465.5v-13.8c-2.5,0.2-5.5,0.4-9,0.7c-3.4,0.3-6.2,0.7-8.2,1.3c-2.4,0.7-4.3,1.7-5.8,3.2c-1.5,1.4-2.2,3.4-2.2,5.9
		c0,2.8,0.9,5,2.6,6.4c1.7,1.4,4.3,2.2,7.8,2.2c2.9,0,5.6-0.6,8-1.7C163.7,468.5,166,467.1,168,465.5"/>
	<path class="st0" d="M226.1,463.4c0,4.5-1.9,8.2-5.6,11.1c-3.7,2.9-8.8,4.3-15.3,4.3c-3.7,0-7-0.4-10.1-1.3
		c-3.1-0.9-5.6-1.8-7.7-2.9v-9.4h0.4c2.6,2,5.6,3.6,8.8,4.7c3.2,1.2,6.3,1.8,9.3,1.8c3.7,0,6.5-0.6,8.6-1.8c2.1-1.2,3.1-3,3.1-5.6
		c0-2-0.6-3.4-1.7-4.4c-1.1-1-3.3-1.9-6.5-2.6c-1.2-0.3-2.7-0.6-4.6-0.9c-1.9-0.4-3.6-0.7-5.2-1.2c-4.3-1.2-7.4-2.8-9.2-5.1
		c-1.8-2.2-2.7-5-2.7-8.2c0-2,0.4-4,1.3-5.8c0.8-1.8,2.1-3.4,3.8-4.8c1.7-1.4,3.8-2.5,6.3-3.3c2.6-0.8,5.4-1.2,8.6-1.2
		c3,0,5.9,0.4,9,1.1c3,0.7,5.5,1.6,7.6,2.6v8.9h-0.4c-2.1-1.6-4.7-2.9-7.8-4c-3-1.1-6-1.6-9-1.6c-3,0-5.6,0.6-7.7,1.8
		c-2.1,1.2-3.2,2.9-3.2,5.2c0,2,0.6,3.6,1.9,4.6c1.2,1,3.3,1.9,6,2.5c1.5,0.4,3.3,0.7,5.2,1.1c1.9,0.4,3.5,0.7,4.8,1
		c3.9,0.9,6.9,2.4,9,4.6C225.1,456.9,226.1,459.8,226.1,463.4"/>
	<path class="st0" d="M308.8,477.7h-8.3v-28.2c0-2.1-0.1-4.2-0.3-6.2c-0.2-2-0.6-3.6-1.2-4.7c-0.7-1.3-1.7-2.2-2.9-2.9
		c-1.3-0.7-3.1-1-5.5-1c-2.3,0-4.7,0.6-7,1.8c-2.3,1.2-4.7,2.7-7,4.5c0.1,0.7,0.2,1.5,0.2,2.4c0.1,0.9,0.1,1.8,0.1,2.7v31.7h-8.3
		v-28.2c0-2.2-0.1-4.3-0.3-6.2c-0.2-2-0.6-3.5-1.2-4.7c-0.7-1.3-1.7-2.2-2.9-2.9c-1.3-0.6-3.1-1-5.5-1c-2.3,0-4.6,0.6-6.8,1.7
		c-2.3,1.1-4.6,2.6-6.8,4.3v37h-8.3v-49.5h8.3v5.5c2.6-2.2,5.2-3.8,7.8-5.1c2.6-1.2,5.3-1.8,8.3-1.8c3.4,0,6.2,0.7,8.6,2.1
		c2.3,1.4,4.1,3.4,5.3,5.9c3.4-2.8,6.4-4.9,9.2-6.1c2.8-1.3,5.8-1.9,8.9-1.9c5.4,0,9.4,1.6,12,4.9c2.6,3.3,3.9,7.9,3.9,13.8V477.7z"
		/>
	<path class="st0" d="M360.8,477.7h-8.3v-5.3c-0.7,0.5-1.7,1.2-3,2.1c-1.3,0.9-2.5,1.6-3.7,2.1c-1.4,0.7-3,1.2-4.8,1.7
		c-1.8,0.5-3.9,0.7-6.3,0.7c-4.5,0-8.2-1.5-11.3-4.4c-3.1-3-4.7-6.7-4.7-11.3c0-3.8,0.8-6.8,2.4-9.1c1.6-2.3,3.9-4.1,6.9-5.5
		c3-1.3,6.6-2.2,10.9-2.7c4.2-0.5,8.8-0.8,13.6-1.1v-1.3c0-1.9-0.3-3.5-1-4.7c-0.7-1.2-1.6-2.2-2.9-2.9c-1.2-0.7-2.6-1.1-4.3-1.4
		c-1.7-0.2-3.4-0.4-5.2-0.4c-2.2,0-4.6,0.3-7.3,0.9c-2.7,0.6-5.5,1.4-8.3,2.5h-0.4v-8.5c1.6-0.4,4-0.9,7-1.5
		c3.1-0.5,6.1-0.8,9.1-0.8c3.5,0,6.5,0.3,9.1,0.9c2.6,0.6,4.8,1.6,6.7,2.9c1.9,1.4,3.3,3.1,4.3,5.3c1,2.2,1.5,4.8,1.5,8V477.7z
		 M352.5,465.5v-13.8c-2.5,0.2-5.5,0.4-9,0.7c-3.4,0.3-6.2,0.7-8.2,1.3c-2.4,0.7-4.3,1.7-5.8,3.2c-1.5,1.4-2.2,3.4-2.2,5.9
		c0,2.8,0.9,5,2.6,6.4c1.7,1.4,4.3,2.2,7.8,2.2c2.9,0,5.6-0.6,8-1.7C348.2,468.5,350.5,467.1,352.5,465.5"/>
	<path class="st0" d="M415.8,477.7h-8.3v-28.2c0-2.3-0.1-4.4-0.4-6.4c-0.3-2-0.8-3.5-1.5-4.7c-0.7-1.2-1.8-2.2-3.2-2.8
		c-1.4-0.6-3.2-0.9-5.4-0.9c-2.3,0-4.7,0.6-7.1,1.7c-2.5,1.1-4.9,2.6-7.1,4.3v37h-8.3v-49.5h8.3v5.5c2.6-2.2,5.3-3.8,8.1-5.1
		c2.8-1.2,5.6-1.8,8.6-1.8c5.3,0,9.4,1.6,12.2,4.8c2.8,3.2,4.2,7.9,4.2,13.9V477.7z"/>
	<path class="st0" d="M438.1,419.9h-9.4v-8.6h9.4V419.9z M437.6,477.7h-8.3v-49.5h8.3V477.7z"/>
	<path class="st0" d="M489.9,477.7h-8.3v-5.3c-0.7,0.5-1.7,1.2-3,2.1c-1.3,0.9-2.5,1.6-3.7,2.1c-1.4,0.7-3,1.2-4.8,1.7
		c-1.8,0.5-3.9,0.7-6.3,0.7c-4.5,0-8.2-1.5-11.3-4.4c-3.1-3-4.7-6.7-4.7-11.3c0-3.8,0.8-6.8,2.4-9.1c1.6-2.3,3.9-4.1,6.9-5.5
		c3-1.3,6.6-2.2,10.9-2.7c4.2-0.5,8.8-0.8,13.6-1.1v-1.3c0-1.9-0.3-3.5-1-4.7c-0.7-1.2-1.6-2.2-2.9-2.9c-1.2-0.7-2.6-1.1-4.3-1.4
		c-1.7-0.2-3.4-0.4-5.2-0.4c-2.2,0-4.6,0.3-7.3,0.9c-2.7,0.6-5.5,1.4-8.3,2.5h-0.5v-8.5c1.6-0.4,4-0.9,7.1-1.5
		c3.1-0.5,6.1-0.8,9.1-0.8c3.5,0,6.5,0.3,9.1,0.9c2.6,0.6,4.8,1.6,6.7,2.9c1.9,1.4,3.3,3.1,4.3,5.3c1,2.2,1.5,4.8,1.5,8V477.7z
		 M481.6,465.5v-13.8c-2.5,0.2-5.5,0.4-9,0.7c-3.4,0.3-6.2,0.7-8.2,1.3c-2.4,0.7-4.3,1.7-5.8,3.2c-1.5,1.4-2.2,3.4-2.2,5.9
		c0,2.8,0.9,5,2.6,6.4c1.7,1.4,4.3,2.2,7.8,2.2c2.9,0,5.6-0.6,8-1.7C477.3,468.5,479.5,467.1,481.6,465.5"/>
	<path class="st0" d="M544.8,477.7h-8.3v-28.2c0-2.3-0.1-4.4-0.4-6.4c-0.3-2-0.8-3.5-1.5-4.7c-0.7-1.2-1.8-2.2-3.2-2.8
		c-1.4-0.6-3.2-0.9-5.4-0.9c-2.3,0-4.7,0.6-7.1,1.7c-2.5,1.1-4.9,2.6-7.1,4.3v37h-8.3v-49.5h8.3v5.5c2.6-2.2,5.3-3.8,8.1-5.1
		c2.8-1.2,5.6-1.8,8.6-1.8c5.3,0,9.4,1.6,12.2,4.8c2.8,3.2,4.2,7.9,4.2,13.9V477.7z"/>
	<path class="st0" d="M109.1,565.4c-3.6,1.7-7.5,3.1-11.8,4.3c-4.3,1.2-8.4,1.8-12.4,1.8c-5.1,0-9.9-0.7-14.1-2.1
		c-4.3-1.4-7.9-3.5-10.9-6.4c-3-2.9-5.4-6.5-7-10.8c-1.7-4.3-2.5-9.3-2.5-15.1c0-10.5,3.1-18.9,9.2-25c6.2-6.1,14.6-9.2,25.4-9.2
		c3.8,0,7.6,0.5,11.5,1.4c3.9,0.9,8.1,2.4,12.7,4.6v10.4h-0.8c-0.9-0.7-2.2-1.6-4-2.8c-1.7-1.2-3.5-2.1-5.1-2.9
		c-2-0.9-4.4-1.7-6.9-2.3c-2.6-0.6-5.5-0.9-8.8-0.9c-7.4,0-13.2,2.4-17.5,7.1c-4.3,4.7-6.5,11.2-6.5,19.3c0,8.5,2.2,15.2,6.7,19.9
		c4.5,4.7,10.6,7.1,18.4,7.1c2.8,0,5.7-0.3,8.5-0.8c2.8-0.6,5.3-1.3,7.4-2.2v-16.2H82.7v-7.7h26.4V565.4z"/>
	<path class="st0" d="M164.9,545.5c0,8.1-2.1,14.4-6.2,19.1c-4.1,4.7-9.7,7-16.6,7c-7,0-12.6-2.3-16.7-7c-4.1-4.7-6.2-11-6.2-19.1
		c0-8.1,2.1-14.4,6.2-19.1c4.1-4.7,9.7-7,16.7-7c6.9,0,12.5,2.3,16.6,7C162.8,531.1,164.9,537.5,164.9,545.5 M156.3,545.5
		c0-6.4-1.3-11.2-3.8-14.3c-2.5-3.1-6-4.7-10.5-4.7c-4.5,0-8,1.6-10.5,4.7c-2.5,3.1-3.7,7.9-3.7,14.3c0,6.2,1.3,10.9,3.8,14.1
		c2.5,3.2,6,4.8,10.5,4.8c4.4,0,7.9-1.6,10.4-4.8C155,556.5,156.3,551.8,156.3,545.5"/>
	<polygon class="st0" points="217,520.7 197,570.3 188.6,570.3 168.7,520.7 177.7,520.7 193.1,560.2 208.3,520.7 	"/>
	<path class="st0" d="M265.7,546.4h-36.5c0,3,0.5,5.7,1.4,8c0.9,2.3,2.2,4.1,3.8,5.6c1.5,1.4,3.4,2.5,5.5,3.2c2.1,0.7,4.4,1.1,7,1.1
		c3.4,0,6.8-0.7,10.2-2c3.4-1.3,5.8-2.7,7.3-4h0.4v9.1c-2.8,1.2-5.7,2.2-8.6,3c-2.9,0.8-6,1.2-9.2,1.2c-8.2,0-14.6-2.2-19.2-6.7
		c-4.6-4.4-6.9-10.8-6.9-18.9c0-8.1,2.2-14.5,6.6-19.3c4.4-4.8,10.2-7.1,17.4-7.1c6.7,0,11.8,2,15.4,5.9c3.6,3.9,5.4,9.4,5.4,16.6
		V546.4z M257.6,540c0-4.4-1.1-7.8-3.3-10.2c-2.2-2.4-5.5-3.6-9.9-3.6c-4.5,0-8,1.3-10.7,3.9c-2.6,2.6-4.1,5.9-4.5,9.8H257.6z"/>
	<path class="st0" d="M307.8,529.8h-0.4c-1.2-0.3-2.4-0.5-3.6-0.6c-1.2-0.1-2.5-0.2-4.1-0.2c-2.6,0-5.1,0.6-7.4,1.7
		c-2.4,1.1-4.7,2.6-6.9,4.4v35.2H277v-49.5h8.3v7.3c3.3-2.7,6.2-4.5,8.8-5.6c2.5-1.1,5.1-1.7,7.7-1.7c1.5,0,2.5,0,3.2,0.1
		c0.7,0.1,1.6,0.2,2.9,0.4V529.8z"/>
	<path class="st0" d="M356.6,570.3h-8.3v-28.2c0-2.3-0.1-4.4-0.4-6.4c-0.3-2-0.8-3.6-1.5-4.7c-0.7-1.2-1.8-2.2-3.2-2.8
		c-1.4-0.6-3.2-0.9-5.4-0.9c-2.3,0-4.7,0.6-7.1,1.7c-2.5,1.1-4.9,2.6-7.1,4.3v37h-8.3v-49.5h8.3v5.5c2.6-2.1,5.3-3.8,8.1-5
		c2.8-1.2,5.6-1.8,8.6-1.8c5.4,0,9.4,1.6,12.2,4.8c2.8,3.2,4.2,7.9,4.2,13.9V570.3z"/>
	<path class="st0" d="M442.4,570.3h-8.3v-28.2c0-2.1-0.1-4.2-0.3-6.2c-0.2-2-0.6-3.6-1.2-4.7c-0.7-1.3-1.7-2.2-2.9-2.9
		c-1.3-0.7-3.1-1-5.5-1c-2.3,0-4.7,0.6-7,1.7c-2.3,1.2-4.7,2.6-7,4.5c0.1,0.7,0.2,1.5,0.2,2.4c0.1,0.9,0.1,1.8,0.1,2.7v31.7h-8.3
		v-28.2c0-2.2-0.1-4.3-0.3-6.2c-0.2-2-0.6-3.5-1.2-4.7c-0.7-1.3-1.7-2.2-2.9-2.9c-1.3-0.6-3.1-1-5.5-1c-2.3,0-4.6,0.6-6.8,1.7
		c-2.3,1.1-4.6,2.6-6.8,4.3v37h-8.3v-49.5h8.3v5.5c2.6-2.1,5.2-3.8,7.8-5c2.6-1.2,5.3-1.8,8.3-1.8c3.4,0,6.2,0.7,8.6,2.1
		c2.3,1.4,4.1,3.4,5.2,5.9c3.4-2.8,6.4-4.9,9.2-6.1c2.8-1.3,5.8-1.9,8.9-1.9c5.4,0,9.4,1.6,12,4.9c2.6,3.3,3.9,7.9,3.9,13.8V570.3z"
		/>
	<path class="st0" d="M498,546.4h-36.5c0,3,0.5,5.7,1.4,8c0.9,2.3,2.2,4.1,3.8,5.6c1.5,1.4,3.4,2.5,5.5,3.2c2.1,0.7,4.4,1.1,7,1.1
		c3.4,0,6.8-0.7,10.2-2c3.4-1.3,5.8-2.7,7.3-4h0.4v9.1c-2.8,1.2-5.7,2.2-8.6,3c-2.9,0.8-6,1.2-9.2,1.2c-8.2,0-14.6-2.2-19.2-6.7
		c-4.6-4.4-6.9-10.8-6.9-18.9c0-8.1,2.2-14.5,6.6-19.3c4.4-4.8,10.2-7.1,17.4-7.1c6.7,0,11.8,2,15.4,5.9c3.6,3.9,5.4,9.4,5.4,16.6
		V546.4z M489.9,540c0-4.4-1.1-7.8-3.3-10.2c-2.2-2.4-5.5-3.6-9.9-3.6c-4.5,0-8,1.3-10.7,3.9c-2.6,2.6-4.1,5.9-4.5,9.8H489.9z"/>
	<path class="st0" d="M550.6,570.3h-8.3v-28.2c0-2.3-0.1-4.4-0.4-6.4c-0.3-2-0.8-3.6-1.5-4.7c-0.7-1.2-1.8-2.2-3.2-2.8
		c-1.4-0.6-3.2-0.9-5.4-0.9c-2.3,0-4.6,0.6-7.1,1.7c-2.5,1.1-4.9,2.6-7.1,4.3v37h-8.3v-49.5h8.3v5.5c2.6-2.1,5.3-3.8,8.1-5
		c2.8-1.2,5.6-1.8,8.6-1.8c5.3,0,9.4,1.6,12.2,4.8c2.8,3.2,4.2,7.9,4.2,13.9V570.3z"/>
	<path class="st0" d="M589.8,569.8c-1.6,0.4-3.3,0.8-5.1,1c-1.8,0.3-3.5,0.4-4.9,0.4c-5,0-8.9-1.4-11.5-4.1
		c-2.6-2.7-3.9-7.1-3.9-13.1v-26.3h-5.6v-7h5.6v-14.2h8.3v14.2h17.2v7h-17.2v22.6c0,2.6,0.1,4.6,0.2,6.1c0.1,1.5,0.5,2.8,1.2,4.1
		c0.6,1.2,1.5,2,2.7,2.6c1.1,0.5,2.9,0.8,5.2,0.8c1.4,0,2.8-0.2,4.3-0.6c1.5-0.4,2.5-0.7,3.2-1h0.4V569.8z"/>
</g>
</svg>
