<?xml version="1.0" encoding="UTF-8" standalone="no"?><!DOCTYPE svg PUBLIC "-//W3C//DTD SVG 1.1//EN" "http://www.w3.org/Graphics/SVG/1.1/DTD/svg11.dtd"><svg width="100%" height="100%" viewBox="0 0 570 457" version="1.1" xmlns="http://www.w3.org/2000/svg" xmlns:xlink="http://www.w3.org/1999/xlink" xml:space="preserve" xmlns:serif="http://www.serif.com/" style="fill-rule:evenodd;clip-rule:evenodd;stroke-linejoin:round;stroke-miterlimit:2;"><path d="M268.969,-0l-17.225,22.854l12.204,12.525l239.217,0l15.971,-21.604l-14.084,-13.775l-236.083,-0Z" style="fill:#005941;"/><path d="M268.969,0l-206.654,0l-12.525,13.15l92.054,0l9.704,9.704l100.196,0l17.225,-22.854Z" style="fill:#ee324e;"/><path d="M299.643,42.893l-17.216,22.546l12.212,12.521l177.525,0l15.975,-21.287l-14.091,-13.78l-174.405,0Z" style="fill:#005941;"/><path d="M299.643,42.893l-206.645,0l-12.525,12.838l92.054,-0l9.391,9.708l100.509,0l17.216,-22.546Z" style="fill:#ee324e;"/><path d="M330.334,85.478l-16.908,22.858l11.891,12.521l117.421,-0l15.963,-21.292l-14.088,-14.087l-114.279,-0Z" style="fill:#005941;"/><path d="M330.334,85.478l-206.654,-0l-12.525,13.145l92.054,0l9.704,9.713l100.513,-0l16.908,-22.858Z" style="fill:#ee324e;"/><path d="M361.014,128.371l-17.217,22.542l12.209,12.525l55.421,-0l15.962,-21.292l-13.767,-13.775l-52.608,0Z" style="fill:#005941;"/><path d="M361.325,128.371l-206.954,0l-12.529,13.15l92.054,0l9.709,9.392l100.191,-0l17.529,-22.542Z" style="fill:#ee324e;"/><path d="M391.697,171.262l-206.646,0l-12.525,12.846l92.054,0l9.708,9.704l100.196,0l17.213,-22.55Z" style="fill:#ee324e;"/><path d="M383.251,202.574l17.213,-22.85l-8.767,-8.463l-17.212,22.55l8.766,8.763Z" style="fill:#005941;"/><path d="M358.823,236.696l10.646,-13.762l-8.762,-8.775l-145.288,-0l-12.521,13.158l92.05,0l9.396,9.379l54.479,0Z" style="fill:#ee324e;"/><path d="M331.897,257.058l-87.675,-0l-12.521,13.145l89.241,0l9.071,9.088l10.342,-13.463l-8.458,-8.77Z" style="fill:#ee324e;"/><path d="M306.536,309.666l-12.516,-13.163l-24.43,0l-12.525,13.163l49.471,-0Z" style="fill:#ee324e;"/><path d="M6.579,361.631l18.783,23.484l1.88,2.195l1.566,1.884l1.879,1.241l2.509,1.263l-0,-30.692l0.308,-2.187l0.321,-1.884l0.304,-0.937l0.317,-0.625l0.941,-0.633l0.942,-0.621l0,-0.317l-9.704,0l-0,0.317l0.937,0.621l0.625,0.633l0.621,0.625l0.317,0.937l0.317,1.884l-0,22.858l-20.046,-25.367l-0.621,-0.937l-0.629,-0.633l-0.313,-0.938l-7.833,0l-0,0.317l0.942,0.621l0.633,0.633l0.308,0.625l0.629,0.937l0.313,1.884l-0,25.987l-0.313,1.879l-0.629,0.93l-0.308,0.633l-0.633,0.629l-0.942,0.625l-0,0.313l9.396,-0l-0,-0.313l-0.938,-0.625l-0.625,-0.629l-0.312,-0.633l-0.625,-0.93l-0.317,-1.879l0,-23.175Z" style="fill:#005941;"/><path d="M58.555,376.666l-8.142,0l4.071,-10.337l4.071,10.337Zm1.258,3.129l2.187,5.638l0.625,1.562l0.313,1.25l-0.313,0.321l0,0.629l-1.25,0.309l0,0.308l8.45,0l0,-0.308l-1.566,-0.938l-0.938,-1.571l-0.941,-1.254l-0.621,-1.871l-8.454,-20.983l-6.571,0l0.616,0.317l0.321,0.304l0.313,0.629l-0,0.304l-0.313,1.263l-0.321,0.937l-6.883,17.229l-0.625,1.871l-0.633,1.254l-1.25,1.571l-0.625,0.629l-0.625,0.309l-0,0.308l7.521,0l-0,-0.308l-1.259,-0.309l-0.316,-0.629l-0,-1.571l0.633,-1.562l2.183,-5.638l10.342,0Z" style="fill:#005941;"/><path d="M81.724,365.704l4.7,0l1.25,0.309l0.941,0.629l0.313,0.629l0.317,-0l1.245,-4.696l-0.933,0.313l-17.537,-0l-1.563,-0.313l-1.254,4.696l0.937,-0.629l1.259,-0.317l1.246,-0.621l5.012,0l0,21.609l-0.633,1.254l-0.621,0.629l-0.625,0.308l-0,0.309l8.142,-0l-0,-0.309l-1.255,-0.937l-0.62,-0.95l-0,-1.567l-0.321,-1.554l-0,-18.792Z" style="fill:#005941;"/><path d="M95.812,365.394l0,20.346l-0.304,1.571l-0.321,1.258l-0.62,0.625l-0.634,0.309l0,0.312l7.834,0l-0,-0.312l-0.63,-0.309l-0.625,-0.625l-0.312,-1.258l-0.313,-1.571l0,-18.779l0.313,-1.567l0.312,-1.571l0.625,-0.62l0.63,-0.313l-7.834,0l0.634,0.313l0.62,0.62l0.625,1.571Z" style="fill:#005941;"/><path d="M122.119,365.086l2.504,0.308l1.875,0.621l1.879,1.254l1.563,1.563l0.941,1.571l0.942,2.191l0.317,2.196l0.308,1.875l-0.308,2.508l-0.317,1.871l-0.942,1.884l-1.25,1.566l-1.254,1.246l-1.879,0.946l-1.875,0.625l-2.196,0.304l-2.5,-0.304l-2.192,-0.938l-1.562,-0.941l-1.575,-1.559l-1.246,-1.879l-0.937,-1.887l-0.321,-2.196l-0.309,-2.183l0.309,-2.2l0.321,-1.884l0.937,-1.866l1.246,-1.571l1.575,-1.246l1.562,-0.946l2.192,-0.621l2.192,-0.308Zm3.441,-2.821l-6.262,0l-2.821,0.938l-2.504,1.241l-2.5,1.884l-1.567,1.879l-1.566,2.504l-0.946,2.512l-0.304,2.813l0.304,3.137l0.946,2.821l1.566,2.5l1.567,1.879l2.5,1.875l2.504,1.255l2.508,0.62l3.134,0.313l2.816,-0.313l2.825,-0.929l2.5,-0.946l2.505,-1.875l1.875,-2.191l1.254,-2.509l0.937,-2.5l0.313,-1.566l-0,-1.571l-0.313,-2.813l-0.629,-2.512l-1.562,-2.504l-1.563,-1.88l-2.196,-1.883l-2.504,-1.242l-2.817,-0.937Z" style="fill:#005941;"/><path d="M147.788,368.524l13.783,17.85l1.563,1.559l1.25,1.262l1.254,0.929l1.875,0.946l-0,-22.862l0.321,-1.567l-0,-1.554l0.621,-1.263l1.25,-0.937l-7.196,-0l1.246,0.937l0.629,1.263l0.312,1.554l0,16.904l-15.025,-18.775l-0.625,-0.946l-0.316,-0.316l-0,-0.621l-5.946,-0l0.941,0.937l0.621,1.263l0.317,1.554l-0,19.408l-0.317,1.263l-0.621,1.258l-1.258,0.933l0,0.309l7.204,-0l0,-0.309l-0.941,-0.933l-0.942,-1.258l-0,-18.788Z" style="fill:#005941;"/><path d="M191.943,376.666l-8.146,0l4.067,-10.337l4.079,10.337Zm1.25,3.129l2.192,5.638l0.62,1.562l0.317,1.25l-0.317,0.321l0,0.629l-1.245,0.309l-0,0.308l8.45,0l-0,-0.308l-1.563,-0.938l-0.942,-1.571l-0.941,-1.254l-0.617,-1.871l-8.462,-20.983l-6.575,0l0.629,0.317l0.312,0.304l0.309,0.629l-0,0.304l-0.309,1.263l-0.312,0.937l-6.884,17.229l-0.637,1.871l-0.621,1.254l-1.254,1.571l-0.625,0.629l-0.625,0.309l-0,0.308l7.508,0l0,-0.308l-1.246,-0.309l-0.312,-0.629l-0,-1.571l0.617,-1.562l2.2,-5.638l10.333,0Z" style="fill:#005941;"/><path d="M214.17,386.375l0,-20.979l0.625,-1.571l0.317,-0.625l0.621,-0.312l-7.825,-0l0.941,0.312l0.309,0.625l0.633,1.571l-0,21.917l-0.633,1.254l-0.309,0.629l-0.941,0.308l-0,0.309l16.908,-0l2.196,-5.63l-0.317,0l-1.258,1.246l-1.875,0.946l-1.879,0.308l-2.188,0l-5.325,-0.308Z" style="fill:#005941;"/><path d="M238.279,386.375l-0,-19.412l0.321,-1.567l0.62,-1.571l0.309,-0.625l0.633,-0.312l-7.833,-0l0.629,0.312l0.621,0.625l0.629,1.571l-0,21.917l-0.629,1.254l-0.621,0.629l-0.629,0.308l-0,0.309l16.912,-0l2.184,-5.63l-0.305,0l-1.566,1.246l-1.571,0.946l-1.879,0.308l-2.184,0l-5.641,-0.308Z" style="fill:#005941;"/><path d="M266.461,377.911l10.016,-15.021l-7.204,0l0.942,0.617l0.317,0.317l0.308,0.621l-0,0.641l-0.308,1.242l-0.317,0.633l-5.325,7.829l-6.571,-10.966l-0.312,-0.317l-0.938,-0.304l-1.562,-0.313l-3.763,0l1.25,0.934l0.942,0.946l1.571,2.191l6.879,10.95l-0,7.829l-0.313,1.259l-0.304,1.571l-0.946,0.933l0,0.308l7.825,0l0,-0.308l-1.254,-0.933l-0.621,-1.259l-0.312,-1.262l-0,-8.138Z" style="fill:#005941;"/><path d="M299.961,353.803l-0,0.316l0.941,0.313l0.621,0.941l0.317,0.938l0.313,0.946l0.312,2.183l0,24.742l-0.313,2.191l-0.312,1.242l-0.317,0.633l-0.62,0.946l-0.942,0.309l-0,0.312l10.329,0l0,-0.312l-0.938,-0.309l-0.308,-0.946l-0.633,-0.633l-0.309,-1.242l-0.316,-2.191l-0,-26.3l3.758,-0.625l1.563,-0l1.258,0.308l1.25,0.625l0.933,0.629l0.946,0.946l0.634,0.929l0.312,1.246l0.308,1.263l-0.308,1.883l-0.633,1.554l-0.938,1.254l-1.254,0.938l-1.567,0.946l-1.562,0.625l-3.134,0.625l5.013,7.82l6.575,8.15l1.25,1.25l1.563,0.946l1.566,0.309l1.884,0.312l5.008,0l-2.196,-1.567l-2.504,-1.875l-2.192,-2.191l-1.871,-1.884l-7.833,-10.016l1.571,-0.638l1.562,-0.616l1.563,-0.938l1.258,-1.258l1.246,-1.242l0.633,-1.575l0.621,-1.571l0.313,-1.871l-0.313,-1.879l-0.621,-1.571l-0.941,-1.241l-1.259,-1.571l-1.558,-0.938l-1.883,-0.941l-2.192,-0.313l-2.812,-0.316l-12.842,-0Z" style="fill:#005941;"/><path d="M338.157,376.666l5.012,0l0.938,0.625l0.633,0.317l0,-4.079l-6.583,-0l-0,-7.517l2.196,-0.308l3.445,-0l1.255,0.308l0.937,0.629l1.25,0.629l0,-4.695l-0.937,0.312l-14.092,0l0.625,0.317l0.629,0.621l0.308,1.57l0,21.917l-0.308,1.254l-0.629,0.629l-0.625,0.309l-0,0.308l16.908,0l1.884,-5.317l-1.884,1.246l-1.879,0.634l-1.879,0.308l-2.192,-0l-5.012,-0.308l-0,-9.709Z" style="fill:#005941;"/><path d="M377.3,363.202l-3.754,-0.625l-3.45,-0.312l-3.129,0.312l-2.821,0.625l-2.5,1.242l-1.883,1.571l-1.879,2.191l-1.254,2.2l-0.938,2.817l0,6.258l0.938,2.817l1.254,2.196l1.879,2.191l2.192,1.563l2.82,1.258l2.813,0.617l3.446,0.312l3.45,-0.312l1.566,-0.308l1.25,-0.621l2.188,-4.7l-2.188,0.937l-2.191,0.946l-2.196,0.308l-2.188,0.313l-2.504,-0.313l-1.887,-0.637l-1.871,-0.933l-1.254,-1.567l-1.254,-1.554l-0.942,-1.884l-0.621,-2.2l-0.312,-2.183l0.312,-2.196l0.621,-1.887l0.633,-1.867l1.25,-1.571l1.25,-0.933l1.879,-0.946l1.563,-0.621l4.075,0l2.187,0.621l1.88,0.633l1.57,0.934l0,-4.692Z" style="fill:#005941;"/><path d="M398.276,365.086l2.504,0.308l1.88,0.621l1.879,1.254l1.562,1.563l0.942,1.571l0.937,2.191l0.625,2.196l0,4.383l-0.625,1.871l-0.937,1.884l-1.254,1.566l-1.25,1.246l-1.879,0.946l-1.88,0.625l-2.191,0.304l-2.509,-0.304l-1.875,-0.938l-1.875,-0.941l-1.57,-1.559l-1.246,-1.879l-0.942,-1.887l-0.317,-2.196l-0.312,-2.183l0.312,-2.2l0.317,-1.884l0.942,-1.866l1.246,-1.571l1.57,-1.246l1.563,-0.946l2.187,-0.621l2.196,-0.308Zm3.446,-2.821l-6.262,0l-2.825,0.938l-2.5,1.241l-2.505,1.884l-1.566,1.879l-1.563,2.504l-0.937,2.512l-0.313,2.813l0.313,3.137l0.937,2.821l1.563,2.5l1.566,1.879l2.505,1.875l2.5,1.255l2.508,0.62l3.133,0.313l2.821,-0.313l2.817,-0.929l2.508,-0.946l2.5,-1.875l1.879,-2.191l1.25,-2.509l0.942,-2.5l0.308,-1.566l0,-1.571l-0.308,-2.813l-0.629,-2.512l-1.242,-2.504l-1.892,-1.88l-2.187,-1.883l-2.504,-1.242l-2.817,-0.937Z" style="fill:#005941;"/><path d="M441.485,362.889l-3.133,-0.621l-6.884,-0l-3.137,0.933l-2.813,1.242l-2.512,1.571l-1.242,0.95l-0.937,1.241l-0.638,0.938l-0.621,1.262l-0.625,1.567l-0.316,1.25l-0.313,1.567l0,1.554l0.313,3.137l0.941,2.817l1.259,2.2l1.87,2.188l2.192,1.562l3.133,1.258l3.13,0.617l3.758,0.313l2.5,-0l2.504,-0.313l4.7,-0.929l0,-0.946l-0.312,-0.937l-0,-9.4l0.312,-0.934l0,-0.941l-6.262,-0l0.625,0.633l0.633,0.308l0.304,1.254l0.321,1.25l-0,7.205l-2.825,0.625l-2.817,0.308l-2.187,-0.308l-2.5,-0.625l-1.884,-0.946l-1.566,-1.559l-1.567,-1.57l-0.942,-2.192l-0.941,-2.188l-0,-4.7l0.941,-2.195l0.942,-1.559l1.254,-1.571l1.563,-1.566l1.883,-0.934l2.192,-0.308l2.504,-0.312l1.875,-0l1.875,0.62l1.879,0.621l1.571,1.263l-0,-4.7Z" style="fill:#005941;"/><path d="M454.638,368.524l14.084,17.85l1.262,1.559l1.242,1.262l1.575,0.929l1.871,0.946l-0,-24.429l0.316,-1.554l0.621,-1.263l1.254,-0.937l-7.2,-0l1.25,0.937l0.634,1.263l0.312,1.554l0,16.904l-15.029,-18.775l-0.629,-0.946l-0.313,-0.316l-0.308,-0.621l-5.954,-0l1.254,0.937l0.621,1.263l0.316,1.554l0,19.408l-0.316,1.263l-0.621,1.258l-1.254,0.933l-0,0.309l7.204,-0l-0,-0.309l-1.25,-0.933l-0.633,-1.258l-0.309,-1.263l0,-17.525Z" style="fill:#005941;"/><path d="M484.068,365.394l-0,21.917l-0.625,1.258l-0.317,0.625l-0.938,0.309l0,0.312l7.825,0l0,-0.312l-0.62,-0.309l-0.321,-0.625l-0.621,-1.258l-0,-21.917l0.621,-1.571l0.321,-0.62l0.62,-0.313l-7.825,0l0.938,0.313l0.317,0.62l0.625,1.571Z" style="fill:#005941;"/><path d="M511.936,363.202l-2.821,-0.937l-5.008,-0l-1.875,0.312l-1.575,0.625l-1.563,0.621l-1.562,0.946l-0.938,1.246l-0.625,1.575l-0.316,1.554l0.316,1.566l0.304,1.571l0.634,0.942l0.937,0.942l1.25,0.933l0.942,0.629l2.821,1.567l2.5,0.933l2.191,1.254l0.938,0.938l0.629,0.625l0.317,1.254l0.308,0.937l-0.308,0.946l-0.317,0.934l-0.629,0.625l-0.625,0.637l-1.879,0.933l-1.875,0.305l-2.5,-0.305l-2.513,-0.625l-2.187,-1.254l-1.879,-1.25l0.941,5.013l1.875,0.621l1.871,0.308l3.763,0.312l2.195,-0.312l2.188,-0.308l1.879,-0.938l1.571,-0.942l1.25,-1.25l0.937,-1.57l0.621,-1.567l0.321,-1.554l0,-1.263l-0.625,-1.25l-0.633,-0.937l-0.934,-0.938l-2.191,-1.571l-2.509,-1.245l-2.816,-1.259l-2.196,-1.25l-0.929,-0.637l-0.634,-0.934l-0.316,-0.933l-0.304,-0.942l0.304,-0.941l0.316,-0.934l0.634,-0.633l0.625,-0.312l1.562,-0.621l1.879,-0.309l1.875,0.309l1.567,0.312l1.563,0.934l1.258,0.95l-0,-4.388Z" style="fill:#005941;"/><path d="M526.643,376.666l5.017,0l0.946,0.625l0.621,0.317l-0,-4.079l-6.584,-0l0,-7.517l2.196,-0.308l3.446,-0l1.254,0.308l0.938,0.629l1.25,0.629l-0,-4.695l-0.938,0.312l-14.087,0l0.62,0.317l0.634,0.621l0.308,1.57l0.317,1.567l-0,18.779l-0.317,1.571l-0.308,1.254l-0.634,0.629l-0.62,0.309l-0,0.308l16.908,0l1.879,-5.317l-1.562,1.246l-2.2,0.634l-1.88,0.308l-1.879,-0l-5.325,-0.308l0,-9.709Z" style="fill:#005941;"/><path d="M550.752,366.327l1.883,-0.312l1.567,-0.309l2.513,0.309l2.183,0.312l1.879,0.946l1.567,1.25l1.254,1.567l0.937,1.879l0.621,2.196l0,2.5l-0.308,2.508l-0.629,1.871l-0.938,1.883l-1.562,1.254l-1.567,1.25l-2.196,0.617l-2.183,0.637l-5.021,0l0,-20.358Zm-4.379,2.196l-0,18.475l-0.625,1.571l-0.317,0.625l-0.621,0.312l0,0.309l9.705,-0l3.133,-0.309l3.129,-0.629l2.504,-1.262l2.5,-1.567l1.571,-2.175l1.25,-2.196l0.938,-2.829l0.316,-2.813l-0.316,-2.812l-0.621,-2.513l-1.25,-2.504l-1.888,-1.879l-2.183,-1.558l-2.504,-0.946l-2.817,-0.621l-3.446,-0.312l-10.021,-0l0.621,0.312l0.317,0.621l0.625,0.621l-0,0.641l0.317,1.875l-0.317,1.563Z" style="fill:#005941;"/><path d="M196.323,423.317l6.263,0l1.562,0.309l1.259,0.625l0.304,0.637l0.316,0.621l0.321,0l1.559,-6.583l-1.255,0.316l-24.108,0l-0.942,-0.316l-0.304,-0l-1.883,6.583l1.567,-0.946l1.562,-0.621l1.879,-0.625l6.579,0l0,26.305l-0.316,2.187l-0.317,0.942l-0.308,0.941l-0.621,0.938l-0.946,0.625l10.65,-0l-0.942,-0.938l-0.629,-0.625l-0.625,-0.633l-0.312,-0.937l-0.313,-1.88l0,-26.925Z" style="fill:#005941;"/><path d="M211.033,428.326l0.945,0.621l0.313,0.621l0.621,1.262l-0,21.921l-0.621,1.567l-0.313,0.621l-0.945,0.316l7.837,0l-0.633,-0.316l-0.309,-0.621l-0.625,-1.567l0,-21.604l2.505,-0.317l0.937,0l1.25,0.317l0.938,0.308l0.629,0.634l0.633,0.625l0.621,0.616l0.317,0.938l-0,2.517l-0.63,1.245l-0.629,0.938l-0.941,0.629l-0.938,0.629l-1.25,0.625l-2.508,0.309l3.758,5.958l4.7,6.254l1.254,0.946l0.934,0.621l1.254,0.316l5.325,0l-3.763,-2.504l-1.562,-1.579l-1.254,-1.554l-5.95,-7.513l1.262,-0.312l1.242,-0.633l0.941,-0.625l1.88,-1.88l0.625,-1.241l0.316,-1.263l0,-2.504l-0.316,-1.25l-0.625,-1.25l-0.942,-0.937l-1.25,-0.642l-1.563,-0.621l-1.57,-0.621l-11.9,0Z" style="fill:#005941;"/><path d="M252.992,442.104l-8.137,0l4.066,-10.337l4.071,10.337Zm1.254,3.129l2.192,5.634l0.629,1.887l0,1.567l-0.321,0.308l-0.937,0.625l8.462,0l-1.562,-1.254l-0.942,-1.246l-0.942,-1.579l-0.629,-1.867l-8.454,-20.983l-6.575,-0l0.633,0.312l0.305,0.313l0.316,0.617l0,0.325l-0.316,1.254l-0.305,1.25l-6.895,16.912l-0.625,1.867l-0.942,1.579l-0.938,1.246l-0.625,0.629l-0.937,0.625l7.512,0l-0.945,-0.625l-0.305,-0.629l0,-1.567l0.621,-1.566l1.884,-5.634l10.641,0Z" style="fill:#005941;"/><path d="M270.53,430.828l-0,21.925l-0.63,1.567l-0.312,0.616l-0.938,0.321l7.825,0l-0.625,-0.321l-0.316,-0.616l-0.621,-1.567l-0,-21.925l0.621,-1.263l0.316,-0.616l0.625,-0.621l-7.825,-0l0.938,0.621l0.312,0.616l0.63,1.263Z" style="fill:#005941;"/><path d="M287.436,433.962l14.088,17.846l1.258,1.562l1.25,1.567l1.563,0.938l1.883,0.629l-0,-24.413l0.308,-1.571l0.625,-0.954l1.254,-1.241l-7.204,-0l1.263,1.241l0.621,0.954l-0,1.571l0.316,1.559l0,15.345l-15.033,-18.783l-0.629,-0.646l-0.304,-0.616l-0.317,-0.625l-5.95,-0l1.25,1.241l0.625,0.954l0.317,1.571l-0,19.409l-0.317,1.254l-0.625,1.25l-1.25,1.25l7.2,-0l-1.25,-1.25l-0.629,-1.25l-0.313,-1.254l0,-17.538Z" style="fill:#005941;"/><path d="M316.867,430.828l0,21.925l-0.62,1.567l-0.634,0.616l-0.625,0.321l7.829,0l-0.625,-0.321l-0.32,-0.616l-0.621,-1.567l-0.309,-1.579l0,-18.779l0.309,-1.567l0.621,-1.263l0.32,-0.616l0.625,-0.621l-7.829,-0l0.942,0.621l0.317,0.616l0.62,1.263Z" style="fill:#005941;"/><path d="M333.774,433.962l14.088,17.846l1.258,1.562l1.254,1.567l1.567,0.938l1.879,0.629l-0,-24.413l0.304,-1.571l0.633,-0.954l1.246,-1.241l-7.2,-0l1.254,1.241l0.625,0.954l0,18.475l-15.029,-18.783l-0.316,-0.646l-0.621,-0.616l-0,-0.625l-5.954,-0l0.941,1.241l0.946,0.954l0.304,1.571l0,19.409l-0.304,1.254l-0.946,1.25l-0.941,1.25l6.891,-0l-0.937,-1.25l-0.621,-1.25l-0.321,-1.254l0,-17.538Z" style="fill:#005941;"/><path d="M384.189,428.326l-3.45,-0.312l-3.129,-0.313l-3.442,0.313l-3.441,0.621l-2.821,1.258l-2.5,1.562l-0.942,0.942l-0.941,1.25l-1.567,2.192l-0.629,1.575l-0.313,1.554l-0.308,1.258l-0,1.567l0.308,3.129l0.629,2.813l1.563,2.2l1.879,2.187l2.504,1.571l2.821,1.246l3.138,0.625l3.754,0.308l2.5,0l2.508,-0.308l4.7,-0.934l0,-13.162l-6.271,-0l0,0.325l0.629,0.312l0.625,0.313l0.625,1.25l0,8.454l-2.816,0.629l-2.817,0.309l-2.5,-0.309l-1.879,-0.629l-2.196,-0.95l-1.562,-1.554l-1.571,-1.567l-0.942,-2.196l-0.621,-1.883l-0.308,-2.504l0.308,-2.5l0.313,-2.183l1.25,-1.571l1.25,-1.567l1.571,-1.25l2.191,-0.942l1.879,-0.625l2.5,-0.312l1.884,0.312l2.187,0.317l1.571,0.617l1.563,1.258l0.316,0l0,-4.696Z" style="fill:#005941;"/></svg>