<?xml version="1.0" encoding="UTF-8" standalone="no"?>
<!DOCTYPE svg PUBLIC "-//W3C//DTD SVG 1.1//EN" "http://www.w3.org/Graphics/SVG/1.1/DTD/svg11.dtd">
<svg width="100%" height="100%" viewBox="0 0 264 74" version="1.1" xmlns="http://www.w3.org/2000/svg" xmlns:xlink="http://www.w3.org/1999/xlink" xml:space="preserve" xmlns:serif="http://www.serif.com/" style="fill-rule:evenodd;clip-rule:evenodd;stroke-linecap:round;stroke-linejoin:round;stroke-miterlimit:1.5;">
    <g transform="matrix(1,0,0,1,-21.4994,-13.1976)">
        <g transform="matrix(1,0,0,1,-169.381,-82.3554)">
            <g transform="matrix(0.790462,0,0,0.254581,75.0267,12.2076)">
                <path d="M284.256,488.512C284.256,495.022 283.979,501.014 283.427,506.488C282.874,511.962 282.05,516.681 280.954,520.646C279.858,524.611 278.485,527.704 276.837,529.923C275.188,532.142 273.277,533.252 271.105,533.252C268.989,533.252 267.145,532.275 265.573,530.322C264,528.369 262.69,525.529 261.641,521.8C260.593,518.072 259.812,513.545 259.297,508.219C258.783,502.893 258.525,496.856 258.525,490.11C258.525,483.6 258.797,477.608 259.34,472.134C259.883,466.66 260.703,461.941 261.799,457.976C262.895,454.011 264.262,450.933 265.901,448.744C267.54,446.554 269.456,445.459 271.648,445.459C273.763,445.459 275.607,446.436 277.18,448.388C278.752,450.341 280.063,453.182 281.111,456.91C282.159,460.639 282.945,465.166 283.47,470.492C283.994,475.818 284.256,481.825 284.256,488.512ZM279.367,489.489C279.367,485.168 279.237,481.085 278.977,477.238C278.718,473.392 278.29,470.019 277.694,467.119C277.097,464.219 276.29,461.926 275.27,460.239C274.251,458.553 272.982,457.709 271.462,457.709C270.059,457.709 268.852,458.479 267.842,460.017C266.832,461.556 266.001,463.731 265.347,466.542C264.693,469.353 264.207,472.682 263.89,476.528C263.573,480.375 263.414,484.577 263.414,489.133C263.414,493.513 263.544,497.626 263.804,501.472C264.063,505.319 264.496,508.677 265.102,511.548C265.707,514.418 266.52,516.696 267.539,518.383C268.558,520.069 269.828,520.913 271.347,520.913C272.732,520.913 273.934,520.143 274.953,518.605C275.972,517.066 276.809,514.906 277.463,512.125C278.117,509.343 278.597,506.029 278.905,502.182C279.213,498.336 279.367,494.105 279.367,489.489Z" style="fill:rgb(51,51,51);fill-rule:nonzero;"/>
                <path d="M285.171,488.512C285.171,481.516 284.893,475.234 284.344,469.662C283.78,463.926 282.929,459.057 281.8,455.042C280.658,450.981 279.233,447.878 277.52,445.751C275.85,443.678 273.894,442.618 271.648,442.618C269.317,442.618 267.282,443.806 265.54,446.134C263.767,448.502 262.29,451.837 261.104,456.126C259.93,460.376 259.048,465.43 258.466,471.298C257.897,477.027 257.61,483.297 257.61,490.11C257.61,497.161 257.883,503.468 258.421,509.035C258.976,514.776 259.822,519.65 260.952,523.669C262.094,527.73 263.52,530.832 265.233,532.96C266.902,535.033 268.859,536.092 271.105,536.092C273.416,536.092 275.447,534.89 277.201,532.529C278.982,530.131 280.464,526.781 281.648,522.496C282.822,518.25 283.708,513.2 284.3,507.338C284.878,501.604 285.171,495.33 285.171,488.512ZM284.256,488.512C284.256,495.022 283.979,501.014 283.427,506.488C282.874,511.962 282.05,516.681 280.954,520.646C279.858,524.611 278.485,527.704 276.837,529.923C275.188,532.142 273.277,533.252 271.105,533.252C268.989,533.252 267.145,532.275 265.573,530.322C264,528.369 262.69,525.529 261.641,521.8C260.593,518.072 259.812,513.545 259.297,508.219C258.783,502.893 258.525,496.856 258.525,490.11C258.525,483.6 258.797,477.608 259.34,472.134C259.883,466.66 260.703,461.941 261.799,457.976C262.895,454.011 264.262,450.933 265.901,448.744C267.54,446.554 269.456,445.459 271.648,445.459C273.763,445.459 275.607,446.436 277.18,448.388C278.752,450.341 280.063,453.182 281.111,456.91C282.159,460.639 282.945,465.166 283.47,470.492C283.994,475.818 284.256,481.825 284.256,488.512ZM279.367,489.489C279.367,485.168 279.237,481.085 278.977,477.238C278.718,473.392 278.29,470.019 277.694,467.119C277.097,464.219 276.29,461.926 275.27,460.239C274.251,458.553 272.982,457.709 271.462,457.709C270.059,457.709 268.852,458.479 267.842,460.017C266.832,461.556 266.001,463.731 265.347,466.542C264.693,469.353 264.207,472.682 263.89,476.528C263.573,480.375 263.414,484.577 263.414,489.133C263.414,493.513 263.544,497.626 263.804,501.472C264.063,505.319 264.496,508.677 265.102,511.548C265.707,514.418 266.52,516.696 267.539,518.383C268.558,520.069 269.828,520.913 271.347,520.913C272.732,520.913 273.934,520.143 274.953,518.605C275.972,517.066 276.809,514.906 277.463,512.125C278.117,509.343 278.597,506.029 278.905,502.182C279.213,498.336 279.367,494.105 279.367,489.489ZM278.452,489.489C278.452,493.855 278.309,497.859 278.017,501.498C277.74,504.959 277.312,507.947 276.724,510.45C276.159,512.855 275.434,514.72 274.553,516.05C273.648,517.417 272.578,518.072 271.347,518.072C270.001,518.072 268.873,517.371 267.969,515.876C267.091,514.422 266.389,512.465 265.867,509.991C265.32,507.399 264.933,504.362 264.699,500.89C264.452,497.225 264.329,493.306 264.329,489.133C264.329,484.832 264.477,480.864 264.776,477.233C265.063,473.758 265.498,470.745 266.088,468.205C266.653,465.776 267.373,463.897 268.245,462.567C269.142,461.201 270.216,460.55 271.462,460.55C272.809,460.55 273.937,461.251 274.84,462.746C275.715,464.194 276.411,466.157 276.922,468.647C277.463,471.275 277.847,474.336 278.082,477.821C278.329,481.485 278.452,485.374 278.452,489.489Z" style="fill:white;"/>
                <path d="M310.432,529.346C310.432,529.819 310.394,530.219 310.318,530.544C310.242,530.87 310.118,531.151 309.946,531.387C309.775,531.624 309.536,531.802 309.231,531.92C308.927,532.038 308.545,532.098 308.088,532.098C307.611,532.098 307.221,532.038 306.916,531.92C306.611,531.802 306.373,531.624 306.201,531.387C306.029,531.151 305.906,530.87 305.829,530.544C305.753,530.219 305.715,529.819 305.715,529.346L305.715,482.565C305.715,478.008 305.601,474.339 305.372,471.557C305.143,468.776 304.81,466.379 304.371,464.367C303.933,462.355 303.366,460.816 302.67,459.751C301.975,458.686 301.169,458.153 300.254,458.153C299.073,458.153 297.891,459.455 296.709,462.059C295.528,464.663 294.289,468.48 292.993,473.51L292.993,529.346C292.993,529.819 292.955,530.219 292.878,530.544C292.802,530.87 292.678,531.151 292.507,531.387C292.335,531.624 292.097,531.802 291.792,531.92C291.487,532.038 291.096,532.098 290.62,532.098C290.162,532.098 289.781,532.038 289.476,531.92C289.171,531.802 288.928,531.624 288.747,531.387C288.566,531.151 288.442,530.87 288.375,530.544C288.309,530.219 288.275,529.819 288.275,529.346L288.275,449.454C288.275,448.98 288.304,448.581 288.361,448.255C288.418,447.93 288.533,447.634 288.704,447.368C288.876,447.101 289.095,446.924 289.362,446.835C289.629,446.746 289.981,446.702 290.42,446.702C290.839,446.702 291.187,446.746 291.463,446.835C291.739,446.924 291.954,447.101 292.106,447.368C292.259,447.634 292.368,447.93 292.435,448.255C292.502,448.581 292.535,448.98 292.535,449.454L292.535,460.017C293.984,454.987 295.428,451.303 296.867,448.965C298.306,446.628 299.759,445.459 301.226,445.459C302.942,445.459 304.386,446.362 305.558,448.167C306.73,449.972 307.678,452.383 308.402,455.401C309.127,458.419 309.646,461.955 309.96,466.009C310.275,470.063 310.432,474.93 310.432,480.612L310.432,529.346Z" style="fill:rgb(51,51,51);fill-rule:nonzero;"/>
                <path d="M311.347,529.346L311.347,480.612C311.347,474.671 311.179,469.583 310.85,465.344C310.505,460.894 309.931,457.017 309.136,453.704C308.328,450.336 307.272,447.636 305.964,445.622C304.681,443.646 303.104,442.618 301.226,442.618C299.617,442.618 298.021,443.884 296.442,446.449C295.449,448.063 294.451,450.275 293.451,453.096C293.45,453.099 293.45,449.454 293.45,449.454C293.45,448.373 293.359,447.473 293.207,446.73C293.072,446.072 292.863,445.43 292.555,444.892C292.317,444.477 291.988,444.148 291.557,444.009C291.256,443.913 290.877,443.861 290.42,443.861C289.941,443.861 289.556,443.914 289.264,444.011C288.87,444.142 288.549,444.433 288.295,444.827C287.914,445.419 287.685,446.171 287.558,446.895C287.435,447.593 287.361,448.439 287.361,449.454L287.361,529.346C287.361,530.427 287.451,531.326 287.604,532.069C287.604,532.069 287.604,532.069 287.604,532.069C287.749,532.78 287.997,533.489 288.392,534.005C288.392,534.005 288.392,534.006 288.392,534.006C288.634,534.321 288.956,534.581 289.363,534.739C289.363,534.739 289.363,534.739 289.363,534.739C289.698,534.869 290.117,534.938 290.62,534.938C290.62,534.938 290.62,534.938 290.62,534.938C291.142,534.938 291.571,534.869 291.905,534.739C292.321,534.577 292.644,534.306 292.878,533.983C292.878,533.983 292.878,533.983 292.878,533.983C293.226,533.503 293.464,532.875 293.618,532.215C293.802,531.432 293.908,530.485 293.908,529.346C293.908,529.346 293.908,474.515 293.908,474.515C295.068,470.104 296.176,466.718 297.239,464.375C298.246,462.156 299.247,460.994 300.254,460.994C301.015,460.994 301.687,461.412 302.266,462.299C302.817,463.143 303.266,464.364 303.613,465.959C303.997,467.72 304.285,469.824 304.485,472.26C304.7,474.863 304.8,478.299 304.8,482.565C304.8,482.565 304.8,529.346 304.8,529.346C304.8,530.485 304.906,531.432 305.089,532.215C305.089,532.215 305.089,532.215 305.089,532.215C305.244,532.875 305.481,533.503 305.829,533.983C305.829,533.983 305.829,533.983 305.829,533.983C306.063,534.306 306.386,534.577 306.802,534.739C306.802,534.739 306.802,534.739 306.802,534.739C307.137,534.869 307.565,534.938 308.088,534.938C308.088,534.938 308.088,534.938 308.088,534.938C308.591,534.938 309.01,534.869 309.345,534.739C309.761,534.577 310.084,534.306 310.318,533.983C310.318,533.983 310.318,533.983 310.318,533.983C310.666,533.503 310.903,532.875 311.058,532.215C311.241,531.432 311.347,530.485 311.347,529.346ZM310.432,529.346C310.432,529.819 310.394,530.219 310.318,530.544C310.242,530.87 310.118,531.151 309.946,531.387C309.775,531.624 309.536,531.802 309.231,531.92C308.927,532.038 308.545,532.098 308.088,532.098C307.611,532.098 307.221,532.038 306.916,531.92C306.611,531.802 306.373,531.624 306.201,531.387C306.029,531.151 305.906,530.87 305.829,530.544C305.753,530.219 305.715,529.819 305.715,529.346L305.715,482.565C305.715,478.008 305.601,474.339 305.372,471.557C305.143,468.776 304.81,466.379 304.371,464.367C303.933,462.355 303.366,460.816 302.67,459.751C301.975,458.686 301.169,458.153 300.254,458.153C299.073,458.153 297.891,459.455 296.709,462.059C295.528,464.663 294.289,468.48 292.993,473.51L292.993,529.346C292.993,529.819 292.955,530.219 292.878,530.544C292.802,530.87 292.678,531.151 292.507,531.387C292.335,531.624 292.097,531.802 291.792,531.92C291.487,532.038 291.096,532.098 290.62,532.098C290.162,532.098 289.781,532.038 289.476,531.92C289.171,531.802 288.928,531.624 288.747,531.387C288.566,531.151 288.442,530.87 288.375,530.544C288.309,530.219 288.275,529.819 288.275,529.346L288.275,449.454C288.275,448.98 288.304,448.581 288.361,448.255C288.418,447.93 288.533,447.634 288.704,447.368C288.876,447.101 289.095,446.924 289.362,446.835C289.629,446.746 289.981,446.702 290.42,446.702C290.839,446.702 291.187,446.746 291.463,446.835C291.739,446.924 291.954,447.101 292.106,447.368C292.259,447.634 292.368,447.93 292.435,448.255C292.502,448.581 292.535,448.98 292.535,449.454L292.535,460.017C293.984,454.987 295.428,451.303 296.867,448.965C298.306,446.628 299.759,445.459 301.226,445.459C302.942,445.459 304.386,446.362 305.558,448.167C306.73,449.972 307.678,452.383 308.402,455.401C309.127,458.419 309.646,461.955 309.96,466.009C310.275,470.063 310.432,474.93 310.432,480.612L310.432,529.346Z" style="fill:white;"/>
                <path d="M320.827,529.346C320.827,529.819 320.789,530.219 320.713,530.544C320.637,530.87 320.513,531.151 320.341,531.387C320.17,531.624 319.932,531.802 319.627,531.92C319.322,532.038 318.931,532.098 318.454,532.098C317.997,532.098 317.616,532.038 317.311,531.92C317.006,531.802 316.763,531.624 316.582,531.387C316.401,531.151 316.277,530.87 316.21,530.544C316.143,530.219 316.11,529.819 316.11,529.346L316.11,410.75C316.11,410.277 316.143,409.863 316.21,409.508C316.277,409.153 316.401,408.857 316.582,408.62C316.763,408.383 317.006,408.206 317.311,408.087C317.616,407.969 317.997,407.91 318.454,407.91C318.931,407.91 319.322,407.969 319.627,408.087C319.932,408.206 320.17,408.383 320.341,408.62C320.513,408.857 320.637,409.153 320.713,409.508C320.789,409.863 320.827,410.277 320.827,410.75L320.827,529.346Z" style="fill:rgb(51,51,51);fill-rule:nonzero;"/>
                <path d="M321.742,529.346L321.742,410.75C321.742,409.674 321.648,408.739 321.474,407.932C321.315,407.191 321.071,406.518 320.713,406.024C320.479,405.701 320.156,405.43 319.74,405.269C319.406,405.139 318.977,405.069 318.454,405.069C317.952,405.069 317.533,405.139 317.197,405.269C316.791,405.427 316.468,405.686 316.227,406.002C315.822,406.531 315.569,407.283 315.42,408.076C315.42,408.076 315.42,408.076 315.42,408.076C315.276,408.842 315.195,409.729 315.195,410.75L315.195,529.346C315.195,530.427 315.286,531.326 315.438,532.069C315.438,532.069 315.438,532.069 315.438,532.069C315.584,532.78 315.831,533.489 316.227,534.005C316.227,534.005 316.227,534.006 316.227,534.006C316.468,534.321 316.791,534.581 317.197,534.739C317.197,534.739 317.197,534.739 317.197,534.739C317.533,534.869 317.952,534.938 318.454,534.938C318.454,534.938 318.454,534.938 318.454,534.938C318.977,534.938 319.406,534.869 319.74,534.739C320.156,534.577 320.479,534.306 320.713,533.983C320.713,533.983 320.713,533.983 320.713,533.983C321.061,533.503 321.298,532.875 321.453,532.215C321.636,531.432 321.742,530.485 321.742,529.346ZM320.827,529.346C320.827,529.819 320.789,530.219 320.713,530.544C320.637,530.87 320.513,531.151 320.341,531.387C320.17,531.624 319.932,531.802 319.627,531.92C319.322,532.038 318.931,532.098 318.454,532.098C317.997,532.098 317.616,532.038 317.311,531.92C317.006,531.802 316.763,531.624 316.582,531.387C316.401,531.151 316.277,530.87 316.21,530.544C316.143,530.219 316.11,529.819 316.11,529.346L316.11,410.75C316.11,410.277 316.143,409.863 316.21,409.508C316.277,409.153 316.401,408.857 316.582,408.62C316.763,408.383 317.006,408.206 317.311,408.087C317.616,407.969 317.997,407.91 318.454,407.91C318.931,407.91 319.322,407.969 319.627,408.087C319.932,408.206 320.17,408.383 320.341,408.62C320.513,408.857 320.637,409.153 320.713,409.508C320.789,409.863 320.827,410.277 320.827,410.75L320.827,529.346Z" style="fill:white;"/>
                <path d="M331.337,529.346C331.337,529.819 331.299,530.219 331.222,530.544C331.146,530.87 331.022,531.151 330.851,531.387C330.679,531.624 330.441,531.802 330.136,531.92C329.831,532.038 329.44,532.098 328.964,532.098C328.506,532.098 328.125,532.038 327.82,531.92C327.515,531.802 327.272,531.624 327.091,531.387C326.91,531.151 326.786,530.87 326.72,530.544C326.653,530.219 326.62,529.819 326.62,529.346L326.62,449.454C326.62,449.039 326.653,448.655 326.72,448.3C326.786,447.945 326.91,447.649 327.091,447.412C327.272,447.175 327.515,446.998 327.82,446.879C328.125,446.761 328.506,446.702 328.964,446.702C329.44,446.702 329.831,446.761 330.136,446.879C330.441,446.998 330.679,447.175 330.851,447.412C331.022,447.649 331.146,447.945 331.222,448.3C331.299,448.655 331.337,449.039 331.337,449.454L331.337,529.346ZM331.88,422.468C331.88,425.9 331.67,428.238 331.251,429.481C330.832,430.723 330.06,431.345 328.935,431.345C327.83,431.345 327.072,430.738 326.662,429.525C326.253,428.312 326.048,426.019 326.048,422.645C326.048,419.213 326.257,416.875 326.677,415.633C327.096,414.39 327.868,413.769 328.992,413.769C330.098,413.769 330.856,414.375 331.265,415.588C331.675,416.802 331.88,419.095 331.88,422.468Z" style="fill:rgb(51,51,51);fill-rule:nonzero;"/>
                <path d="M332.252,529.346L332.252,449.454C332.252,448.475 332.164,447.563 331.984,446.724C331.825,445.983 331.58,445.31 331.222,444.816C330.988,444.493 330.666,444.222 330.25,444.061C329.915,443.931 329.487,443.861 328.964,443.861C328.461,443.861 328.042,443.931 327.707,444.061C327.3,444.219 326.978,444.478 326.736,444.794C326.332,445.323 326.078,446.075 325.929,446.868C325.929,446.868 325.929,446.868 325.929,446.868C325.78,447.664 325.705,448.526 325.705,449.454L325.705,529.346C325.705,530.427 325.796,531.326 325.948,532.069C325.948,532.069 325.948,532.069 325.948,532.069C326.093,532.78 326.341,533.489 326.736,534.005C326.736,534.005 326.736,534.006 326.736,534.006C326.978,534.321 327.3,534.581 327.707,534.739C327.707,534.739 327.707,534.739 327.707,534.739C328.042,534.869 328.461,534.938 328.964,534.938C328.964,534.938 328.964,534.938 328.964,534.938C329.487,534.938 329.915,534.869 330.25,534.739C330.666,534.577 330.988,534.306 331.222,533.983C331.222,533.983 331.222,533.983 331.222,533.983C331.57,533.503 331.808,532.875 331.962,532.215C332.146,531.432 332.252,530.485 332.252,529.346ZM331.337,529.346C331.337,529.819 331.299,530.219 331.222,530.544C331.146,530.87 331.022,531.151 330.851,531.387C330.679,531.624 330.441,531.802 330.136,531.92C329.831,532.038 329.44,532.098 328.964,532.098C328.506,532.098 328.125,532.038 327.82,531.92C327.515,531.802 327.272,531.624 327.091,531.387C326.91,531.151 326.786,530.87 326.72,530.544C326.653,530.219 326.62,529.819 326.62,529.346L326.62,449.454C326.62,449.039 326.653,448.655 326.72,448.3C326.786,447.945 326.91,447.649 327.091,447.412C327.272,447.175 327.515,446.998 327.82,446.879C328.125,446.761 328.506,446.702 328.964,446.702C329.44,446.702 329.831,446.761 330.136,446.879C330.441,446.998 330.679,447.175 330.851,447.412C331.022,447.649 331.146,447.945 331.222,448.3C331.299,448.655 331.337,449.039 331.337,449.454L331.337,529.346ZM332.795,422.468C332.795,418.045 332.434,415.123 331.897,413.532C331.369,411.97 330.416,410.928 328.992,410.928C327.55,410.928 326.583,411.984 326.045,413.578C325.498,415.2 325.133,418.166 325.133,422.645C325.133,427.068 325.494,429.99 326.031,431.581C326.559,433.143 327.512,434.185 328.935,434.185C330.378,434.185 331.345,433.13 331.883,431.535C332.43,429.914 332.795,426.947 332.795,422.468ZM331.88,422.468C331.88,425.9 331.67,428.238 331.251,429.481C330.832,430.723 330.06,431.345 328.935,431.345C327.83,431.345 327.072,430.738 326.662,429.525C326.253,428.312 326.048,426.019 326.048,422.645C326.048,419.213 326.257,416.875 326.677,415.633C327.096,414.39 327.868,413.769 328.992,413.769C330.098,413.769 330.856,414.375 331.265,415.588C331.675,416.802 331.88,419.095 331.88,422.468Z" style="fill:white;"/>
                <path d="M359.286,529.346C359.286,529.819 359.248,530.219 359.171,530.544C359.095,530.87 358.971,531.151 358.8,531.387C358.628,531.624 358.39,531.802 358.085,531.92C357.78,532.038 357.399,532.098 356.942,532.098C356.465,532.098 356.074,532.038 355.769,531.92C355.464,531.802 355.226,531.624 355.055,531.387C354.883,531.151 354.759,530.87 354.683,530.544C354.607,530.219 354.569,529.819 354.569,529.346L354.569,482.565C354.569,478.008 354.454,474.339 354.226,471.557C353.997,468.776 353.663,466.379 353.225,464.367C352.787,462.355 352.219,460.816 351.524,459.751C350.828,458.686 350.023,458.153 349.108,458.153C347.926,458.153 346.745,459.455 345.563,462.059C344.381,464.663 343.142,468.48 341.846,473.51L341.846,529.346C341.846,529.819 341.808,530.219 341.732,530.544C341.656,530.87 341.532,531.151 341.36,531.387C341.189,531.624 340.95,531.802 340.646,531.92C340.341,532.038 339.95,532.098 339.473,532.098C339.016,532.098 338.635,532.038 338.33,531.92C338.025,531.802 337.782,531.624 337.601,531.387C337.42,531.151 337.296,530.87 337.229,530.544C337.162,530.219 337.129,529.819 337.129,529.346L337.129,449.454C337.129,448.98 337.158,448.581 337.215,448.255C337.272,447.93 337.386,447.634 337.558,447.368C337.729,447.101 337.949,446.924 338.215,446.835C338.482,446.746 338.835,446.702 339.273,446.702C339.693,446.702 340.04,446.746 340.317,446.835C340.593,446.924 340.808,447.101 340.96,447.368C341.112,447.634 341.222,447.93 341.289,448.255C341.356,448.581 341.389,448.98 341.389,449.454L341.389,460.017C342.837,454.987 344.281,451.303 345.72,448.965C347.159,446.628 348.612,445.459 350.08,445.459C351.795,445.459 353.239,446.362 354.411,448.167C355.584,449.972 356.532,452.383 357.256,455.401C357.98,458.419 358.5,461.955 358.814,466.009C359.129,470.063 359.286,474.93 359.286,480.612L359.286,529.346Z" style="fill:rgb(51,51,51);fill-rule:nonzero;"/>
                <path d="M360.201,529.346L360.201,480.612C360.201,474.671 360.032,469.583 359.704,465.344C359.358,460.894 358.785,457.017 357.99,453.704C357.181,450.336 356.126,447.636 354.818,445.622C353.535,443.646 351.957,442.618 350.08,442.618C348.47,442.618 346.875,443.884 345.296,446.449C344.302,448.063 343.304,450.275 342.305,453.096C342.304,453.099 342.304,449.454 342.304,449.454C342.304,448.373 342.213,447.473 342.061,446.73C341.926,446.072 341.717,445.43 341.409,444.892C341.171,444.477 340.842,444.148 340.411,444.009C340.11,443.913 339.73,443.861 339.273,443.861C338.794,443.861 338.409,443.914 338.118,444.011C337.724,444.142 337.402,444.433 337.149,444.827C336.767,445.419 336.539,446.171 336.412,446.895C336.289,447.593 336.214,448.439 336.214,449.454C336.214,449.454 336.214,529.346 336.214,529.346C336.214,530.427 336.305,531.326 336.457,532.069C336.457,532.069 336.457,532.069 336.457,532.069C336.603,532.78 336.85,533.489 337.246,534.005C337.246,534.005 337.246,534.006 337.246,534.006C337.487,534.321 337.81,534.581 338.216,534.739C338.216,534.739 338.216,534.739 338.216,534.739C338.552,534.869 338.971,534.938 339.473,534.938C339.473,534.938 339.473,534.938 339.473,534.938C339.996,534.938 340.425,534.869 340.759,534.739C341.175,534.577 341.498,534.306 341.732,533.983C341.732,533.983 341.732,533.983 341.732,533.983C342.08,533.503 342.317,532.875 342.472,532.215C342.655,531.432 342.761,530.485 342.761,529.346C342.761,529.346 342.761,474.515 342.761,474.515C343.922,470.104 345.029,466.718 346.092,464.375C347.1,462.156 348.101,460.994 349.108,460.994C349.869,460.994 350.54,461.412 351.119,462.299C351.671,463.143 352.12,464.364 352.467,465.959C352.851,467.72 353.139,469.824 353.339,472.26C353.553,474.863 353.654,478.299 353.654,482.565C353.654,482.565 353.654,529.346 353.654,529.346C353.654,530.485 353.76,531.432 353.943,532.215C353.943,532.215 353.943,532.215 353.943,532.215C354.098,532.875 354.335,533.503 354.683,533.983C354.683,533.983 354.683,533.983 354.683,533.983C354.917,534.306 355.24,534.577 355.656,534.739C355.656,534.739 355.656,534.739 355.656,534.739C355.99,534.869 356.419,534.938 356.942,534.938C356.942,534.938 356.942,534.938 356.942,534.938C357.444,534.938 357.863,534.869 358.199,534.739C358.615,534.577 358.937,534.306 359.171,533.983C359.171,533.983 359.171,533.983 359.171,533.983C359.519,533.503 359.757,532.875 359.911,532.215C360.095,531.432 360.201,530.485 360.201,529.346ZM359.286,529.346C359.286,529.819 359.248,530.219 359.171,530.544C359.095,530.87 358.971,531.151 358.8,531.387C358.628,531.624 358.39,531.802 358.085,531.92C357.78,532.038 357.399,532.098 356.942,532.098C356.465,532.098 356.074,532.038 355.769,531.92C355.464,531.802 355.226,531.624 355.055,531.387C354.883,531.151 354.759,530.87 354.683,530.544C354.607,530.219 354.569,529.819 354.569,529.346L354.569,482.565C354.569,478.008 354.454,474.339 354.226,471.557C353.997,468.776 353.663,466.379 353.225,464.367C352.787,462.355 352.219,460.816 351.524,459.751C350.828,458.686 350.023,458.153 349.108,458.153C347.926,458.153 346.745,459.455 345.563,462.059C344.381,464.663 343.142,468.48 341.846,473.51L341.846,529.346C341.846,529.819 341.808,530.219 341.732,530.544C341.656,530.87 341.532,531.151 341.36,531.387C341.189,531.624 340.95,531.802 340.646,531.92C340.341,532.038 339.95,532.098 339.473,532.098C339.016,532.098 338.635,532.038 338.33,531.92C338.025,531.802 337.782,531.624 337.601,531.387C337.42,531.151 337.296,530.87 337.229,530.544C337.162,530.219 337.129,529.819 337.129,529.346L337.129,449.454C337.129,448.98 337.158,448.581 337.215,448.255C337.272,447.93 337.386,447.634 337.558,447.368C337.729,447.101 337.949,446.924 338.215,446.835C338.482,446.746 338.835,446.702 339.273,446.702C339.693,446.702 340.04,446.746 340.317,446.835C340.593,446.924 340.808,447.101 340.96,447.368C341.112,447.634 341.222,447.93 341.289,448.255C341.356,448.581 341.389,448.98 341.389,449.454L341.389,460.017C342.837,454.987 344.281,451.303 345.72,448.965C347.159,446.628 348.612,445.459 350.08,445.459C351.795,445.459 353.239,446.362 354.411,448.167C355.584,449.972 356.532,452.383 357.256,455.401C357.98,458.419 358.5,461.955 358.814,466.009C359.129,470.063 359.286,474.93 359.286,480.612L359.286,529.346Z" style="fill:white;"/>
                <path d="M386.92,485.938C386.92,488.246 386.734,489.888 386.36,490.864C385.987,491.841 385.561,492.329 385.082,492.329L368.137,492.329C368.137,496.768 368.281,500.762 368.568,504.313C368.855,507.864 369.334,510.911 370.004,513.456C370.675,516.001 371.546,517.954 372.619,519.315C373.691,520.676 375.003,521.357 376.554,521.357C377.78,521.357 378.872,521.046 379.83,520.425C380.787,519.803 381.615,519.108 382.315,518.338C383.014,517.569 383.588,516.874 384.038,516.252C384.489,515.631 384.829,515.32 385.059,515.32C385.193,515.32 385.312,515.424 385.417,515.631C385.523,515.838 385.604,516.149 385.662,516.563C385.719,516.977 385.762,517.554 385.791,518.294C385.82,519.034 385.834,519.936 385.834,521.002C385.834,521.771 385.824,522.437 385.805,522.999C385.786,523.561 385.763,524.064 385.734,524.508C385.705,524.952 385.658,525.351 385.591,525.706C385.524,526.061 385.439,526.402 385.334,526.727C385.229,527.053 384.919,527.585 384.405,528.325C383.89,529.065 383.223,529.79 382.403,530.5C381.584,531.21 380.635,531.846 379.559,532.408C378.482,532.971 377.333,533.252 376.114,533.252C373.998,533.252 372.144,532.334 370.553,530.5C368.961,528.665 367.623,525.943 366.536,522.333C365.45,518.723 364.63,514.196 364.077,508.751C363.525,503.307 363.248,496.975 363.248,489.755C363.248,482.89 363.534,476.721 364.106,471.246C364.678,465.772 365.502,461.127 366.579,457.31C367.656,453.493 368.957,450.563 370.481,448.522C372.006,446.48 373.712,445.459 375.599,445.459C377.619,445.459 379.339,446.465 380.759,448.477C382.179,450.489 383.347,453.197 384.262,456.6C385.176,460.002 385.848,463.997 386.277,468.583C386.706,473.17 386.92,478.067 386.92,483.275L386.92,485.938ZM382.175,481.588C382.232,473.895 381.68,467.858 380.52,463.479C379.36,459.1 377.639,456.91 375.357,456.91C374.188,456.91 373.162,457.591 372.279,458.952C371.397,460.313 370.659,462.118 370.064,464.367C369.47,466.616 369.01,469.234 368.684,472.223C368.358,475.212 368.176,478.333 368.137,481.588L382.175,481.588Z" style="fill:rgb(51,51,51);fill-rule:nonzero;"/>
                <path d="M387.835,485.938L387.835,483.275C387.835,477.786 387.608,472.625 387.156,467.791C386.69,462.81 385.958,458.475 384.964,454.779C383.964,451.061 382.691,448.092 381.139,445.893C379.614,443.732 377.769,442.618 375.599,442.618C373.578,442.618 371.752,443.727 370.119,445.913C368.467,448.126 367.058,451.302 365.891,455.438C364.737,459.53 363.849,464.502 363.236,470.37C362.637,476.104 362.333,482.564 362.333,489.755C362.333,497.3 362.627,503.916 363.205,509.605C363.802,515.489 364.694,520.371 365.868,524.272C367.049,528.199 368.504,531.168 370.235,533.163C371.917,535.103 373.876,536.092 376.114,536.092C377.387,536.092 378.586,535.797 379.71,535.21C380.823,534.629 381.802,533.97 382.649,533.236C383.526,532.476 384.238,531.694 384.789,530.903C385.458,529.941 385.844,529.159 385.981,528.736C386.144,528.227 386.277,527.692 386.381,527.138C386.497,526.523 386.582,525.834 386.631,525.065C386.665,524.545 386.693,523.955 386.715,523.296C386.737,522.65 386.749,521.885 386.749,521.002C386.749,519.802 386.732,518.787 386.699,517.954C386.657,516.876 386.586,516.043 386.502,515.439C386.364,514.447 386.159,513.728 385.907,513.232C385.658,512.741 385.376,512.48 385.059,512.48C384.747,512.48 384.277,512.814 383.667,513.657C383.234,514.254 382.681,514.921 382.009,515.661C381.343,516.394 380.554,517.052 379.642,517.644C378.74,518.23 377.71,518.516 376.554,518.516C375.14,518.516 373.943,517.926 372.965,516.685C372.042,515.514 371.289,513.847 370.713,511.658C370.124,509.423 369.708,506.739 369.455,503.621C369.247,501.051 369.121,498.234 369.073,495.17C369.073,495.17 385.082,495.17 385.082,495.17C385.782,495.17 386.405,494.463 386.95,493.037C387.494,491.614 387.835,489.301 387.835,485.938ZM386.92,485.938C386.92,488.246 386.734,489.888 386.36,490.864C385.987,491.841 385.561,492.329 385.082,492.329L368.137,492.329C368.137,496.768 368.281,500.762 368.568,504.313C368.855,507.864 369.334,510.911 370.004,513.456C370.675,516.001 371.546,517.954 372.619,519.315C373.691,520.676 375.003,521.357 376.554,521.357C377.78,521.357 378.872,521.046 379.83,520.425C380.787,519.803 381.615,519.108 382.315,518.338C383.014,517.569 383.588,516.874 384.038,516.252C384.489,515.631 384.829,515.32 385.059,515.32C385.193,515.32 385.312,515.424 385.417,515.631C385.523,515.838 385.604,516.149 385.662,516.563C385.719,516.977 385.762,517.554 385.791,518.294C385.82,519.034 385.834,519.936 385.834,521.002C385.834,521.771 385.824,522.437 385.805,522.999C385.786,523.561 385.763,524.064 385.734,524.508C385.705,524.952 385.658,525.351 385.591,525.706C385.524,526.061 385.439,526.402 385.334,526.727C385.229,527.053 384.919,527.585 384.405,528.325C383.89,529.065 383.223,529.79 382.403,530.5C381.584,531.21 380.635,531.846 379.559,532.408C378.482,532.971 377.333,533.252 376.114,533.252C373.998,533.252 372.144,532.334 370.553,530.5C368.961,528.665 367.623,525.943 366.536,522.333C365.45,518.723 364.63,514.196 364.077,508.751C363.525,503.307 363.248,496.975 363.248,489.755C363.248,482.89 363.534,476.721 364.106,471.246C364.678,465.772 365.502,461.127 366.579,457.31C367.656,453.493 368.957,450.563 370.481,448.522C372.006,446.48 373.712,445.459 375.599,445.459C377.619,445.459 379.339,446.465 380.759,448.477C382.179,450.489 383.347,453.197 384.262,456.6C385.176,460.002 385.848,463.997 386.277,468.583C386.706,473.17 386.92,478.067 386.92,483.275L386.92,485.938ZM382.175,481.588C382.232,473.895 381.68,467.858 380.52,463.479C379.36,459.1 377.639,456.91 375.357,456.91C374.188,456.91 373.162,457.591 372.279,458.952C371.397,460.313 370.659,462.118 370.064,464.367C369.47,466.616 369.01,469.234 368.684,472.223C368.358,475.212 368.176,478.333 368.137,481.588L382.175,481.588ZM381.252,478.747L369.131,478.747C369.212,476.823 369.352,474.951 369.55,473.134C369.839,470.486 370.245,468.162 370.772,466.169C371.285,464.226 371.924,462.672 372.687,461.496C373.452,460.315 374.343,459.751 375.357,459.751C377.32,459.751 378.816,461.517 379.814,465.284C380.708,468.661 381.173,473.162 381.252,478.748L381.252,478.747Z" style="fill:white;"/>
                <path d="M418.272,528.547C418.272,529.198 418.233,529.745 418.157,530.189C418.081,530.633 417.9,531.003 417.614,531.299C417.328,531.595 416.909,531.802 416.356,531.92C415.803,532.038 415.05,532.098 414.098,532.098C413.297,532.098 412.659,532.038 412.182,531.92C411.706,531.802 411.329,531.58 411.053,531.254C410.776,530.929 410.581,530.515 410.467,530.012C410.352,529.509 410.257,528.902 410.181,528.192L406.864,502.538C406.464,499.638 406.073,497.063 405.692,494.815C405.311,492.566 404.887,490.687 404.42,489.178C403.953,487.669 403.415,486.53 402.805,485.76C402.195,484.991 401.49,484.606 400.689,484.606L398.345,484.606L398.345,528.369C398.345,528.961 398.283,529.494 398.159,529.967C398.035,530.441 397.83,530.825 397.544,531.121C397.258,531.417 396.877,531.654 396.401,531.831C395.924,532.009 395.314,532.098 394.571,532.098C393.847,532.098 393.242,532.009 392.756,531.831C392.269,531.654 391.884,531.417 391.598,531.121C391.312,530.825 391.112,530.441 390.997,529.967C390.883,529.494 390.826,528.961 390.826,528.369L390.826,424.066C390.826,421.462 391.04,419.583 391.469,418.429C391.898,417.275 392.427,416.698 393.056,416.698L402.633,416.698C403.605,416.698 404.406,416.757 405.035,416.875C405.664,416.994 406.235,417.142 406.75,417.319C408.237,417.97 409.576,419.095 410.767,420.693C411.958,422.29 412.968,424.376 413.797,426.951C414.626,429.525 415.26,432.573 415.699,436.094C416.137,439.615 416.356,443.654 416.356,448.211C416.356,452.058 416.199,455.564 415.884,458.73C415.57,461.896 415.108,464.722 414.498,467.208C413.888,469.693 413.135,471.853 412.239,473.688C411.343,475.522 410.324,477.002 409.18,478.126C409.733,478.955 410.252,479.961 410.738,481.144C411.224,482.328 411.682,483.763 412.111,485.45C412.539,487.136 412.944,489.059 413.326,491.22C413.707,493.38 414.078,495.821 414.441,498.543L417.557,521.179C417.843,523.428 418.033,525.07 418.129,526.106C418.224,527.141 418.272,527.955 418.272,528.547ZM408.58,450.608C408.58,446.82 408.303,443.625 407.751,441.021C407.198,438.417 406.293,436.582 405.035,435.517C404.653,435.221 404.22,434.984 403.734,434.807C403.248,434.629 402.576,434.541 401.718,434.541L398.345,434.541L398.345,467.119L402.176,467.119C403.243,467.119 404.177,466.719 404.977,465.92C405.778,465.121 406.445,463.997 406.979,462.547C407.512,461.097 407.913,459.366 408.18,457.354C408.446,455.342 408.58,453.093 408.58,450.608Z" style="fill:rgb(51,51,51);fill-rule:nonzero;"/>
                <path d="M419.186,528.547C419.186,527.767 419.134,526.69 419.008,525.326C418.908,524.235 418.709,522.504 418.408,520.136L415.284,497.44C414.908,494.621 414.523,492.093 414.128,489.855C413.721,487.546 413.287,485.492 412.829,483.689C412.352,481.815 411.843,480.224 411.303,478.909C411.275,478.841 411.247,478.773 411.218,478.706C411.759,477.916 412.267,477.033 412.743,476.059C413.728,474.041 414.555,471.662 415.225,468.929C415.899,466.184 416.411,463.064 416.759,459.567C417.098,456.149 417.271,452.364 417.271,448.211C417.271,443.268 417.027,438.889 416.552,435.07C416.066,431.169 415.363,427.794 414.444,424.942C413.537,422.125 412.433,419.833 411.13,418.085C409.869,416.393 408.452,415.196 406.878,414.507C406.869,414.503 406.86,414.499 406.851,414.496C406.323,414.314 405.736,414.162 405.09,414.04C404.447,413.919 403.628,413.857 402.633,413.857L393.056,413.857C392.188,413.857 391.462,414.69 390.87,416.282C390.272,417.89 389.911,420.437 389.911,424.066L389.911,528.369C389.911,529.592 390.029,530.693 390.265,531.672C390.468,532.51 390.802,533.292 391.308,533.816C391.639,534.159 392.086,534.447 392.649,534.652C393.163,534.84 393.804,534.938 394.571,534.938C395.359,534.938 396.005,534.84 396.51,534.652C397.062,534.446 397.502,534.159 397.834,533.816C398.323,533.31 398.657,532.569 398.869,531.758C399.131,530.755 399.26,529.623 399.26,528.369C399.26,528.369 399.26,487.447 399.26,487.447C399.26,487.447 400.689,487.447 400.689,487.447C401.359,487.447 401.95,487.748 402.46,488.392C402.951,489.011 403.384,489.931 403.76,491.146C404.173,492.481 404.545,494.149 404.883,496.138C405.253,498.32 405.631,500.817 406.02,503.629C406.02,503.629 409.322,529.177 409.322,529.177C409.428,530.14 409.563,530.961 409.719,531.65C409.92,532.532 410.244,533.34 410.728,533.91C410.728,533.91 410.728,533.91 410.728,533.91C411.067,534.309 411.526,534.607 412.109,534.752C412.604,534.875 413.267,534.938 414.098,534.938C415.077,534.938 415.851,534.876 416.419,534.754C417.072,534.614 417.566,534.343 417.903,533.994C417.903,533.994 417.903,533.994 417.903,533.994C418.486,533.39 418.809,532.431 418.964,531.526C419.103,530.718 419.186,529.731 419.186,528.547ZM418.272,528.547C418.272,529.198 418.233,529.745 418.157,530.189C418.081,530.633 417.9,531.003 417.614,531.299C417.328,531.595 416.909,531.802 416.356,531.92C415.803,532.038 415.05,532.098 414.098,532.098C413.297,532.098 412.659,532.038 412.182,531.92C411.706,531.802 411.329,531.58 411.053,531.254C410.776,530.929 410.581,530.515 410.467,530.012C410.352,529.509 410.257,528.902 410.181,528.192L406.864,502.538C406.464,499.638 406.073,497.063 405.692,494.815C405.311,492.566 404.887,490.687 404.42,489.178C403.953,487.669 403.415,486.53 402.805,485.76C402.195,484.991 401.49,484.606 400.689,484.606L398.345,484.606L398.345,528.369C398.345,528.961 398.283,529.494 398.159,529.967C398.035,530.441 397.83,530.825 397.544,531.121C397.258,531.417 396.877,531.654 396.401,531.831C395.924,532.009 395.314,532.098 394.571,532.098C393.847,532.098 393.242,532.009 392.756,531.831C392.269,531.654 391.884,531.417 391.598,531.121C391.312,530.825 391.112,530.441 390.997,529.967C390.883,529.494 390.826,528.961 390.826,528.369L390.826,424.066C390.826,421.462 391.04,419.583 391.469,418.429C391.898,417.275 392.427,416.698 393.056,416.698L402.633,416.698C403.605,416.698 404.406,416.757 405.035,416.875C405.664,416.994 406.235,417.142 406.75,417.319C408.237,417.97 409.576,419.095 410.767,420.693C411.958,422.29 412.968,424.376 413.797,426.951C414.626,429.525 415.26,432.573 415.699,436.094C416.137,439.615 416.356,443.654 416.356,448.211C416.356,452.058 416.199,455.564 415.884,458.73C415.57,461.896 415.108,464.722 414.498,467.208C413.888,469.693 413.135,471.853 412.239,473.688C411.343,475.522 410.324,477.002 409.18,478.126C409.733,478.955 410.252,479.961 410.738,481.144C411.224,482.328 411.682,483.763 412.111,485.45C412.539,487.136 412.944,489.059 413.326,491.22C413.707,493.38 414.078,495.821 414.441,498.543L417.557,521.179C417.843,523.428 418.033,525.07 418.129,526.106C418.224,527.141 418.272,527.955 418.272,528.547ZM408.58,450.608C408.58,446.82 408.303,443.625 407.751,441.021C407.198,438.417 406.293,436.582 405.035,435.517C404.653,435.221 404.22,434.984 403.734,434.807C403.248,434.629 402.576,434.541 401.718,434.541L398.345,434.541L398.345,467.119L402.176,467.119C403.243,467.119 404.177,466.719 404.977,465.92C405.778,465.121 406.445,463.997 406.979,462.547C407.512,461.097 407.913,459.366 408.18,457.354C408.446,455.342 408.58,453.093 408.58,450.608ZM407.665,450.608C407.665,452.694 407.558,454.584 407.334,456.273C407.121,457.876 406.802,459.254 406.376,460.409C405.929,461.623 405.368,462.547 404.698,463.216C403.977,463.935 403.136,464.278 402.176,464.278C402.176,464.278 399.26,464.278 399.26,464.278C399.26,464.278 399.26,437.381 399.26,437.381C399.26,437.381 401.718,437.381 401.718,437.381C402.53,437.381 403.167,437.46 403.627,437.628C404.066,437.788 404.459,437.999 404.804,438.266C405.807,439.12 406.545,440.505 406.987,442.584C407.449,444.76 407.665,447.443 407.665,450.608Z" style="fill:white;"/>
                <path d="M443.975,497.123C443.975,503.159 443.612,508.456 442.888,513.012C442.164,517.569 441.182,521.371 439.944,524.419C438.705,527.467 437.256,529.76 435.598,531.299C433.94,532.837 432.167,533.607 430.28,533.607C429.003,533.607 427.817,533.281 426.721,532.63C425.625,531.979 424.658,531.195 423.819,530.278C422.98,529.361 422.28,528.399 421.718,527.393C421.155,526.387 420.75,525.499 420.503,524.73C420.255,523.96 420.079,522.851 419.974,521.401C419.869,519.951 419.817,517.865 419.817,515.143C419.817,513.308 419.836,511.77 419.874,510.527C419.912,509.284 419.974,508.278 420.06,507.509C420.145,506.739 420.26,506.192 420.403,505.866C420.546,505.541 420.712,505.378 420.903,505.378C421.17,505.378 421.546,505.866 422.032,506.843C422.518,507.819 423.142,508.899 423.905,510.083C424.667,511.267 425.577,512.347 426.635,513.323C427.693,514.299 428.918,514.788 430.309,514.788C431.224,514.788 432.043,514.447 432.768,513.767C433.492,513.086 434.107,512.125 434.612,510.882C435.117,509.639 435.503,508.1 435.769,506.266C436.036,504.431 436.17,502.39 436.17,500.141C436.17,497.537 435.941,495.303 435.484,493.439C435.026,491.575 434.431,489.918 433.697,488.468C432.963,487.018 432.129,485.657 431.195,484.384C430.261,483.112 429.299,481.766 428.308,480.345C427.317,478.925 426.354,477.312 425.42,475.507C424.486,473.702 423.652,471.542 422.919,469.027C422.185,466.512 421.589,463.538 421.132,460.106C420.674,456.674 420.446,452.561 420.446,447.767C420.446,442.263 420.774,437.426 421.432,433.253C422.089,429.081 422.976,425.619 424.091,422.867C425.206,420.116 426.521,418.059 428.036,416.698C429.551,415.337 431.157,414.656 432.853,414.656C433.73,414.656 434.607,414.863 435.484,415.278C436.36,415.692 437.18,416.254 437.942,416.964C438.705,417.674 439.381,418.473 439.972,419.361C440.563,420.249 440.954,420.988 441.144,421.58C441.335,422.172 441.464,422.675 441.53,423.089C441.597,423.504 441.654,424.051 441.702,424.732C441.749,425.412 441.783,426.27 441.802,427.306C441.821,428.341 441.83,429.629 441.83,431.167C441.83,432.883 441.816,434.333 441.788,435.517C441.759,436.701 441.711,437.677 441.645,438.446C441.578,439.216 441.483,439.778 441.359,440.133C441.235,440.488 441.068,440.666 440.858,440.666C440.649,440.666 440.315,440.251 439.858,439.423C439.4,438.594 438.838,437.692 438.171,436.715C437.504,435.739 436.732,434.851 435.855,434.052C434.978,433.253 434.016,432.854 432.968,432.854C432.148,432.854 431.433,433.165 430.823,433.786C430.214,434.407 429.704,435.265 429.294,436.36C428.884,437.455 428.579,438.772 428.379,440.311C428.179,441.849 428.079,443.477 428.079,445.193C428.079,447.738 428.303,449.942 428.751,451.806C429.199,453.67 429.799,455.327 430.552,456.777C431.305,458.227 432.158,459.588 433.111,460.861C434.064,462.133 435.036,463.479 436.027,464.9C437.018,466.32 437.99,467.932 438.943,469.737C439.896,471.542 440.744,473.702 441.487,476.218C442.231,478.733 442.831,481.692 443.288,485.094C443.746,488.497 443.975,492.507 443.975,497.123Z" style="fill:rgb(51,51,51);fill-rule:nonzero;"/>
                <path d="M444.889,497.123C444.889,492.085 444.632,487.714 444.133,484C443.633,480.279 442.974,477.047 442.161,474.297C441.36,471.586 440.446,469.258 439.419,467.312C438.436,465.45 437.433,463.786 436.41,462.32C435.412,460.889 434.432,459.533 433.472,458.251C432.564,457.039 431.751,455.744 431.034,454.363C430.388,453.118 429.869,451.708 429.484,450.108C429.152,448.724 428.994,447.081 428.994,445.193C428.994,443.851 429.071,442.577 429.227,441.374C429.372,440.259 429.594,439.307 429.891,438.513C430.216,437.644 430.624,436.979 431.109,436.485C431.637,435.947 432.257,435.695 432.968,435.695C433.922,435.695 434.799,436.05 435.598,436.778C436.424,437.531 437.152,438.364 437.781,439.285C438.42,440.22 438.959,441.083 439.397,441.876C440.056,443.07 440.556,443.506 440.858,443.506C441.332,443.506 441.699,443.022 441.979,442.22C442.205,441.572 442.406,440.59 442.528,439.185C442.607,438.277 442.666,437.126 442.7,435.729C442.73,434.488 442.745,432.967 442.745,431.167C442.745,429.564 442.735,428.223 442.715,427.144C442.693,425.93 442.652,424.926 442.596,424.128C442.529,423.169 442.443,422.403 442.349,421.819C442.25,421.209 442.072,420.443 441.791,419.572C441.558,418.849 441.092,417.888 440.371,416.804C439.74,415.857 439.019,415.001 438.205,414.243C437.404,413.497 436.543,412.905 435.621,412.469C434.699,412.033 433.776,411.816 432.853,411.816C431.067,411.816 429.377,412.536 427.782,413.969C426.145,415.44 424.726,417.671 423.521,420.644C422.301,423.655 421.33,427.439 420.61,432.005C419.896,436.537 419.531,441.788 419.531,447.767C419.531,452.984 419.788,457.456 420.286,461.192C420.786,464.942 421.439,468.187 422.24,470.934C423.031,473.645 423.93,475.974 424.937,477.919C425.903,479.787 426.899,481.455 427.924,482.924C428.921,484.353 429.889,485.706 430.828,486.986C431.715,488.195 432.508,489.486 433.206,490.864C433.841,492.12 434.36,493.546 434.756,495.16C435.095,496.543 435.255,498.21 435.255,500.141C435.255,501.959 435.151,503.613 434.936,505.097C434.73,506.511 434.433,507.698 434.043,508.656C433.622,509.692 433.107,510.48 432.503,511.048C431.857,511.655 431.125,511.947 430.309,511.947C429.016,511.947 427.878,511.507 426.896,510.6C425.896,509.677 425.035,508.661 424.314,507.542C423.588,506.414 422.992,505.388 422.529,504.458C421.838,503.07 421.282,502.538 420.903,502.538C420.505,502.538 420.16,502.897 419.862,503.576C419.595,504.182 419.355,505.146 419.195,506.579C419.09,507.518 419.009,508.742 418.963,510.257C418.923,511.573 418.902,513.201 418.902,515.143C418.902,518.136 418.966,520.429 419.081,522.023C419.231,524.091 419.502,525.641 419.856,526.738C420.143,527.632 420.608,528.686 421.261,529.854C421.864,530.934 422.615,531.973 423.515,532.957C424.392,533.916 425.403,534.74 426.549,535.42C427.698,536.103 428.942,536.447 430.28,536.447C432.26,536.447 434.12,535.635 435.86,534.02C437.635,532.373 439.185,529.909 440.512,526.646C441.856,523.338 442.923,519.215 443.709,514.269C444.49,509.351 444.889,503.639 444.889,497.123ZM443.975,497.123C443.975,503.159 443.612,508.456 442.888,513.012C442.164,517.569 441.182,521.371 439.944,524.419C438.705,527.467 437.256,529.76 435.598,531.299C433.94,532.837 432.167,533.607 430.28,533.607C429.003,533.607 427.817,533.281 426.721,532.63C425.625,531.979 424.658,531.195 423.819,530.278C422.98,529.361 422.28,528.399 421.718,527.393C421.155,526.387 420.75,525.499 420.503,524.73C420.255,523.96 420.079,522.851 419.974,521.401C419.869,519.951 419.817,517.865 419.817,515.143C419.817,513.308 419.836,511.77 419.874,510.527C419.912,509.284 419.974,508.278 420.06,507.509C420.145,506.739 420.26,506.192 420.403,505.866C420.546,505.541 420.712,505.378 420.903,505.378C421.17,505.378 421.546,505.866 422.032,506.843C422.518,507.819 423.142,508.899 423.905,510.083C424.667,511.267 425.577,512.347 426.635,513.323C427.693,514.299 428.918,514.788 430.309,514.788C431.224,514.788 432.043,514.447 432.768,513.767C433.492,513.086 434.107,512.125 434.612,510.882C435.117,509.639 435.503,508.1 435.769,506.266C436.036,504.431 436.17,502.39 436.17,500.141C436.17,497.537 435.941,495.303 435.484,493.439C435.026,491.575 434.431,489.918 433.697,488.468C432.963,487.018 432.129,485.657 431.195,484.384C430.261,483.112 429.299,481.766 428.308,480.345C427.317,478.925 426.354,477.312 425.42,475.507C424.486,473.702 423.652,471.542 422.919,469.027C422.185,466.512 421.589,463.538 421.132,460.106C420.674,456.674 420.446,452.561 420.446,447.767C420.446,442.263 420.774,437.426 421.432,433.253C422.089,429.081 422.976,425.619 424.091,422.867C425.206,420.116 426.521,418.059 428.036,416.698C429.551,415.337 431.157,414.656 432.853,414.656C433.73,414.656 434.607,414.863 435.484,415.278C436.36,415.692 437.18,416.254 437.942,416.964C438.705,417.674 439.381,418.473 439.972,419.361C440.563,420.249 440.954,420.988 441.144,421.58C441.335,422.172 441.464,422.675 441.53,423.089C441.597,423.504 441.654,424.051 441.702,424.732C441.749,425.412 441.783,426.27 441.802,427.306C441.821,428.341 441.83,429.629 441.83,431.167C441.83,432.883 441.816,434.333 441.788,435.517C441.759,436.701 441.711,437.677 441.645,438.446C441.578,439.216 441.483,439.778 441.359,440.133C441.235,440.488 441.068,440.666 440.858,440.666C440.649,440.666 440.315,440.251 439.858,439.423C439.4,438.594 438.838,437.692 438.171,436.715C437.504,435.739 436.732,434.851 435.855,434.052C434.978,433.253 434.016,432.854 432.968,432.854C432.148,432.854 431.433,433.165 430.823,433.786C430.214,434.407 429.704,435.265 429.294,436.36C428.884,437.455 428.579,438.772 428.379,440.311C428.179,441.849 428.079,443.477 428.079,445.193C428.079,447.738 428.303,449.942 428.751,451.806C429.199,453.67 429.799,455.327 430.552,456.777C431.305,458.227 432.158,459.588 433.111,460.861C434.064,462.133 435.036,463.479 436.027,464.9C437.018,466.32 437.99,467.932 438.943,469.737C439.896,471.542 440.744,473.702 441.487,476.218C442.231,478.733 442.831,481.692 443.288,485.094C443.746,488.497 443.975,492.507 443.975,497.123Z" style="fill:white;"/>
                <path d="M478.14,522.866C478.369,524.996 478.512,526.683 478.569,527.926C478.626,529.168 478.55,530.1 478.34,530.722C478.131,531.343 477.759,531.728 477.225,531.876C476.692,532.024 475.958,532.098 475.024,532.098C474.052,532.098 473.294,532.053 472.751,531.964C472.208,531.876 471.793,531.698 471.507,531.432C471.222,531.166 471.021,530.796 470.907,530.322C470.793,529.849 470.697,529.227 470.621,528.458L468.134,505.378L454.239,505.378L451.895,527.837C451.819,528.665 451.719,529.361 451.595,529.923C451.471,530.485 451.271,530.929 450.994,531.254C450.718,531.58 450.327,531.802 449.822,531.92C449.317,532.038 448.655,532.098 447.835,532.098C446.959,532.098 446.272,532.009 445.777,531.831C445.281,531.654 444.938,531.225 444.748,530.544C444.557,529.864 444.49,528.902 444.548,527.659C444.605,526.416 444.748,524.759 444.976,522.688L456.384,420.781C456.498,419.775 456.631,418.962 456.784,418.34C456.936,417.719 457.179,417.245 457.513,416.92C457.846,416.594 458.309,416.387 458.899,416.298C459.49,416.21 460.272,416.165 461.244,416.165C462.368,416.165 463.264,416.21 463.931,416.298C464.598,416.387 465.118,416.594 465.489,416.92C465.861,417.245 466.128,417.734 466.29,418.385C466.452,419.036 466.59,419.923 466.704,421.048L478.14,522.866ZM461.158,438.624L461.129,438.624L455.898,487.447L466.39,487.447L461.158,438.624Z" style="fill:rgb(51,51,51);fill-rule:nonzero;"/>
                <path d="M479.008,521.967L467.572,420.145C467.42,418.665 467.228,417.509 467.014,416.648C466.752,415.595 466.339,414.712 465.738,414.186C465.316,413.817 464.727,413.561 463.97,413.46C463.294,413.37 462.385,413.325 461.244,413.325C460.253,413.325 459.457,413.371 458.855,413.461C458.166,413.565 457.628,413.83 457.239,414.21C456.69,414.745 456.307,415.598 456.056,416.619C455.855,417.44 455.672,418.506 455.521,419.836L444.111,521.767C443.859,524.053 443.705,525.886 443.642,527.257C443.539,529.493 443.714,531.184 444.057,532.408C444.057,532.408 444.057,532.408 444.057,532.408C444.361,533.493 444.882,534.37 445.672,534.653C446.193,534.84 446.914,534.938 447.835,534.938C448.683,534.938 449.369,534.875 449.891,534.753C450.507,534.608 450.982,534.307 451.319,533.91C451.8,533.343 452.134,532.506 452.35,531.527C452.521,530.748 452.665,529.794 452.772,528.651C452.77,528.672 454.905,508.219 454.905,508.219C454.905,508.219 467.475,508.219 467.475,508.219C467.475,508.219 469.751,529.334 469.751,529.334C469.863,530.448 470.009,531.338 470.175,532.027C470.383,532.887 470.725,533.669 471.245,534.153C471.58,534.465 472.065,534.697 472.703,534.801C473.258,534.892 474.031,534.938 475.024,534.938C475.992,534.938 476.753,534.858 477.307,534.705C478.114,534.481 478.655,533.716 478.972,532.776C479.37,531.596 479.583,529.884 479.475,527.524C479.412,526.16 479.259,524.306 479.008,521.967ZM478.14,522.866C478.369,524.996 478.512,526.683 478.569,527.926C478.626,529.168 478.55,530.1 478.34,530.722C478.131,531.343 477.759,531.728 477.225,531.876C476.692,532.024 475.958,532.098 475.024,532.098C474.052,532.098 473.294,532.053 472.751,531.964C472.208,531.876 471.793,531.698 471.507,531.432C471.222,531.166 471.021,530.796 470.907,530.322C470.793,529.849 470.697,529.227 470.621,528.458L468.134,505.378L454.239,505.378L451.895,527.837C451.819,528.665 451.719,529.361 451.595,529.923C451.471,530.485 451.271,530.929 450.994,531.254C450.718,531.58 450.327,531.802 449.822,531.92C449.317,532.038 448.655,532.098 447.835,532.098C446.959,532.098 446.272,532.009 445.777,531.831C445.281,531.654 444.938,531.225 444.748,530.544C444.557,529.864 444.49,528.902 444.548,527.659C444.605,526.416 444.748,524.759 444.976,522.688L456.384,420.781C456.498,419.775 456.631,418.962 456.784,418.34C456.936,417.719 457.179,417.245 457.513,416.92C457.846,416.594 458.309,416.387 458.899,416.298C459.49,416.21 460.272,416.165 461.244,416.165C462.368,416.165 463.264,416.21 463.931,416.298C464.598,416.387 465.118,416.594 465.489,416.92C465.861,417.245 466.128,417.734 466.29,418.385C466.452,419.036 466.59,419.923 466.704,421.048L478.14,522.866ZM461.342,440.343L461.158,438.624L461.129,438.624L460.983,439.99L461.002,440.206C461.039,440.601 461.078,440.99 461.12,441.379L460.889,440.863L455.898,487.447L466.39,487.447L461.366,440.568L461.189,441.331L461.177,441.358C461.208,441.185 461.272,440.815 461.342,440.343ZM461.144,447.488L465.121,484.606C465.121,484.606 457.166,484.606 457.166,484.606L461.144,447.488Z" style="fill:white;"/>
            </g>
            <g transform="matrix(0.333719,0,0,0.333719,151.696,44.9475)">
                <path d="M159.488,169.476L153.991,157.382C153.569,156.454 153.647,155.374 154.199,154.517C154.752,153.659 155.702,153.141 156.722,153.141C183.771,153.141 320.355,153.141 347.404,153.141C348.424,153.141 349.374,153.659 349.926,154.517C350.478,155.374 350.557,156.454 350.135,157.382L344.638,169.476L382.209,169.476C383.248,169.476 384.214,170.015 384.761,170.899C385.307,171.784 385.357,172.888 384.892,173.818C373.654,196.294 322.132,299.338 309.746,324.11C309.238,325.126 308.199,325.768 307.063,325.768C305.926,325.768 304.888,325.126 304.379,324.11L288.65,292.65L254.794,367.132C254.307,368.203 253.239,368.891 252.063,368.891C250.886,368.891 249.818,368.203 249.332,367.132L217.857,297.888L202.246,329.11C201.738,330.126 200.699,330.768 199.563,330.768C198.426,330.768 197.388,330.126 196.879,329.11C184.232,303.815 130.707,196.764 119.234,173.818C118.769,172.888 118.818,171.784 119.365,170.899C119.912,170.015 120.877,169.476 121.917,169.476L159.488,169.476Z" style="fill:white;stroke:white;stroke-width:3px;"/>
                <g transform="matrix(-0.817539,1.0012e-16,-9.87035e-17,-0.805976,441.673,464.037)">
                    <path d="M292.863,167.409C293.484,166.148 294.755,165.351 296.145,165.351C297.535,165.351 298.805,166.148 299.427,167.409C314.897,198.793 380.368,331.614 394.402,360.084C394.971,361.238 394.91,362.608 394.241,363.706C393.573,364.803 392.392,365.471 391.12,365.471C361.581,365.471 230.708,365.471 201.17,365.471C199.898,365.471 198.717,364.803 198.048,363.706C197.379,362.608 197.319,361.238 197.887,360.084C211.921,331.614 277.392,198.793 292.863,167.409Z" style="fill:url(#_Linear1);"/>
                </g>
                <g transform="matrix(-0.792765,9.70857e-17,-9.57125e-17,-0.781552,541.836,455.111)">
                    <path d="M292.76,167.617C293.401,166.316 294.711,165.495 296.145,165.495C297.578,165.495 298.888,166.316 299.529,167.617C315.153,199.313 380.144,331.158 394.319,359.916C394.906,361.106 394.843,362.519 394.153,363.651C393.464,364.782 392.246,365.471 390.934,365.471C361.1,365.471 231.19,365.471 201.355,365.471C200.044,365.471 198.826,364.782 198.136,363.651C197.447,362.519 197.384,361.106 197.97,359.916C212.146,331.158 277.136,199.313 292.76,167.617Z" style="fill:url(#_Linear2);"/>
                </g>
                <g transform="matrix(-0.990957,1.21357e-16,-1.31605e-16,-1.07463,545.529,545.889)">
                    <path d="M293.389,166.341C293.88,165.345 294.958,164.705 296.145,164.705C297.332,164.705 298.409,165.345 298.901,166.341C313.604,196.17 382.608,336.158 395.112,361.524C395.538,362.388 395.458,363.393 394.901,364.191C394.344,364.989 393.385,365.471 392.356,365.471C365.06,365.471 227.23,365.471 199.934,365.471C198.904,365.471 197.946,364.989 197.388,364.191C196.831,363.393 196.752,362.388 197.178,361.524C209.682,336.158 278.685,196.17 293.389,166.341Z" style="fill:url(#_Linear3);"/>
                </g>
            </g>
        </g>
    </g>
    <defs>
        <linearGradient id="_Linear1" x1="0" y1="0" x2="1" y2="0" gradientUnits="userSpaceOnUse" gradientTransform="matrix(201.825,0,0,204.721,195.232,263.111)"><stop offset="0" style="stop-color:rgb(64,224,208);stop-opacity:1"/><stop offset="0.5" style="stop-color:rgb(255,140,0);stop-opacity:0.66"/><stop offset="1" style="stop-color:rgb(255,0,128);stop-opacity:0.32"/></linearGradient>
        <linearGradient id="_Linear2" x1="0" y1="0" x2="1" y2="0" gradientUnits="userSpaceOnUse" gradientTransform="matrix(201.825,0,0,204.721,195.232,263.111)"><stop offset="0" style="stop-color:rgb(64,224,208);stop-opacity:1"/><stop offset="0.5" style="stop-color:rgb(255,140,0);stop-opacity:0.66"/><stop offset="1" style="stop-color:rgb(255,0,128);stop-opacity:0.32"/></linearGradient>
        <linearGradient id="_Linear3" x1="0" y1="0" x2="1" y2="0" gradientUnits="userSpaceOnUse" gradientTransform="matrix(201.825,0,0,204.721,195.232,263.111)"><stop offset="0" style="stop-color:rgb(64,224,208);stop-opacity:1"/><stop offset="0.5" style="stop-color:rgb(255,140,0);stop-opacity:0.66"/><stop offset="1" style="stop-color:rgb(255,0,128);stop-opacity:0.32"/></linearGradient>
    </defs>
</svg>
