<svg width="100%" height="100%" viewBox="0 0 273 76" xmlns="http://www.w3.org/2000/svg" xmlns:xlink="http://www.w3.org/1999/xlink" xmlns:serif="http://www.serif.com/" style="fill-rule:evenodd;clip-rule:evenodd;stroke-linejoin:round;stroke-miterlimit:2"><g transform="matrix(1,0,0,1,-136.376,-100)"><g transform="matrix(1,0,0,1,136.376,100)"><path d="M101.903 42.182C100.543 41.729 99.051 41.516 97.453 41.516 94.174 41.516 90.949 43.034 90.949 47.192c0 6.157 8.155 4.691 8.155 8.236C99.104 57.107 97.212 57.827 95.799 57.827 94.333 57.827 92.868 57.373 91.589 56.68L91.242 60.039C93.081 60.492 93.987 60.759 96.012 60.759c3.759.0 6.984-1.546 6.984-5.624C102.996 48.898 94.84 50.257 94.84 47.032 94.84 45.007 96.492 44.447 97.772 44.447 99.075 44.455 100.362 44.727 101.557 45.247L101.903 42.182" style="fill:#fff;fill-rule:nonzero"/></g><g transform="matrix(1,0,0,1,136.376,100)"><path d="M104.52 53.669c0 3.945 2.63800000000001 7.09 7.17 7.09C116.247 60.759 118.885 57.614 118.885 53.669 118.885 49.138 115.767 46.393 111.69 46.393c-4.05199999999999.0-7.17 2.745-7.17 7.276zM108.251 53.242C108.251 51.19 109.371 49.165 111.69 49.165c2.34400000000001.0 3.464 1.972 3.464 4.077.0 2.292-.719999999999999 4.745-3.464 4.745C108.97 57.987 108.251 55.507 108.251 53.242" style="fill:#fff"/></g><g transform="matrix(1,0,0,1,136.376,100)"><path d="M133.63 46.713h-3.571v6.716c0 1.759-.560000000000002 4.558-3.146 4.558C124.623 57.987 124.595 55.721 124.595 54.042v-7.33h-3.571v8.663c0 3.091 1.41200000000001 5.383 4.664 5.383C127.553 60.758 129.098 59.905 130.192 58.573H130.245v1.866H133.629V46.713m4.191 9.594c0 2.72 1.547 4.451 4.345 4.451C143.231 60.758 144.057 60.652 144.803 60.438L144.697 57.614C144.324 57.854 143.711 57.987 143.071 57.987 141.711 57.987 141.391 56.894 141.391 55.721V49.325h3.173V46.713h-3.172V42.82l-3.572 1.146v2.746H135.181V49.324H137.82v6.982m8.53 4.133H149.923V53.722C149.923 51.963 150.483 49.165 153.068 49.165 155.36 49.165 155.387 51.43 155.387 53.109v7.33H158.957V51.777C158.957 48.685 157.545 46.393 154.293 46.393 152.428 46.393 150.883 47.246 149.976 48.578H149.923V40.45h-3.572V60.44" style="fill:#fff;fill-rule:nonzero"/></g><g transform="matrix(1,0,0,1,136.376,100)"><path d="M179.113 53.242H173.676L176.368 45.567H176.421L179.113 53.242zM167.12 60.44h3.864l1.625-4.265H180.152L181.751 60.44H185.883L178.58 41.836H174.37L167.12 60.44" style="fill:#fff"/></g><g transform="matrix(1,0,0,1,136.376,100)"><path d="M199.91 46.713h-3.571v6.716C196.339 55.188 195.779 57.987 193.193 57.987 190.901 57.987 190.875 55.721 190.875 54.042v-7.33h-3.572v8.663C187.303 58.466 188.716 60.758 191.968 60.758 193.833 60.758 195.378 59.905 196.472 58.573H196.525v1.866h3.386V46.713m11.412.186C210.203 46.659 209.111 46.393 207.432 46.393 204.633 46.393 202.048 47.699 202.048 50.657 202.048 55.615 208.258 53.776 208.258 56.467c0 1.333-1.44 1.68-2.345 1.68C204.687 58.147 203.515 57.8 202.395 57.24L202.181 60.172C203.487 60.518 204.873 60.758 206.231 60.758 209.137 60.758 211.989 59.479 211.989 56.281 211.989 51.323 205.779 52.709 205.779 50.524 205.779 49.351 206.925 49.004 207.885 49.004 209.191 49.004 209.991 49.218 211.083 49.591L211.323 46.899m3.947 9.408c0 2.72 1.547 4.451 4.345 4.451C220.681 60.758 221.508 60.652 222.253 60.438L222.147 57.614C221.775 57.854 221.161 57.987 220.521 57.987 219.163 57.987 218.843 56.894 218.843 55.721V49.325h3.172V46.713h-3.172V42.82l-3.572 1.146v2.746H212.631V49.324H215.271v6.982M223.881 60.439h3.572V55.4c0-1.972.0-5.597 2.904-5.597C230.997 49.803 231.637 49.91 231.957 50.096V46.5C231.584 46.394 231.211 46.394 230.864 46.394 228.732 46.394 227.267 48.553 227.107 49.832H227.053V46.714h-3.172V60.44" style="fill:#fff;fill-rule:nonzero"/></g><g transform="matrix(1,0,0,1,136.376,100)"><path d="M234.224 50.497C235.424 49.591 236.943 49.005 238.463 49.005 240.568 49.005 241.553 49.751 241.553 51.963H239.581C238.089 51.963 236.331 52.096 234.971 52.763 233.611 53.429 232.625 54.628 232.625 56.68c0 2.612 2.37200000000001 4.078 4.798 4.078C239.048 60.758 240.835 59.905 241.66 58.386H241.713C241.741 58.813 241.741 59.719 241.873 60.439H245.019C244.94 59.419 244.886 58.396 244.859 57.373 244.825 56.227 244.807 55.081 244.805 53.935V52.176c0-4.05-1.732-5.783-5.916-5.783C237.369 46.393 235.504 46.793 234.117 47.433L234.224 50.497zM236.036 56.467C236.036 54.362 238.409 54.095 240.008 54.095H241.553C241.553 55.161 241.393 56.147 240.808 56.92 240.248 57.667 239.396 58.146 238.303 58.146c-1.28.0-2.267-.506-2.267-1.679" style="fill:#fff"/></g><g transform="matrix(1,0,0,1,136.376,100)"><path d="M247.743 60.439H251.313V40.449H247.743v19.99" style="fill:#fff;fill-rule:nonzero"/></g><g transform="matrix(1,0,0,1,136.376,100)"><path d="M254.485 60.439h3.572V46.713h-3.572V60.439zm0-16.232h3.572V40.796h-3.572v3.411M261.868 50.497C263.068 49.591 264.587 49.005 266.105 49.005 268.211 49.005 269.197 49.751 269.197 51.963H267.225C265.733 51.963 263.973 52.096 262.615 52.763 261.255 53.429 260.269 54.628 260.269 56.68c0 2.612 2.37200000000001 4.078 4.798 4.078C266.692 60.758 268.477 59.905 269.304 58.386H269.357C269.384 58.813 269.384 59.719 269.517 60.439H272.663C272.584 59.419 272.53 58.396 272.503 57.373 272.469 56.227 272.451 55.081 272.449 53.935V52.176C272.449 48.126 270.717 46.393 266.532 46.393 265.013 46.393 263.148 46.793 261.762 47.433L261.868 50.497zM263.681 56.467c0-2.105 2.37-2.372 3.97000000000003-2.372H269.197C269.197 55.161 269.037 56.147 268.451 56.92 267.891 57.667 267.039 58.146 265.947 58.146 264.667 58.146 263.681 57.64 263.681 56.467" style="fill:#fff"/></g><g transform="matrix(1,0,0,1,136.376,100)"><path d="M106.327 15.622C104.728 15.142 103.022 14.849 100.864 14.849 94.547 14.849 90.656 18.42 90.656 24.79c0 6.29 4.184 9.302 10.208 9.302C102.862 34.092 104.914 33.665 106.887 33.132V23.111H99.371v2.932h3.944v4.85C102.675 31.053 101.876 31.16 100.864 31.16 96.892 31.16 94.547 28.308 94.547 24.523 94.547 20.712 96.945 17.781 101.29 17.781 102.782 17.781 104.648 18.101 106.087 18.767L106.327 15.622" style="fill:#fff;fill-rule:nonzero"/></g><g transform="matrix(1,0,0,1,136.376,100)"><path d="M108.947 27.002c0 3.945 2.639 7.09 7.17 7.09 4.55799999999999.0 7.196-3.145 7.196-7.09.0-4.53-3.11800000000001-7.276-7.196-7.276-4.051.0-7.17 2.745-7.17 7.276zM112.679 26.576c0-2.053 1.119-4.078 3.438-4.078 2.34599999999999.0 3.464 1.972 3.464 4.078C119.581 28.868 118.863 31.32 116.117 31.32 113.398 31.32 112.679 28.841 112.679 26.576" style="fill:#fff"/></g><g transform="matrix(1,0,0,1,136.376,100)"><path d="M129.023 33.772h4.024L138.111 20.046h-3.572L131.235 30.041H131.181L127.769 20.046h-3.837L129.022 33.772" style="fill:#fff;fill-rule:nonzero"/></g><g transform="matrix(1,0,0,1,136.376,100)"><path d="M142.14 25.563C142.3 23.724 143.313 22.338 145.312 22.338c1.999.0 2.79899999999998 1.493 2.905 3.225H142.14zM150.616 30.093C149.284 30.84 147.791 31.48 146.059 31.48 143.847 31.48 142.299 30.227 142.139 28.015H151.629c0-4.797-1.44-8.289-6.53-8.289C140.835 19.726 138.729 23.004 138.729 26.976 138.729 31.48 141.368 34.092 145.899 34.092 147.817 34.092 149.311 33.719 150.616 32.999V30.094" style="fill:#fff"/></g><g transform="matrix(1,0,0,1,136.376,100)"><path d="M153.847 33.772H157.417V28.734c0-1.971.0-5.596 2.90600000000001-5.596C160.961 23.138 161.601 23.244 161.921 23.431V19.833C161.548 19.726 161.175 19.726 160.828 19.726 158.696 19.726 157.231 21.885 157.071 23.164H157.017V20.046H153.847V33.772m10.103.0H167.52V27.055C167.52 25.296 168.08 22.498 170.665 22.498 172.957 22.498 172.984 24.764 172.984 26.443v7.329h3.572V25.11C176.556 22.018 175.143 19.726 171.891 19.726 170.025 19.726 168.507 20.339 167.387 21.911H167.333V20.046H163.949V33.772m15.571.0H183.09V27.109c0-1.786.293999999999983-4.611 2.666-4.611C187.808 22.498 187.808 24.31 187.808 25.59v8.182h3.572V27.109C191.38 25.323 191.673 22.498 194.045 22.498 196.097 22.498 196.097 24.31 196.097 25.59v8.182h3.572V25.11c0-3.065-.960000000000008-5.384-4.345-5.384-1.679.0-3.464.773-4.29000000000002 2.426C190.26 20.446 188.901 19.726 186.983 19.726 185.649 19.726 184.023 20.286 182.905 21.966H182.851v-1.92H179.52V33.772" style="fill:#fff;fill-rule:nonzero"/></g><g transform="matrix(1,0,0,1,136.376,100)"><path d="M205.144 25.563C205.303 23.724 206.316 22.338 208.314 22.338 210.314 22.338 211.114 23.831 211.22 25.563H205.144zM213.619 30.093C212.287 30.84 210.793 31.48 209.061 31.48 206.849 31.48 205.303 30.227 205.144 28.015h9.488c0-4.797-1.44-8.289-6.53-8.289-4.26500000000002.0-6.37 3.278-6.37 7.25C201.732 31.48 204.371 34.092 208.902 34.092 210.82 34.092 212.313 33.719 213.619 32.999V30.094" style="fill:#fff"/></g><g transform="matrix(1,0,0,1,136.376,100)"><path d="M216.768 33.772h3.572V27.055C220.34 25.296 220.9 22.498 223.485 22.498 225.777 22.498 225.804 24.764 225.804 26.443v7.329H229.374V25.11c0-3.092-1.411-5.384-4.66299999999998-5.384C222.845 19.726 221.327 20.339 220.207 21.911H220.153V20.046H216.768V33.772m16.797-4.132c0 2.72 1.547 4.452 4.346 4.452 1.065.0 1.892-.106999999999999 2.637-.32L240.441 30.947C240.069 31.187 239.456 31.32 238.816 31.32 237.457 31.32 237.137 30.227 237.137 29.054V22.658H240.307V20.046H237.137V16.155l-3.572 1.146v2.745H230.927v2.612H233.565v6.983" style="fill:#fff;fill-rule:nonzero"/></g><g transform="matrix(1,0,0,1,136.376,100)"><path d="M247.96 27.002C247.96 30.947 250.599 34.092 255.13 34.092 259.687 34.092 262.325 30.947 262.325 27.002c0-4.53-3.118-7.276-7.196-7.276C251.079 19.726 247.959 22.471 247.959 27.002H247.96zM251.69 26.576c0-2.053 1.12-4.078 3.44-4.078C257.475 22.498 258.593 24.47 258.593 26.576 258.593 28.868 257.875 31.32 255.129 31.32 252.411 31.32 251.691 28.841 251.691 26.576" style="fill:#fff"/></g><g transform="matrix(1,0,0,1,136.376,100)"><path d="M265.77 33.772H269.341V22.658H272.46V20.046H269.341V18.34c0-1.066.372000000000014-2.105 1.572-2.105C271.687 16.235 272.139 16.528 272.46 16.715L272.752 13.756C271.894 13.567 271.019 13.469 270.14 13.463c-2.82499999999999.0-4.37 1.919-4.37 4.664v1.919H263.13v2.612H265.77V33.772" style="fill:#fff;fill-rule:nonzero"/></g><g transform="matrix(1,0,0,1,136.376,100)"><path d="M56.098 28.992c3.518 6.782 2.168 16.238-2.891 21.876-5.265 5.975-12.806 8.324-20.624 6.457C25.608 55.94 19.223 49.109 17.838 42.243 15.887 33.858 19.272 25.859 26.174 20.993 31.969 16.764 41.329 16.379 47.521 20.029c3.542 1.855 6.89 5.409 8.577 8.963zM56.628 29.329c3.445 7.204 1.759 16.709-3.759 22.406-5.3 5.59-12.913 7.794-20.527 5.88C24.91 56 18.284 48.627 17.26 41.134c-1.385-8.156 2-15.517 8.53-20.287C31.764 16.33 41.69 16.017 48.05 19.932 51.665 21.943 55.014 25.642 56.628 29.328M15.43 45.471C15.947 46.399 16.56 47.291 16.97 48.266 16.61 48.422 16.56 47.868 16.248 47.784L15.766 47.88l-4.481 2.506C10.755 50.771 10.55 51.29 10.515 51.88 10.563 52.795 11.055 53.747 11.959 54.096 13.959 54.266 15.477 52.676 17.211 51.88 17.621 51.615 17.899 51.193 17.934 50.723L17.838 50.049H18.031l1.35 2.457L19.284 52.603C18.85 52.157 18.284 51.88 17.645 52.073L13.26 54.385C12.453 54.53 11.514 54.434 10.947 53.711 10.153 52.735 9.586 51.591 9.839 50.241 9.948 49.664 10.514 49.23 10.996 48.941l4.24-2.362C15.682 46.266 15.2 45.809 15.284 45.471h.145" style="fill:#fff"/></g><g transform="matrix(1,0,0,1,136.376,100)"><path d="M59.52 46.194C59.543 46.628 59.194 47.254 59.856 47.399L65.591 50C66.049 50 66.049 49.229 66.458 49.421 66.012 50.385 65.627 51.421 65.108 52.313H64.964C64.964 51.975 65.181 51.614 64.964 51.301l-5.975-2.795C58.531 48.433 58.447 49.072 58.073 49.132 58.411 48.108 58.88 47.145 59.375 46.192H59.519m-4.867 7.471C54.725 54.024 54.122 54.277 54.412 54.723l4.722 4.385C59.736 59.385 60.121 58.65 60.434 58.288 61.181 57.277 60.917 55.602 60.29 54.627 60.326 54.542 60.422 54.59 60.483 54.579l1.686 2.312C60.796 58.373 59.447 59.818 57.977 61.18 57.929 61.192 57.905 61.156 57.881 61.132 57.929 60.794 58.315 60.529 58.17 60.168L53.4 55.687C52.978 55.385 52.592 56.349 52.388 55.831L54.508 53.663H54.652" style="fill:#fff;fill-rule:nonzero"/></g><g transform="matrix(1,0,0,1,136.376,100)"><path d="M23.572 56.12C23.681 56.385 23.789 56.65 24.054 56.843L24.488 56.747V57.036C23.994 57.71 23.548 58.409 22.994 59.059h-.145C23.127 58.023 23.825 56.566 22.802 55.59 22.512 55.229 22.102 55.144 21.692 55.06 21.199 55.096 20.729 55.47 20.537 55.928 20.295 57.951 23.127 59.662 21.211 61.614 20.705 62.095 20.091 62.324 19.381 62.288 18.128 62.192 17.128 61.12 16.538 60.071 16.344 59.831 16.116 59.927 15.863 59.975V59.735C16.549 58.951 17.272 58.132 17.934 57.373h.145C17.597 58.445 16.754 59.722 17.501 60.939 17.899 61.372 18.368 61.842 18.995 61.855 19.597 61.891 20.103 61.481 20.392 60.987 20.946 58.831 17.38 56.795 20.102 54.964 21.344 54.277 22.898 54.867 23.572 56.12" style="fill:#fff"/></g><g transform="matrix(1,0,0,1,136.376,100)"><path d="M27.957 58.77C29.704 59.373 31.403 60.107 33.257 60.457 33.185 61.397 33.041 62.312 32.824 63.204 32.584 62.939 32.704 62.433 32.534 62.095 32.33 61.288 31.716 60.36 30.849 60.12L28.535 66.528C28.608 66.998 29.186 66.974 29.403 67.299L29.307 67.396C28.186 66.998 27.03 66.661 25.933 66.191V66.095C26.27 66.022 26.668 66.24 27.042 66.095 27.993 64.035 28.644 61.855 29.452 59.735 29.487 59.578 29.307 59.542 29.21 59.493 27.909 59.36 26.909 59.963 26.03 60.843 25.813 60.806 26.03 60.613 26.03 60.505l1.349-2.12L27.957 58.77" style="fill:#fff;fill-rule:nonzero"/></g><g transform="matrix(1,0,0,1,136.376,100)"><path d="M12.441 39.882C11.718 40.46 10.827 40.869 9.984 41.279l-.193-2.072L12.441 39.882zM6.9 37.762c1.77 1.144 3.951 1.288 5.927 1.927C13.429 38.979 14.007 40.074 14.706 39.978L14.802 40.074C12.453 41.388 10.08 42.833 7.719 44.218 7.309 44.388 7.587 44.978 7.237 45.038 7.069 44.049 6.972 42.966 6.9 42.002 6.888 41.917 7.032 41.966 7.093 41.954 7.237 42.194 7.153 42.677 7.575 42.677 8.297 42.351 9.056 42.014 9.647 41.472L9.406 39.11C8.743 38.906 7.936 38.472 7.237 38.918 6.816 39.11 7.081 39.713 6.659 39.785 6.539 38.894 6.369 37.966 6.369 37.087 6.719 37.111 6.671 37.557 6.9 37.761M39.956 61.324C40.618 62.011 40.546 63.119 40.196 63.926 39.715 64.565 38.944 64.493 38.221 64.553 38.113 63.408 38.016 62.203 38.125 61.035 38.763 61.059 39.462 60.939 39.955 61.324H39.956zM41.594 61.517C41.944 61.963 42.136 62.517 41.979 63.107 41.654 64.035 40.666 64.397 39.859 64.649 40.473 64.866 41.269 65.288 41.546 65.999 42.064 66.757 42.341 68.155 43.57 68.07V68.215C42.846 68.251 42.148 68.347 41.401 68.311 40.594 67.191 40.221 65.757 38.991 64.938 38.775 64.854 38.51 64.902 38.269 64.89L38.172 65.034 38.317 67.878C38.534 68.203 38.907 68.143 39.233 68.215 39.305 68.407 39.088 68.48 38.943 68.455L36.053 68.552 35.956 68.456C36.161 68.119 36.727 68.359 36.872 67.878L36.63 61.468C36.474 60.998 35.92 61.192 35.667 60.938L35.811 60.843C37.739 60.927 40.088 60.131 41.594 61.517m8.432 1.013L48.147 63.444C47.918 62.589 47.991 61.614 47.907 60.698 48.629 61.252 49.377 61.903 50.027 62.529L50.026 62.53zm4.385 1.3V63.926C53.484 64.36 52.568 64.83 51.617 65.179 51.532 64.842 52.352 64.733 52.05 64.264L50.364 62.77C49.569 63.095 48.737 63.444 48.051 63.926 48.183 64.686 48.075 65.673 48.966 65.999H49.641V66.143C48.81 66.493 47.966 66.998 47.135 67.203 47.822 66.661 47.906 65.745 47.906 64.938L47.617 60.505C46.69 60.215 47.581 59.252 47.232 58.578L47.328 58.481l6.36 5.35H54.411M65.302 42.34C64.422 42.086 63.663 41.532 62.844 41.134 63.651 40.773 64.579 40.484 65.494 40.267L65.302 42.34zm3.613-5.109C68.903 38.195 68.759 39.219 68.675 40.219L68.53 40.267C68.349 40.027 68.518 39.629 68.193 39.448 67.349 39.544 66.518 39.785 65.831 40.171L65.591 42.531C66.205 42.905 66.831 43.387 67.614 43.206 68.06 43.11 68.036 42.52 68.434 42.436 68.337 43.363 68.385 44.339 68.096 45.182 67.924 44.512 67.49 43.939 66.892 43.592L62.41 41.23C61.676 41.892 61.278 40.58 60.58 40.555V40.41C63.23 39.616 65.867 38.76 68.482 37.857 68.771 37.712 68.59 37.278 68.915 37.23" style="fill:#fff"/></g><g transform="matrix(1,0,0,1,136.376,100)"><path d="M41.305 6.633C41.196 6.934 40.751 6.85 40.534 7.115 39.895 7.705 40.088 8.633 40.052 9.476 39.907 11.066 40.787 13.692 38.655 14.391 37.474 14.753 36.041 14.608 35.041 13.957 34.45 13.487 34.257 12.873 34.221 12.175L34.077 7.259C33.896 6.814 33.294 7.151 33.161 6.778 34.197 6.597 35.402 6.718 36.438 6.681 36.487 7.103 35.932 6.862 35.715 7.067L35.522 7.356 35.667 12.753C35.752 13.271 36.197 13.777 36.679 14.006 37.389 14.258 38.341 14.379 38.992 13.909 39.594 13.439 39.847 12.753 39.811 11.982 39.594 10.452 40.1 8.621 39.378 7.308 39.125 6.946 38.63 6.934 38.414 6.681L38.751 6.585C39.606 6.742 40.449 6.477 41.305 6.633M51.857 9.814H52.195C52.075 10.754 51.882 11.669 51.617 12.56 51.496 12.15 51.436 11.62 51.327 11.163 51.087 10.464 50.593 9.657 49.833 9.38 48.87 11.464 48.075 13.608 47.232 15.74 47.328 16.186 47.81 16.27 48.099 16.56 48.051 16.716 47.786 16.668 47.665 16.608 46.69 16.138 45.642 15.813 44.678 15.307 44.834 15.09 45.256 15.307 45.545 15.307 46.027 15.367 46.051 14.813 46.22 14.535 46.882 12.608 47.773 10.777 48.436 8.849 47.136 8.319 45.919 9.151 44.919 9.91 45.316 9.079 45.809 8.295 46.413 7.549L47.039 7.982l4.818 1.832m7.325 5.252C59.169 15.126 59.218 15.222 59.134 15.258 58.76 15.246 58.555 14.692 58.122 14.969l-1.976 2.024C56.796 17.873 57.64 18.451 58.363 19.258H58.507C59.049 18.282 61.314 17.535 60.145 16.318 60.254 16.09 60.41 16.331 60.531 16.367l2.024 2.072L62.458 18.583C62.097 18.559 61.868 18.029 61.446 18.294L56.82 23.017C56.724 23.39 57.17 23.547 57.158 23.884h-.241C56.207 23.149 55.399 22.451 54.797 21.667 55.182 21.463 55.652 22.39 56.049 21.716l2.12-2.12C57.531 18.776 56.688 18.053 55.953 17.282H55.809l-2.313 2.362C53.243 20.029 54.158 20.414 53.641 20.607l-2.17-2.168v-.145C51.845 18.246 52.207 18.944 52.629 18.487l4.529-4.578C57.398 13.452 56.483 13.102 57.013 12.897l2.169 2.169" style="fill:#fff;fill-rule:nonzero"/></g><g transform="matrix(1,0,0,1,136.376,100)"><path d="M18.272 16.56v.192C17.248 16.367 15.899 15.62 14.852 16.463 14.405 16.801 14.212 17.234 14.128 17.716c.048.457999999999998.385.831.77 1.108C16.838 19.161 18.38 16.969 20.344 18.102 20.958 18.535 21.224 19.21 21.356 19.884 21.452 21.041 20.729 21.932 19.814 22.583 19.44 22.776 19.006 22.944 18.754 23.305 18.717 23.462 18.814 23.558 18.85 23.691L18.754 23.788C17.874 23.113 17.031 22.269 16.248 21.475L16.344 21.378C17.32 21.968 18.38 22.643 19.621 22.294 20.271 21.98 20.862 21.306 20.874 20.559 20.838 20.017 20.488 19.523 20.007 19.258 17.91 18.764 15.055 22.258 13.791 18.872 13.573 17.896 13.863 16.897 14.658 16.222 15.104 15.716 16.272 15.801 16.055 14.872H16.2l2.072 1.687m10.311-3.758C28.933 13.704 29.005 15.102 28.343 15.885 27.837 16.427 27.21 16.668 26.511 16.752 24.476 16.632 23.536 14.367 23.042 12.753 22.849 11.849 22.898 10.813 23.572 10.151 24.222 9.549 25.162 9.235 26.03 9.572c1.313.543000000000001 2.084 2 2.553 3.23V12.801zm1.06-1.59C30.258 12.331 30.161 13.933 29.547 15.018 28.837 16.222 27.559 17.09 26.174 17.186 24.741 17.222 23.476 16.74 22.56 15.596 21.799 14.538 21.551 13.193 21.885 11.933c.459-1.493 1.953-2.794 3.518-2.939C27.174 8.862 28.837 9.633 29.643 11.211" style="fill:#fff"/></g><g transform="matrix(1,0,0,1,136.376,100)"><path d="M2.566 24.307C7.983 10.096 21.73.0 37.844.0 53.967.0 67.729 10.107 73.139 24.331L69.317 25.75C64.488 13.085 52.204 4.105 37.844 4.105c-14.354.0-26.608 8.988-31.441 21.643l-3.837-1.44M4.747 43.809c2.854 15.69 16.584 27.586 33.097 27.586S68.096 59.499 70.949 43.809L74.984 44.57C71.774 62.164 56.364 75.5 37.844 75.5 19.326 75.5 3.923 62.166.71 44.576L4.747 43.808" style="fill:#fff;fill-rule:nonzero"/></g><g transform="matrix(1,0,0,1,136.376,100)"><path d="M34.016 44.538C33.93 44.758 33.798 44.961 33.595 45.134 33.017 44.929 32.511 45.049 32.053 45.423 31.656 45.327 31.475 44.592 30.993 44.845 30.74 45.038 30.535 45.483 30.174 45.279 29.994 45.086 29.897 44.821 29.644 44.7 29.307 44.7 28.909 45.134 28.632 44.7 28.599 44.653 28.566 44.596 28.53 44.538h5.486zm5.647.0C39.657 44.579 39.641 44.618 39.618 44.652 39.485 45.218 39.148 45.7 38.848 46.194L39.088 46.339C38.798 47.254 38.426 48.181 37.594 48.844 36.643 48.266 36.281 47.182 36.004 46.194H36.341C36.281 45.712 35.921 45.23 35.715 44.749 35.676 44.686 35.655 44.613 35.652 44.539L35.022 44.538C35.082 45.044 35.014 45.538 34.655 46.001 33.499 46.832 32.679 48.688 30.897 48.121 30.174 48.76 28.849 48.013 28.294 48.941 28.185 49.258 28.259 49.61 28.487 49.856 28.921 50.121 29.644 50.049 30.029 50.001 30.294 50.157 30.547 50.301 30.897 50.241 31.198 49.771 31.523 50.23 31.86 50.29 32.21 50.302 32.499 49.868 32.824 50.097 32.499 50.627 32.125 51.121 32.004 51.735 31.969 52.169 32.679 52.049 32.487 52.555 32.595 52.928 32.993 52.795 33.209 52.988 33.234 53.615 33.932 53.446 34.318 53.615 34.438 54.699 35.631 53.47 35.859 54.482 36.113 54.482 36.306 54.313 36.534 54.241 36.824 54.277 37.04 54.602 37.209 54.819 37.691 55.205 37.872 54.566 38.221 54.337L39.088 54.675 39.666 54C40.341 54.494 40.582 53.506 41.208 53.71 41.642 53.759 41.594 53.265 41.787 53.037 42.533 53.145 42.425 52.109 43.135 52.121 43.184 51.278 42.425 50.783 42.22 50.049 42.51 49.88 42.738 50.133 42.943 50.289 43.389 50.434 43.618 50.061 43.955 49.952 44.569 50.904 45.183 49.592 45.979 49.856 46.34 49.736 46.677 49.362 46.605 48.941 46.521 48.748 46.401 48.495 46.172 48.458 44.979 48.603 44.172 47.808 42.942 48.025l-2.023-1.928C40.338 45.699 40.208 45.132 40.251 44.545L39.663 44.538zm7.045.0C46.576 44.8 46.472 45.078 46.172 44.989 45.931 44.905 45.738 44.579 45.449 44.749 45.292 44.941 45.147 45.182 44.967 45.327 44.63 45.267 44.317 44.832 43.955 45.134 43.787 45.303 43.63 45.507 43.377 45.471 43.207 45.218 42.871 44.845 42.557 45.134 42.365 45.363 42.112 45.314 41.883 45.182 41.668 45.015 41.506 44.789 41.418 44.532L46.708 44.538zm-8.873 4.788C38.245 50.314 38.438 51.446 38.414 52.554 36.992 51.952 37.872 50.362 37.691 49.326H37.835zM37.209 49.326C37.221 50.362 37.727 51.832 36.583 52.506H36.438C36.378 51.314 36.859 50.302 37.208 49.326H37.209zM38.269 49.086C38.679 50.109 39.485 50.976 39.715 52.072 39.763 52.242 39.558 52.446 39.425 52.41 39.1 51.266 38.365 50.29 38.172 49.085L38.269 49.086zM30.559 49.037C30.571 49.267 30.319 49.458 30.126 49.519 29.704 49.543 29.041 49.723 28.776 49.326 28.933 48.616 29.896 49.073 30.463 48.941L30.559 49.037zm5.156 3.42C35.57 52.591 35.39 52.398 35.33 52.265 35.595 51.049 36.293 50.013 36.776 48.892 36.679 50.122 36.065 51.266 35.716 52.458L35.715 52.457zM36.438 48.892C36.101 49.989 35.148 50.844 34.655 51.88 34.57 51.916 34.522 51.832 34.462 51.783 35.005 50.771 35.643 49.711 36.438 48.893V48.892zM33.836 51.349H33.74C34.04 50.362 35.137 49.664 35.86 48.892 35.583 49.82 34.281 50.398 33.836 51.349zM34.029 48.941C33.752 49.097 33.475 49.808 32.969 49.471 32.932 49.23 33.185 49.061 33.354 48.941 33.547 48.868 33.836 48.868 34.029 48.941zM32.053 48.941C32.185 49.145 32.053 49.446 31.812 49.471 31.463 49.434 31.234 49.555 30.945 49.374 30.995 49.203 31.095 49.052 31.234 48.941 31.475 48.868 31.812 48.868 32.054 48.941H32.053zM46.123 49.037C45.979 49.832 44.967 49.327 44.389 49.47 44.425 49.145 44.786 49 45.015 48.844 45.389 48.904 45.919 48.688 46.123 49.037zM44.099 48.941C44.111 49.169 43.859 49.362 43.666 49.422 43.437 49.519 43.111 49.47 42.991 49.278 42.931 49.013 43.148 48.916 43.329 48.844 43.582 48.88 43.907 48.76 44.099 48.941zM42.269 49.037C42.22 49.193 42.196 49.362 42.028 49.47 41.57 49.651 41.256 49.181 40.919 48.94 41.269 48.832 41.979 48.711 42.269 49.037zm-1.542 2.698C40.703 51.855 40.787 52.013 40.63 52.072 40.052 50.964 38.799 50.001 38.606 48.748l2.121 2.987zm1.108-1.06V50.82C40.955 50.145 40.208 49.23 39.474 48.41 40.354 49.037 41.064 49.868 41.834 50.675H41.835zM38.944 48.41C39.932 49.374 40.666 50.314 41.497 51.35 41.509 51.506 41.497 51.651 41.353 51.735 40.522 50.579 39.522 49.615 38.799 48.41H38.944zm-5.445 2.169H33.354C33.427 49.904 34.281 49.579 34.752 49.085L35.715 48.41C35.101 49.23 34.197 49.76 33.499 50.579zm2.409-3.132C35.39 48.531 34.041 48.387 32.968 48.314 33.028 47.964 33.558 47.652 33.884 47.399 34.631 47.579 35.835 45.652 35.908 47.447zM40.919 46.965C41.377 47.338 41.847 47.748 42.22 48.218 41.22 48.133 39.835 48.711 39.233 47.543L39.618 46.387C39.968 46.797 40.485 46.772 40.919 46.965" style="fill:#fff"/></g><g transform="matrix(1,0,0,1,136.376,100)"><path d="M28.53 44.538C28.392 44.316 28.215 44.076 27.909 44.266 27.689 44.388 27.436 44.438 27.186 44.411L26.704 43.591C26.27 43.423 25.596 43.978 25.499 43.303 25.464 43.098 25.427 42.749 25.114 42.821 24.584 42.809 23.994 43.073 23.524 42.772 23.56 42.327 23.825 41.905 23.861 41.52 23.367 41.4 22.584 41.604 22.223 41.134 22.283 40.714 22.403 40.315 22.56 39.93 21.958 39.797 21.271 39.833 20.73 39.544 20.609 39.099 21.006 38.761 21.21 38.388 20.802 38.075 20.247 38.051 19.91 37.665 19.934 37.027 20.62 36.738 20.97 36.268 20.705 35.81 20.151 35.629 19.814 35.159 20.127 34.665 20.645 34.256 21.114 33.955 20.838 33.401 20.114 33.087 20.054 32.509 20.464 32.256 20.85 31.931 21.356 31.931L21.5 31.787C21.247 31.365 20.79 31.04 20.633 30.582 21.271 30.317 22.091 30.522 22.705 30.196 22.525 29.63 21.825 29.281 21.693 28.703 22.343 28.329 23.066 28.787 23.717 28.703 23.199 28.196 22.705 27.594 22.705 26.823 23.127 26.533 23.512 26.932 23.91 27.016 24.512 27.402 25.138 27.739 25.79 28.028L25.885 27.931C25.355 27.064 24.175 26.401 24.295 25.329c1.3.241 2.289 1.181 3.421 1.976C27.752 26.895 27.306 26.558 27.186 26.149 26.873 25.317 26.259 24.607 26.367 23.595 26.897 23.582 27.343 24.197 27.717 24.607l1.108 1.542C29.162 25.606 28.632 25.185 28.535 24.703 28.547 23.847 28.065 22.908 28.583 22.149 29.367 22.329 29.487 23.294 29.789 23.932 29.957 24.534 30.017 25.172 30.319 25.715 30.33 24.535 30.608 23.354 30.367 22.197 30.463 21.703 30.752 21.173 31.186 20.944L31.379 21.33C31.499 22.04 31.547 22.776 31.523 23.546L31.619 23.643C31.932 23.523 31.981 23.089 32.342 23.065 33.209 25.631 32.017 28.185 31.716 30.678 31.752 32.076 32.138 33.316 32.728 34.485c-.314 1.18 1.084 1.65 1.204 2.65C34.185 37.532 34.607 37.195 34.944 37.231 35.281 37.255 35.462 37.785 35.859 37.521 36.438 37.159 36.366 36.461 36.293 35.881 35.811 35.244 34.848 35.147 34.559 34.341 35.041 34.291 35.559 34.425 36.005 34.581L36.101 34.485C35.739 33.943 35.185 33.641 34.655 33.377 34.895 33.123 35.426 33.244 35.763 33.28 37.305 33.894 39.293 34.377 39.956 36.22 40.088 36.617 40.064 37.087 40.341 37.424 40.847 37.316 41.365 37.654 41.787 37.328 43.642 35.749 43.111 33.196 44.099 31.256 43.919 28.497 43.702 25.859 43.859 23.016 43.907 22.896 44.076 22.896 44.147 22.968 44.28 23.101 44.317 23.354 44.533 23.354 44.775 22.679 44.557 21.824 45.111 21.282 45.654 21.426 45.834 22.065 45.882 22.582V24.51L45.979 24.607C46.316 23.823 46.521 22.957 47.279 22.39 47.46 22.27 47.629 22.487 47.617 22.68 47.509 23.811 47.533 25.016 46.846 25.907 46.87 26.113 46.846 26.329 46.991 26.486 47.749 25.546 48.401 24.125 49.69 23.739 50.122 24.426 49.544 25.185 49.255 25.811 48.713 26.281 48.569 26.907 48.195 27.449L48.292 27.546C49.159 26.486 50.316 25.51 51.617 25.185 51.869 25.462 51.557 25.727 51.52 26.005 50.99 26.402 51.063 27.052 50.653 27.497 50.219 28.052 49.593 28.353 49.207 28.847 49.737 28.751 50.195 28.172 50.749 27.98 51.508 27.57 52.279 27.208 53.207 27.208 53.411 27.763 52.665 28.112 52.291 28.461 51.893 28.715 51.581 29.028 51.328 29.425 52.183 29.293 53.134 28.666 54.074 29.04 53.929 29.654 53.267 29.931 52.966 30.485 53.195 30.678 53.508 30.485 53.785 30.485 54.195 30.545 54.64 30.521 54.941 30.871 54.845 31.449 54.074 31.618 53.833 32.123 54.315 32.401 54.953 32.329 55.375 32.75V32.99L54.315 33.955 54.363 34.099C54.953 34.364 55.543 34.714 56.002 35.207L55.953 35.449C55.495 35.749 55.002 35.942 54.556 36.268 54.76 36.701 55.447 36.882 55.471 37.424L53.978 38.147C54.098 38.629 54.725 39.087 54.556 39.689 54.038 39.857 53.399 39.737 52.918 39.978 53.086 40.388 53.339 40.845 53.303 41.278 52.737 41.459 52.026 41.291 51.52 41.616 51.532 42.026 51.544 42.436 51.28 42.725L50.268 42.772 49.641 43.688C49.159 43.772 48.677 43.291 48.291 43.737L47.906 44.411C47.545 44.435 47.292 44.206 46.943 44.218 46.841 44.293 46.771 44.414 46.708 44.539L41.418 44.538C41.218 43.994 41.242 43.365 40.919 42.918 40.715 42.821 40.558 43.061 40.534 43.206 40.423 43.618 40.284 44.088 40.251 44.546L39.663 44.538C39.739 44.21 39.433 43.602 40.003 43.688L40.196 42.483C39.438 40.99 39.196 38.99 39.666 37.279 39.655 36.581 39.414 35.846 38.751 35.545 38.281 35.761 38.474 36.412 38.221 36.797 37.775 37.532 37.041 37.978 36.197 37.954 35.595 37.906 36.041 38.46 35.907 38.774 36.029 40.556 34.39 42.026 35.33 43.737L35.426 43.64C35.93 43.63 35.626 44.15 35.652 44.54L35.022 44.538C34.946 43.899 34.659 43.245 34.51 42.628 34.318 42.616 34.27 42.833 34.221 42.966 34.181 43.499 34.201 44.061 34.016 44.536L28.53 44.538zm8.968-9.764C37.51 34.87 37.486 35.027 37.354 34.967H37.209V34.677C37.305 34.714 37.498 34.593 37.498 34.774zM43.907 34.87C44.172 34.846 44.172 34.509 44.485 34.581 44.726 35.087 43.69 35.28 44.147 35.641 44.413 35.545 44.727 35.244 45.015 35.496 45.003 35.894 44.485 35.894 44.389 36.219 44.81 36.243 45.208 36.4 45.449 36.749 45.521 36.942 45.304 37.015 45.159 36.99 44.799 37.063 44.425 36.846 44.147 36.99 44.365 37.364 44.931 37.424 44.87 37.954 44.377 38.147 44.064 37.629 43.618 37.568 43.497 37.918 44.076 38.098 44.003 38.484 43.557 38.629 43.233 38.183 42.895 38.002 42.81 38.232 42.967 38.472 43.088 38.677 42.738 38.845 42.389 38.593 42.22 38.291 41.738 37.605 42.642 37.135 42.846 36.557 43.486 35.93 43.473 35.027 43.859 34.292 43.943 34.509 43.679 34.702 43.907 34.87zM32.92 36.364C33.402 36.677 33.535 37.219 33.691 37.714 33.728 38.159 33.487 38.544 33.113 38.774 32.908 38.785 32.764 38.641 32.776 38.436 32.691 38.279 32.956 38.146 32.728 38.051 32.475 38.219 32.246 38.568 31.908 38.388 31.788 38.051 32.101 37.773 32.198 37.472 31.812 37.424 31.535 38.062 31.041 37.762 30.933 37.352 31.282 37.135 31.475 36.846 31.089 36.629 30.8 37.063 30.415 36.846 30.439 36.496 31.029 36.376 31.33 36.123 31.065 35.943 30.644 35.701 30.608 35.303 31.053 35.063 31.354 35.761 31.764 35.449 31.776 35.087 31.342 34.774 31.571 34.437 31.74 34.509 31.861 34.69 32.005 34.822 32.306 34.738 32.041 34.437 32.053 34.244 32.487 34.846 32.125 35.87 32.92 36.364zm3.663-1.88C36.474 34.726 36.643 35.171 36.245 35.207 35.908 35.183 35.643 35.003 35.378 34.822 35.703 34.665 36.185 35.147 36.487 34.774 36.547 34.28 36.052 34.014 35.763 33.666 35.784 33.664 35.805 33.663 35.825 33.663 36.242 33.663 36.585 34.007 36.585 34.423 36.585 34.444 36.585 34.465 36.583 34.485V34.484zM45.834 33.232C45.858 33.69 45.328 33.472 45.111 33.666 44.979 33.389 45.437 33.232 45.641 33.136 45.714 33.136 45.846 33.123 45.834 33.232zM46.124 32.509C45.906 32.846 45.461 32.834 45.111 32.943 45.231 32.618 45.726 32.28 46.123 32.172 46.34 32.256 46.123 32.401 46.123 32.509H46.124zM46.075 31.256C45.979 31.726 45.389 32.052 45.015 32.365 44.858 31.835 45.497 31.389 45.882 30.967 46.039 30.943 46.112 31.123 46.075 31.257V31.256zM30.897 31.112C30.704 32.063 30.547 32.967 30.752 33.955 30.427 33.967 30.186 33.774 29.932 33.617 29.812 33.45 29.761 33.243 29.789 33.039 30.029 32.931 30.246 33.449 30.511 33.135 30.451 32.665 29.849 32.509 29.692 32.075 30.042 31.835 30.379 32.581 30.608 32.075 30.463 31.665 29.656 31.509 29.885 30.967L30.367 31.207C30.391 30.81 30.005 30.521 30.126 30.148 30.451 30.353 30.644 30.787 30.896 31.112H30.897zm14.889-1.013C45.726 30.557 45.328 30.991 45.016 31.401H44.966C45.003 30.931 45.413 30.413 45.786 30.099zM31.041 30.582C30.776 30.184 30.331 29.594 30.656 29.088 30.956 29.473 30.908 30.088 31.041 30.582zm13.83-1.59C44.762 29.389 44.473 29.834 44.678 30.244 44.943 30.076 44.918 29.618 45.256 29.521 45.204 30.078 45.004 30.61 44.678 31.064 44.316 30.329 44.341 29.329 44.485 28.509 44.762 28.522 44.738 28.835 44.87 28.992H44.871zm-13.3-1.06C31.595 28.654 31.764 29.377 31.427 30.003 31.535 29.317 30.427 28.353 31.571 27.931" style="fill:#fff"/></g><g transform="matrix(1,0,0,1,136.376,100)"><path d="M0 37.446H4.078v1.029H0V37.446M.049 36.707l.04-1.022L4.144 35.845l-.04 1.023L.049 36.708m.118-1.7L.248 33.992 4.28 34.313 4.2 35.33.168 35.008M.354 33.31.475 32.299 4.485 32.781l-.122 1.01L.353 33.31m.255-1.699.162-1.005L4.757 31.249l-.162 1.005L.608 31.611m.255-1.698.202-1L5.03 29.716l-.202 1L.863 29.913m.392-1.664.242-.994L5.44 28.218l-.243.994L1.255 28.249m.744-2.653 3.92 1.124-.284.988-3.92-1.124.284-.988m73.578 11.85H71.499v1.029h4.078V37.446M75.528 36.707 75.488 35.685 71.432 35.845 71.472 36.868 75.528 36.708M75.41 35.008 75.329 33.992 71.296 34.313 71.378 35.33 75.41 35.008M75.223 33.31 75.103 32.299 71.093 32.781 71.213 33.791 75.223 33.31M74.969 31.611 74.807 30.606 70.82 31.249 70.981 32.254 74.969 31.611M74.714 29.913 74.511 28.913 70.547 29.716 70.749 30.716 74.714 29.913M74.322 28.249 74.079 27.255 70.137 28.218 70.38 29.212 74.322 28.249m-.744-2.653-3.92 1.124L69.942 27.708l3.92-1.124L73.578 25.596" style="fill:#fff;fill-rule:nonzero"/></g></g></svg>