<svg width="100%" height="100%" viewBox="0 0 880 325" xmlns="http://www.w3.org/2000/svg" xmlns:xlink="http://www.w3.org/1999/xlink" xmlns:serif="http://www.serif.com/" style="fill-rule:evenodd;clip-rule:evenodd;stroke-linejoin:round;stroke-miterlimit:2"><g transform="matrix(1,0,0,1,-673.183,-318.483)"><g transform="matrix(1,0,0,1,3.66257,217.726)"><g transform="matrix(1,0,0,1,509.886,29.0752)"><path d="M337.2 322.9C350.8 327.7 356.9 328.5 376.1 326.8 366.3 331.7 370.2 339.4 354.5 337.5 339.9 335.8 344.5 330.6 337.2 322.9" style="fill:#fff;fill-rule:nonzero"/><path d="M224.8 170.4S223.4 160.5 198.3 129.2c36.4 13 44.8 18.6 66.6 37.1C246 166.2 224.8 170.4 224.8 170.4" style="fill:#fff;fill-rule:nonzero"/><path d="M449.2 171.2S458 133 488.7 97.8c-36 15.8-54.4 46.7-62.3 68.6C438.7 169.9 449.2 171.2 449.2 171.2" style="fill:#fff;fill-rule:nonzero"/><path d="M334.7 232.8C335.8 233.5 337.4 234 337.8 235.4L337.6 235.7C339.6 243.3 341.2 251.8 340.4 260.3 340.2 260.5 339.8 260.6 339.7 260.4c-11.4-14.4-22.6-24.2-35.2-30.4C304.2 229.9 304.9 229.3 305.2 229.3L310.6 228.3C318.9 228 327.4 229.5 334.7 232.8" style="fill:#fff;fill-rule:nonzero"/><path d="M374.8 232.8C373.7 233.5 372.1 234 371.7 235.4L371.9 235.7C369.9 243.3 368.3 251.8 369.1 260.3 369.3 260.5 369.7 260.6 369.8 260.4 381.2 246 392.4 236.2 405 230 405.3 229.9 404.6 229.3 404.3 229.3L398.9 228.3C390.6 228 382.1 229.5 374.8 232.8" style="fill:#fff;fill-rule:nonzero"/><path d="M276.7 203.4s39.9 64.4 46 113.8C243.6 305.2 202.4 316.3 164 357.7 156.3 319.1 160.2 288.8 164.9 270.3c20.1 12.3 39.3 30.3 39.3 30.3s-19.8-42.3-38.3-62.3C172.5 216.6 187.6 197.8 187.6 197.8s37.6 18.2 58.5 59.4C241.5 217.1 228.8 179.8 228.8 179.8s15.8 11.8 47.9 23.6" style="fill:#fff;fill-rule:nonzero"/><path d="M166.7 368.6s21.8-28.5 65.3-32.7C307.2 328.6 399.1 417.4 484.7 306.1 480.1 360.1 426.4 415.8 334.2 390.1c-49.5-13.8-69.4-35.7-107.8-36C190.1 354 166.7 368.6 166.7 368.6" style="fill:#fff;fill-rule:nonzero"/><path d="M445.7 188.3C437.5 190.4 418.5 204.9 418.5 204.9s-7 16.7-16.7 55.3c-8.5 33.9-14.4 65.1-14.4 65.1S448.3 322.6 475.5 295.3C463.2 275.1 476.4 232.1 489.5 215.4 463.2 225.1 441.2 261.9 441.2 261.9S431.6 218.1 445.7 188.3" style="fill:#fff;fill-rule:nonzero"/><path d="M291.6 151s19.5-21.6 57.1-23.1C388.9 126.2 398.1 135.6 398.1 135.6s-14.9-30.3-29.8-32.4c-16.9-2.3-32.3 3.7-43.7 10.3C312.2 120.6 300.9 128.3 291.6 151" style="fill:#fff;fill-rule:nonzero"/><path d="M291.8 71.8s25.1-1.5 48.7 6.2c-36.5 7.2-65.7 38.7-76.5 68.9C263.5 122.3 258.3 92.3 291.8 71.8" style="fill:#fff;fill-rule:nonzero"/></g><g transform="matrix(1,0,0,1,-33.7,0)"><g transform="matrix(1,0,0,1,959.073,-172.862)"><path d="M140.1 419.5H116.5v58.2h-8.8V419.5H84.1V411.7h56V419.5z" style="fill:#fff;fill-rule:nonzero"/></g><g transform="matrix(1,0,0,1,959.073,-172.862)"><path d="M176.3 477.7H168V472.4C167.3 472.9 166.3 473.6 165 474.5S162.5 476.1 161.3 476.6C159.9 477.3 158.3 477.8 156.5 478.3S152.6 479 150.2 479C145.7 479 142 477.5 138.9 474.6 135.8 471.6 134.2 467.9 134.2 463.3 134.2 459.5 135 456.5 136.6 454.2S140.5 450.1 143.5 448.7C146.5 447.4 150.1 446.5 154.4 446 158.6 445.5 163.2 445.2 168 444.9V443.6C168 441.7 167.7 440.1 167 438.9 166.3 437.7 165.4 436.7 164.1 436 162.9 435.3 161.5 434.9 159.8 434.6 158.1 434.4 156.4 434.2 154.6 434.2 152.4 434.2 150 434.5 147.3 435.1 144.6 435.7 141.8 436.5 139 437.6H138.6v-8.5C140.2 428.7 142.6 428.2 145.6 427.6 148.7 427.1 151.7 426.8 154.7 426.8 158.2 426.8 161.2 427.1 163.8 427.7 166.4 428.3 168.6 429.3 170.5 430.6 172.4 432 173.8 433.7 174.8 435.9 175.8 438.1 176.3 440.7 176.3 443.9v33.8zM168 465.5V451.7C165.5 451.9 162.5 452.1 159 452.4 155.6 452.7 152.8 453.1 150.8 453.7 148.4 454.4 146.5 455.4 145 456.9 143.5 458.3 142.8 460.3 142.8 462.8 142.8 465.6 143.7 467.8 145.4 469.2 147.1 470.6 149.7 471.4 153.2 471.4 156.1 471.4 158.8 470.8 161.2 469.7 163.7 468.5 166 467.1 168 465.5" style="fill:#fff;fill-rule:nonzero"/></g><g transform="matrix(1,0,0,1,959.073,-172.862)"><path d="M226.1 463.4C226.1 467.9 224.2 471.6 220.5 474.5S211.7 478.8 205.2 478.8C201.5 478.8 198.2 478.4 195.1 477.5S189.5 475.7 187.4 474.6V465.2H187.8C190.4 467.2 193.4 468.8 196.6 469.9 199.8 471.1 202.9 471.7 205.9 471.7 209.6 471.7 212.4 471.1 214.5 469.9 216.6 468.7 217.6 466.9 217.6 464.3 217.6 462.3 217 460.9 215.9 459.9S212.6 458 209.4 457.3C208.2 457 206.7 456.7 204.8 456.4 202.9 456 201.2 455.7 199.6 455.2 195.3 454 192.2 452.4 190.4 450.1 188.6 447.9 187.7 445.1 187.7 441.9 187.7 439.9 188.1 437.9 189 436.1 189.8 434.3 191.1 432.7 192.8 431.3 194.5 429.9 196.6 428.8 199.1 428 201.7 427.2 204.5 426.8 207.7 426.8 210.7 426.8 213.6 427.2 216.7 427.9 219.7 428.6 222.2 429.5 224.3 430.5V439.4H223.9C221.8 437.8 219.2 436.5 216.1 435.4 213.1 434.3 210.1 433.8 207.1 433.8S201.5 434.4 199.4 435.6C197.3 436.8 196.2 438.5 196.2 440.8 196.2 442.8 196.8 444.4 198.1 445.4 199.3 446.4 201.4 447.3 204.1 447.9 205.6 448.3 207.4 448.6 209.3 449 211.2 449.4 212.8 449.7 214.1 450 218 450.9 221 452.4 223.1 454.6 225.1 456.9 226.1 459.8 226.1 463.4" style="fill:#fff;fill-rule:nonzero"/></g><g transform="matrix(1,0,0,1,959.073,-172.862)"><path d="M309.1 477.7H300.5V449.5C300.5 447.4 300.4 445.3 300.2 443.3S299.6 439.7 299 438.6C298.3 437.3 297.3 436.4 296.1 435.7 294.8 435 293 434.7 290.6 434.7 288.3 434.7 285.9 435.3 283.6 436.5 281.3 437.7 278.9 439.2 276.6 441 276.7 441.7 276.8 442.5 276.8 443.4 276.9 444.3 276.9 445.2 276.9 446.1v31.7H268.6V449.6C268.6 447.4 268.5 445.3 268.3 443.4 268.1 441.4 267.7 439.9 267.1 438.7 266.4 437.4 265.4 436.5 264.2 435.8 262.9 435.2 261.1 434.8 258.7 434.8 256.4 434.8 254.1 435.4 251.9 436.5 249.6 437.6 247.3 439.1 245.1 440.8v37H236.8V428.3H245.1v5.5C247.7 431.6 250.3 430 252.9 428.7 255.5 427.5 258.2 426.9 261.2 426.9 264.6 426.9 267.4 427.6 269.8 429 272.1 430.4 273.9 432.4 275.1 434.9 278.5 432.1 281.5 430 284.3 428.8 287.1 427.5 290.1 426.9 293.2 426.9 298.6 426.9 302.6 428.5 305.2 431.8 307.8 435.1 309.1 439.7 309.1 445.6v32.1z" style="fill:#fff;fill-rule:nonzero"/></g><g transform="matrix(1,0,0,1,959.073,-172.862)"><path d="M360.8 477.7H352.5V472.4C351.8 472.9 350.8 473.6 349.5 474.5S347 476.1 345.8 476.6C344.4 477.3 342.8 477.8 341 478.3S337.1 479 334.7 479C330.2 479 326.5 477.5 323.4 474.6 320.3 471.6 318.7 467.9 318.7 463.3 318.7 459.5 319.5 456.5 321.1 454.2 322.7 451.9 325 450.1 328 448.7 331 447.4 334.6 446.5 338.9 446 343.1 445.5 347.7 445.2 352.5 444.9V443.6C352.5 441.7 352.2 440.1 351.5 438.9 350.8 437.7 349.9 436.7 348.6 436 347.4 435.3 346 434.9 344.3 434.6 342.6 434.4 340.9 434.2 339.1 434.2 336.9 434.2 334.5 434.5 331.8 435.1 329.1 435.7 326.3 436.5 323.5 437.6H323.1v-8.5C324.7 428.7 327.1 428.2 330.1 427.6 333.2 427.1 336.2 426.8 339.2 426.8 342.7 426.8 345.7 427.1 348.3 427.7 350.9 428.3 353.1 429.3 355 430.6 356.9 432 358.3 433.7 359.3 435.9 360.3 438.1 360.8 440.7 360.8 443.9v33.8zM352.5 465.5V451.7C350 451.9 347 452.1 343.5 452.4 340.1 452.7 337.3 453.1 335.3 453.7 332.9 454.4 331 455.4 329.5 456.9 328 458.3 327.3 460.3 327.3 462.8 327.3 465.6 328.2 467.8 329.9 469.2 331.6 470.6 334.2 471.4 337.7 471.4 340.6 471.4 343.3 470.8 345.7 469.7 348.2 468.5 350.5 467.1 352.5 465.5" style="fill:#fff;fill-rule:nonzero"/></g><g transform="matrix(1,0,0,1,959.073,-172.862)"><path d="M415.9 477.7H407.5V449.5C407.5 447.2 407.4 445.1 407.1 443.1 406.8 441.1 406.3 439.6 405.6 438.4 404.9 437.2 403.8 436.2 402.4 435.6 401 435 399.2 434.7 397 434.7 394.7 434.7 392.3 435.3 389.9 436.4 387.4 437.5 385 439 382.8 440.7v37H374.5V428.2H382.8v5.5C385.4 431.5 388.1 429.9 390.9 428.6 393.7 427.4 396.5 426.8 399.5 426.8 404.8 426.8 408.9 428.4 411.7 431.6 414.5 434.8 415.9 439.5 415.9 445.5v32.2z" style="fill:#fff;fill-rule:nonzero"/></g><g transform="matrix(1,0,0,1,959.073,-172.862)"><path d="M438.1 419.9H428.7V411.3H438.1V419.9zm-.5 57.8H429.3V428.2H437.6v49.5z" style="fill:#fff;fill-rule:nonzero"/></g><g transform="matrix(1,0,0,1,959.073,-172.862)"><path d="M489.9 477.7H481.6V472.4C480.9 472.9 479.9 473.6 478.6 474.5 477.3 475.4 476.1 476.1 474.9 476.6 473.5 477.3 471.9 477.8 470.1 478.3 468.3 478.8 466.2 479 463.8 479 459.3 479 455.6 477.5 452.5 474.6 449.4 471.6 447.8 467.9 447.8 463.3 447.8 459.5 448.6 456.5 450.2 454.2 451.8 451.9 454.1 450.1 457.1 448.7 460.1 447.4 463.7 446.5 468 446 472.2 445.5 476.8 445.2 481.6 444.9V443.6C481.6 441.7 481.3 440.1 480.6 438.9 479.9 437.7 479 436.7 477.7 436 476.5 435.3 475.1 434.9 473.4 434.6 471.7 434.4 470 434.2 468.2 434.2 466 434.2 463.6 434.5 460.9 435.1 458.2 435.7 455.4 436.5 452.6 437.6h-.5v-8.5C453.7 428.7 456.1 428.2 459.2 427.6 462.3 427.1 465.3 426.8 468.3 426.8 471.8 426.8 474.8 427.1 477.4 427.7 480 428.3 482.2 429.3 484.1 430.6 486 432 487.4 433.7 488.4 435.9 489.4 438.1 489.9 440.7 489.9 443.9v33.8zM481.6 465.5V451.7C479.1 451.9 476.1 452.1 472.6 452.4 469.2 452.7 466.4 453.1 464.4 453.7 462 454.4 460.1 455.4 458.6 456.9 457.1 458.3 456.4 460.3 456.4 462.8 456.4 465.6 457.3 467.8 459 469.2 460.7 470.6 463.3 471.4 466.8 471.4 469.7 471.4 472.4 470.8 474.8 469.7 477.3 468.5 479.5 467.1 481.6 465.5" style="fill:#fff;fill-rule:nonzero"/></g><g transform="matrix(1,0,0,1,959.073,-172.862)"><path d="M544.9 477.7H536.5V449.5C536.5 447.2 536.4 445.1 536.1 443.1 535.8 441.1 535.3 439.6 534.6 438.4 533.9 437.2 532.8 436.2 531.4 435.6 530 435 528.2 434.7 526 434.7 523.7 434.7 521.3 435.3 518.9 436.4 516.4 437.5 514 439 511.8 440.7v37H503.5V428.2H511.8v5.5C514.4 431.5 517.1 429.9 519.9 428.6 522.7 427.4 525.5 426.8 528.5 426.8 533.8 426.8 537.9 428.4 540.7 431.6 543.5 434.8 544.9 439.5 544.9 445.5v32.2z" style="fill:#fff;fill-rule:nonzero"/></g></g><g><g transform="matrix(1,0,0,1,959.073,-172.862)"><path d="M109.1 565.4C105.5 567.1 101.6 568.5 97.3 569.7 93 570.9 88.9 571.5 84.9 571.5 79.8 571.5 75 570.8 70.8 569.4 66.5 568 62.9 565.9 59.9 563s-5.4-6.5-7-10.8C51.2 547.9 50.4 542.9 50.4 537.1c0-10.5 3.1-18.9 9.2-25C65.8 506 74.2 502.9 85 502.9 88.8 502.9 92.6 503.4 96.5 504.3 100.4 505.2 104.6 506.7 109.2 508.9v10.4H108.4C107.5 518.6 106.2 517.7 104.4 516.5 102.7 515.3 100.9 514.4 99.3 513.6 97.3 512.7 94.9 511.9 92.4 511.3 89.8 510.7 86.9 510.4 83.6 510.4 76.2 510.4 70.4 512.8 66.1 517.5 61.8 522.2 59.6 528.7 59.6 536.8 59.6 545.3 61.8 552 66.3 556.7 70.8 561.4 76.9 563.8 84.7 563.8 87.5 563.8 90.4 563.5 93.2 563 96 562.4 98.5 561.7 100.6 560.8V544.6H82.7V536.9h26.4v28.5z" style="fill:#fff;fill-rule:nonzero"/></g><g transform="matrix(1,0,0,1,959.073,-172.862)"><path d="M164.9 545.5C164.9 553.6 162.8 559.9 158.7 564.6 154.6 569.3 149 571.6 142.1 571.6c-7 0-12.6-2.30000000000007-16.7-7C121.3 559.9 119.2 553.6 119.2 545.5S121.3 531.1 125.4 526.4C129.5 521.7 135.1 519.4 142.1 519.4 149 519.4 154.6 521.7 158.7 526.4 162.8 531.1 164.9 537.5 164.9 545.5M156.3 545.5C156.3 539.1 155 534.3 152.5 531.2 150 528.1 146.5 526.5 142 526.5S134 528.1 131.5 531.2C129 534.3 127.8 539.1 127.8 545.5 127.8 551.7 129.1 556.4 131.6 559.6 134.1 562.8 137.6 564.4 142.1 564.4 146.5 564.4 150 562.8 152.5 559.6 155 556.5 156.3 551.8 156.3 545.5" style="fill:#fff;fill-rule:nonzero"/></g><g transform="matrix(1,0,0,1,959.073,-172.862)"><path d="M217 520.7 197 570.3H188.6L168.7 520.7h9l15.4 39.5 15.2-39.5H217z" style="fill:#fff;fill-rule:nonzero"/></g><g transform="matrix(1,0,0,1,959.073,-172.862)"><path d="M265.7 546.4H229.2C229.2 549.4 229.7 552.1 230.6 554.4 231.5 556.7 232.8 558.5 234.4 560 235.9 561.4 237.8 562.5 239.9 563.2 242 563.9 244.3 564.3 246.9 564.3 250.3 564.3 253.7 563.6 257.1 562.3 260.5 561 262.9 559.6 264.4 558.3H264.8V567.4C262 568.6 259.1 569.6 256.2 570.4 253.3 571.2 250.2 571.6 247 571.6 238.8 571.6 232.4 569.4 227.8 564.9 223.2 560.5 220.9 554.1 220.9 546S223.1 531.5 227.5 526.7C231.9 521.9 237.7 519.6 244.9 519.6 251.6 519.6 256.7 521.6 260.3 525.5 263.9 529.4 265.7 534.9 265.7 542.1V546.4zM257.6 540C257.6 535.6 256.5 532.2 254.3 529.8 252.1 527.4 248.8 526.2 244.4 526.2 239.9 526.2 236.4 527.5 233.7 530.1 231.1 532.7 229.6 536 229.2 539.9h28.4V540z" style="fill:#fff;fill-rule:nonzero"/></g><g transform="matrix(1,0,0,1,959.073,-172.862)"><path d="M307.9 529.8h-.5C306.2 529.5 305 529.3 303.8 529.2 302.6 529.1 301.3 529 299.7 529 297.1 529 294.6 529.6 292.3 530.7 289.9 531.8 287.6 533.3 285.4 535.1V570.3H277V520.8H285.3V528.1C288.6 525.4 291.5 523.6 294.1 522.5 296.6 521.4 299.2 520.8 301.8 520.8 303.3 520.8 304.3 520.8 305 520.9S306.6 521.1 307.9 521.3v8.5z" style="fill:#fff;fill-rule:nonzero"/></g><g transform="matrix(1,0,0,1,959.073,-172.862)"><path d="M356.7 570.3H348.3V542.1C348.3 539.8 348.2 537.7 347.9 535.7 347.6 533.7 347.1 532.1 346.4 531 345.7 529.8 344.6 528.8 343.2 528.2 341.8 527.6 340 527.3 337.8 527.3 335.5 527.3 333.1 527.9 330.7 529 328.2 530.1 325.8 531.6 323.6 533.3v37H315.3V520.8H323.6v5.5C326.2 524.2 328.9 522.5 331.7 521.3 334.5 520.1 337.3 519.5 340.3 519.5 345.7 519.5 349.7 521.1 352.5 524.3 355.3 527.5 356.7 532.2 356.7 538.2V570.3z" style="fill:#fff;fill-rule:nonzero"/></g><g transform="matrix(1,0,0,1,959.073,-172.862)"><path d="M442.6 570.3h-8.5V542.1C434.1 540 434 537.9 433.8 535.9S433.2 532.3 432.6 531.2C431.9 529.9 430.9 529 429.7 528.3 428.4 527.6 426.6 527.3 424.2 527.3 421.9 527.3 419.5 527.9 417.2 529 414.9 530.2 412.5 531.6 410.2 533.5 410.3 534.2 410.4 535 410.4 535.9 410.5 536.8 410.5 537.7 410.5 538.6V570.3H402.2V542.1C402.2 539.9 402.1 537.8 401.9 535.9 401.7 533.9 401.3 532.4 400.7 531.2 4e2 529.9 399 529 397.8 528.3 396.5 527.7 394.7 527.3 392.3 527.3 390 527.3 387.7 527.9 385.5 529 383.2 530.1 380.9 531.6 378.7 533.3v37H370.4V520.8H378.7v5.5C381.3 524.2 383.9 522.5 386.5 521.3 389.1 520.1 391.8 519.5 394.8 519.5 398.2 519.5 401 520.2 403.4 521.6 405.7 523 407.5 525 408.6 527.5 412 524.7 415 522.6 417.8 521.4 420.6 520.1 423.6 519.5 426.7 519.5 432.1 519.5 436.1 521.1 438.7 524.4 441.3 527.7 442.6 532.3 442.6 538.2V570.3z" style="fill:#fff;fill-rule:nonzero"/></g><g transform="matrix(1,0,0,1,959.073,-172.862)"><path d="M498 546.4H461.5C461.5 549.4 462 552.1 462.9 554.4 463.8 556.7 465.1 558.5 466.7 560 468.2 561.4 470.1 562.5 472.2 563.2 474.3 563.9 476.6 564.3 479.2 564.3 482.6 564.3 486 563.6 489.4 562.3 492.8 561 495.2 559.6 496.7 558.3H497.1V567.4C494.3 568.6 491.4 569.6 488.5 570.4 485.6 571.2 482.5 571.6 479.3 571.6 471.1 571.6 464.7 569.4 460.1 564.9 455.5 560.5 453.2 554.1 453.2 546S455.4 531.5 459.8 526.7C464.2 521.9 470 519.6 477.2 519.6 483.9 519.6 489 521.6 492.6 525.5 496.2 529.4 498 534.9 498 542.1V546.4zM489.9 540C489.9 535.6 488.8 532.2 486.6 529.8 484.4 527.4 481.1 526.2 476.7 526.2 472.2 526.2 468.7 527.5 466 530.1 463.4 532.7 461.9 536 461.5 539.9h28.4V540z" style="fill:#fff;fill-rule:nonzero"/></g><g transform="matrix(1,0,0,1,959.073,-172.862)"><path d="M550.7 570.3H542.3V542.1C542.3 539.8 542.2 537.7 541.9 535.7 541.6 533.7 541.1 532.1 540.4 531 539.7 529.8 538.6 528.8 537.2 528.2 535.8 527.6 534 527.3 531.8 527.3 529.5 527.3 527.2 527.9 524.7 529S519.8 531.6 517.6 533.3v37H509.3V520.8H517.6v5.5C520.2 524.2 522.9 522.5 525.7 521.3 528.5 520.1 531.3 519.5 534.3 519.5 539.6 519.5 543.7 521.1 546.5 524.3 549.3 527.5 550.7 532.2 550.7 538.2V570.3z" style="fill:#fff;fill-rule:nonzero"/></g><g transform="matrix(1,0,0,1,959.073,-172.862)"><path d="M589.8 569.8C588.2 570.2 586.5 570.6 584.7 570.8 582.9 571.1 581.2 571.2 579.8 571.2 574.8 571.2 570.9 569.8 568.3 567.1 565.7 564.4 564.4 560 564.4 554V527.7H558.8v-7H564.4V506.5H572.7v14.2H589.9v7H572.7V550.3C572.7 552.9 572.8 554.9 572.9 556.4S573.4 559.2 574.1 560.5C574.7 561.7 575.6 562.5 576.8 563.1 577.9 563.6 579.7 563.9 582 563.9 583.4 563.9 584.8 563.7 586.3 563.3 587.8 562.9 588.8 562.6 589.5 562.3H589.9v7.5H589.8z" style="fill:#fff;fill-rule:nonzero"/></g></g></g></g></svg>