<svg width="100%" height="100%" viewBox="0 0 281 100" xmlns="http://www.w3.org/2000/svg" xmlns:xlink="http://www.w3.org/1999/xlink" xmlns:serif="http://www.serif.com/" style="fill-rule:evenodd;clip-rule:evenodd;stroke-linejoin:round;stroke-miterlimit:2"><g transform="matrix(1,0,0,1,-26.5,-275.025)"><g transform="matrix(1,0,0,1,153,46)"><path d="M-84.6 229.7C-88.9 230.4-93 237.2-91.2 242.3-88.7 249.4-83.5 261.2-76.1 261.4-68.8 261.2-63.5 249.5-61 242.3-59.2 237.2-63.4 230.6-67.6 229.7-71.9 228.8-79.1 228.8-84.6 229.7m-35.3 25.1C-122 258.7-119.4 266.2-114.4 268-107.4 270.4-95.2 273.6-90.4 267.9-85.9 261.9-91.7 250.4-95.6 244-98.4 239.4-106.1 238.6-109.4 241.4-112.7 244.1-117.2 249.8-119.9 254.8m-2.8 43.9C-121.1 302.8-113.7 305.4-109.2 302.5-103 298.4-92.9 290.6-94.4 283.2-96.2 275.9-108.6 273.3-115.9 272.4-121.2 271.8-126.5 277.4-126.5 281.8-126.4 286.2-124.8 293.4-122.7 298.7m31.8 29.7C-86.8 329.7-80.1 325.4-79.5 319.9-78.7 312.4-78.4 299.5-85 296-91.7 292.9-101.4 301.2-106.7 306.5-110.5 310.3-109.5 318.1-106.1 320.8-102.7 323.5-96.3 326.7-90.9 328.4m42.5-7C-44.9 318.9-44 310.9-47.8 307-53.1 301.7-62.8 293.4-69.5 296.5-76 299.9-75.8 312.9-75 320.3-74.4 325.7-67.8 329.8-63.7 328.8-59.5 327.8-53 324.6-48.4 321.4M-27.3 283C-27 278.6-32.6 272.9-37.9 273.6-45.2 274.5-57.6 277.1-59.4 284.4-60.9 291.8-50.8 299.6-44.6 303.6-40.1 306.5-32.9 303.8-31.1 299.8-29.2 295.9-27.6 288.8-27.3 283m-16.1-40.8C-46.6 239.2-54.4 240.2-57.2 244.8-61.1 251.3-66.8 262.7-62.4 268.7-57.7 274.5-45.4 271.3-38.4 268.9-33.4 267.1-31 259.7-32.9 255.7-34.7 251.8-39.2 246.1-43.4 242.2" style="fill:#fff;fill-rule:nonzero"/></g><g transform="matrix(1,0,0,1,153,46)"><path d="M-2.4 268.8l-11-19.1v19.1h-4.9V242.6h5.5L-2 261.7V242.6H3v26.2H-2.4zm22.3-22C14.9 246.8 11 250.6 11 255.7 11 260.7 14.9 264.6 19.9 264.6S28.5 260.8 28.5 255.8C28.6 250.7 24.8 246.8 19.9 246.8M20 269.3c-7.7.0-13.8-6-13.8-13.5C6.2 248.1 12.2 242.2 20 242.2 27.5 242.2 33.5 248.3 33.5 255.7 33.5 263.4 27.6 269.3 20 269.3m23.8-22H41.6V255.2H44C47.8 255.2 49.3 254 49.3 251.2 49.4 248.8 48.4 247.3 43.8 247.3m4.7 21.5-6.9-10v10H36.7V242.6h7.5c3.59999999999999.0 5.5.5 7.2 2C53.2 246.1 54.2 248.4 54.2 251.1 54.2 255.2 52.1 258 47.4 259.2L54.5 268.9h-6V268.8zm16.2-21.5v21.6H59.9V247.3H55V242.7H69.6V247.3H64.7zm21.1 21.5v-11H76.5v11H71.6V242.6H76.5v10.6h9.3V242.6H90.7v26.2H85.8zm9.3.0V242.6h14.1V247.2H1e2V253.4h8.8V258H1e2V264.1h9.2V268.7H95.1V268.8zm25-21.5H117.9V255.2H120.3c3.8.0 5.3-1.19999999999999 5.3-4C125.6 248.8 124.7 247.3 120.1 247.3m4.7 21.5L117.9 258.8v10H113V242.6h7.5c3.59999999999999.0 5.5.5 7.2 2C129.5 246.1 130.5 248.4 130.5 251.1 130.5 255.2 128.4 258 123.7 259.2L130.8 268.9H124.8V268.8zm24 0-10.9-19.1v19.1H133V242.6h5.5l10.8 19.1V242.6H154.2v26.2H148.8zM-11.1 278.1v20.6h-4.6V278.1h-4.6V273.7H-6.4V278.1h-4.7zM-4 298.7v-25H9.5V278.1H.7V284H9.1V288.4H.7V294.2H9.5V298.6H-4V298.7zm23.1-20.6h-2v7.5h2.3C23 285.6 24.5 284.4 24.5 281.8 24.5 279.6 23.5 278.1 19.1 278.1m4.5 20.6L17 289.1V298.7H12.4v-25h7.2C23 273.7 24.8 274.2 26.4 275.6 28.1 277 29 279.2 29 281.7 29 285.6 27 288.3 22.5 289.5L29.3 298.7H23.6zm14.7-20.6H36.2v7.5h2.3C42.1 285.6 43.6 284.4 43.6 281.8 43.6 279.6 42.7 278.1 38.3 278.1m4.5 20.6L36.2 289.1V298.7H31.6v-25h7.2C42.2 273.7 44 274.2 45.6 275.6 47.3 277 48.2 279.2 48.2 281.7 48.2 285.6 46.2 288.3 41.7 289.5L48.5 298.7H42.8zM50.7 273.7H55.3v25H50.7v-25zM66.9 278.1v20.6H62.3V278.1H57.7V273.7H71.6V278.1H66.9zM84.5 277.7C79.7 277.7 76 281.4 76 286.2 76 290.9 79.7 294.7 84.5 294.7 89.2 294.7 92.8 291.1 92.8 286.3 92.7 281.4 89.1 277.7 84.5 277.7m0 21.4C77.2 299.1 71.3 293.4 71.3 286.2 71.3 278.9 77.1 273.2 84.5 273.2 91.6 273.2 97.4 279 97.4 286.1 97.4 293.4 91.8 299.1 84.5 299.1m22.1-21H104.5v7.5h2.3C110.4 285.6 111.9 284.4 111.9 281.8 111.9 279.6 111 278.1 106.6 278.1m4.5 20.6L104.5 289.1V298.7H99.9v-25H107.1C110.5 273.7 112.3 274.2 113.9 275.6 115.6 277 116.5 279.2 116.5 281.7 116.5 285.6 114.5 288.3 110 289.5L116.8 298.7h-5.7zM129.2 289.4V298.6H124.6V289.4L116.4 273.6h5l5.5 11.5 5.5-11.5h5L129.2 289.4zM-10.9 318.9C-15.8 318.9-19.6 315.3-19.6 310.6-19.6 306-15.9 302.3-11.1 302.3-7.6 302.3-4.6 304.1-3.5 306.9H-5.3C-6.4 304.9-8.5 303.8-11 303.8-15 303.8-18 306.8-18 310.6-18 314.4-14.9 317.4-11 317.4-7.8 317.4-5.1 315.2-4.5 312.7h-9V311.3H-2.6C-2.9 315.3-6.3 318.9-10.9 318.9M7.7 303.8C4 303.8.8 306.9.8 310.6.8 314.4 3.9 317.5 7.7 317.5 11.4 317.5 14.5 314.4 14.5 310.7 14.5 306.9 11.4 303.8 7.7 303.8m0 15.1C3 318.9-.8 315.2-.8 310.5-.8 306 3.1 302.3 7.7 302.3S16.2 306 16.2 310.6C16.2 315.2 12.3 318.9 7.7 318.9M24.6 318.6H23.1l-6.6-16h1.8l5.6 14 5.7-14h1.7l-6.7 16zM33.1 318.7V302.6h8.8v1.5H34.7V309.8h6.9v1.5H34.7V317.2h7.2v1.5H33.1zM50.9 312.6l4.5 6h-2L48 311.3C52.5 311.3 54 310.5 54 307.6 54 304.9 52.4 304 48.6 304H46.3v14.6H44.7v-16h4C53.7 302.6 55.6 304.4 55.6 307.8 55.6 310.6 54 312.3 50.9 312.6m18.1 6-9.5-14.1v14.1H57.9v-16h2.2L69.1 315.9V302.6H70.7v16H69zm20 0V304.3l-6 14.3H81.6l-6-14.3v14.3H74v-16h2.5l5.8 13.7 5.8-13.7h2.5v16H89zM93.9 318.7V302.6H102.6v1.5H95.4V309.8H102.3v1.5H95.4V317.2H102.6v1.5H93.9zM116.6 318.6 107 304.5v14.1H105.4v-16H107.6l9 13.3V302.6H118.2v16H116.6zm8.7-14.5v14.6H123.7V304.1H120v-1.5H128.9v1.5H125.3zM-65.2 256.2C-65.8 259.4-69.9 267.7-66.6 271.9-63 276.5-54.5 273.9-51.2 274.1L-51.6 274.2C-54.4 275.8-63.3 277.6-64.5 282.9-65.8 288.6-58.4 293.8-56.6 296.6L-57 296.3C-59.9 295-66.9 289.1-71.7 291.4c-5.2 2.5-4.5 11.6-5.5 14.8v-.5C-78 302.5-77.9 293.3-82.6 290.9-87.8 288.3-94.3 294.5-97.4 295.7L-97.1 295.4C-95.2 292.8-88 287.1-89.2 281.8-90.5 276.1-99.3 274.7-102.2 273L-101.7 273.1C-98.5 273-89.7 275.2-86.4 271-82.8 266.4-87.2 258.5-87.7 255.2L-87.5 255.6C-85.4 258.1-81.6 266.6-76.4 266.6c5.7.0 9-8.5 11.3-11L-65.2 256.2z" style="fill:#fff;fill-rule:nonzero"/></g></g></svg>