<svg width="100%" height="100%" viewBox="0 0 570 457" xmlns="http://www.w3.org/2000/svg" xmlns:xlink="http://www.w3.org/1999/xlink" xmlns:serif="http://www.serif.com/" style="fill-rule:evenodd;clip-rule:evenodd;stroke-linejoin:round;stroke-miterlimit:2"><path d="M268.969.0l-17.225 22.854 12.204 12.525h239.217l15.971-21.604-14.084-13.775H268.969z" style="fill:#005941"/><path d="M268.969.0H62.315L49.79 13.15h92.054l9.704 9.704h100.196L268.969.0z" style="fill:#ee324e"/><path d="M299.643 42.893l-17.216 22.546 12.212 12.521h177.525l15.975-21.287-14.091-13.78H299.643z" style="fill:#005941"/><path d="M299.643 42.893H92.998L80.473 55.731h92.054l9.391 9.708h100.509l17.216-22.546z" style="fill:#ee324e"/><path d="M330.334 85.478l-16.908 22.858 11.891 12.521h117.421l15.963-21.292-14.088-14.087H330.334z" style="fill:#005941"/><path d="M330.334 85.478H123.68l-12.525 13.145h92.054l9.704 9.713h100.513l16.908-22.858z" style="fill:#ee324e"/><path d="M361.014 128.371l-17.217 22.542 12.209 12.525h55.421l15.962-21.292-13.767-13.775h-52.608z" style="fill:#005941"/><path d="M361.325 128.371H154.371l-12.529 13.15h92.054l9.709 9.392h100.191l17.529-22.542z" style="fill:#ee324e"/><path d="M391.697 171.262H185.051l-12.525 12.846h92.054l9.708 9.704h100.196l17.213-22.55z" style="fill:#ee324e"/><path d="M383.251 202.574l17.213-22.85-8.767-8.463-17.212 22.55 8.766 8.763z" style="fill:#005941"/><path d="M358.823 236.696l10.646-13.762-8.762-8.775H215.419l-12.521 13.158h92.05l9.396 9.379h54.479z" style="fill:#ee324e"/><path d="M331.897 257.058h-87.675l-12.521 13.145h89.241l9.071 9.088 10.342-13.463-8.458-8.77z" style="fill:#ee324e"/><path d="M306.536 309.666l-12.516-13.163h-24.43l-12.525 13.163h49.471z" style="fill:#ee324e"/><path d="M6.579 361.631l18.783 23.484 1.88 2.195 1.566 1.884 1.879 1.241 2.509 1.263v-30.692l.308-2.187.321-1.884.304-.937.317-.625.941-.633.942-.621v-.317h-9.704v.317l.937.621.625.633.621.625.317.937.317 1.884v22.858L9.396 356.31l-.621-.937-.629-.633-.313-.938h-7.833v.317l.942.621.633.633.308.625.629.937.313 1.884v25.987l-.313 1.879-.629.93-.308.633-.633.629-.942.625v.313h9.396v-.313l-.938-.625-.625-.629-.312-.633-.625-.93-.317-1.879v-23.175z" style="fill:#005941"/><path d="M58.555 376.666h-8.142l4.071-10.337 4.071 10.337zm1.258 3.129L62 385.433l.625 1.562.313 1.25-.313.321v.629l-1.25.309v.308h8.45v-.308l-1.566-.938-.938-1.571-.941-1.254-.621-1.871-8.454-20.983h-6.571l.616.317.321.304.313.629v.304l-.313 1.263-.321.937-6.883 17.229-.625 1.871-.633 1.254-1.25 1.571-.625.629-.625.309v.308h7.521v-.308l-1.259-.309-.316-.629v-1.571l.633-1.562 2.183-5.638h10.342z" style="fill:#005941"/><path d="M81.724 365.704h4.7l1.25.309.941.629.313.629h.317l1.245-4.696-.933.313H72.02l-1.563-.313-1.254 4.696.937-.629 1.259-.317 1.246-.621h5.012v21.609l-.633 1.254-.621.629-.625.308v.309h8.142v-.309l-1.255-.937-.62-.95v-1.567l-.321-1.554v-18.792z" style="fill:#005941"/><path d="M95.812 365.394v20.346l-.304 1.571-.321 1.258-.62.625-.634.309v.312h7.834v-.312l-.63-.309-.625-.625-.312-1.258-.313-1.571v-18.779l.313-1.567.312-1.571.625-.62.63-.313h-7.834l.634.313.62.62.625 1.571z" style="fill:#005941"/><path d="M122.119 365.086l2.504.308 1.875.621 1.879 1.254 1.563 1.563.941 1.571.942 2.191.317 2.196.308 1.875-.308 2.508-.317 1.871-.942 1.884-1.25 1.566-1.254 1.246-1.879.946-1.875.625-2.196.304-2.5-.304-2.192-.938-1.562-.941-1.575-1.559-1.246-1.879-.937-1.887-.321-2.196-.309-2.183.309-2.2.321-1.884.937-1.866 1.246-1.571 1.575-1.246 1.562-.946 2.192-.621 2.192-.308zm3.441-2.821h-6.262l-2.821.938-2.504 1.241-2.5 1.884-1.567 1.879-1.566 2.504-.946 2.512-.304 2.813.304 3.137.946 2.821 1.566 2.5 1.567 1.879 2.5 1.875 2.504 1.255 2.508.62 3.134.313 2.816-.313 2.825-.929 2.5-.946 2.505-1.875 1.875-2.191 1.254-2.509.937-2.5.313-1.566v-1.571l-.313-2.813-.629-2.512-1.562-2.504-1.563-1.88-2.196-1.883-2.504-1.242-2.817-.937z" style="fill:#005941"/><path d="M147.788 368.524l13.783 17.85 1.563 1.559 1.25 1.262 1.254.929 1.875.946v-22.862l.321-1.567v-1.554l.621-1.263 1.25-.937h-7.196l1.246.937.629 1.263.312 1.554v16.904l-15.025-18.775-.625-.946-.316-.316v-.621h-5.946l.941.937.621 1.263.317 1.554v19.408l-.317 1.263-.621 1.258-1.258.933v.309h7.204v-.309l-.941-.933-.942-1.258v-18.788z" style="fill:#005941"/><path d="M191.943 376.666h-8.146l4.067-10.337 4.079 10.337zm1.25 3.129 2.192 5.638.62 1.562.317 1.25-.317.321v.629l-1.245.309v.308h8.45v-.308l-1.563-.938-.942-1.571-.941-1.254-.617-1.871-8.462-20.983h-6.575l.629.317.312.304.309.629v.304l-.309 1.263-.312.937-6.884 17.229-.637 1.871-.621 1.254-1.254 1.571-.625.629-.625.309v.308h7.508v-.308l-1.246-.309-.312-.629v-1.571l.617-1.562 2.2-5.638h10.333z" style="fill:#005941"/><path d="M214.17 386.375v-20.979l.625-1.571.317-.625.621-.312h-7.825l.941.312.309.625.633 1.571v21.917l-.633 1.254-.309.629-.941.308v.309h16.908l2.196-5.63h-.317l-1.258 1.246-1.875.946-1.879.308h-2.188l-5.325-.308z" style="fill:#005941"/><path d="M238.279 386.375v-19.412l.321-1.567.62-1.571.309-.625.633-.312h-7.833l.629.312.621.625.629 1.571v21.917l-.629 1.254-.621.629-.629.308v.309h16.912l2.184-5.63h-.305l-1.566 1.246-1.571.946-1.879.308h-2.184l-5.641-.308z" style="fill:#005941"/><path d="M266.461 377.911l10.016-15.021h-7.204l.942.617.317.317.308.621v.641l-.308 1.242-.317.633-5.325 7.829-6.571-10.966-.312-.317-.938-.304-1.562-.313h-3.763l1.25.934.942.946 1.571 2.191 6.879 10.95v7.829l-.313 1.259-.304 1.571-.946.933v.308h7.825v-.308l-1.254-.933-.621-1.259-.312-1.262v-8.138z" style="fill:#005941"/><path d="M299.961 353.803v.316l.941.313.621.941.317.938.313.946.312 2.183v24.742l-.313 2.191-.312 1.242-.317.633-.62.946-.942.309v.312h10.329v-.312l-.938-.309-.308-.946-.633-.633-.309-1.242-.316-2.191v-26.3l3.758-.625h1.563l1.258.308 1.25.625.933.629.946.946.634.929.312 1.246.308 1.263-.308 1.883-.633 1.554-.938 1.254-1.254.938-1.567.946-1.562.625-3.134.625 5.013 7.82 6.575 8.15 1.25 1.25 1.563.946 1.566.309 1.884.312h5.008l-2.196-1.567-2.504-1.875-2.192-2.191-1.871-1.884-7.833-10.016 1.571-.638 1.562-.616 1.563-.938 1.258-1.258 1.246-1.242.633-1.575.621-1.571.313-1.871-.313-1.879-.621-1.571-.941-1.241-1.259-1.571-1.558-.938-1.883-.941-2.192-.313-2.812-.316h-12.842z" style="fill:#005941"/><path d="M338.157 376.666h5.012l.938.625.633.317v-4.079h-6.583v-7.517l2.196-.308h3.445l1.255.308.937.629 1.25.629v-4.695l-.937.312h-14.092l.625.317.629.621.308 1.57v21.917l-.308 1.254-.629.629-.625.309v.308h16.908l1.884-5.317-1.884 1.246-1.879.634-1.879.308h-2.192l-5.012-.308v-9.709z" style="fill:#005941"/><path d="M377.3 363.202l-3.754-.625-3.45-.312-3.129.312-2.821.625-2.5 1.242-1.883 1.571-1.879 2.191-1.254 2.2-.938 2.817v6.258l.938 2.817 1.254 2.196 1.879 2.191 2.192 1.563 2.82 1.258 2.813.617 3.446.312 3.45-.312 1.566-.308 1.25-.621 2.188-4.7-2.188.937-2.191.946-2.196.308-2.188.313-2.504-.313-1.887-.637-1.871-.933-1.254-1.567-1.254-1.554-.942-1.884-.621-2.2-.312-2.183.312-2.196.621-1.887.633-1.867 1.25-1.571 1.25-.933 1.879-.946 1.563-.621h4.075l2.187.621 1.88.633 1.57.934v-4.692z" style="fill:#005941"/><path d="M398.276 365.086l2.504.308 1.88.621 1.879 1.254 1.562 1.563.942 1.571.937 2.191.625 2.196v4.383l-.625 1.871-.937 1.884-1.254 1.566-1.25 1.246-1.879.946-1.88.625-2.191.304-2.509-.304-1.875-.938-1.875-.941-1.57-1.559-1.246-1.879-.942-1.887-.317-2.196-.312-2.183.312-2.2.317-1.884.942-1.866 1.246-1.571 1.57-1.246 1.563-.946 2.187-.621 2.196-.308zm3.446-2.821h-6.262l-2.825.938-2.5 1.241-2.505 1.884-1.566 1.879-1.563 2.504-.937 2.512-.313 2.813.313 3.137.937 2.821 1.563 2.5 1.566 1.879 2.505 1.875 2.5 1.255 2.508.62 3.133.313 2.821-.313 2.817-.929 2.508-.946 2.5-1.875 1.879-2.191 1.25-2.509.942-2.5.308-1.566v-1.571l-.308-2.813-.629-2.512-1.242-2.504-1.892-1.88-2.187-1.883-2.504-1.242-2.817-.937z" style="fill:#005941"/><path d="M441.485 362.889l-3.133-.621h-6.884l-3.137.933-2.813 1.242-2.512 1.571-1.242.95-.937 1.241-.638.938-.621 1.262-.625 1.567-.316 1.25-.313 1.567v1.554l.313 3.137.941 2.817 1.259 2.2 1.87 2.188 2.192 1.562 3.133 1.258 3.13.617 3.758.313h2.5l2.504-.313 4.7-.929v-.946l-.312-.937v-9.4l.312-.934v-.941h-6.262l.625.633.633.308.304 1.254.321 1.25v7.205l-2.825.625-2.817.308-2.187-.308-2.5-.625-1.884-.946-1.566-1.559-1.567-1.57-.942-2.192-.941-2.188v-4.7l.941-2.195.942-1.559 1.254-1.571 1.563-1.566 1.883-.934 2.192-.308 2.504-.312h1.875l1.875.62 1.879.621 1.571 1.263v-4.7z" style="fill:#005941"/><path d="M454.638 368.524l14.084 17.85 1.262 1.559 1.242 1.262 1.575.929 1.871.946v-24.429l.316-1.554.621-1.263 1.254-.937h-7.2l1.25.937.634 1.263.312 1.554v16.904L456.83 364.77l-.629-.946-.313-.316-.308-.621h-5.954l1.254.937.621 1.263.316 1.554v19.408l-.316 1.263-.621 1.258-1.254.933v.309h7.204v-.309l-1.25-.933-.633-1.258-.309-1.263v-17.525z" style="fill:#005941"/><path d="M484.068 365.394v21.917l-.625 1.258-.317.625-.938.309v.312h7.825v-.312l-.62-.309-.321-.625-.621-1.258v-21.917l.621-1.571.321-.62.62-.313h-7.825l.938.313.317.62.625 1.571z" style="fill:#005941"/><path d="M511.936 363.202l-2.821-.937h-5.008l-1.875.312-1.575.625-1.563.621-1.562.946-.938 1.246-.625 1.575-.316 1.554.316 1.566.304 1.571.634.942.937.942 1.25.933.942.629 2.821 1.567 2.5.933 2.191 1.254.938.938.629.625.317 1.254.308.937-.308.946-.317.934-.629.625-.625.637-1.879.933-1.875.305-2.5-.305-2.513-.625-2.187-1.254-1.879-1.25.941 5.013 1.875.621 1.871.308 3.763.312 2.195-.312 2.188-.308 1.879-.938 1.571-.942 1.25-1.25.937-1.57.621-1.567.321-1.554v-1.263l-.625-1.25-.633-.937-.934-.938-2.191-1.571-2.509-1.245-2.816-1.259-2.196-1.25-.929-.637-.634-.934-.316-.933-.304-.942.304-.941.316-.934.634-.633.625-.312 1.562-.621 1.879-.309 1.875.309 1.567.312 1.563.934 1.258.95v-4.388z" style="fill:#005941"/><path d="M526.643 376.666h5.017l.946.625.621.317v-4.079h-6.584v-7.517l2.196-.308h3.446l1.254.308.938.629 1.25.629v-4.695l-.938.312h-14.087l.62.317.634.621.308 1.57.317 1.567v18.779l-.317 1.571-.308 1.254-.634.629-.62.309v.308h16.908l1.879-5.317-1.562 1.246-2.2.634-1.88.308h-1.879l-5.325-.308v-9.709z" style="fill:#005941"/><path d="M550.752 366.327l1.883-.312 1.567-.309 2.513.309 2.183.312 1.879.946 1.567 1.25 1.254 1.567.937 1.879.621 2.196v2.5l-.308 2.508-.629 1.871-.938 1.883-1.562 1.254-1.567 1.25-2.196.617-2.183.637h-5.021v-20.358zm-4.379 2.196v18.475l-.625 1.571-.317.625-.621.312v.309h9.705l3.133-.309 3.129-.629 2.504-1.262 2.5-1.567 1.571-2.175 1.25-2.196.938-2.829.316-2.813-.316-2.812-.621-2.513-1.25-2.504-1.888-1.879-2.183-1.558-2.504-.946-2.817-.621-3.446-.312H544.81l.621.312.317.621.625.621v.641l.317 1.875-.317 1.563z" style="fill:#005941"/><path d="M196.323 423.317h6.263l1.562.309 1.259.625.304.637.316.621h.321l1.559-6.583-1.255.316h-24.108l-.942-.316h-.304l-1.883 6.583 1.567-.946 1.562-.621 1.879-.625h6.579v26.305l-.316 2.187-.317.942-.308.941-.621.938-.946.625h10.65l-.942-.938-.629-.625-.625-.633-.312-.937-.313-1.88v-26.925z" style="fill:#005941"/><path d="M211.033 428.326l.945.621.313.621.621 1.262v21.921l-.621 1.567-.313.621-.945.316h7.837l-.633-.316-.309-.621-.625-1.567v-21.604l2.505-.317h.937l1.25.317.938.308.629.634.633.625.621.616.317.938v2.517l-.63 1.245-.629.938-.941.629-.938.629-1.25.625-2.508.309 3.758 5.958 4.7 6.254 1.254.946.934.621 1.254.316h5.325l-3.763-2.504-1.562-1.579-1.254-1.554-5.95-7.513 1.262-.312 1.242-.633.941-.625 1.88-1.88.625-1.241.316-1.263v-2.504l-.316-1.25-.625-1.25-.942-.937-1.25-.642-1.563-.621-1.57-.621h-11.9z" style="fill:#005941"/><path d="M252.992 442.104h-8.137l4.066-10.337 4.071 10.337zm1.254 3.129 2.192 5.634.629 1.887v1.567l-.321.308-.937.625h8.462L262.709 454l-.942-1.246-.942-1.579-.629-1.867-8.454-20.983h-6.575l.633.312.305.313.316.617v.325l-.316 1.254-.305 1.25-6.895 16.912-.625 1.867-.942 1.579L236.4 454l-.625.629-.937.625h7.512l-.945-.625-.305-.629v-1.567l.621-1.566 1.884-5.634h10.641z" style="fill:#005941"/><path d="M270.53 430.828v21.925l-.63 1.567-.312.616-.938.321h7.825l-.625-.321-.316-.616-.621-1.567v-21.925l.621-1.263.316-.616.625-.621h-7.825l.938.621.312.616.63 1.263z" style="fill:#005941"/><path d="M287.436 433.962l14.088 17.846 1.258 1.562 1.25 1.567 1.563.938 1.883.629v-24.413l.308-1.571.625-.954 1.254-1.241h-7.204l1.263 1.241.621.954v1.571l.316 1.559v15.345l-15.033-18.783-.629-.646-.304-.616-.317-.625h-5.95l1.25 1.241.625.954.317 1.571V451.5l-.317 1.254-.625 1.25-1.25 1.25h7.2l-1.25-1.25-.629-1.25-.313-1.254v-17.538z" style="fill:#005941"/><path d="M316.867 430.828v21.925l-.62 1.567-.634.616-.625.321h7.829l-.625-.321-.32-.616-.621-1.567-.309-1.579v-18.779l.309-1.567.621-1.263.32-.616.625-.621h-7.829l.942.621.317.616.62 1.263z" style="fill:#005941"/><path d="M333.774 433.962l14.088 17.846 1.258 1.562 1.254 1.567 1.567.938 1.879.629v-24.413l.304-1.571.633-.954 1.246-1.241h-7.2l1.254 1.241.625.954v18.475l-15.029-18.783-.316-.646-.621-.616v-.625h-5.954l.941 1.241.946.954.304 1.571V451.5l-.304 1.254-.946 1.25-.941 1.25h6.891l-.937-1.25-.621-1.25-.321-1.254v-17.538z" style="fill:#005941"/><path d="M384.189 428.326l-3.45-.312-3.129-.313-3.442.313-3.441.621-2.821 1.258-2.5 1.562-.942.942-.941 1.25-1.567 2.192-.629 1.575-.313 1.554-.308 1.258v1.567l.308 3.129.629 2.813 1.563 2.2 1.879 2.187 2.504 1.571 2.821 1.246 3.138.625 3.754.308h2.5l2.508-.308 4.7-.934v-13.162h-6.271v.325l.629.312.625.313.625 1.25v8.454l-2.816.629-2.817.309-2.5-.309-1.879-.629-2.196-.95-1.562-1.554-1.571-1.567-.942-2.196-.621-1.883-.308-2.504.308-2.5.313-2.183 1.25-1.571 1.25-1.567 1.571-1.25 2.191-.942 1.879-.625 2.5-.312 1.884.312 2.187.317 1.571.617 1.563 1.258h.316v-4.696z" style="fill:#005941"/></svg>