<svg width="100%" height="100%" viewBox="0 0 355 278" xmlns="http://www.w3.org/2000/svg" xmlns:xlink="http://www.w3.org/1999/xlink" xmlns:serif="http://www.serif.com/" style="fill-rule:evenodd;clip-rule:evenodd;stroke-linejoin:round;stroke-miterlimit:2"><path d="M154.008 108.354c0 4.029-2.583 5.712-6.517 5.712-1.351.0-3.176-.474-4.005-.948l.758-2.062c.853.332 1.825.522 2.868.522 2.084.0 3.175-.759 3.175-2.703.0-2.725-1.492-3.034-2.631-3.034-1.161.0-2.085.167-2.559.238l-.948-1.754h-.024v-6.802h8.746v2.702h-5.783v3.317c.64-.118 1.327-.142 1.966-.142 3.011.0 4.954 1.588 4.954 4.954" style="fill:#1d1d1b;fill-rule:nonzero"/><path d="M166.615 101.978c-.284-.402-.451-1.469-.474-1.872-.451-.118-1.114-.213-1.707-.213-1.113.0-1.92.616-1.92 1.635.0 1.043.356 1.588 1.992 2.062l2.109.617c1.92.568 3.721 1.682 3.721 4.645.0 3.342-2.749 5.214-6.067 5.214-1.755.0-4.029-.451-5.428-1.399-.071-.995.237-2.677.64-3.507h2.252c.213.426.403 1.232.449 1.966.617.262 1.399.356 1.968.356 1.351.0 2.488-.663 2.488-2.014.0-.735-.094-1.494-1.564-1.944l-2.441-.71c-2.061-.593-3.721-1.92-3.721-4.74.0-2.915 2.347-4.741 5.594-4.741 1.588.0 3.436.403 5.001 1.138.07.995-.238 2.678-.641 3.507h-2.251z" style="fill:#1d1d1b;fill-rule:nonzero"/><path d="M183.346 100.935l-1.493.19c-.237-.19-.427-.569-.593-.995h-2.844v10.996c.546.213 1.043.474 1.304.782l-.237 1.967h-5.545l-.238-1.967c.238-.308.735-.569 1.303-.782V100.13h-2.844c-.165.426-.355.805-.592.995l-1.492-.19v-3.389h13.271v3.389z" style="fill:#1d1d1b;fill-rule:nonzero"/><path d="M186.758 107.027h3.389l-.901-2.891c-.616-1.968-.64-3.414-.64-3.414h-.331s0 1.446-.593 3.366l-.924 2.939zm8.199 4.052c.593.214 1.138.522 1.4.83l-.239 1.967h-5.545l-.237-1.967c.214-.285.641-.521 1.138-.711l-.64-1.991h-4.74l-.593 1.92c.522.213.972.497 1.233.782l-.237 1.967h-5.404l-.236-1.967c.284-.356.9-.688 1.588-.901l4.549-13.604h3.247l4.716 13.675z" style="fill:#1d1d1b;fill-rule:nonzero"/><path d="M200.811 100.106v4.504h1.351c2.014.0 3.199-.499 3.199-2.204.0-1.826-1.279-2.3-3.152-2.3h-1.398zm1.564-2.583c4.077.071 6.541.972 6.541 4.787.0 2.346-1.777 3.698-3.531 4.361.569.237 1.256.641 1.564 1.209l1.731 3.294c.64.214 1.232.521 1.516.877l-.238 1.825h-4.004l-2.726-5.806c-.143-.332-.45-.878-.876-.878h-1.541v3.792c.948.214 1.849.546 2.157.925l-.237 1.967h-6.399l-.237-1.967c.237-.308.735-.569 1.303-.782v-10.831c-.568-.213-1.066-.498-1.303-.806l.237-1.967h6.043z" style="fill:#1d1d1b;fill-rule:nonzero"/><path d="M332.102 56.704l-1.908 19.005 14.574 12.346-18.664 4.059-7.238 17.676-9.627-16.497-19.048-1.421 12.714-14.254-4.533-18.555 17.485 7.687 16.245-10.046z" style="fill:#eda214;fill-rule:nonzero"/><path d="M332.115 56.703l-15.249 24.384 13.341-5.379 1.908-19.005zm12.653 31.352-27.902-6.968 9.238 11.027 18.664-4.059zM298.387 59.05l18.479 22.037-.993-14.35-17.486-7.687zm10.847 34.231 9.628 16.497-1.996-28.691-7.632 12.194zm-19.038-1.43 26.67-10.764-13.955-3.49-12.715 14.254z" style="fill:#eda214;fill-rule:nonzero"/><path d="M21 56.704 37.245 66.75l17.485-7.687-4.534 18.555 12.715 14.254-19.048 1.421-9.627 16.497-7.238-17.676-18.665-4.059 14.575-12.346L21 56.704z" style="fill:#eda214;fill-rule:nonzero"/><path d="M21.005 56.693l15.231 24.395 1.015-14.349-16.246-10.046zm33.726 2.371-18.495 22.024 13.96-3.47 4.535-18.554zm-46.402 28.972 27.907-6.948-13.333-5.398-14.574 12.346zm35.521 5.257 19.048-1.422-26.662-10.783 7.614 12.205zm-9.63 16.484 2.016-28.689-9.254 11.013 7.238 17.676z" style="fill:#eda214;fill-rule:nonzero"/><path d="M257.582 21.967l3.405 18.795 17.412 7.85-16.822 9.046-2.086 18.987-13.801-13.204-18.702 3.884 8.293-17.207-9.472-16.586 18.926 2.57 12.847-14.135z" style="fill:#eda214;fill-rule:nonzero"/><path d="M257.595 21.963l-7.937 27.643 11.341-8.848-3.404-18.795zM278.4 48.612l-28.742.994 11.919 8.053 16.823-9.047zm-52.579-15.097 23.837 16.091-4.911-13.521-18.926-2.57zm19.861 29.916 13.803 13.204-9.827-27.029-3.976 13.825zm-18.693 3.873 22.669-17.698-14.377.491-8.292 17.207z" style="fill:#eda214;fill-rule:nonzero"/><path d="M95.52 21.967l12.847 14.135 18.926-2.57-9.472 16.586 8.293 17.207-18.702-3.884L93.61 76.645l-2.085-18.987-16.823-9.046 17.413-7.85 3.405-18.795z" style="fill:#eda214;fill-rule:nonzero"/><path d="M95.527 21.958l7.917 27.648 4.931-13.514-12.848-14.134zm31.766 11.575-23.849 16.073 14.376.513 9.473-16.586zm-52.59 15.059 28.741 1.014-11.329-8.864-17.412 7.85zM107.4 63.437l18.701 3.883-22.657-17.714 3.956 13.831zM93.599 76.628l9.845-27.022-11.931 8.036 2.086 18.986z" style="fill:#eda214;fill-rule:nonzero"/><path d="M176.244 9.338l8.453 17.128 18.902 2.747-13.677 13.332 3.228 18.826-16.906-8.888-16.907 8.888 3.229-18.826-13.677-13.332 18.902-2.747 8.453-17.128z" style="fill:#eda214;fill-rule:nonzero"/><path d="M176.253 9.33l-.01 28.76 8.464-11.632-8.454-17.128zm27.346 19.882-27.356 8.878 13.678 4.455 13.678-13.333zm-54.705-.019 27.349 8.897-8.447-11.644-18.902 2.747zm27.338 23.282 16.908 8.888-16.897-23.273-.011 14.385zm-16.901 8.876 16.912-23.261-13.684 4.435-3.228 18.826z" style="fill:#eda214;fill-rule:nonzero"/><path d="M351.544 65.84c-.705.0-1.415-.224-2.017-.685-50.013-38.28-109.826-58.513-172.976-58.513-62.357.0-121.568 19.775-171.233 57.189-1.463 1.103-3.545.809-4.65-.655-1.103-1.463-.811-3.546.655-4.649C52.148 20.238 112.741.0 176.551.0c64.62.0 125.831 20.708 177.014 59.882 1.455 1.115 1.732 3.199.618 4.655-.654.854-1.64 1.303-2.639 1.303" style="fill:#1d1d1b;fill-rule:nonzero"/><path d="M299.582 116.644c-.653.0-1.311-.191-1.888-.59-35.687-24.692-77.578-37.742-121.143-37.742-43.494.0-85.33 13.012-120.984 37.63-1.507 1.043-3.578.663-4.62-.846-1.042-1.509-.662-3.577.846-4.619 36.77-25.388 79.91-38.807 124.758-38.807 44.922.0 88.12 13.46 124.924 38.922 1.507 1.044 1.883 3.113.841 4.62-.645.932-1.681 1.432-2.734 1.432" style="fill:#1d1d1b;fill-rule:nonzero"/><rect x="2.229" y="198.61" width="349.689" height="78.751" style="fill:#1d1d1b"/><path d="M56.123 222.088l-4.723.601c-.75-.601-1.35-1.8-1.875-3.15h-8.997v34.79c1.724.675 3.299 1.5 4.124 2.475l-.751 6.223H26.357l-.751-6.223c.751-.975 2.325-1.8 4.124-2.475v-34.79h-8.997c-.525 1.35-1.125 2.549-1.875 3.15l-4.723-.601v-10.722h41.988v10.722z" style="fill:#fff;fill-rule:nonzero"/><path d="M74.048 219.463v14.246h4.274c6.373.0 10.122-1.575 10.122-6.973.0-5.773-4.048-7.273-9.972-7.273h-4.424zm4.949-8.173c12.896.226 20.694 3.074 20.694 15.146.0 7.423-5.623 11.697-11.172 13.796 1.8.751 3.974 2.025 4.948 3.826l5.475 10.422c2.024.674 3.898 1.649 4.798 2.774l-.75 5.772H90.319l-8.624-18.369c-.449-1.049-1.423-2.774-2.773-2.774h-4.874v11.996c2.999.675 5.848 1.726 6.824 2.925l-.751 6.222H59.877l-.75-6.222c.75-.976 2.325-1.8 4.124-2.476v-34.265c-1.799-.675-3.374-1.575-4.124-2.549l.75-6.224h19.12z" style="fill:#fff;fill-rule:nonzero"/><path d="M123.54 241.358h10.722l-2.849-9.147c-1.95-6.224-2.025-10.798-2.025-10.798h-1.049s0 4.574-1.875 10.647l-2.924 9.298zm25.942 12.82c1.875.676 3.6 1.651 4.425 2.625l-.751 6.224h-17.545l-.75-6.224c.676-.9 2.025-1.649 3.599-2.25l-2.024-6.298H121.44l-1.875 6.074c1.65.675 3.075 1.574 3.899 2.474l-.749 6.224h-17.096l-.749-6.224c.899-1.125 2.849-2.174 5.024-2.849l14.396-43.038h10.271l14.921 43.262z" style="fill:#fff;fill-rule:nonzero"/><path d="M173.629 217.514c-.823.975-2.398 1.874-4.124 2.549v34.265c1.726.675 3.301 1.5 4.124 2.475l-.749 6.224h-17.545l-.75-6.224c.75-.975 2.325-1.8 4.124-2.475v-34.265c-1.799-.675-3.374-1.574-4.124-2.549l.75-6.224h17.545l.749 6.224z" style="fill:#fff;fill-rule:nonzero"/><path d="M189.002 254.479c1.725.675 3.225 1.649 4.124 2.774l-.749 5.774h-14.696l-.75-5.774c.9-1.125 2.399-2.099 4.124-2.774v-34.641c-1.799-.674-3.449-1.65-4.274-2.774l.75-5.773h15.446l14.921 29.091c1.799 3.525 3.748 10.198 3.748 10.198l.826-.299s-1.051-6.524-1.051-10.948v-19.42c-1.724-.674-3.224-1.725-4.123-2.849l.75-5.773h14.695l.749 5.773c-.899 1.124-2.398 2.175-4.122 2.849v43.114h-11.772l-15.071-29.318c-1.8-3.524-3.75-10.197-3.75-10.197l-.824.3s1.049 6.523 1.049 10.947v19.72z" style="fill:#fff;fill-rule:nonzero"/><path d="M245.168 217.514c-.824.975-2.4 1.874-4.124 2.549v34.265c1.724.675 3.3 1.5 4.124 2.475l-.75 6.224h-17.545l-.751-6.224c.751-.975 2.325-1.8 4.124-2.475v-34.265c-1.799-.675-3.373-1.574-4.124-2.549l.751-6.224h17.545l.75 6.224z" style="fill:#fff;fill-rule:nonzero"/><path d="M260.541 254.479c1.724.675 3.225 1.649 4.124 2.774l-.75 5.774h-14.697l-.748-5.774c.899-1.125 2.398-2.099 4.124-2.774v-34.641c-1.8-.674-3.449-1.65-4.276-2.774l.75-5.773h15.448l14.92 29.091c1.798 3.525 3.749 10.198 3.749 10.198l.824-.299s-1.049-6.524-1.049-10.948v-19.42c-1.726-.674-3.225-1.725-4.124-2.849l.75-5.773h14.695l.75 5.773c-.899 1.124-2.4 2.175-4.124 2.849v43.114h-11.77l-15.074-29.318c-1.798-3.524-3.747-10.197-3.747-10.197l-.824.3s1.049 6.523 1.049 10.947v19.72z" style="fill:#fff;fill-rule:nonzero"/><path d="M307.26 236.633c0 13.047 3.823 18.521 10.196 18.521 2.7.0 5.173-.451 7.2-1.275v-8.474c-2.027-.674-3.827-1.648-4.726-2.773l.751-5.924h17.544l.751 5.924c-.751.899-2.025 1.649-3.526 2.324v13.871c-4.872 3.599-10.271 4.799-18.669 4.799-14.021.0-20.769-7.123-20.769-26.317.0-18.445 8.848-26.617 22.568-26.617 6.899.0 12.223 1.5 16.721 4.722.226 3.15-.75 8.474-2.023 11.099h-6.899c-.675-1.275-1.274-3.825-1.499-6.224-2.176-.75-4.199-1.125-6.898-1.125-6.149.0-10.722 3.749-10.722 17.469" style="fill:#fff;fill-rule:nonzero"/><path d="M75.603 179.357c6.385.0 10.666-4.432 10.666-18.026.0-13.746-4.582-18.027-10.816-18.027-6.159.0-10.441 3.755-10.441 17.5.0 13.671 4.582 18.553 10.591 18.553m.451-44.541c13.896.0 21.482 6.384 21.482 25.687.0 18.404-8.638 27.341-22.534 27.341-13.745.0-21.257-7.134-21.257-26.363.0-18.478 8.563-26.665 22.309-26.665" style="fill:#1d1d1b;fill-rule:nonzero"/><path d="M112.029 178.68c1.728.677 3.23 1.653 4.131 2.78l-.751 5.783h-14.722l-.751-5.783c.902-1.127 2.404-2.103 4.131-2.78v-34.701c-1.803-.675-3.455-1.653-4.281-2.779l.751-5.784h15.473l14.948 29.144c1.802 3.53 3.755 10.216 3.755 10.216l.826-.301s-1.052-6.535-1.052-10.967v-19.454c-1.727-.676-3.229-1.728-4.13-2.854l.751-5.784h14.721l.752 5.784c-.902 1.126-2.404 2.178-4.132 2.854v43.189h-11.792l-15.098-29.369c-1.802-3.53-3.756-10.215-3.756-10.215l-.826.3s1.052 6.535 1.052 10.967v19.754z" style="fill:#1d1d1b;fill-rule:nonzero"/><path d="M150.709 187.244l-.751-6.233c.751-.978 2.328-1.803 4.131-2.48v-34.326c-1.803-.677-3.38-1.577-4.131-2.554l.751-6.235h17.576l.751 6.235c-.826.977-2.404 1.877-4.131 2.554v34.851h11.868c.601-2.328 1.652-4.506 2.779-5.558l5.559.677v13.069h-34.402z" style="fill:#1d1d1b;fill-rule:nonzero"/><path d="M206.74 141.65c-.826.977-2.403 1.877-4.131 2.554v34.326c1.728.677 3.305 1.502 4.131 2.48l-.751 6.233h-17.576l-.751-6.233c.751-.978 2.329-1.803 4.132-2.48v-34.326c-1.803-.677-3.381-1.577-4.132-2.554l.751-6.234h17.576l.751 6.234z" style="fill:#1d1d1b;fill-rule:nonzero"/><path d="M222.887 178.68c1.728.677 3.23 1.653 4.131 2.78l-.751 5.783h-14.722l-.751-5.783c.902-1.127 2.404-2.103 4.131-2.78v-34.701c-1.803-.675-3.455-1.653-4.281-2.779l.751-5.784h15.473l14.948 29.144c1.802 3.53 3.756 10.216 3.756 10.216l.825-.301s-1.051-6.535-1.051-10.967v-19.454c-1.728-.676-3.23-1.728-4.132-2.854l.751-5.784h14.723l.751 5.784c-.902 1.126-2.404 2.178-4.131 2.854v43.189h-11.793l-15.098-29.369c-1.802-3.53-3.755-10.215-3.755-10.215l-.827.3s1.052 6.535 1.052 10.967v19.754z" style="fill:#1d1d1b;fill-rule:nonzero"/><path d="M296.418 187.244h-34.852l-.751-6.233c.751-.978 2.329-1.803 4.131-2.48v-34.326c-1.802-.677-3.38-1.577-4.131-2.554l.751-6.235h34.251v13.07l-5.558.676c-1.126-.976-2.178-3.23-2.779-5.558h-11.717v12.919h10.44c.527-1.351 1.127-2.478 1.878-3.154l4.733.524v13.371l-4.733.601c-.751-.601-1.351-1.803-1.878-3.154h-10.44v14.345h12.318c.601-2.328 1.652-4.506 2.779-5.558l5.558.677v13.069z" style="fill:#1d1d1b;fill-rule:nonzero"/></svg>