<svg width="100%" height="100%" viewBox="0 0 796 260" xmlns="http://www.w3.org/2000/svg" xmlns:xlink="http://www.w3.org/1999/xlink" xmlns:serif="http://www.serif.com/" style="fill-rule:evenodd;clip-rule:evenodd;stroke-linejoin:round;stroke-miterlimit:2"><g transform="matrix(1,0,0,1,-21.6649,-350)"><g transform="matrix(1,0,0,1,366.269,480.714)"><path d="M0-43.274c-1.075-3.425-4.698-8.615-11.943-8.615-4.601.0-8.615 2.349-10.574 5.972-2.348 4.405-3.426 10.377-3.426 18.6.0 11.748 1.96 19.092 6.071 22.027 2.154 1.568 4.895 2.35 8.123 2.35 9.498.0 13.511-7.244 13.511-24.572.0-6.951-.586-11.942-1.762-15.762M21.048 18.009s-1.96 1.178-6.069 1.178c-5.285.0-9.986-3.137-12.53-4.803-3.232-2.15-8.517-5.183-13.803-6.847-10.184.0-16.84-2.84-22.027-9.596-5.191-6.656-7.834-15.272-7.834-25.258.0-14.685 5.582-26.528 15.371-31.814 4.013-2.157 9.007-3.33 14.095-3.33 18.113.0 29.273 13.214 29.273 34.558.0 14.783-5.286 25.844-13.412 31.229 1.861.683 4.504 2.449 6.068 3.425 2.449 1.469 5.385 2.842 8.422 2.842 2.936.0 6.068-.488 6.068-.488l-3.622 8.904z" style="fill:#fff;fill-rule:nonzero"/></g><g transform="matrix(1,0,0,1,427.035,435.777)"><path d="M0 52.767c-1.663-1.174-3.034-2.84-3.915-4.895-3.231 3.133-7.929 4.795-13.218 4.795-7.048.0-13.116-3.326-14.782-8.125C-32.697 42.29-32.99 39.648-32.99 34.558V2.447L-20.068.0V32.208C-20.068 36.712-19.677 39.062-18.993 40.433-18.306 41.8-16.347 42.781-14.391 42.781c3.231.0 7.146-2.348 8.126-4.797V2.742L6.269.099V38.374c0 3.33 1.075 6.756 3.034 9.106L0 52.767z" style="fill:#fff;fill-rule:nonzero"/></g><g transform="matrix(1,0,0,1,473.613,468.473)"><path d="M0-12.43c0-3.722-.394-5.681-1.564-7.54-1.273-1.957-3.136-2.936-5.776-2.936-4.994.0-7.836 3.914-7.836 10.868v.193H0V-12.43zM-15.367-2.249v.39c0 7.735 3.816 12.141 10.571 12.141 4.503.0 8.708-1.664 12.728-4.994l5.089 7.83C7.245 17.819 1.177 20.071-5.877 20.071c-14.389.0-23.687-10.182-23.687-25.943.0-9.006 1.863-14.979 6.265-19.874 4.115-4.599 9.108-6.755 15.762-6.755 5.775.0 11.258 1.959 14.49 5.289 4.599 4.697 6.659 11.453 6.659 21.928v3.035H-15.367z" style="fill:#fff;fill-rule:nonzero"/></g><g transform="matrix(1,0,0,1,523.127,468.473)"><path d="M0-12.43c0-3.722-.394-5.681-1.564-7.54-1.279-1.957-3.13-2.936-5.782-2.936-4.993.0-7.824 3.914-7.824 10.868v.193H0V-12.43zM-15.373-2.249v.39c0 7.735 3.822 12.141 10.571 12.141 4.503.0 8.72-1.664 12.734-4.994l5.089 7.83c-5.77 4.701-11.85 6.953-18.898 6.953-14.389.0-23.687-10.182-23.687-25.943.0-9.006 1.863-14.979 6.265-19.874 4.115-4.599 9.109-6.755 15.762-6.755 5.781.0 11.252 1.959 14.49 5.289 4.599 4.697 6.653 11.453 6.653 21.928v3.035H-15.373z" style="fill:#fff;fill-rule:nonzero"/></g><g transform="matrix(1,0,0,1,572.641,435.777)"><path d="M0 51.396v-32.6c0-5.676-.979-7.343-4.407-7.343-2.64.0-6.069 1.762-9.103 4.504V51.396H-26.626V15.076C-26.626 10.769-27.211 6.658-28.394 3.328L-16.735.0c1.171 2.055 1.851 4.208 1.851 6.266 1.96-1.37 3.632-2.544 5.782-3.722C-6.462 1.174-3.033.392-.095.392c5.578.0 10.476 2.936 12.041 7.244C12.627 9.498 12.926 11.65 12.926 14.783V51.396H0z" style="fill:#fff;fill-rule:nonzero"/></g><g transform="matrix(1,0,0,1,614.128,435.678)"><path d="M0 53.063c-6.164.0-12.925-1.959-20.26-5.779l4.695-9.592c4.013 2.445 10.965 5.677 16.64 5.677 3.727.0 6.654-2.447 6.654-5.677.0-3.426-2.437-5.191-7.729-6.168l-5.878-1.077C-9.198 29.858-13.308 27.51-15.075 25.355c-1.768-2.153-2.844-5.776-2.844-9.004C-17.919 6.559-10.178.0 1.469.0 9.496.0 14.788 2.45 19.388 4.702L15.075 13.51C10.081 10.967 6.462 9.889 2.747 9.889c-3.822.0-6.367 1.959-6.367 4.895.0 2.544 1.66 3.914 6.26 5.091L8.708 21.44c6.176 1.568 8.23 3.426 9.986 5.677 1.864 2.35 2.747 5.19 2.747 8.516.0 10.379-8.612 17.43-21.441 17.43" style="fill:#fff;fill-rule:nonzero"/></g><g transform="matrix(1,0,0,1,657.656,414.73)"><path d="M0 73.617c-5.578.0-10.082-2.643-11.646-6.852C-12.626 64.219-12.829 62.654-12.829 55.508V18.109C-12.829 11.551-13.02 7.537-13.51 3.034L-.095.0c.49 2.742.681 5.972.681 13.02V52.079C.586 60.695.682 61.871 1.47 63.242 1.959 64.123 3.035 64.609 4.109 64.609c.491.0.789.0 1.47-.192999999999998l2.258 7.83C5.579 73.127 2.844 73.617.0 73.617" style="fill:#fff;fill-rule:nonzero"/></g><g transform="matrix(1,0,0,1,694.64,460.447)"><path d="M0 4.796c-9.103.0-12.231 1.664-12.231 7.637.0 3.915 2.436 6.558 5.769 6.558 2.448.0 4.898-1.273 6.857-3.425l.19-10.77H0zM11.157 29.271c-3.034-1.274-5.769-3.526-7.048-6.069C3.13 24.181 2.055 25.157 1.075 25.845c-2.449 1.762-5.972 2.74-10.082 2.74-11.157.0-17.224-5.676-17.224-15.662.0-11.748 8.122-17.232 24.081-17.232C-1.171-4.309-.299-4.309.776-4.21V-6.265c0-5.582-1.075-7.442-5.865-7.442-4.217.0-9.101 2.058-14.489 5.681l-5.579-9.399c2.64-1.666 4.599-2.642 8.123-4.112 4.897-2.058 9.102-2.938 13.701-2.938 8.422.0 14.203 3.132 16.162 8.714C13.511-13.707 13.797-12.14 13.702-6.755L13.415 10.083C13.308 15.566 13.702 17.915 18.109 21.243l-6.952 8.028z" style="fill:#fff;fill-rule:nonzero"/></g><g transform="matrix(1,0,0,1,748.561,435.777)"><path d="M0 51.396v-32.6c0-5.676-.979-7.343-4.408-7.343-2.652.0-6.069 1.762-9.103 4.504V51.396H-26.639V15.076C-26.639 10.769-27.224 6.658-28.395 3.328L-16.747.0c1.17 2.055 1.863 4.208 1.863 6.266 1.959-1.37 3.619-2.544 5.77-3.722C-6.463 1.174-3.046.392-.107.392c5.578.0 10.475 2.936 12.041 7.244C12.626 9.498 12.913 11.65 12.913 14.783V51.396H0z" style="fill:#fff;fill-rule:nonzero"/></g><g transform="matrix(1,0,0,1,802.375,452.91)"><path d="M0-2.645C-2.448-4.799-4.789-5.874-7.143-5.874c-5.877.0-8.421 4.895-8.421 16.055.0 10.769 2.257 14.293 9.102 14.293 2.448.0 5.196-1.664 6.462-3.232V-2.645zM2.939 34.263C2.545 33.48 2.354 32.695 2.162 31.328-1.074 34.164-4.896 35.535-9.4 35.535c-12.722.0-20.749-9.887-20.749-25.452.0-15.664 8.708-26.433 21.442-26.433C-5.088-16.35-2.245-15.469.203-13.51.0-14.588-.19-18.013-.19-20.952V-38.18l13.02 2.055V15.957c0 12.334.98 16.347 1.863 18.306H2.939z" style="fill:#fff;fill-rule:nonzero"/></g><g transform="matrix(1,0,0,1,355.99,514.032)"><path d="M0 69.008C-8.419 69.008-15.565 66.082-20.657 60.6c-5.677-6.176-8.32-14.49-8.32-26.041.0-12.83 3.425-21.932 10.377-28.203C-13.803 2.055-8.027.0-1.075.0 6.071.0 12.238 2.246 17.327 6.653l-3.62 4.994C8.224 7.932 4.306 6.463-.881 6.463c-7.83.0-14 3.619-16.739 11.348-1.765 4.992-2.646 10.679-2.646 17.033.0 8.816 1.666 15.959 4.701 20.367 3.034 4.408 9.888 7.145 16.252 7.145C4.895 62.356 8.517 61.471 11.357 59.715V39.252H-2.153L-3.721 32.6H18.895V63.92C14.099 67.049 6.854 69.008.0 69.008" style="fill:#fff;fill-rule:nonzero"/></g><g transform="matrix(1,0,0,1,419.109,570.712)"><path d="M0-26.434c-2.058-4.312-6.364-6.26-10.377-6.26-4.31.0-8.323 2.055-9.987 5.28-1.565 3.035-2.35 6.953-2.35 12.722.0 6.856 1.177 12.924 3.037 15.959C-17.915 4.205-14 6.164-9.789 6.164-4.7 6.164-.881 3.525.783-1.182c1.074-3.033 1.469-5.77 1.469-10.572.0-6.844-.687-11.455-2.252-14.68M-9.986 12.531c-13.412.0-21.048-9.891-21.048-25.945.0-15.864 7.929-25.551 20.755-25.551 8.123.0 13.412 3.715 16.739 8.517 3.034 4.409 4.503 10.178 4.503 18.11.0 16.258-8.711 24.869-20.949 24.869" style="fill:#fff;fill-rule:nonzero"/></g><g transform="matrix(1,0,0,1,460.491,531.938)"><path d="M0 50.518H-7.537L-25.056 1.672-17.226.0-5.871 33.579c1.368 4.013 2.353 8.326 2.353 8.326h.192s.782-3.823 2.352-8.219L10.184 1.278h8.123L0 50.518z" style="fill:#fff;fill-rule:nonzero"/></g><g transform="matrix(1,0,0,1,514.013,572.755)"><path d="M0-30.531C-1.66-33.172-5.089-34.843-8.81-34.843c-6.946.0-10.864 5.099-11.258 15.181H2.258C2.15-24.953 1.47-28.177.0-30.531M-20.068-13.892v1.172C-20.068-8.109-19.477-4.586-17.816-2.041c2.741 4.203 7.245 5.973 12.142 5.973 4.695.0 8.517-1.471 11.945-4.6L9.198 4.217C4.897 8.135-.979 10.285-7.238 10.285c-13.511.0-21.64-9.783-21.64-25.933.0-8.231 1.762-13.51 5.871-18.408C-19.089-38.654-14.292-40.816-8.421-40.816c5.291.0 9.891 1.863 13.223 5.291 4.205 4.312 5.579 8.912 5.579 20.558v1.075H-20.068z" style="fill:#fff;fill-rule:nonzero"/></g><g transform="matrix(1,0,0,1,558.832,573.149)"><path d="M0-32.586C-.489-32.789-1.373-32.981-2.162-32.981c-2.927.0-5.865 1.266-8.123 3.524-2.245 2.246-2.831 3.715-2.831 7.728V8.816h-7.645V-28.775c0-7.145-1.661-10.37-1.661-10.37l7.634-2.066s1.863 3.822 1.564 7.932C-9.699-38.273-4.503-41.402.49-41.402 1.756-41.402 3.13-40.912 3.13-40.912L0-32.586z" style="fill:#fff;fill-rule:nonzero"/></g><g transform="matrix(1,0,0,1,597.38,532.046)"><path d="M0 49.92V16.926c0-5.184-.382-6.449-1.756-8.123-1.075-1.266-3.13-2.055-5.388-2.055-3.918.0-9.986 3.131-13.509 6.858V49.92h-7.443V12.328c0-6.953-1.851-10.273-1.851-10.273L-22.517.0s1.768 3.619 1.768 7.633C-15.66 2.545-10.571.096-5.375.096c5.28.0 9.986 2.83 11.934 7.142.788 1.768 1.182 3.727 1.182 5.674V49.92H0z" style="fill:#fff;fill-rule:nonzero"/></g><g transform="matrix(1,0,0,1,673.329,531.939)"><path d="M0 50.027V14C0 9.304-2.15 6.855-6.259 6.855c-4.408.0-7.837 2.844-12.926 7.539V50.027h-7.74V15.373C-26.925 12.435-27.212 10.476-28.286 9.113-29.47 7.74-31.034 7.154-33.28 7.154c-3.727.0-7.346 1.852-12.435 6.463v36.41H-53.062V12.244c0-7.049-1.755-10.381-1.755-10.381L-47.376.107s1.756 3.811 1.756 7.238C-42.382 3.726-36.409.0-31.429.0c4.803.0 9.605 2.937 11.361 8.134C-15.362 3.14-9.401.0-4.407.0 2.843.0 7.836 5.482 7.836 13.222V50.027H0z" style="fill:#fff;fill-rule:nonzero"/></g><g transform="matrix(1,0,0,1,722.258,572.755)"><path d="M0-30.531C-1.673-33.172-5.101-34.843-8.816-34.843c-6.952.0-10.871 5.099-11.252 15.181H2.246C2.15-24.953 1.469-28.177.0-30.531M-20.068-13.892v1.172C-20.068-8.109-19.483-4.586-17.822-2.041c2.747 4.203 7.238 5.973 12.135 5.973 4.708.0 8.518-1.471 11.947-4.6L9.197 4.217C4.886 8.135-.979 10.285-7.251 10.285c-13.511.0-21.634-9.783-21.634-25.933.0-8.231 1.757-13.51 5.878-18.408C-19.089-38.654-14.299-40.816-8.422-40.816c5.28.0 9.891 1.863 13.212 5.291 4.217 4.312 5.578 8.912 5.578 20.558v1.075H-20.068z" style="fill:#fff;fill-rule:nonzero"/></g><g transform="matrix(1,0,0,1,774.411,532.046)"><path d="M0 49.92V16.926c0-5.184-.394-6.449-1.768-8.123-1.075-1.266-3.129-2.055-5.376-2.055-3.918.0-9.986 3.131-13.509 6.858V49.92h-7.443V12.328c0-6.953-1.863-10.273-1.863-10.273L-22.517.0s1.756 3.619 1.756 7.633C-15.66 2.545-10.571.096-5.388.096c5.292.0 9.987 2.83 11.947 7.142.788 1.768 1.17 3.727 1.17 5.674V49.92H0z" style="fill:#fff;fill-rule:nonzero"/></g><g transform="matrix(1,0,0,1,815.014,563.653)"><path d="M0-24.656H-10.178V6.762c0 5.387 1.47 7.25 6.26 7.25C-1.756 14.012-.489 13.713.884 13.033l1.075 4.885c-2.448 1.278-5.184 1.959-8.612 1.959C-9.197 19.877-11.156 19.387-13.021 18.516c-3.428-1.672-4.694-4.803-4.694-9.699V-24.656h-6.367v-5.781h6.367C-17.715-35.131-16.938-42.777-16.938-42.777l8.027-1.756s-.98 7.633-.98 14.096H2.354L0-24.656z" style="fill:#fff;fill-rule:nonzero"/></g><g transform="matrix(1,0,0,1,82.3232,454.411)"><path d="M0-80.41C5.704-77.639 7.534-82.769 18.19-75.87 11.121-73.637 5.704-64.928-2.237-67.162 3.467-69.987 2.873-74.157 6.176-76.229 4.062-76.528-.06-77.468.0-80.41M20.483-23.717c-3.419-1.415-8.657-2.29-11.595 1.834-1.595-2.772.767-6.959 2.233-8.195-7.475.128-11.709-2.163-12.835-4.411C1.06-36.014 8.06-38.547 13.773-34.381c3.942 2.906 5.943 4.303 10.596 5.847C26.059-30.237 25.429-29.475 25.948-29.95c-3.816-2.664-5.524-23.021-13.005-23.78C14.006-56.328 17.895-56.086 21.015-55.264c.221-4.57-1.655-12.086-4.503-16.429C20.887-73.983 23.867-71.522 25.366-66.093 26.967-60.354 25.073-45.965 28.839-33.02l2.35-2.18c-1.173-7.537 7.129-10.296 8.957-14.065C40.841-44.203 39.796-41.898 38.375-40.084 41.382-39.733 42.731-36.787 42.266-34.725c-7.236-1.068-11.435 6.212-9.826 11.943C27.101-21.596 23.428-22.498 20.483-23.717m35.383 4.183C49.618-19.186 43.502-11.051 46.095-1.827 45.145-1.463 42.436-1.52 41.555-3.41 40.913-.405 34.791 3.074 30.32 2.608c2.464-2.657 4.121-8.667 8.942-11.835 4.829-3.195 7-5.369 8.711-10.787-2.24 1.066-13.89 4.068-17.193.48 7.658-1.122 16.721-5.404 21.195-8.236l-1.762-1.892c-4.826 2.732-11.238 4.929-14.496 5.969-1.153-9.592 7.973-9.216 8.66-6.618 3.772-4.476 1.12-10.891-1.646-11.587 2.826-7.663.0-12.363-2.409-15.191C39.736-48.969 30.664-47.673 29.612-41.432 29.254-46.386 28.929-59.759 28.547-66.29 27.839-78.409 12.531-82.646 10.175-82.646.173-82.178-.765-83.465-.535-88.127c-5.062 5.776-3.35 10.895.941 13.383C-.186-71.281-5.719-68.578-9.129-67.813-1.003-60.27 8.413-64.746 12.943-69.047 13.277-69.358 13.597-69.644 13.913-69.904 15.541-67.045 16.715-61.799 16.715-58.788 9.117-59.219 7.765-53.332 7.765-51.203c9.652-4.008 10.712 14.472 13.25 17.479C18.536-33.901 14.179-39.61 7.765-40.022.036-40.524-2.712-36.381-5.835-36.555c.6 5.486 7.238 8.541 11.539 9.186-2.18 5.599-.263 9.382 4.3 10.765.0-5.105 6.472-6.697 13.421-2.642 8.314 4.861 12.594 5.3 19.306 3.25-1.122 2.4-4.124 2.654-7.827 6.283C29.714-4.602 29.544 2.055 23.78 4.49 30.55 7.717 40.794 3.181 42.266.607c2.825 1.756 6.471.699 7.472-1.068-4.593-10.178 3.18-16.25 6.241-16.143.0.0 1.362-3.018-.113-2.93" style="fill:#fff;fill-rule:nonzero"/></g><g transform="matrix(1,0,0,1,208.643,450.127)"><path d="M0-70.591C3.417-73.055 5.603-74.125 7.361-75.188 10.306-75.059 15.368-75.409 18.438-76.953c-3.187 3.898-3.545 5.31-8.724 5.895C16.431-70.46 19.25-64.466 22.562-63.529 11.36-60.104 10.24-71.239.0-70.591M13.842-37.087c3.35 2.752 2.242 6.646 1.463 7.521-2.947-5.054-12.36-3.287-21.597 7.132C-6.943-21.653-7.8-20.755-8.852-19.845-8.12-32.319-18.336-32.53-21.358-31.261c.349-3.594 2.577-6.068 3.766-6.415-3.005-3.485-3.656-7.888-3.999-11.067 4.999 2.171 12.408 8 13.65 18.064l3.24-2.174C-5.668-50.448-5.471-50.386-5.593-62.349-5.599-64.013-5.519-67.934-.194-67.497.027-63.066.702-51.261.475-34.855H2.359C4.067-39.452 10.139-44.81 17.192-44.335 22.009-44.013 23.667-44.103 26.438-45.327c-2.242 5.468-10.479 7.875-12.596 8.24M3.652-43.212c0-11.343-.4-20.684-.543-23.629C3.545-66.716 3.999-66.581 4.483-66.407 12.638-63.566 14.487-53.745 31.315-64.876 22.317-63.816 21.845-71.479 17.721-71.643c6.241-3.545 6.651-11.661 6.651-11.661C19.13-79.07 7.006-78.834 4.65-77.413 1.517-75.534-2.443-73.229-5.122-71.769-12.116-67.937-7.242-47.22-7.941-39.617c-3.771-11.31-11.416-9.611-15.421-16.081C-26.37-50.281-23.183-41.212-21.961-38.628c-4.355 3.541-3.169 10.075-2.118 11.844 3.721-2.688 9.467-2.014 11.223 2.487-4.88 2.968-13.054 3.5-18.641-1.905l-2.001 2.24c3.945 5.201 13.818 7.232 21.156 3.031C-12.384-19.739-12.638-18.405-13.116-16.93c-3.811 1.998-8.744 3.097-14.367 1.159C-26.722-10.062-20.185-5.829-13.952-4.13c-2.115 1.654-4.707 2.299-6.591 2.062 1.186 3.298 1.831 7.724-.642 11.188-3.115-2.064-4.764-4.118-5.943-12.119-1.186-8.009-6.95-16.129-11.423-17.798C-38.787-17.957-38.787-19.194-38.312-17.368-26.423-8.657-33.14 7.056-20.773 12.713-16.237 7.532-16.186 5.7-16.888.824-12.415-.362-9.058-4.13-7.884-7.009c-4.232 2.004-10.945-1.535-12.832-4.307C-13.361-11.542-6.54-17.101.421-24.38 6.654-30.915 14.964-29.9 14.311-24.792 18.605-25.429 20.322-31.33 18.901-35.087c6.298-2 11.243-6.666 11.96-13.961-8.481 4.238-19.199-2.754-27.209 5.836" style="fill:#fff;fill-rule:nonzero"/></g><g transform="matrix(1,0,0,1,166.503,449.593)"><path d="M0-4.006c-.589.0-1.105.287-1.439.717-.631-.125-1.294-.217-1.984-.307L-3.402-7.215c.657-.284 1.105-.93 1.105-1.68.0-1.002-.821-1.824-1.825-1.824C-5.131-10.719-5.946-9.897-5.946-8.895-5.946-8.195-5.561-7.608-4.993-7.303L-5.026-3.793C-5.642-3.86-6.274-3.922-6.937-3.985c-.291-.638-.926-1.072-1.658-1.072-1.009.0-1.825.804-1.825 1.817C-10.42-2.223-9.604-1.419-8.595-1.419c.642.0 1.206-.325 1.529-.843C-6.358-2.184-5.689-2.115-5.044-2.046L-5.089 3.279C-5.671 3.586-6.068 4.181-6.068 4.885c0 1.006.818 1.828 1.83 1.828 1.007.0 1.828-.822 1.828-1.828.0-.738-.443-1.37-1.075-1.661L-3.438-1.852C-2.843-1.772-2.27-1.682-1.715-1.583-1.47-.869-.795-.347.0-.347c1.003.0 1.827-.809 1.827-1.831.0-1.006-.824-1.828-1.827-1.828" style="fill:#fff;fill-rule:nonzero"/></g><g transform="matrix(1,0,0,1,150.726,450.644)"><path d="M0-6.108C-.737-6.108-1.377-5.674-1.666-5.036-2.314-4.973-2.959-4.911-3.568-4.844L-3.599-8.354C-3.04-8.659-2.652-9.247-2.652-9.946c0-1.002-.812-1.824-1.822-1.824C-5.489-11.77-6.298-10.948-6.298-9.946c0 .75.451 1.396 1.093 1.68L-5.169-4.647C-5.859-4.557-6.534-4.465-7.164-4.34-7.499-4.77-8.016-5.057-8.598-5.057c-1.003.0-1.821.822-1.821 1.828.0 1.021.818 1.831 1.821 1.831C-7.797-1.398-7.125-1.921-6.877-2.634-6.328-2.733-5.761-2.823-5.157-2.903L-5.115 2.173c-.628.29-1.064.923-1.064 1.66.0 1.007.819 1.829 1.825 1.829 1.003.0 1.822-.822 1.822-1.829.0-.704-.401-1.298-.983-1.605L-3.557-3.097C-2.912-3.167-2.24-3.235-1.535-3.313c.323.518.884.843 1.535.843 1.007.0 1.825-.804 1.825-1.822.0-1.012-.818-1.816-1.825-1.816" style="fill:#fff;fill-rule:nonzero"/></g><g transform="matrix(1,0,0,1,154.31,431.756)"><path d="M0 28.193c-2.7 5.185-7.735 5.021-12.116 2.126-1.768-1.168-3.586-1.932-5.244-2.195C-16.602 23.02-15.335 13.401-14.437 5.278-8.741 2.71-1.714 2.094.0 8.659 1.726 2.094 8.75 2.71 14.438 5.278 15.35 13.401 16.604 23.02 17.368 28.124 15.717 28.387 13.901 29.151 12.13 30.319 7.737 33.214 2.711 33.378.0 28.193M20.576 28.366C19.465 21.044 16.831.497 16.523-6.37l-3.129.142C13.444-5.051 13.563-3.504 13.725-1.716 9.965-2.812 5.029-3.591.0-3.591c-5.023.0-9.951.779-13.708 1.875C-13.549-3.504-13.433-5.051-13.379-6.228l-3.139-.142C-16.822.497-19.462 21.044-20.576 28.366-22.431 29.106-23.655 30.964-23.655 34.318-23.655 34.318-6.591 34.563.0 34.563 6.597 34.563 23.67 34.318 23.67 34.318c0-3.354-1.233-5.212-3.094-5.952" style="fill:#fff;fill-rule:nonzero"/></g><g transform="matrix(1,0,0,1,146.425,487.808)"><path d="M0 4.998c-1.768-.58-7.284.943-7.89 2.473-.466 1.181.574 3.892 2.655 5.183C-3.999 13.418 1.003 11.885 1.831 10.695 2.521 9.715 1.768 5.576.0 4.998M-17.891-10.768c-2.476 3.879-4.895 5.817-9.532 8.452V13.586c6.11 5.424 14.122.711 17.297-1.176C-11.067 10.893-11.419 9.822-11.838 8.002c-7.758.818-10.709-3.119-12.295-8.9.0.0 1.413-.928 2.82-1.633 2.708 8.83 7.659 7.582 11.539 7.414 2.535-2.299 6.062-3.069 9.186-2.83-.83-3.528-3.178-8.006-5.531-11.892 2.12-1.347 4.644-2.935 6.361-5.653C-10.177-11.777-14.651-13.082-23.488-15.552c1.586 2.251 3.763 3.888 5.597 4.784m-10.422-8.726c9.834 3.533 20.895 5.769 32.67-.125C2.825-14.369.529-11.254-2.356-9.006-.708-4.885 1.884.223 2.948 4.346c3.12 2.06 2.529 5.597 2.004 7.963-.494 2.185-7.658 4.771-10.014 4.06-2.222-.674-2.23-1.701-3.354-1.6C-11.536 15.055-21.245 24.617-30.61 15.473V-4.191c3.65-2.004 6.707-3.821 8.475-6.407-2.064-1.358-5.002-5.068-6.178-8.896" style="fill:#fff;fill-rule:nonzero"/></g><g transform="matrix(1,0,0,1,184.215,496.531)"><path d="M0-16.92C-1.565-17.294-8.29-17.667-10.527-12.642-11.817-12.599-13.212-13.118-14.006-13.915c-.878 1.135-2.237 1.877-4.115 2.422 1.624 3.326 4.963 2.758 6.975 1.164C-11.211-9.882-11.235-9.413-11.235-8.905c0 8.183 8.712 10.226 14.072 7.173C1.95.933 2.356 4.282 2.721 6.522H-18.36c.355-2.24 3.177-4.838 5.53-6.48l-1.881-2.943c-2.29.996-4.44 1.921-6.916 2.568-5.836 1.521-5.495-2.652.561-4.338V-6.319L-24.954-6.384C-24.014-10.493-16.01-15.726-12.415-16.983-12.614-21.436-6.713-22.907-1.995-23.024 3.87-23.197 5.25-16.899 5.25-14.958c0 2.603-.681 8.322-3.924 10.115-4.707 2.592-8.721-.986-8.721-4.232.0-3.533 2.447-5.602 6.693-5.121C3.533-13.743 3.222-16.114.0-16.92m9.189 1.769c0-6-4.348-11.469-11.077-11.469-6.178.0-13.883 3.004-14.355 8.41-9.061 5.295-13.358 10.072-12.011 14.609C-31.315-.316-28.962 5.811-19.896 1.923c-2.406 2.359-3.288 5.31-3.288 7.777H7.299C4.124-7.028 9.189-4.079 9.189-15.151" style="fill:#fff;fill-rule:nonzero"/></g><g transform="matrix(1,0,0,1,166.825,524.761)"><path d="M0 13.203V9.871H13.94v3.578C11.934 12.924 9.613 12.637 6.913 12.637 4.231 12.637 1.98 12.84.0 13.203M6.913-6.651C9.249-3.531 10.476.941 10.628 6.986H3.201C3.354.941 4.575-3.531 6.913-6.651M16.84 14.375V6.986H13.522C13.337-.684 11.513-6.213 7.946-9.887L6.913-10.955 5.874-9.887C2.32-6.213.493-.684.305 6.986H-2.888v6.951c-4.103 1.286-6.955 3.448-10.381 6.069L-13.385 20.107l1.759 2.295L-11.51 22.307c5.34-4.086 8.867-6.786 18.423-6.786 9.888.0 13.857 4.139 16.673 8.637l2.44-1.535c-1.968-3.16-4.614-6.344-9.186-8.248" style="fill:#fff;fill-rule:nonzero"/></g><g transform="matrix(1,0,0,1,181.342,552.512)"><path d="M0 .008C.675-2.453.072-4.76-1.152-6.144-2.395-7.59-4.587-8.504-7.11-8.158l2.783 3.166L-9.201-.888-11.36-3.385S-10.56-4.078-9.416-5.07c-1.696-1.959-4.079-3.637-7.475-2.871C-18.118-4.693-16.795-2.113-15.099-.142c1.161-1.002 1.959-1.69 1.959-1.69L-11.011.623l-5.946 5.01 1.888 2.162 5.797-5.172L-7.35 4.822s-1.218 1.832.556 3.893C-5.45 7.551-3.147 5.551-1.815 4.379-3.59 2.342-5.572 3.281-5.572 3.281L-7.517 1.047l4.74-4.246L0 .008z" style="fill:#fff;fill-rule:nonzero"/></g><g transform="matrix(1,0,0,1,146.542,543.573)"><path d="M0-18.629C-1.867-14.203-3.68-9.635-4.232-8.236-5.196-8.361-6.263-8.463-7.355-8.518c1.275-3.877 2.792-9.418 4.058-12.888.89-2.401 5.038-1.344 3.297 2.777M-1.995 5.047C-2.999 5.392-4.298 5.859-5.531 5.984c.233.998.472 1.994.645 2.705C-6.531 9.037-9.177 9.221-10.951 9.221-12.713 9.221-15.368 9.037-17.008 8.689-16.837 7.978-16.599 6.982-16.362 5.984c-1.24-.125-2.533-.592-3.536-.937C-19.379 3.262-18.569 1.492-17.906-.975c2.242.514 4.434.711 6.955.711 2.529.0 4.719-.197 6.958-.711.672 2.467 1.47 4.237 1.998 6.022M-21.899-18.629c-1.744-4.121 2.413-5.178 3.303-2.777 1.269 3.47 2.777 9.011 4.049 12.888C-15.634-8.463-16.697-8.361-17.661-8.236-18.211-9.635-20.026-14.203-21.899-18.629M-3.342-5.686C-3.205-5.024-3.181-4.127-3.297-3.453c-1.882.551-5.176.83-7.654.83-2.467.0-5.767-.279-7.645-.83C-18.716-4.127-18.698-5.024-18.552-5.686c1.24-.484 6.135-.705 7.601-.705 1.466.0 6.361.221 7.609.705m-7.609-19.418C-10.652-27.141-4.856-27.547-5.94-23.043-7.042-18.475-8.416-13.205-9.467-8.596-9.96-8.613-10.449-8.613-10.951-8.613-11.444-8.613-11.934-8.613-12.423-8.596c-1.06-4.609-2.431-9.879-3.527-14.447-1.084-4.504 4.703-4.098 4.999-2.061M-3.22-25.582c-.755-4.33-5.614-4.813-7.758-2.879-2.153-1.934-6.946-1.451-7.702 2.879-7.719-1.152-6.865 6.129-5.898 8.14.872 1.788 2.974 6.684 4.405 9.696C-20.406-7.682-20.633-7.621-20.836-7.574-21.188-5.865-21.248-3.566-20.956-1.793-20.603-1.686-20.254-1.576-19.916-1.463-20.699.889-22.159 4.635-22.956 6.342-21.899 6.982-20.782 7.514-19.187 7.865c0 0-.299 1.356-.710999999999999 2.707C-17.778 11.281-13.651 11.766-10.951 11.766-8.239 11.766-4.115 11.281-1.995 10.572c-.412-1.351-.714-2.707-.714-2.707C-1.114 7.514.0 6.982 1.063 6.342.266 4.635-1.191.889-1.989-1.463c.346-.113.699-.223 1.048-.33.295-1.773.236-4.072-.117-5.781C-1.261-7.621-1.487-7.682-1.72-7.746c1.43-3.012 3.524-7.908 4.402-9.696.964-2.011 1.824-9.292-5.902-8.14" style="fill:#fff;fill-rule:nonzero"/></g><g transform="matrix(1,0,0,1,129.179,487.797)"><path d="M0-5.943c2.234.584 3.452.141 5.596.0C6.468-5.998 8.29-5.422 7.83-3.113c-.236 1.158.176 1.768.52 2.59-1.882-.236-3.7.578-5.176-.125C1.138-1.623 1.526-4.418.0-5.943" style="fill:#fff;fill-rule:nonzero"/></g><g transform="matrix(-0.941246,-0.337722,-0.337722,0.941246,242.933,476.263)"><path d="M-4.301-21.242C-6.133-14.397-4.592-2.466-.448 4.785L-4.301 3.34c-2.686-5.416-6.973-15.082-3.248-28.619.0.0 2.086 2.56 3.248 4.037" style="fill:#fff;fill-rule:nonzero"/></g><g transform="matrix(1,0,0,1,230.366,441.307)"><path d="M0 1.348C.594.508.406-.91 2.41-1.435c1.824-.461 1.953.881 2.72 1.066 1.052.238.767.131.167 1-.582.878-.402 2.24-2.225 2.41-2.01.203-1.788-.857-2.801-.857-1.125.0-1.036-.305-.271-.836" style="fill:#fff;fill-rule:nonzero"/></g><g transform="matrix(1,0,0,1,290.239,531.342)"><path d="M0-70.912C-1.708-69.042-7.131-66.79-13.605-66.505-12.31-65.141-10.189-64.14-8.768-63.44-10.59-63.028-13.188-62.96-15.487-62.849-14.43-61.02-12.835-58.671-12.25-57.677-14.075-57.677-15.78-57.79-17.9-57.903c1.066 1.992 1.299 2.879 2.246 4.53-1.416.0-4.127.0479999999999947-5.6-.177C-20.779-52.19-19.961-50.372-19.537-49.309-20.37-49.309-21.723-49.309-22.553-49.249-28.788-40.597-37.56-31.477-54.047-32.366-53.569-30.94-53.223-29.464-53.098-29.464-50.643-29.339-45.727-29.786-42.096-30.384-39.59-27.6-35.048-20.923-32.671-10.751c1.825 1.121 4.716 6.115 6.122 12.483-2.944 1.701-5.59 2.519-9.416 2.925C-37.383-3.446-41.561-3.727-43.556-10.454c-2.834.359-6.892-1.814-8.015-5.775h-3.706C-55.997-8.44-54.286-1.284-52.873 4.808-52.22 7.692-51.622 10.319-51.398 12.667-50.926 17.403-52.853 35.698-52.927 43.241-49.448 43.116-46.802 43.987-46.925 46.886-52.404 45.177-61.871 46.228-66.345 53.657-67.408 53.062-68.106 49.991-66.291 49.071-68.414 46.776-70.236 45.177-74.106 46.276c1.645-2.736 5.524-4.515 17.18-1.566C-55.749 40.702-54.689 15.157-54.922 9.657-54.896 8.737-55.451 7.034-56.319 4.808H-56.329C-59.136-2.294-65.314-14.497-66.763-22.763-68.761-22.763-71.705-22.35-72.706-23.349c-2.508-2.501-8-10.595-9.066-18.49-1.875-3.17-5.023-15.275 4.417-22.06C-70.818-68.628-55.771-74.38-55.872-79.871-55.926-83.168-61.516-85.626-63.395-86.993-65.288-88.048-64.592-89.003-62.991-90.589-54.164-99.231-43.679-90.763-49.807-80.274-54.315-72.566-77.18-65.85-71.938-51.363-66.939-50.966-64.511-49.136-62.645-46.657-58.105-48.249-40.504-56.028-38.796-78.393-34.388-81.158-29.849-84.171-25.548-87.695-24.724-82.045-25.662-45.895-58.279-37.593-57.4-34.528-50.397-33.64-46.273-39.188-42.263-38.245-37.434-41.536-37.317-44.655c3.586.0 7.412-3.961 6.823-7.658C-26.086-53.785-24.02-59.618-25.897-64.028-22.075-65.739-20.779-70.261-22.487-74.686-19.429-76.753-18.482-82.045-21.075-85.395-19.537-88.224-19.904-90.589-21.075-92.468-15.18-97.944-7.654-104.891-2.944-113.36-2.586-107.528-5.659-102.696-9.189-97.416-2.944-101.415-1.52-102.358 2.351-105.419 1.23-98.763-6.415-92.646-9.063-89.641-5.426-91.099.123-93.761 4.3-96.003.705-88.686-5.534-84.52-9.243-82.229-4.112-83.168-.475-83.927 2.873-85.106-.119-81.753-5.71-77.989-12.059-76.104-6.943-76.213-2.894-76.813 1.529-78.102-1.762-74.686-6.588-71.44-12.25-70.741-6.469-70.741-5.426-70.327.0-70.912M-73.569 4.808C-74.279 6.706-74.88 8.665-75.352 10.845-75.764 12.78-80.058 12.31-80.649 10.845-81.121 9.657-81.984 7.466-83.006 4.808-85.47-1.638-88.826-10.776-89.656-14.634-91.361-11.874-93.183-10.399-95.133-12.161c7.012-3.131 4.536-22.027 1.824-22.965 3.357-2.998 7.122 8.422 4.943 16.963C-86.272-12.233-82.148-.132-80.497 4.808-80.145 5.864-79.903 6.575-79.822 6.868-79.348 8.384-77.406 8.253-76.946 6.868-76.791 6.349-76.576 5.655-76.298 4.808-74.683-.46-71.329-11.725-71.882-18.761-68.582-18.163-67.632-15.118-66.461-11.218-69.188-4.665-71.727-.163-73.569 4.808m45.25-120.477c1.77 2.947 3.12 8.252 3.12 12.732C-22.95-105.177-21.478-108.839-20.729-111.485-19.722-109.477-19.841-104.181-20.071-101.817-17.554-103.938-15.953-106.88-14.43-109.887c.308 2.17100000000001.355 4.074.0 6.191-5.411 5.752-14.296 13.424-23.658 21.23 5.074-10.461 8.239-19.181 9.769-33.203M8.944-82.927C8.016-82.681 5.829-82.045 4.417-81.872c2.699-2.648 4.357-5.886 4.357-8.595C7.478-90.052 5.122-89.161 3.004-88.686 7.242-92.285 9.535-96.464 8.541-102.012 7.242-101.347 5.408-100.294 3.593-99.527 7.296-105.24 7.242-110.242 5.713-113.184 4.067-111.655 2.058-109.839-.057-108.531 1.29-115.122 1.23-119.362-1.52-122.302-4.348-117.015-6.764-113.073-10.709-108.37-10.413-112.722-10.888-118.132-13.726-120.954-13.726-120.954-14.538-114.895-16.661-112.944c-.523-5.947-2.35-9.196-5.062-12.373.0.0-.185000000000002 6.184-1.875 10.013C-25.02-120.488-27.668-124.49-31.085-128.327-30.846-116.893-34.018-95.352-43.204-80.872-44.267-72.28-45.208-59.385-59.216-51.73-61.22-53.14-64.765-54.959-69.761-54.673-71.058-61.141-62.576-67.024-55.277-71.748-47.889-76.499-44.697-80.575-44.858-86.936-45.028-93.871-49.744-96.725-54.626-96.944-61.516-97.224-67.109-90.989-68.414-88.397-70.409-87.46-76.298-85.626-78.708-84.989-81.378-84.272-84.421-83.168-86.297-81.576-85.183-80.872-81.945-80.636-80.706-80.79-78.377-81.143-70.935-82.511-63.813-83.403-61.22-81.991-57.042-79.636-61.462-76.565-67.519-72.681-70.102-71.683-78.651-67.212-92.132-60.145-87.772-42.378-84.466-41.063-84.466-35.073-79.117-24.22-75.48-20.458-73.823-12.927-75.994-1.684-78.296 2.974-80.172-1.614-83.418-12.227-85.538-18.409-83.361-30.116-86.888-35.239-89.367-37.235-91.83-39.241-95.719-38.71-98.257-34.643-94.36-35.073-93.063-30.091-93.147-24.936-93.249-18.761-94.82-13.792-99.129-13.757-98.786-8.464-93.076-6.977-90.245-9.509-89.797-8.339-87.515-1.38-85.338 4.808-84.063 8.462-82.812 11.866-82.002 13.61-81.092 15.587-74.53 15.874-73.76 13.61-72.732 10.589-71.902 8.308-70.254 4.808c1.245-2.688 2.968-6.112 5.62-11.141 1.768 3.059 4.121 7.861 5.471 11.141C-58.521 6.343-58.091 7.536-58.043 8.081-57.517 13.163-57.816 31.04-59.163 41.761c-14.723-4.02-18.888 3.183-17.605 8.541C-74.647 47.931-71.882 48.235-70.173 49.478-70.585 53.413-69.522 56.237-65.512 57.415c4.238-11.187 19.418-8.703 20.83-7.771C-44.619 47.47-42.567 42.048-50.397 40.931-50.102 31.267-49.099 19.441-48.74 16.968-48.379 14.513-48.095 12.966-49.278 9.089-49.627 7.925-50.048 6.497-50.493 4.808-51.512.89-52.551-4.235-52.625-9.737c1.35 1.344 4.59 2.414 6.826 1.918 1.708 7.31 4.175 5.197 5.48 8.248C-39.659 2.005-39.51 3.487-39.324 4.808-39.157 6.062-38.954 7.191-38.258 8.151-33.038 8.308-28.594 7.034-25.402 4.808-24.432 4.12-23.577 3.357-22.849 2.489-24.142-5.28-26.315-9.102-30.377-13.798c-1.063-6.379-4.035-12.197-8.114-17.34 5.137-1.701 10.339-5.857 13.059-8.75 2.482-.183 5.304-2.232 5.528-6.244C-18.482-46.304-17.249-46.37-16.132-46.612-16.246-47.725-16.538-49.372-16.721-50.372-14.833-50.372-13.006-50.423-11.25-50.601c-.522-1.482-1.167-3.011-1.696-4.119C-11.059-54.72-8.717-54.854-6.83-54.959-7.83-56.835-8.586-58.489-9.189-60.145-7.012-60.386-3.641-60.905-.887-61.558c-.875-.945-1.879-1.882-3.41-3.355C2.873-67.024 6.003-72.028 6.358-74.209 5.301-74.209 3.118-73.749 1.834-73.856 5.829-76.213 8.541-79.462 8.944-82.927" style="fill:#fff;fill-rule:nonzero"/></g><g transform="matrix(0.423267,-0.906005,-0.906005,-0.423267,258.534,523.352)"><path d="M-3.549-2.541c.642.557 1.161 1.973 2.419 3.981-.947 1.19-1.691 2.53-2.419 4.342-1.843-2.166-3.222-2.811-3.13-2.767C-6.254 1.259-5.08-.649-3.549-2.541" style="fill:#fff;fill-rule:nonzero"/></g><g transform="matrix(1,0,0,1,246.379,554.544)"><path d="M0 52.09H-184.133C-184.96 46.217-186.074 42.467-187.081 39.289H2.947C1.941 42.467.824 46.217.0 52.09M-124.794 12.651C-123.092 15.19-121.477 17.006-120.706 19.047-119.894 21.127-120.413 22.387-121.966 24.549-125.463 29.465-131.514 33.676-136.282 36.274h-18.459c11.59-3.297 27.274-13.231 29.947-23.623m-11.193-3.399C-134.458 6.434-130.817 5.569-128.327 8.906-127.264 10.311-127.738 14.084-132.096 18.785-135.249 15.912-137.594 12.244-135.987 9.252m73.59 15.297c-1.547-2.162-2.076-3.422-1.266-5.502C-62.887 17.006-61.262 15.19-59.56 12.651c2.666 10.392 18.342 20.326 29.938 23.623H-48.083c-4.77-2.598-10.808-6.809-14.314-11.725m6.355-15.643c2.496-3.337 6.143-2.472 7.657.346C-46.784 12.244-49.123 15.912-52.273 18.785c-4.352-4.701-4.82-8.474-3.769-9.879M3.652 35.33C1.675 35.914-.693 36.274-4.292 36.274H-8.765c-15.308-.305-31.064-4.868-40.707-14.723C-36.135 8.065-51.796-2.992-60.28 8.422-62.926 11.994-65.037 14.522-66.871 17.973-68.361 20.756-67.235 23.574-63.929 27.863c1.822 2.366 6.334 6.016 10.022 8.411h-76.552c3.691-2.395 8.194-6.045 10.019-8.411C-117.137 23.574-116.008 20.756-117.492 17.973-119.323 14.522-121.44 11.994-124.086 8.422-132.562-2.992-148.219 8.065-134.885 21.551-144.537 31.406-160.284 35.969-175.61 36.274H-179.833C-183.425 36.274-185.812 35.914-187.788 35.33-190.966 34.565-191.674 35.926-189.962 41.387-188.786 45.047-187.842 51.002-187.439 55.082H3.303c.412-4.08 1.352-10.035 2.523-13.695 1.708-5.461 1.004-6.822-2.174-6.057" style="fill:#fff;fill-rule:nonzero"/></g><g transform="matrix(1,0,0,1,84.2524,598.305)"><path d="M0 3.598C-.039 3.598-.054 3.573-.039 3.52L1.329-.131C1.338-.148 1.356-.201 1.392-.201 1.424-.201 1.433-.148 1.442-.131L2.79 3.543C2.804 3.573 2.79 3.598 2.739 3.598H0zm2.945.537C2.999 4.135 3.031 4.159 3.052 4.213l.511 1.373C3.617 5.717 3.542 5.813 3.467 5.836 3.354 5.836 3.312 5.873 3.312 5.944 3.312 6.01 3.44 6.01 3.637 6.034 4.512 6.045 5.313 6.045 5.701 6.045 6.107 6.045 6.197 6.034 6.197 5.944 6.197 5.848 6.143 5.836 6.059 5.836 5.934 5.836 5.764 5.836 5.605 5.789c-.235-.048-.546-.185-.964-1.177-.696-1.66-2.44-6.11-2.706-6.696-.11-.273-.17-.363-.277-.363-.099.0-.168.113-.302.436L-1.386 4.821c-.212.562-.415.939-.926.992C-2.392 5.836-2.544 5.836-2.646 5.836-2.733 5.836-2.774 5.873-2.774 5.944-2.774 6.034-2.708 6.045-2.571 6.045-2.007 6.045-1.401 6.01-1.284 6.01-.944 6.01-.475 6.045-.123 6.045-.003 6.045.06 6.034.06 5.944.06 5.873.033 5.836-.102 5.836H-.269c-.334.0-.433-.142-.433-.328C-.702 5.383-.648 5.102-.543 4.821l.223-.567C-.29 4.159-.269 4.135-.221 4.135H2.945z" style="fill:#fff;fill-rule:nonzero"/></g><g transform="matrix(1,0,0,1,92.644,599.753)"><path d="M0 1.103C0 2.687.418 3.499.974 4.001c.794.717 1.848.747 2.422.747.713.0 1.496-.12 2.269-.79.92-.789 1.04-2.066 1.04-3.285V-.497C6.705-2.151 6.705-2.456 6.722-2.815 6.737-3.178 6.824-3.381 7.125-3.43 7.257-3.454 7.317-3.459 7.445-3.459 7.574-3.459 7.633-3.483 7.633-3.555 7.633-3.639 7.562-3.645 7.406-3.645 6.991-3.645 6.295-3.627 6.167-3.627 6.155-3.627 5.465-3.645 4.91-3.645 4.751-3.645 4.68-3.639 4.68-3.555 4.68-3.483 4.746-3.459 4.871-3.459 4.987-3.459 5.175-3.454 5.259-3.43 5.618-3.346 5.704-3.178 5.728-2.815 5.749-2.456 5.749-2.151 5.749-.497V.876C5.749 1.999 5.722 2.992 5.119 3.576c-.439.431-1.025.586-1.502.586C3.24 4.162 2.745 4.132 2.251 3.703c-.54-.424-.85-1.088-.85-2.67V-.497c0-1.654.0-1.959.012-2.318C1.442-3.178 1.532-3.381 1.822-3.43 1.956-3.454 2.025-3.459 2.141-3.459 2.251-3.459 2.314-3.483 2.314-3.555 2.314-3.639 2.243-3.645 2.07-3.645 1.687-3.645.995-3.627.738-3.627.409-3.627-.284-3.645-.857-3.645-1.021-3.645-1.099-3.639-1.099-3.555-1.099-3.483-1.033-3.459-.923-3.459-.755-3.459-.577-3.454-.487-3.43-.125-3.346-.042-3.178-.024-2.815.0-2.456.0-2.151.0-.497v1.6z" style="fill:#fff;fill-rule:nonzero"/></g><g transform="matrix(1,0,0,1,105.333,601.461)"><path d="M0-2.366c0-.859.0-1.82.006-2.18C.006-4.677.042-4.731.144-4.784.233-4.833.636-4.862.848-4.862c.851.0 2.09.131 3.091 1.105.472.454 1.051 1.327 1.051 2.723C4.99.083 4.772 1.099 4.079 1.665c-.653.586-1.397.807-2.511.807-.863.0-1.287-.244-1.424-.424-.09-.131-.117-.566-.129-.859C.006 1.003.0.155.0-.991V-2.366zM-1.358-.288C-1.358.722-1.358 1.589-1.424 2.048-1.466 2.353-1.514 2.605-1.738 2.634-1.836 2.657-1.971 2.681-2.129 2.681-2.261 2.681-2.312 2.718-2.312 2.788-2.312 2.855-2.228 2.89-2.087 2.89-1.651 2.89-.958 2.855-.717 2.855c.556.0 1.529.131 2.323.131 2.022.0 3.158-.782 3.662-1.295.609-.633 1.189-1.655 1.189-3.059.0-1.277-.517-2.191-1.061-2.73C4.211-5.352 2.383-5.352 1.027-5.352.367-5.352-.316-5.335-.654-5.335-.958-5.335-1.651-5.352-2.228-5.352-2.392-5.352-2.473-5.346-2.473-5.262-2.473-5.19-2.401-5.167-2.281-5.167-2.129-5.167-1.941-5.161-1.852-5.137-1.502-5.054-1.409-4.886-1.392-4.522-1.358-4.163-1.358-3.858-1.358-2.204V-.288z" style="fill:#fff;fill-rule:nonzero"/></g><g transform="matrix(1,0,0,1,116.016,598.305)"><path d="M0 3.598C-.042 3.598-.051 3.573-.042 3.52L1.329-.131C1.338-.148 1.358-.201 1.388-.201 1.418-.201 1.433-.148 1.445-.131L2.798 3.543C2.807 3.573 2.798 3.598 2.741 3.598H0zm2.947.537C3.001 4.135 3.031 4.159 3.058 4.213l.507 1.373C3.616 5.717 3.542 5.813 3.464 5.836 3.354 5.836 3.312 5.873 3.312 5.944 3.312 6.01 3.446 6.01 3.64 6.034 4.512 6.045 5.31 6.045 5.704 6.045 6.106 6.045 6.202 6.034 6.202 5.944 6.202 5.848 6.148 5.836 6.062 5.836 5.928 5.836 5.767 5.836 5.602 5.789 5.369 5.741 5.059 5.604 4.641 4.612c-.694-1.66-2.44-6.11-2.701-6.696-.113-.273-.178-.363-.277-.363-.104.0-.173.113-.305.436L-1.38 4.821c-.215.562-.421.939-.923.992C-2.393 5.836-2.545 5.836-2.646 5.836-2.733 5.836-2.777 5.873-2.777 5.944-2.777 6.034-2.712 6.045-2.575 6.045-1.998 6.045-1.401 6.01-1.281 6.01-.947 6.01-.472 6.045-.12 6.045-.003 6.045.057 6.034.057 5.944.057 5.873.032 5.836-.102 5.836H-.269c-.335.0-.43-.142-.43-.328C-.699 5.383-.648 5.102-.541 4.821l.224-.567C-.293 4.159-.269 4.135-.222 4.135H2.947z" style="fill:#fff;fill-rule:nonzero"/></g><g transform="matrix(1,0,0,1,129.624,603.246)"><path d="M0-6.032c.334-.484.547-.789.797-.842C.953-6.928 1.081-6.952 1.188-6.952 1.305-6.952 1.371-6.975 1.371-7.048 1.371-7.12 1.29-7.137 1.174-7.137.771-7.137.319-7.12.102-7.12-.102-7.12-.562-7.137-.988-7.137-1.141-7.137-1.218-7.12-1.218-7.048-1.218-6.975-1.152-6.952-1.087-6.952-1-6.952-.848-6.952-.731-6.923-.633-6.874-.556-6.796-.556-6.714-.556-6.647-.582-6.462-.669-6.313-.836-6.009-1.843-4.479-2.156-4.012-2.577-4.735-3.07-5.542-3.545-6.415c-.065-.125-.101-.256-.101-.299C-3.646-6.796-3.613-6.874-3.521-6.903-3.431-6.946-3.288-6.952-3.222-6.952-3.13-6.952-3.058-6.975-3.058-7.048-3.058-7.132-3.13-7.137-3.282-7.137-3.685-7.137-4.288-7.12-4.443-7.12-4.966-7.12-5.841-7.137-6.104-7.137-6.253-7.137-6.325-7.132-6.325-7.071-6.325-6.975-6.28-6.952-6.218-6.952c.114.0.284.024.46.0780000000000003.389.125.639.363.908.819l1.878 3.099L-5.053.036c-.376.514-.582.717-.899.807C-6.119.896-6.28.896-6.352.896-6.444.896-6.507.933-6.507 1.023-6.507 1.07-6.459 1.105-6.337 1.105h.176C-5.984 1.105-5.444 1.07-5.241 1.07-4.972 1.07-4.282 1.105-4.223 1.105h.203C-3.879 1.105-3.799 1.093-3.799 1.023-3.799.933-3.87.896-3.93.896-4.02.896-4.118.896-4.187.872-4.282.849-4.384.8-4.39.687-4.411.568-4.345.413-4.24.239l1.612-2.603C-2.126-1.546-1.502-.46-.896.591-.821.73-.869.843-.92.843-1.016.872-1.072.896-1.072.98-1.072 1.046-.988 1.07-.705 1.093c.84.012 1.705.012 1.965.012h.326C1.702 1.105 1.795 1.07 1.795 1.003 1.795.933 1.726.896 1.657.896 1.55.896 1.422.896 1.233.843.953.747.785.622.604.364.334.036-1.439-2.932-1.783-3.464L0-6.032z" style="fill:#fff;fill-rule:nonzero"/></g><g transform="matrix(1,0,0,1,144.508,598.305)"><path d="M0 3.598C-.051 3.598-.054 3.573-.051 3.52L1.317-.131C1.329-.148 1.35-.201 1.377-.201 1.416-.201 1.425-.148 1.442-.131L2.831 3.543C2.846 3.573 2.831 3.604 2.771 3.604L0 3.598zm2.954.537C3.005 4.135 3.046 4.159 3.056 4.213l.495 1.373C3.608 5.717 3.53 5.813 3.453 5.836 3.345 5.836 3.3 5.873 3.3 5.944 3.3 6.01 3.438 6.01 3.629 6.034 4.504 6.045 5.298 6.045 5.689 6.045 6.096 6.045 6.194 6.034 6.194 5.944 6.194 5.848 6.137 5.836 6.051 5.836 5.916 5.836 5.761 5.836 5.597 5.789 5.358 5.741 5.044 5.604 4.635 4.612c-.704-1.66-2.448-6.11-2.702-6.696-.114-.273-.18-.363-.281-.363-.102.0-.168.113-.302.436L-1.386 4.821c-.22.562-.426.939-.928.992C-2.4 5.836-2.556 5.836-2.654 5.836-2.744 5.836-2.789 5.873-2.789 5.944-2.789 6.034-2.717 6.045-2.574 6.045-2.01 6.045-1.412 6.01-1.287 6.01-.955 6.01-.483 6.045-.137 6.045-.009 6.045.057 6.034.057 5.944.057 5.873.019 5.836-.11 5.836H-.277c-.341.0-.436-.142-.436-.328C-.713 5.383-.654 5.102-.552 4.821l.236-.567C-.292 4.159-.277 4.135-.215 4.135H2.954z" style="fill:#fff;fill-rule:nonzero"/></g><g transform="matrix(1,0,0,1,154.157,599.109)"><path d="M0 2.064C0 3.074.0 3.941-.051 4.4-.081 4.705-.146 4.957-.361 4.986-.463 5.009-.595 5.033-.759 5.033-.887 5.033-.938 5.07-.938 5.14-.938 5.207-.854 5.242-.717 5.242-.281 5.242.406 5.207.657 5.207.961 5.207 1.654 5.242 2.371 5.242 2.49 5.242 2.577 5.207 2.577 5.14 2.577 5.07 2.526 5.033 2.401 5.033 2.239 5.033 1.995 5.009 1.846 4.986 1.517 4.957 1.451 4.705 1.424 4.4 1.367 3.941 1.367 3.074 1.367 2.064V-2.403l1.374.024C3.715-2.354 4.011-2.051 4.031-1.747L4.043-1.639C4.055-1.465 4.079-1.411 4.16-1.411 4.231-1.411 4.246-1.483 4.261-1.596 4.261-1.877 4.297-2.629 4.297-2.838 4.297-3.018 4.285-3.071 4.208-3.071 4.115-3.071 3.855-2.983 3.159-2.983H-1.159C-1.518-2.983-1.933-3-2.252-3.041c-.274-.024-.379-.137-.463-.137C-2.786-3.178-2.819-3.09-2.849-2.94-2.864-2.862-3.082-1.877-3.082-1.709-3.082-1.573-3.052-1.53-2.983-1.53-2.915-1.53-2.882-1.573-2.864-1.663-2.837-1.739-2.786-1.877-2.682-2.051c.17-.227.43-.28 1.069-.322L0-2.403V2.064z" style="fill:#fff;fill-rule:nonzero"/></g><g transform="matrix(1,0,0,1,173.142,600.08)"><path d="M0 .21C0 .161.021.12.08.12c.177.0 1.332.0 1.61.041.343.031.498.229.552.389C2.29.657 2.305.819 2.305.878 2.305.962 2.335 1.034 2.407 1.034c.104.0.104-.101.104-.215C2.511.771 2.526.239 2.559.013 2.586-.298 2.64-.579 2.64-.644 2.64-.698 2.619-.751 2.58-.751 2.511-.751 2.487-.692 2.434-.626c-.108.137-.26.18-.478.203H1.475L.08-.399C.009-.399.0-.446.0-.513V-3.231c0-.137.036-.172.104-.172L1.786-3.368C2.188-3.351 2.425-3.188 2.505-3.028 2.565-2.872 2.565-2.692 2.565-2.616 2.58-2.501 2.595-2.436 2.672-2.436 2.75-2.436 2.774-2.509 2.783-2.61 2.807-2.718 2.816-3.374 2.828-3.481 2.867-3.763 2.926-3.905 2.926-3.972 2.926-4.036 2.888-4.061 2.843-4.061S2.738-4.036 2.672-4.013C2.565-3.972 2.434-3.972 2.222-3.966c-.245.012-2.464.012-2.879.012C-.965-3.954-1.658-3.972-2.228-3.972-2.387-3.972-2.476-3.966-2.476-3.858-2.476-3.81-2.401-3.786-2.288-3.786-2.139-3.786-1.956-3.78-1.861-3.757-1.502-3.673-1.41-3.505-1.395-3.142c.03.36.03.664.03 2.319V1.093C-1.365 2.151-1.365 2.97-1.431 3.429-1.476 3.733-1.521 3.985-1.741 4.015-1.846 4.038-1.965 4.062-2.139 4.062-2.261 4.062-2.3 4.099-2.3 4.169-2.3 4.259-2.228 4.271-2.079 4.271-1.658 4.271-.965 4.235-.696 4.235-.4 4.235.289 4.271.967 4.271 1.138 4.271 1.209 4.235 1.209 4.169 1.209 4.099 1.164 4.062 1.024 4.062.875 4.062.633 4.038.48 4.015.155 3.985.086 3.733.054 3.429.0 2.97.0 2.151.0 1.093V.21z" style="fill:#fff;fill-rule:nonzero"/></g><g transform="matrix(1,0,0,1,180.126,599.287)"><path d="M0 1.886C0 2.968.0 3.833-.051 4.277c-.03.322-.104.502-.325.531C-.466 4.831-.609 4.855-.762 4.855-.899 4.855-.935 4.892-.935 4.962-.935 5.029-.86 5.064-.723 5.064-.287 5.064.403 5.029.657 5.029.944 5.029 1.642 5.064 2.353 5.064 2.476 5.064 2.568 5.029 2.568 4.962 2.568 4.892 2.514 4.855 2.386 4.855 2.219 4.855 1.983 4.831 1.831 4.808 1.502 4.779 1.43 4.581 1.401 4.294 1.353 3.833 1.353 2.968 1.353 1.886V-.03C1.353-1.684 1.353-1.989 1.374-2.348 1.401-2.712 1.478-2.915 1.78-2.964 1.911-2.987 1.995-2.993 2.114-2.993 2.213-2.993 2.276-3.016 2.276-3.112 2.276-3.173 2.195-3.178 2.048-3.178 1.642-3.178.995-3.161.716-3.161.403-3.161-.287-3.178-.699-3.178-.875-3.178-.956-3.173-.956-3.112-.956-3.016-.899-2.993-.783-2.993-.657-2.993-.508-2.987-.391-2.944-.155-2.891-.048-2.712-.027-2.348.0-1.989.0-1.684.0-.03V1.886z" style="fill:#fff;fill-rule:nonzero"/></g><g transform="matrix(1,0,0,1,188.017,601.461)"><path d="M0-.991V-4.546C0-4.677.039-4.731.131-4.784.221-4.833.627-4.862.848-4.862c.845.0 2.096.131 3.097 1.105.459.454 1.045 1.327 1.045 2.723.0 1.117-.221 2.133-.92 2.699-.654.586-1.391.807-2.506.807-.869.0-1.293-.244-1.433-.424-.087-.131-.108-.566-.11-.859C0 1.003.0.155.0-.991zm-1.371.703C-1.371.722-1.371 1.589-1.434 2.048-1.473 2.353-1.529 2.605-1.744 2.634-1.843 2.657-1.978 2.681-2.139 2.681-2.267 2.681-2.317 2.718-2.317 2.788-2.317 2.855-2.234 2.89-2.091 2.89-1.655 2.89-.962 2.855-.723 2.855c.553.0 1.538.131 2.332.131 2.01.0 3.154-.782 3.662-1.295.597-.633 1.182-1.655 1.182-3.059.0-1.277-.511-2.191-1.066-2.73C4.198-5.352 2.383-5.352 1.021-5.352.364-5.352-.329-5.335-.66-5.335-.962-5.335-1.655-5.352-2.234-5.352-2.401-5.352-2.476-5.346-2.476-5.262-2.476-5.19-2.401-5.167-2.291-5.167-2.139-5.167-1.95-5.161-1.857-5.137-1.502-5.054-1.416-4.886-1.386-4.522-1.371-4.163-1.371-3.858-1.371-2.204V-.288z" style="fill:#fff;fill-rule:nonzero"/></g><g transform="matrix(1,0,0,1,198.295,599.228)"><path d="M0 1.945c0 1.01.0 1.877-.054 2.336C-.096 4.586-.149 4.838-.364 4.867-.472 4.89-.591 4.914-.758 4.914-.893 4.914-.938 4.951-.938 5.021-.938 5.088-.857 5.123-.717 5.123-.275 5.123.409 5.088.66 5.088 1.299 5.088 2.028 5.154 3.676 5.154c.415.0.523.0.585-.293C4.324 4.658 4.408 3.898 4.408 3.666 4.408 3.558 4.408 3.445 4.324 3.445 4.247 3.445 4.226 3.517 4.205 3.619 4.124 4.054 3.996 4.304 3.712 4.431c-.284.114-.744.114-1.024.114-1.114.0-1.284-.162-1.309-.903C1.362 3.332 1.379 2.316 1.379 1.945V1.086C1.379 1.039 1.386.99 1.442.99 1.705.99 2.78 1.013 2.996 1.039 3.401 1.062 3.554 1.222 3.604 1.445 3.634 1.599 3.634 1.724 3.652 1.814 3.652 1.886 3.67 1.927 3.748 1.927 3.846 1.927 3.846 1.814 3.846 1.724 3.846 1.654 3.867 1.199 3.885 1.013 3.915.453 3.972.256 3.972.209 3.972.142 3.939.101 3.891.101 3.846.101 3.805.177 3.727.25 3.628.363 3.461.381 3.198.429 2.941.453 1.687.453 1.455.453 1.386.453 1.379.381 1.379.322V-2.444C1.379-2.522 1.404-2.551 1.455-2.551 1.667-2.551 2.816-2.522 3.004-2.516c.55.0720000000000001.648.203.723.4C3.787-1.991 3.805-1.805 3.805-1.715 3.805-1.625 3.823-1.561 3.891-1.561 3.972-1.561 3.996-1.649 4.001-1.692 4.029-1.828 4.043-2.313 4.055-2.403 4.091-2.91 4.151-3.053 4.151-3.119 4.151-3.184 4.13-3.209 4.077-3.209 4.029-3.209 3.96-3.19 3.903-3.184 3.823-3.16 3.652-3.119 3.431-3.114c-.197.012-2.374.012-2.726.012C.409-3.102-.275-3.119-.857-3.119-1.024-3.119-1.096-3.114-1.096-3.03-1.096-2.957-1.04-2.934-.914-2.934-.758-2.934-.583-2.928-.493-2.905-.125-2.821-.045-2.653-.018-2.289.0-1.93.0-1.625.0.029V1.945z" style="fill:#fff;fill-rule:nonzero"/></g><g transform="matrix(1,0,0,1,208.136,601.234)"><path d="M0-1.977C0-3.631.0-3.936.012-4.295c.02-.364.116-.567.4-.616C.555-4.934.729-4.94.845-4.94.97-4.94 1.033-4.963 1.033-5.036 1.033-5.12.958-5.125.806-5.125.385-5.125-.406-5.108-.672-5.108-.971-5.108-1.655-5.125-2.168-5.125-2.333-5.125-2.398-5.12-2.398-5.036-2.398-4.963-2.339-4.94-2.228-4.94-2.073-4.94-1.947-4.934-1.864-4.911-1.5-4.827-1.413-4.659-1.389-4.295c.024.359.024.664.024 2.318V-.061C-1.365.949-1.365 1.816-1.431 2.275-1.464 2.58-1.518 2.832-1.741 2.861-1.84 2.884-1.968 2.908-2.136 2.908-2.267 2.908-2.317 2.945-2.317 3.015-2.317 3.082-2.237 3.117-2.091 3.117-1.655 3.117-.971 3.082-.714 3.082.161 3.082.884 3.148 2.458 3.148 3.031 3.148 3.079 3.105 3.15 2.855c.081-.328.156-1.123.156-1.26C3.306 1.462 3.3 1.416 3.216 1.416 3.135 1.416 3.114 1.462 3.105 1.587 3.079 1.773 2.956 2.078 2.819 2.222c-.269.299-.702.305-1.278.305C.689 2.527.406 2.455.224 2.298.0 2.095.0 1.349.0-.061V-1.977z" style="fill:#fff;fill-rule:nonzero"/></g><g transform="matrix(1,0,0,1,214.933,599.287)"><path d="M0 1.886C0 2.968.0 3.833-.045 4.277c-.039.322-.107.502-.323.531C-.466 4.831-.592 4.855-.759 4.855-.887 4.855-.929 4.892-.929 4.962-.929 5.029-.852 5.064-.717 5.064-.266 5.064.409 5.029.66 5.029.946 5.029 1.646 5.064 2.374 5.064 2.473 5.064 2.574 5.029 2.574 4.962 2.574 4.892 2.518 4.855 2.386 4.855 2.228 4.855 2.004 4.831 1.836 4.808 1.511 4.779 1.433 4.581 1.4 4.294 1.358 3.833 1.358 2.968 1.358 1.886V-.03C1.358-1.684 1.358-1.989 1.376-2.348c.024-.364.12-.567.403-.616C1.923-2.987 2.004-2.993 2.108-2.993 2.228-2.993 2.29-3.016 2.29-3.112 2.29-3.173 2.21-3.178 2.061-3.178 1.646-3.178 1-3.161.731-3.161.409-3.161-.266-3.178-.687-3.178-.869-3.178-.959-3.173-.959-3.112-.959-3.016-.887-2.993-.78-2.993-.646-2.993-.502-2.987-.389-2.944-.152-2.891-.03-2.712-.018-2.348.0-1.989.0-1.684.0-.03V1.886z" style="fill:#fff;fill-rule:nonzero"/></g><g transform="matrix(1,0,0,1,222.452,595.931)"><path d="M0 8.57C.576 8.57 1.191 8.474 1.729 8.115c.794-.488 1.036-1.254 1.036-1.887.0-1.045-.49-1.762-1.797-2.777L.669 3.213C-.23 2.531-.49 2.148-.49 1.64-.49.984.0.519.797.519c.717.0 1.03.328 1.189.531.239.28.289.622.289.723.0.137.0420000000000003.18.114.18C2.479 1.953 2.508 1.886 2.508 1.64 2.508.781 2.553.476 2.553.34 2.553.244 2.5.238 2.398.195 2.123.113 1.657.0.952.0-.573.0-1.574.877-1.574 2.09c0 .853.409 1.636 1.619 2.562L.543 5.052c.911.698 1.069 1.2 1.069 1.762.0.567-.483 1.225-1.457 1.225-.672.0-1.326-.281-1.555-1.1C-1.463 6.742-1.511 6.533-1.511 6.379-1.511 6.3-1.523 6.199-1.613 6.199-1.699 6.199-1.735 6.33-1.744 6.486-1.759 6.652-1.798 7.322-1.798 7.906c0 .252.03.305000000000001.197.389.478.179.968.275 1.601.275" style="fill:#fff;fill-rule:nonzero"/></g><g transform="matrix(1,0,0,1,154.31,365.015)"><path d="M0 48.983c-5.698.0-12.137 1.353-17.094 3.512C-17.014 51.402-16.619 50.437-15.917 49.591-13.048 46.125-5.546 44.894.0 44.894c5.561.0 13.056 1.231 15.926 4.697C16.631 50.437 17.019 51.396 17.097 52.489 12.146 50.308 5.805 48.983.0 48.983m9.724 8.048-1.769-4.085C10.625 53.496 13.202 54.257 15.466 55.212l1.033 4.19c-1.672-.695-3.983-1.606-6.775-2.371M-7 56.398l-3.046-2.983C-7.556 52.794-4.928 52.369-2.377 52.209l1.818 3.488C-2.861 55.744-5.023 56.007-7 56.398m-9.882 3.166L-17.769 59.933C-18.979 60.4-19.817 60.017-20.11 59.423-20.421 58.814-20.245 57.754-18.728 56.834-18.53 56.724-18.315 56.61-18.109 56.482l2.89 2.398C-15.831 59.125-16.396 59.355-16.882 59.564M0 38.107l4.118 2.982C2.365 40.935.893 40.896.0 40.896-.884 40.896-2.354 40.935-4.112 41.089L0 38.107zM-4.677 27.234c-1.681-3.645-2.144-8.407 3.034-6.119l.415 6.119H-4.677zM-.738 14.019.0 14.559.743 14.019l2.984-2.174-1.711 5.776C1.965 17.638 1.899 17.653 1.839 17.683 1.538 16.961.827 16.476.0 16.476-.818 16.476-1.526 16.961-1.837 17.683-1.885 17.653-1.944 17.638-2.004 17.621l-1.714-5.776 2.98 2.174zM3.679 37.638.743 35.511.0 34.968-.738 35.511-3.665 37.638l1.9-6.162H1.773l1.906 6.162zM4.686 27.234H1.236l.415-6.119c5.188-2.288 4.709 2.474 3.035 6.119M-12.63 28.675l2.121-2.931L-9.966 25.008-10.509 24.259-12.63 21.33l4.352 1.343C-8.03 24.546-7.618 25.814-7.129 26.986l-5.501 1.689zM8.299 22.673l4.342-1.343-2.123 2.929L9.977 25.008 10.518 25.744l2.123 2.931-5.498-1.689c.481-1.172.896-2.44 1.156-4.313m27.08-7.502C35.469 13.541 32.438 12.298 31.679 12.23 30.407 12.143 28.785 14.81 27.137 16.476 25.667 8.634 26.435 5.277 27.256 1.808c3.303 6.002 7.777 7.307 10.127 7.006-7.944-6.368-6.576-12.122-8.998-12.427C27-3.771 26.02-3.673 25.318-3.673c-2.801.0-3.183 5.424-3.533 7.903C19.97.864 18.192-1.955 15.129-5.838c-2.936-7.54-6.528-5.665-10.178-9.069C7.773-10.616 5.482-7.964 12.077-4.84c1.702 1.633 3.706 4.172 5.056 6.236-1.112 1.465-1.858 2.32-2.882 3.294-.821 1.242-1.23 5.885-3.769 9.419 3.769-1.637 5.238-3.928 6.594-6.183 11.882 8.968 2.216 31.886-.517 36.929C13.94 43.08 10.599 42.09 7.531 41.55L7.224 40.523 4.432 31.476H5.719c1.496.0 1.833-1.002 1.594-1.782l8.213 2.53L19.157 33.337l-2.234-3.082-3.813-5.247 3.813-5.255 2.234-3.085-3.631 1.123-7.38 2.275C7.618 18.396 6.247 17.582 4.736 17.375L7.227 9.002 8.299 5.409 5.265 7.607.0 11.423-5.256 7.607-8.278 5.409l1.06 3.593 2.49 8.373C-6.232 17.582-7.609 18.396-8.138 20.066l-7.38-2.275-3.63-1.123 2.236 3.085 3.808 5.255-3.808 5.247-2.236 3.082L-15.518 32.224l8.237-2.53C-7.523 30.474-7.203 31.476-5.701 31.476H-4.42l-2.786 9.047L-7.526 41.55C-10.667 42.117-14.102 43.127-16.745 44.994-24.757 29.453-22.493 13.732-15.774 8.518-15.894 11.817-13.003 16.285-11.65 17.229-12.54 13.81-10.999 7.738-12.77 6.218-14.003 5.17-15.894 4.624-17.895 4.69c1.359-2.244 3.235-5.054 6.421-9.244 4.712-2.227 6.066-7.719 7.239-10.461-5.124 1.861-8.884 4.531-9.711 8.828-1.828 2.401-3.829 5.232-6.066 8.586.116-4.074-2.117-5.468-5.068-5.704-8.649 1.809-7.994 8.054-15.412 12.354C-35.431 10.817-27.48-.298-24.775.918-24.366 7.744-25.892 13.105-25.892 16.829c-1.299-1.415-1.962-2.416-3.064-2.613C-30.019 14.054-32.904 14.291-34.905 16.476-35.448 19.911-35.308 26.406-38.548 34.185c4.819-4.414 7.113-13.07 7.878-15.594 1.239 1.705 2.592 5.432 2.894 8.643.57 6.202 4.389 16.535 7.632 21.51C-21.027 50.488-21.305 52.429-20.979 54.582c-2.533 1.867-2.82 4.483-1.942 6.251C-21.983 62.714-19.516 63.998-16.607 62.845L-15.679 62.466c3.055-1.275 8.771-3.63 15.679-3.63 6.919.0 12.623 2.355 15.693 3.63L16.604 62.845c2.917 1.153 5.381-.131 6.322-2.012C23.816 59.065 23.521 56.449 20.991 54.582 21.343 52.259 20.97 50.181 19.916 48.349L20.021 48.439c5.913-8.412 6.3-24.502 11.183-29.087C31.616 25.008 34.624 29.656 37.565 30.289 35.2 26.406 35.2 18.705 35.379 15.171" style="fill:#fff;fill-rule:nonzero"/></g><g transform="matrix(1,0,0,1,110.93,458.075)"><path d="M0 66.529C-.538 66.529-1 66.349-1.296 65.691-.251 61.918.054 59.916-.176 59.146-1.063 59.468-1.708 59.42-2.117 59.218-1.093 53.09-1.756 49.285-2.413 46.914c-.705-2.539-4.028-6.069-5.17-6.666C-9.422 39.263-10.957 38.193-14.541 37.781c-7.418-6.234-9.442-2.473-14.72-3.111C-29.983 33.732-31.375 32.435-31.375 32.435l-2.359 1.643S-31.491 36.904-31.028 38.791C-31.028 38.791-26.199 37.92-22.547 38.84-23.963 43.504-30.455 49.799-36.735 56.799c-6.714 7.478-6.746 9.144-6.591 15.015C-43.15 78.759-52.745 89.189-60.101 94.08-60.728 95.836-61.564 111.252-60.581 113.611-60.068 114.49-57.986 116.908-56.69 118.849-56.111 119.72-56.269 121.83-55.982 123.867c-1.004.119-1.708.0-2.482-.38300000000001C-58.921 121.322-60.698 118.443-63.932 116.383-63.149 107.769-62.281 103.207-65.288 94.666-65.554 93.908-61.522 91.662-61.522 91.662S-60.16 85.341-56.514 82.291c-2.592-6.649-2.947-15.655-2.947-15.655S-61.021 68.703-63.609 70.351c6.823-21.658 8.209-15.494 16.242-31.316C-41.797 13.771-56.46 8.65-54.274-.124c5.115 4.832 7.77 3.302 11.948 2.126 3.766 3.166 9.24 10.295 14.358 12.064 8.249 2.822 8.186 10.543 6.896 14.133 3.407.0 6.182 1.238 7.469 3.228C-7.815 40.367-4.064 37.668-1 41.437.463 43.24-1 48.263.768 52.75c1.164 2.937 1.645 6.468 1.645 7.47C2.236 61.691.29 64.461.0 66.529m-26.645-3.482c3.157 3.947-1.323 20.306-2.965 23.257-1.472 2.633 1.246 4.366 2.643 4.7 6.537 1.654 13.015 7.902 15.132 12.609L-14.132 104.533C-19.015 97.902-20.308 100.07-21.55 101.32-22.783 99.138-28.666 92.545-32.438 92.175-35.89 91.871-35.849 89.773-35.618 88-35.152 84.476-35.35 79.322-35.735 76.533-36.207 74.232-38.211 71.521-39.653 71.408-38.915 69.64-39.859 64.037-35.09 61.691-31.551 59.941-27.388 62.127-26.645 63.047M-62.549-9.955C-63.493-11.051-63.968-12.342-64.467-12.711c3.769-2.358 8.422-.41 11.247-3.131C-51.398-14.828-48.734-15.854-47.567-16.014-43.648-16.585-38.772-12.514-35.2-9.955c1.523 1.101 2.819 1.931 3.709 1.998C-32.492-4.897-32.205-4.302-29.61-3.713-29.721-2.819-30.488-2.2-33.436-2.514-36.439-2.838-39.973-2.774-41.624-2.597-50.529 2.025-53.426-5.362-53.396-9.955V-10.016C-53.435-9.983-53.471-9.967-53.513-9.955c-5.154 2.887-7.63 1.666-9.036.0M2.648 46.562c.768-6.588-.289-7.09-2.182-8.642-1.649-1.37-4.363-1.793-7.057-3.657-1.947-1.349-2.475-3.293-4.951-5.886C-10.957 21.607-3.649 13.3-1.183 14.539L-1.12 11.179c-3.178-1.066-8.837 2.004-13.656 13.43C-15.309 24.017-15.78 23.779-16.309 23.418-15.947 20.777-16.825 18.588-18.479 16.588c1.677-1.112 6.635-3.426 9.466-5.465 3.174-2.288 3.772-3.239 7.663-2.3C-1.35 8.823-.648 7.999-.409 7.058-3.24 3.421-7.361 4.463-10.178 7.775c-2.227 1.789-7.289 5.188-10.771 6.373-4.746-3.996-12.119-7.523-17.494-12.91C-38.443 1.238-31.318 1.172-28.018-.178c.878-.541 3.168-4.184 2.234-7.663C-26.89-8.239-28.49-9.053-30.063-9.955c-1.939-1.096-3.844-2.299-4.71-2.954-3.121-2.357-4.375-4.414-9.73-5.755C-44.15-21.127-43.625-20.554-41.266-22.143c3.014-2.027 4.677-4.476 5.877-6.889C-34.442-30.914-35.502-34.795-37.909-29.856-38.757-28.121-41.093-25.791-43.741-25.087-43.535-26.625-43.449-27.494-43.449-28.319c7.831-5.537 7.063-10.42 6.484-15.017C-37.314-45.994-39.973-47.094-39.859-44.334-39.778-42.506-38.151-37.337-43.502-34.262-43.625-36.573-44.264-37.604-44.742-38.797-39.973-45.096-41.979-51.16-43.978-53.932-45.252-55.7-48.409-56.309-46.979-53.512-45.808-51.224-43.917-44.971-47.447-42.444-48.684-43.973-50.096-44.559-50.571-46.633-50.219-53.451-50.648-57.635-51.509-60.057-52.339-62.345-54.513-63.764-54.337-60.405-54.14-56.614-53.803-51.819-54.158-51.51-54.513-51.224-59.581-55.934-61.639-57.334-63.711-58.768-66.169-58.23-63.756-55.396c2.12 2.479 8.592 7.23 7.774 8.763C-56.502-45.672-61.137-49.461-63.526-50.274-65.936-51.096-66.683-49.848-64.646-48.166c3.303 2.712 5.486 4.48 10.897 6.31C-48.331-40.045-45.626-32.526-47.331-21.841-47.405-21.369-48.331-21.429-48.863-21.608-49.117-25.678-49.821-30.585-50.804-32.741-52.103-35.573-54.633-35.623-53.689-31.801-52.945-28.754-52.516-25.496-53.044-21.429-57.518-22.194-59.229-23.382-61.107-24.504-61.292-26.553-60.226-29.979-60.047-33.028-59.871-36.032-61.639-37.922-62.639-34.151-63.598-30.543-64.219-28.796-64.819-26.201-66.112-26.619-67.462-27.207-68.089-27.909-68.385-28.235-68.113-32.328-68.402-35.265-68.74-38.606-69.997-38.498-71.001-35.573-71.458-34.207-71.828-32.44-71.938-30.26-73.527-31.203-74.587-33.028-74.761-34.489-74.531-37.973-73.945-41.664-73.527-43.973-73.234-45.624-74.354-48.998-75.647-44.92-76.588-41.996-76.827-39.565-77.418-37.514-78.55-37.591-80.059-44.205-80.823-48.444-81.175-50.381-82.776-52.571-83.063-48.282-83.385-43.571-82.424-38.797-81.244-36.684-83.538-36.907-85.718-41.026-87.3-43.448-88.713-45.604-89.382-43.364-89.248-42.506-87.892-34.094-81.175-31.09-78.12-30.495c4.709 6.776 13.71 9.649 21.313 12.948C-66.7-17.66-69.293-13.67-73.82-16.26-73.617-12.539-71.774-10.795-69.985-9.955-68.71-9.334-67.462-9.179-66.88-9.065-66.053-4.537-61.755-4.78-58.105-4.537-59.043 4.287-57.986 15.951-50.219 24.65-50.446 29.136-50.741 35.021-50.685 38.916-57.04 44.787-62.702 57.156-64.933 63.99-66.611 69.09-69.119 73.068-72.999 74.943-69.821 78.289-65.108 76.652-62.409 74.759-62.224 77.752-61.522 79.865-61.047 81.65-62.869 84.357-64.111 86.232-63.932 89.529-65.993 90.133-67.408 91.357-68.528 92.785-69.221 93.668-68.402 97.718-67.644 99.425-65.097 105.099-67.077 117.906-67.521 121.674-66.461 121.74-64.523 121.812-64.111 120.205-63.49 120.791-61.931 121.914-61.221 124.386-61.406 125.437-61.991 129.373-59.99 129.863-58.342 130.293-51.213 130.043-50.281 128.8-50.983 128-52.217 126.093-52.987 124.207-52.987 122.265-53.154 119.906-53.689 118.902-54.513 117.5-56.577 114.197-57.867 112.912-58.166 110.552-58.396 100.142-57.281 96.123c1.824-1.283 14.37-10.596 16.95-19.471C-38.028 77.41-38.742 83.64-38.742 91.662-38.742 93.83-36.1 94.947-34.534 95.15-31.145 95.556-26.316 98.793-20.898 106.779-19.842 105.674-18.492 104.611-18.492 104.611-17.778 105.549-16.954 107.842-16.485 109.316-15.894 110.422-11.542 111.084-8.183 110.064-7.081 109.699-6.418 109.502-5.704 108.326-9.957 100.888-12.501 95.968-17.957 91.888-20.483 89.982-23.846 89.062-26.671 87.254-24.787 83.705-19.608 67.119-22.729 61.039c-1.051-1.994-5.002-4.002-9.804-3.112 4.004-4.814 12.166-14.371 13.226-17.302C-18.366 41.736-13.54 40.97-9.975 42.369-8.664 42.871-5.011 47.619-4.826 49.261-4.519 52.187-4.357 55.67-6.394 63.685-4.979 63.47-5.182 63.404-3.775 62.812-3.533 64.988-4.181 66.636-6.062 69.855-5.591 72.758-4.298 77.232-2.948 78.056-1.12 72.65 5.59 64.988 5.411 60.455c-.23-6.051-3.07-11.254-2.763-13.893" style="fill:#fff;fill-rule:nonzero"/></g><g transform="matrix(1,0,0,1,67.1289,445.059)"><path d="M0 4.948C1.708 4.776 2.535 3.883 4.061 4.471c-.182-.507-1.048-.507-1.233-.941C2.807 3.378 2.789 3.217 2.771 3.061 2.574 1.458 2.055.149-.532-.236-1.174 1.12-3.474 2.112-4.764 2.88-4.381 2.909-4.071 2.987-3.799 3.061-2.15 3.626-2.371 5.184.0 4.948" style="fill:#fff;fill-rule:nonzero"/></g><g transform="matrix(1,0,0,1,198.815,580.985)"><path d="M1.675-116.455h-92.35v33.441C-90.05-82.65-89.454-82.172-88.886-81.473c1.464 1.803.0 6.827 1.768 11.313C-87.038-69.957-86.987-69.748-86.912-69.533h41.075V-4.06c-4.749-1.924-14.675-6.624-23.685-15.362-11.127-10.763-17.02-23.933-17.683-39.074C-87.515-57.756-87.799-57.039-87.885-56.381-88.423-56.381-88.886-56.56-89.181-57.219c1.045-3.773 1.349-5.775 1.119-6.545C-88.949-63.441-89.594-63.49-90.002-63.691-88.979-69.82-89.641-73.625-90.298-75.996-90.385-76.307-90.513-76.635-90.675-76.976v15.63C-90.675-44.017-84.337-29.109-71.836-17.027-60.876-6.402-48.579-1.451-45.064-.191L-44.505.0l.57-.191c3.509-1.26 15.81-6.211 26.772-16.836C-4.659-29.109 1.675-44.017 1.675-61.346V-64.141C.606-62.432-.507-61.262-1.672-61.082-1.738-44.83-7.72-30.789-19.48-19.422-28.484-10.684-38.419-5.984-43.167-4.06V-69.533H-1.661v6.043C2.574-68.889.645-82.955-1.661-84.592v12.371H-87.339v-40.902H-1.661v28.209C-.493-85.732.705-84.902 1.675-83.062v-33.393z" style="fill:#fff;fill-rule:nonzero"/></g></g></svg>