<svg width="100%" height="100%" viewBox="0 0 695 355" xmlns="http://www.w3.org/2000/svg" xmlns:xlink="http://www.w3.org/1999/xlink" xmlns:serif="http://www.serif.com/" style="fill-rule:evenodd;clip-rule:evenodd;stroke-linejoin:round;stroke-miterlimit:2"><g transform="matrix(1,0,0,1,0,-4.00416)"><g transform="matrix(4.16667,0,0,4.16667,0,0)"><path d="M48.721 30.674C48.721 30.658 48.721 30.638 48.717 30.623 48.695 30.294 48.445 29.984 48.221 29.874 48.027 29.779 47.643 29.821 47.266 29.925 47.358 30.036 47.434 30.15 47.481 30.234L47.535 30.326 47.611 30.492C47.662 30.626 47.739 30.807 47.887 30.954H48.652C48.695 30.866 48.721 30.775 48.721 30.674z" style="fill:#fff;fill-rule:nonzero"/></g><g transform="matrix(4.16667,0,0,4.16667,0,0)"><path d="M47.377 30.58 47.326 30.466 47.263 30.358C47.196 30.234 47.098 30.062 46.918 29.922L46.847 29.874C46.629 29.759 45.592 29.632 44.907 29.851 45.03 29.977 45.132 30.121 45.195 30.228L45.25 30.326 45.326 30.489C45.376 30.626 45.453 30.807 45.605 30.954H47.57C47.475 30.818 47.415 30.68 47.377 30.58z" style="fill:#fff;fill-rule:nonzero"/></g><g transform="matrix(4.16667,0,0,4.16667,0,0)"><path d="M45.091 30.58 45.044 30.462V30.466L44.977 30.352C44.895 30.208 44.784 30.01 44.562 29.874 44.343 29.759 43.306 29.632 42.621 29.851 42.748 29.981 42.849 30.121 42.913 30.232L42.963 30.326 43.04 30.492C43.09 30.626 43.167 30.807 43.319 30.954h1.965C45.189 30.818 45.129 30.677 45.091 30.58z" style="fill:#fff;fill-rule:nonzero"/></g><g transform="matrix(4.16667,0,0,4.16667,0,0)"><path d="M42.808 30.58 42.757 30.466 42.691 30.355C42.612 30.208 42.498 30.01 42.279 29.874 42.057 29.759 41.02 29.632 40.336 29.851 40.464 29.981 40.562 30.121 40.624 30.232L40.681 30.326 40.757 30.492C40.806 30.626 40.884 30.807 41.033 30.954h1.969C42.903 30.818 42.843 30.68 42.808 30.58z" style="fill:#fff;fill-rule:nonzero"/></g><g transform="matrix(4.16667,0,0,4.16667,0,0)"><path d="M40.522 30.58 40.472 30.466 40.406 30.355C40.326 30.208 40.213 30.01 39.992 29.874 39.766 29.756 38.712 29.629 38.027 29.857 38.145 29.974 38.238 30.095 38.298 30.192L38.354 30.277 38.436 30.437C38.502 30.589 38.606 30.807 38.848 30.954h1.866C40.619 30.818 40.559 30.68 40.522 30.58z" style="fill:#fff;fill-rule:nonzero"/></g><g transform="matrix(4.16667,0,0,4.16667,0,0)"><path d="M38.205 30.534 38.152 30.426 38.087 30.326C38.005 30.196 37.894 30.02 37.715 29.909L37.647 29.864C37.378 29.743 36.94 29.828 36.667 30.055 36.578 30.128 36.556 30.248 36.553 30.336V30.362C36.553 30.563 36.637 30.785 36.763 30.954h1.704C38.331 30.804 38.251 30.645 38.205 30.534z" style="fill:#fff;fill-rule:nonzero"/></g><g transform="matrix(4.16667,0,0,4.16667,0,0)"><path d="M45.424 18.07C45.046 18.213 44.548 18.035 44.543 17.866 44.53 17.569 44.989 17.416 45.208 17.676 45.208 17.676 45.478 17.129 44.793 17.126 44.793 17.126 45.091 16.722 44.818 16.4 44.41 16.491 44.4 16.996 44.4 16.996 43.838 16.615 43.74 17.181 43.74 17.181 44.07 17.107 44.32 17.514 44.187 17.732 44.146 17.8 44.06 17.94 43.56 17.894 43.414 17.881 43.202 17.838 43.018 17.749L42.789 17.295 43.503 17.591V16.641L42.789 16.924l.323-.634h-.253C43.014 15.945 43.22 15.61 43.255 15.518 43.294 15.415 43.423 15.335 43.636 15.415 43.842 15.493 45.358 15.967 46.026 17.022 46.118 17.166 45.804 17.924 45.424 18.07zM42.15 17.749C41.963 17.836 41.749 17.881 41.604 17.894 41.102 17.94 41.015 17.8 40.973 17.732 40.843 17.514 41.089 17.107 41.422 17.181 41.422 17.181 41.321 16.615 40.762 16.996 40.762 16.996 40.75 16.491 40.343 16.4 40.072 16.722 40.369 17.126 40.369 17.126 39.684 17.129 39.955 17.676 39.955 17.676 40.173 17.416 40.632 17.569 40.619 17.866 40.611 18.035 40.117 18.213 39.735 18.07 39.356 17.924 39.045 17.166 39.133 17.022 39.806 15.967 41.319 15.493 41.527 15.415 41.738 15.335 41.87 15.415 41.908 15.518 41.943 15.61 42.149 15.945 42.304 16.29H42.05L42.393 16.938 41.657 16.641V17.591L42.393 17.28 42.15 17.749zm4.897-1.066c-1.363-1.634-3.053-2.174-4.172-2.295L42.711 14.014 43.142 14.219v-.651L42.711 13.763l.192-.432H42.254L42.466 13.77 42.019 13.568v.651L42.466 14.008 42.297 14.37C41.177 14.417 39.481 15.043 38.116 16.683 38.048 16.761 37.984 16.97 38.087 17.087 38.192 17.205 38.259 17.23 38.361 17.338 38.467 17.442 38.782 18.11 38.847 18.291 38.911 18.474 38.924 18.737 38.924 18.737S38.884 19.073 39.016 19.207C39.121 19.31 39.33 19.297 39.368 19.366 39.409 19.431 39.396 19.522 39.686 19.457 39.972 19.388 41.142 18.94 42.58 18.946 44.02 18.949 45.189 19.388 45.478 19.457 45.766 19.522 45.754 19.431 45.792 19.366 45.83 19.297 46.038 19.31 46.144 19.207 46.277 19.073 46.235 18.737 46.235 18.737S46.249 18.474 46.315 18.291C46.381 18.11 46.695 17.442 46.799 17.338 46.904 17.23 46.971 17.205 47.072 17.087 47.177 16.97 47.11 16.761 47.047 16.683z" style="fill:#fff;fill-rule:nonzero"/></g><g transform="matrix(4.16667,0,0,4.16667,0,0)"><path d="M44.343 24.105h1.956v2.898H44.343V24.105zm-2.71.0h1.959v2.898H41.633V24.105zm-2.709.0h1.96v2.898h-1.96V24.105zm0-3.772h1.96V23.25h-1.96V20.333zm2.709.0h1.959V23.25H41.633V20.333zm4.666 2.917H44.343V20.333h1.956V23.25zm2.606-3.777H36.315V20.105S36.94 20.098 37.483 20.395C37.924 20.635 38.116 21.124 38.173 21.299v7.185H37.796L38.544 29.779 39.296 28.484h-.372v-.625h1.96v.625H40.504L41.256 29.779 42.005 28.484h-.372v-.625h1.959v.625h-.375L43.965 29.779 44.713 28.484H44.343v-.625h1.956v.625H45.928L46.673 29.779 47.424 28.484H47.053V21.287C47.114 21.101 47.304 20.629 47.735 20.395 48.28 20.098 48.905 20.105 48.905 20.105V19.473z" style="fill:#fff;fill-rule:nonzero"/></g><g transform="matrix(4.16667,0,0,4.16667,0,0)"><path d="M36.789 20.326C36.789 20.105 36.97 19.925 37.19 19.925 37.409 19.925 37.589 20.105 37.589 20.326S37.409 20.726 37.19 20.726C36.97 20.726 36.789 20.547 36.789 20.326zM36.467 20.326C36.467 20.723 36.793 21.048 37.19 21.048 37.588 21.048 37.91 20.723 37.91 20.326 37.91 19.928 37.588 19.607 37.19 19.607 36.793 19.607 36.467 19.928 36.467 20.326z" style="fill:#fff;fill-rule:nonzero"/></g><g transform="matrix(4.16667,0,0,4.16667,0,0)"><path d="M36.813 21.351C36.946 21.372 37.055 21.384 37.189 21.403 37.165 21.586 37.118 21.908 37.097 22.09 36.962 22.075 36.853 22.057 36.72 22.041 36.743 21.859 36.787 21.537 36.813 21.351zM36.515 21.15 36.358 22.318 37.371 22.455 37.549 21.128 36.535 20.99 36.515 21.15z" style="fill:#fff;fill-rule:nonzero"/></g><g transform="matrix(4.16667,0,0,4.16667,0,0)"><path d="M36.645 22.845C36.779 22.849 36.889 22.855 37.022 22.858 37.018 23.041 37.008 23.336 37.003 23.519 36.869 23.513 36.757 23.513 36.624 23.506 36.629 23.328 36.64 23.028 36.645 22.845zm-.314-.169L36.293 23.819l1.021.032L37.355 22.546 36.333 22.513 36.331 22.676z" style="fill:#fff;fill-rule:nonzero"/></g><g transform="matrix(4.16667,0,0,4.16667,0,0)"><path d="M36.959 24.268C36.959 24.454 36.962 24.779 36.962 24.964h-.378C36.584 24.779 36.582 24.458 36.58 24.272 36.716 24.272 36.826 24.272 36.959 24.268zM37.117 23.946 36.257 23.952 36.264 25.291 37.287 25.284 37.279 23.943 37.117 23.946z" style="fill:#fff;fill-rule:nonzero"/></g><g transform="matrix(4.16667,0,0,4.16667,0,0)"><path d="M36.54 25.687C36.675 25.7 36.784 25.711 36.919 25.726 36.899 25.909 36.864 26.234 36.844 26.416 36.712 26.404 36.602 26.393 36.469 26.378 36.488 26.195 36.524 25.87 36.54 25.687zM36.239 25.492 36.115 26.664 37.131 26.771 37.271 25.44 36.255 25.333 36.239 25.492z" style="fill:#fff;fill-rule:nonzero"/></g><g transform="matrix(4.16667,0,0,4.16667,0,0)"><path d="M36.331 27.129C36.46 27.162 36.568 27.188 36.697 27.217 36.655 27.399 36.578 27.715 36.535 27.895 36.407 27.862 36.298 27.838 36.168 27.806 36.21 27.628 36.287 27.312 36.331 27.129zM36.053 26.898 35.779 28.047 36.776 28.282l.308-1.303L36.09 26.742 36.053 26.898z" style="fill:#fff;fill-rule:nonzero"/></g><g transform="matrix(4.16667,0,0,4.16667,0,0)"><path d="M35.906 28.526C36.026 28.587 36.122 28.639 36.24 28.702 36.153 28.868 36.003 29.151 35.918 29.317 35.798 29.255 35.702 29.203 35.583 29.141 35.669 28.975 35.819 28.689 35.906 28.526zM35.697 28.233 35.146 29.275 36.052 29.75 36.675 28.568 35.773 28.089 35.697 28.233z" style="fill:#fff;fill-rule:nonzero"/></g><g transform="matrix(4.16667,0,0,4.16667,0,0)"><path d="M34.809 30.146C34.809 29.925 34.986 29.747 35.207 29.747 35.428 29.747 35.608 29.925 35.608 30.146 35.608 30.369 35.428 30.547 35.207 30.547 34.986 30.547 34.809 30.369 34.809 30.146zM34.484 30.146C34.484 30.544 34.809 30.87 35.207 30.87 35.605 30.87 35.926 30.544 35.926 30.146 35.926 29.75 35.605 29.424 35.207 29.424 34.809 29.424 34.484 29.75 34.484 30.146z" style="fill:#fff;fill-rule:nonzero"/></g><g transform="matrix(4.16667,0,0,4.16667,0,0)"><path d="M48.084 20.726C47.862 20.726 47.684 20.547 47.684 20.326S47.862 19.925 48.084 19.925C48.303 19.925 48.486 20.105 48.486 20.326S48.303 20.726 48.084 20.726zm0-1.119C47.687 19.607 47.364 19.928 47.364 20.326 47.364 20.723 47.687 21.048 48.084 21.048 48.483 21.048 48.807 20.723 48.807 20.326 48.807 19.928 48.483 19.607 48.084 19.607z" style="fill:#fff;fill-rule:nonzero"/></g><g transform="matrix(4.16667,0,0,4.16667,0,0)"><path d="M48.553 22.041C48.423 22.057 48.312 22.075 48.179 22.09 48.153 21.908 48.109 21.586 48.087 21.403 48.221 21.384 48.328 21.372 48.461 21.351 48.486 21.537 48.528 21.859 48.553 22.041zM48.74 20.99 47.722 21.128 47.903 22.455 48.915 22.318 48.759 21.15 48.74 20.99z" style="fill:#fff;fill-rule:nonzero"/></g><g transform="matrix(4.16667,0,0,4.16667,0,0)"><path d="M48.652 23.506C48.515 23.513 48.404 23.513 48.271 23.519 48.264 23.336 48.255 23.041 48.252 22.858 48.384 22.855 48.496 22.849 48.629 22.845 48.632 23.028 48.645 23.328 48.652 23.506zM48.94 22.513 47.919 22.546 47.96 23.851l1.021-.032L48.946 22.676 48.94 22.513z" style="fill:#fff;fill-rule:nonzero"/></g><g transform="matrix(4.16667,0,0,4.16667,0,0)"><path d="M48.695 24.272C48.692 24.458 48.689 24.779 48.689 24.964H48.312C48.312 24.779 48.316 24.454 48.316 24.268 48.448 24.272 48.56 24.272 48.695 24.272zM47.995 23.943 47.985 25.284 49.01 25.291 49.019 23.952 48.157 23.946 47.995 23.943z" style="fill:#fff;fill-rule:nonzero"/></g><g transform="matrix(4.16667,0,0,4.16667,0,0)"><path d="M48.807 26.378C48.67 26.393 48.563 26.404 48.429 26.416 48.411 26.234 48.376 25.909 48.353 25.726 48.49 25.711 48.597 25.7 48.734 25.687 48.749 25.87 48.784 26.195 48.807 26.378zM49.019 25.333 48.004 25.44l.137 1.331L49.159 26.664 49.038 25.492 49.019 25.333z" style="fill:#fff;fill-rule:nonzero"/></g><g transform="matrix(4.16667,0,0,4.16667,0,0)"><path d="M49.105 27.806C48.974 27.838 48.87 27.862 48.74 27.895 48.695 27.715 48.62 27.399 48.576 27.217 48.709 27.188 48.816 27.162 48.946 27.129 48.988 27.312 49.063 27.628 49.105 27.806zM49.184 26.742 48.188 26.979 48.5 28.282 49.495 28.047 49.222 26.898 49.184 26.742z" style="fill:#fff;fill-rule:nonzero"/></g><g transform="matrix(4.16667,0,0,4.16667,0,0)"><path d="M49.692 29.141C49.573 29.203 49.476 29.255 49.358 29.317 49.273 29.151 49.121 28.868 49.035 28.702 49.152 28.639 49.251 28.587 49.368 28.526 49.453 28.689 49.605 28.975 49.692 29.141zM49.505 28.089 48.597 28.568l.625 1.182L50.129 29.275l-.552-1.042L49.505 28.089z" style="fill:#fff;fill-rule:nonzero"/></g><g transform="matrix(4.16667,0,0,4.16667,0,0)"><path d="M50.068 30.547C49.846 30.547 49.669 30.369 49.669 30.146 49.669 29.925 49.846 29.747 50.068 29.747 50.291 29.747 50.468 29.925 50.468 30.146 50.468 30.369 50.291 30.547 50.068 30.547zm0-1.123C49.669 29.424 49.346 29.75 49.346 30.146c0 .398.323.724.722000000000001.724C50.464 30.87 50.789 30.544 50.789 30.146 50.789 29.75 50.464 29.424 50.068 29.424z" style="fill:#fff;fill-rule:nonzero"/></g><g transform="matrix(4.16667,0,0,4.16667,0,0)"><path d="M23.289 31.429 24.264 31.875 24.975 32.166 26.229 32.683C26.127 32.338 26.16 32.083 26.16 32.083S26.545 32.318 26.91 31.905C27.272 31.488 26.936 30.818 26.339 30.245 25.745 29.678 25.046 29.6 24.192 29.909 23.625 30.117 23.198 30.631 22.904 31.211 23.025 31.283 23.15 31.355 23.289 31.429z" style="fill:#fff;fill-rule:nonzero"/></g><g transform="matrix(4.16667,0,0,4.16667,0,0)"><path d="M33.483 41.329C33.173 41.302 32.836 41.251 32.73 41.354 32.73 41.354 32.653 40.629 32.81 40.342 32.964 40.059 32.938 39.85 33.173 39.825 33.173 39.825 32.523 39.489 32.291 39.825 32.06 40.164 31.931 40.55 31.931 40.785 31.931 40.785 31.721 41.068 31.618 41.068 31.618 41.068 31.67 41.637 31.695 42.155 31.721 42.672 31.618 43.32 31.41 44.043 31.204 44.769 30.608 45.751 30.428 45.96 30.294 46.113 30.075 46.308 29.949 46.175 29.91 46.1 29.878 46.015 29.859 45.909 29.835 45.765 29.839 45.683 29.856 45.638 29.88 45.245 30.022 44.795 30.117 44.131 30.352 43.649 30.605 43.105 30.774 42.637 31.104 41.712 31.732 40.687 31.402 38.409 31.07 36.129 28.924 34.577 28.329 34.115 27.996 33.854 27.424 33.575 26.515 33.187 25.802 32.884 24.882 32.513 23.707 32.035 23.329 31.882 22.999 31.725 22.707 31.576 20.936 30.648 20.649 29.772 20.54 29.275 20.416 28.708 20.913 27.374 22.763 27.289 24.613 27.201 25.835 28.409 26.26 28.916 26.685 29.427 27.04 30.189 27.5 30.769 27.958 31.344 28.993 31.563 28.993 31.563 29.418 32.295 30.249 32.956 30.469 33.109 30.591 33.194 30.742 33.37 30.871 33.522L30.967 33.649C30.958 33.633 30.947 33.617 30.935 33.6 31.014 33.688 31.078 33.763 31.112 33.79 31.214 33.858 31.319 33.568 31.319 33.297 31.319 33.024 31.249 32.77 31.131 32.585 31.011 32.396 30.757 31.615 30.672 31.396 30.6 31.208 30.518 30.866 30.493 30.765 30.49 30.746 30.486 30.733 30.486 30.733S30.717 29.86 29.806 28.663C29.162 27.813 28.103 27.503 27.685 27.289 27.262 27.068 26.09 26.305 25.378 26.016 24.664 25.726 23.391 25.303 22.254 25.387 21.118 25.472 19.369 25.963 18.622 28.002 17.935 29.871 18.796 31.312 19.177 32.191 19.966 31.8 20.704 31.973 21.207 32.09 21.911 32.253 22.756 32.624 23.26 32.992 23.961 33.503 24.12 34.317 24.12 34.948 24.12 35.348 24.055 35.673 24.026 35.801 23.93 36.231 23.61 36.495 23.362 36.647 23.437 36.745 23.514 36.849 23.594 37.005 23.665 37.148 23.703 37.282 23.727 37.4 24.249 37.208 25.037 37.159 25.985 37.123L26.512 37.1C26.651 37.096 26.772 37.201 26.777 37.34 26.784 37.477 26.681 37.594 26.541 37.601L26.003 37.624C25.212 37.653 24.016 37.696 23.655 37.985L23.16 38.379 23.25 37.751C23.253 37.751 23.284 37.506 23.145 37.23 22.99 36.921 22.817 36.764 22.816 36.761L22.511 36.492 22.89 36.341C22.895 36.338 23.442 36.121 23.54 35.691 23.576 35.524 23.879 34.06 22.966 33.396 22.518 33.07 21.73 32.725 21.094 32.578 20.403 32.416 19.456 32.194 18.493 33.415c-1.663 2.113-2.518 3.903-2.614 5.478C15.872 39.024 15.867 39.151 15.867 39.274c0 1.445.518999999999998 2.334.98 3.125L17.173 42.982C17.614 43.841 19.05 47.253 19.862 51.54L19.886 51.66C19.946 51.986 20.01 52.318 20.065 52.5 20.849 51.722 24.991 47.142 25.448 45.199L25.468 45.117 25.531 45.065C25.609 45 27.146 43.675 27.146 41.397 27.146 40.983 27.095 40.541 26.976 40.065 26.971 40.042 26.968 40.023 26.968 40.004 26.968 39.893 27.045 39.789 27.159 39.759 27.292 39.726 27.428 39.808 27.463 39.942 27.59 40.45 27.646 40.928 27.646 41.374c0 2.331-1.471 3.779-1.736 4.023C25.528 46.81 23.63 49.229 22.133 50.959 22.232 51.436 22.198 51.696 22.198 51.963 22.198 52.261 22.357 52.77 22.472 53.115 22.495 53.19 22.518 53.255 22.536 53.31 22.638 53.62 22.43 55.482 22.329 55.999 22.224 56.52 21.275 57.304 20.828 57.629 20.542 57.838 20.622 58.046 20.672 58.147 20.672 58.147 21.033 57.812 21.475 57.838 21.915 57.865 22.353 57.709 22.976 58.073 23.595 58.434 23.941 58.613 24.063 59.055 24.14 59.338 24.192 59.547 24.192 59.547S24.632 59.03 24.656 58.691C24.656 58.691 25.589 58.095 26.107 58.046 26.624 57.995 27.246 58.173 27.297 58.46 27.297 58.46 27.362 57.904 27.013 57.552 26.858 57.399 26.598 57.191 26.598 57.191S26.882 56.959 27.064 57.142C27.064 57.142 27.013 56.594 26.753 56.569 26.496 56.542 25.356 56.542 24.941 56.542 24.529 56.542 23.726 56.39 23.545 55.898 23.364 55.407 23.494 53.542 23.726 53.337 23.811 53.258 23.896 53.229 23.971 53.225 24.103 53.216 24.202 53.285 24.219 53.337 24.219 53.337 24.372 52.79 24.58 52.584 24.732 52.432 25.659 51.347 26.187 50.03 27.162 50.046 28.005 49.892 28.642 49.479 29.523 48.91 30.352 48.392 30.766 48.522 30.766 48.522 30.896 47.822 30.478 47.643 30.478 47.643 31.23 46.53 31.463 45.986 31.695 45.443 32.06 45.443 32.032 45.726 32.006 46.012 31.775 47.149 33.224 47.021 33.224 47.021 32.964 46.787 32.938 46.477 32.913 46.166 32.602 43.682 32.81 43.164 33.015 42.647 33.327 41.846 33.533 41.793 33.741 41.742 33.871 41.768 33.974 41.872 33.974 41.872 33.791 41.354 33.483 41.329zM15.6 46.217c-1.099 1.147-1.581 1.612-1.811 1.96C13.789 48.177 13.421 48.454 13.605 48.613 13.784 48.776 15.056 49.016 16.274 48.916 15.658 49.674 14.861 50.97 14.69 51.917 14.491 53.004 15.086 54.062 15.613 54.228 16.142 54.394 16.657 54.267 17.051 53.796 17.576 53.171 17.796 51.552 17.796 51.552S18.637 51.572 19.356 51.556C18.669 47.965 17.468 44.782 16.864 43.49 16.754 44.43 16.43 45.352 15.6 46.217z" style="fill:#fff;fill-rule:nonzero"/></g><g transform="matrix(4.16667,0,0,4.16667,0,0)"><path d="M40.294 21.755C40.231 21.804 40.167 21.853 40.11 21.905 40.05 21.957 39.963 21.983 39.909 22.039 39.857 22.093 39.828 22.174 39.78 22.237 39.734 22.298 39.727 22.386 39.686 22.449 39.644 22.524 39.592 22.586 39.558 22.66 39.522 22.738 39.524 22.823 39.498 22.901 39.492 22.927 39.483 22.95 39.476 22.972h1.131V21.573C40.581 21.609 40.554 21.641 40.522 21.665 40.454 21.707 40.359 21.71 40.294 21.755zM39.642 24.424C39.684 24.486 39.78 24.509 39.828 24.568 39.874 24.624 39.93 24.671 39.983 24.727 40.034 24.779 40.077 24.844 40.135 24.893 40.192 24.942 40.259 24.981 40.324 25.03 40.384 25.075 40.411 25.179 40.48 25.218 40.513 25.242 40.559 25.245 40.607 25.248v-.866H39.638C39.64 24.395 39.635 24.415 39.642 24.424zm2.266 1.309H41.917C42.013 26.211 42.031 26.453 41.943 26.726H42.859C42.859 26.446 42.963 26.104 43.294 25.704 43.299 25.7 43.309 25.697 43.316 25.697V24.382H41.908v1.351zM42.9 21.085C42.815 21.078 42.733 21.048 42.647 21.048 42.583 21.048 42.523 21.075 42.46 21.078 42.393 21.082 42.317 21.022 42.247 21.029S42.11 21.094 42.045 21.104C41.999 21.11 41.954 21.107 41.908 21.104v1.868h1.408V21.068C43.267 21.036 43.22 21 43.167 20.997 43.082 20.984 42.989 21.087 42.9 21.085zm1.718 4.163C44.675 25.215 44.739 25.189 44.793 25.154 44.862 25.111 44.939 25.079 45.002 25.033 45.065 24.981 45.164 24.974 45.221 24.919 45.281 24.867 45.291 24.763 45.344 24.705 45.398 24.649 45.453 24.593 45.497 24.532 45.545 24.47 45.649 24.447 45.687 24.382H44.618v.866zm1.212-2.49C45.804 22.693 45.754 22.634 45.722 22.569 45.69 22.503 45.598 22.477 45.557 22.416 45.519 22.354 45.545 22.247 45.497 22.188 45.453 22.129 45.379 22.09 45.329 22.035 45.275 21.983 45.189 21.966 45.129 21.918 45.072 21.869 45.005 21.83 44.944 21.785 44.881 21.739 44.828 21.687 44.761 21.644 44.711 21.615 44.666 21.583 44.618 21.55v1.422h1.218C45.823 22.904 45.855 22.823 45.83 22.758z" style="fill:#fff;fill-rule:nonzero"/></g><g transform="matrix(4.16667,0,0,4.16667,0,0)"><path d="M66.045 64.306H19.138V60.927H66.045v3.379zm.497-3.877H18.637v4.378H66.542V60.429z" style="fill:#fff;fill-rule:nonzero"/></g><g transform="matrix(4.16667,0,0,4.16667,0,0)"><path d="M69.197 48.92 68.674 48.875 69.006 49.281C69.65 50.075 70.389 51.325 70.545 52.18 70.729 53.19 70.155 54.118 69.774 54.239 69.309 54.384 68.893 54.257 68.573 53.876 68.18 53.405 67.942 52.177 67.881 51.748L67.856 51.548 67.653 51.552C67.64 51.552 66.815 51.572 66.117 51.556 66.754 48.324 67.796 45.449 68.418 44.03 68.564 44.903 68.909 45.775 69.695 46.595L70.374 47.301C71.002 47.949 71.316 48.275 71.477 48.525L71.5 48.554 71.531 48.582C71.579 48.613 71.607 48.656 71.635 48.695 71.385 48.802 70.339 49.01 69.197 48.92zM61.662 32.051 60.968 32.335 59.415 32.972C59.488 32.745 59.526 32.543 59.526 32.419 59.526 32.335 59.52 32.286 59.517 32.279L59.471 31.954 59.184 32.113C59.146 32.135 58.933 32.233 58.714 31.98 58.448 31.673 58.8 31.082 59.269 30.631 59.786 30.137 60.376 30.049 61.187 30.342 61.672 30.521 62.11 31.019 62.418 31.703 62.132 31.836 61.662 32.051 61.662 32.051zM54.307 42.513 54.469 42.933S55.049 44.254 55.119 44.421C55.132 44.483 55.262 45.199 55.262 45.199L55.373 45.876 55.386 45.931 55.373 46.094C55.373 46.104 55.363 46.146 55.354 46.185 55.316 46.159 55.265 46.117 55.192 46.035 55.046 45.866 54.46 44.921 54.257 44.206 54.069 43.554 53.975 42.995 53.975 42.54 53.975 42.49 53.978 42.438 53.981 42.389 53.981 42.389 54.006 42.038 54.025 41.732 54.117 42.015 54.212 42.279 54.307 42.513zm17.817 6.218V48.714C72.117 48.499 71.93 48.334 71.838 48.258 71.648 47.979 71.328 47.643 70.697 46.993L70.019 46.286C69.14 45.371 68.843 44.404 68.776 43.292L69.017 42.861C69.527 41.989 70.158 40.905 70.05 39.085 69.946 37.412 69.061 35.538 67.335 33.346 67.046 32.982 66.754 32.725 66.466 32.549 66.539 32.389 66.622 32.194 66.622 32.194 66.916 31.556 67.313 30.694 67.313 29.642 67.313 29.18 67.237 28.678 67.04 28.145 66.232 25.935 64.294 25.465 63.217 25.387 62.018 25.296 60.68 25.753 59.992 26.032 59.498 26.231 58.816 26.637 58.264 26.967L57.668 27.312 57.358 27.452C56.824 27.683 56.02 28.028 55.472 28.753 54.831 29.59 54.719 30.294 54.719 30.68 54.719 30.814 54.729 30.895 54.739 30.948 54.732 30.977 54.574 31.541 54.574 31.541L54.466 31.83C54.377 32.09 54.206 32.572 54.137 32.686 53.99 32.91 53.911 33.207 53.911 33.519 53.911 33.724 53.968 34.098 54.177 34.212 54.269 34.261 54.377 34.258 54.462 34.2 54.466 34.197 54.602 34.056 54.653 34.004L54.659 34.01 54.757 33.883C54.754 33.89 55.113 33.516 55.113 33.516 55.363 33.343 56.147 32.702 56.593 31.983 56.816 31.93 57.684 31.693 58.131 31.129L58.769 30.172 59.364 29.284C59.684 28.9 60.871 27.65 62.68 27.735 63.648 27.777 64.152 28.177 64.402 28.506 64.62 28.789 64.707 29.099 64.707 29.317 64.707 29.366 64.704 29.411 64.697 29.451 64.618 29.798 64.44 30.602 62.83 31.498 62.573 30.941 62.11 30.206 61.339 29.922 60.376 29.575 59.595 29.698 58.961 30.309 58.185 31.048 57.963 31.8 58.378 32.272 58.6 32.53 58.847 32.598 59.057 32.591 59.038 32.752 58.99 32.965 58.851 33.207 57.839 33.636 57.316 33.907 56.986 34.161L56.894 34.232C56.147 34.808 54.159 36.338 53.832 38.597 53.762 39.063 53.733 39.476 53.733 39.85 53.733 40.309 53.784 40.687 53.858 41.039 53.813 40.99 53.746 40.924 53.724 40.895 53.692 40.602 53.562 40.235 53.347 39.922 53.007 39.437 52.262 39.808 52.18 39.85L51.936 40.084 52.275 40.274C52.275 40.283 52.329 40.401 52.329 40.401L52.45 40.673C52.5 40.768 52.52 40.973 52.52 41.182 52.52 41.224 52.513 41.257 52.513 41.296 52.386 41.292 52.25 41.302 52.095 41.315L51.955 41.329C51.512 41.364 51.293 41.953 51.27 42.018L51.423 42.077C51.467 42.103 51.66 42.181 51.828 42.223 51.98 42.325 52.279 43.074 52.408 43.395L52.437 43.47C52.538 43.731 52.5 44.717 52.322 46.413L52.294 46.683C52.275 46.897 52.082 47.077 52.082 47.077L51.708 47.418 52.209 47.467C52.741 47.513 53.134 47.405 53.385 47.152 53.62 46.908 53.673 46.582 53.673 46.322 53.673 46.227 53.664 46.156 53.657 46.087 53.695 46.136 53.74 46.195 53.784 46.298 53.971 46.732 54.453 47.48 54.669 47.812 54.498 47.999 54.444 48.272 54.444 48.509 54.444 48.613 54.453 48.708 54.466 48.786L54.513 49.033 54.754 48.959C55.087 48.854 56.051 49.476 56.689 49.889 57.297 50.283 58.097 50.476 59.127 50.476 59.675 51.757 60.557 52.809 60.718 52.965 60.836 53.085 60.968 53.43 61.023 53.62L61.165 54.121S61.368 53.766 61.416 53.681C61.473 53.672 61.581 53.727 61.581 53.727 61.729 53.935 61.587 55.602 61.441 56.051 61.574 56.084 61.758 56.156 61.913 56.191 62.068 55.606 62.208 53.685 61.878 53.391L61.491 53.225C61.45 53.222 61.409 53.242 61.364 53.249 61.296 53.053 61.181 52.799 61.035 52.65 60.877 52.497 59.986 51.449 59.475 50.17L59.418 50.026 59.263 50.03C58.254 50.046 57.493 49.876 56.933 49.515 56.063 48.952 55.382 48.546 54.894 48.512 54.894 48.509 54.891 48.509 54.891 48.506 54.891 48.337 54.926 48.129 55.062 48.07L55.309 47.965 55.16 47.741C55.151 47.731 54.415 46.637 54.197 46.12 53.978 45.616 53.667 45.498 53.464 45.55 53.324 45.583 53.197 45.713 53.197 45.921V45.97L53.207 46.042C53.213 46.113 53.224 46.211 53.224 46.322 53.224 46.504 53.194 46.706 53.065 46.838 52.976 46.93 52.833 46.976 52.665 47.003 52.7 46.917 52.728 46.823 52.738 46.719L52.767 46.459C52.856 45.609 52.938 44.72 52.938 44.085 52.938 43.733 52.913 43.46 52.852 43.304L52.824 43.229C52.44 42.275 52.237 41.866 51.974 41.8 51.971 41.796 51.964 41.796 51.961 41.796 51.971 41.793 51.98 41.774 51.989 41.774L52.139 41.761C52.281 41.745 52.523 41.725 52.583 41.751L52.9 41.986 52.944 41.602C52.951 41.543 52.966 41.378 52.966 41.182 52.966 40.937 52.941 40.644 52.843 40.459L52.747 40.245C52.735 40.212 52.709 40.179 52.697 40.146 52.817 40.121 52.935 40.114 52.98 40.175 53.189 40.482 53.299 40.827 53.299 41.005V41.081L53.344 41.14C53.448 41.283 53.53 41.357 53.603 41.414 53.588 41.628 53.533 42.367 53.533 42.367 53.53 42.421 53.53 42.48 53.53 42.54 53.53 43.034 53.629 43.636 53.826 44.33 54.041 45.078 54.656 46.1 54.856 46.332 55.053 46.552 55.227 46.664 55.395 46.667L55.667 46.556 55.817 46.153 55.811 45.785V45.768L55.823 45.846 55.699 45.108 55.55 44.297 55.538 44.258 54.891 42.783 54.723 42.347C54.403 41.543 54 40.541 54.276 38.662 54.577 36.582 56.457 35.133 57.167 34.587L57.263 34.515C57.554 34.288 58.065 34.027 59.025 33.617l2.112-.869L61.834 32.464 62.849 31.996C64.598 31.082 64.988 30.206 65.131 29.544 65.195 29.252 65.137 28.731 64.757 28.236 64.446 27.833 63.841 27.341 62.699 27.289 60.74 27.198 59.475 28.455 59.022 28.998L58.388 29.938 57.779 30.85C57.376 31.358 56.422 31.566 56.412 31.569L56.317 31.588 56.267 31.677C55.864 32.37 55.053 33.014 54.859 33.148L54.412 33.6S54.389 33.626 54.374 33.649C54.367 33.607 54.358 33.568 54.358 33.519 54.358 33.295 54.415 33.08 54.513 32.927 54.602 32.781 54.732 32.425 54.888 31.98L54.989 31.7 55.195 30.983 55.186 30.902C55.183 30.892 55.163 30.811 55.163 30.674 55.163 30.369 55.256 29.769 55.826 29.02 56.304 28.392 57.044 28.074 57.535 27.866L57.874 27.708 58.495 27.35C59 27.047 59.697 26.634 60.16 26.446 60.813 26.182 62.075 25.753 63.182 25.833 64.155 25.906 65.896 26.323 66.622 28.301 67.198 29.877 66.631 31.107 66.215 32.008L66.066 32.35C65.359 32.08 64.707 32.233 64.253 32.338 63.552 32.5 62.712 32.872 62.208 33.236 61.517 33.737 61.361 34.545 61.361 35.17 61.361 35.57 61.425 35.892 61.453 36.019 61.551 36.453 61.884 36.715 62.129 36.862 62.053 36.963 61.968 37.074 61.884 37.24 61.806 37.403 61.771 37.542 61.749 37.67 61.177 37.448 60.291 37.403 59.469 37.374L58.94 37.35S58.774 37.321 58.743 37.54C58.714 37.77 58.914 37.796 58.914 37.796L59.45 37.82C60.246 37.849 61.447 37.89 61.815 38.187L62.262 38.542 62.177 37.978C62.177 37.975 62.142 37.728 62.284 37.438 62.443 37.129 62.62 36.966 62.62 36.966L62.893 36.722 62.554 36.588C62.547 36.585 61.989 36.364 61.888 35.918 61.853 35.751 61.546 34.271 62.472 33.597 62.924 33.268 63.717 32.923 64.355 32.774 65.052 32.611 66.009 32.389 66.983 33.624 68.649 35.74 69.505 37.536 69.603 39.111 69.609 39.246 69.613 39.375 69.613 39.499 69.613 40.951 69.093 41.842 68.63 42.637L68.306 43.216C67.866 44.076 66.428 47.484 65.62 51.767L65.594 51.888C65.525 52.259 65.461 52.604 65.398 52.77 64.738 52.132 60.44 47.389 59.98 45.43L59.963 45.355 59.906 45.309C59.827 45.245 58.28 43.913 58.28 41.621 58.28 41.205 58.331 40.759 58.448 40.28 58.448 40.28 58.498 40.088 58.286 40.042 58.077 39.994 58.017 40.172 58.017 40.172 57.89 40.677 57.836 41.153 57.836 41.595c0 2.341 1.487 3.788 1.734 4.01C59.928 46.954 61.685 49.225 63.147 50.941L63.127 51.006C63.01 51.485 63.02 51.781 63.029 52.018L63.033 52.187C63.033 52.477 62.842 53.053 62.773 53.269L62.747 53.343 62.709 53.463C62.677 53.545 62.669 53.695 62.669 53.88 62.669 54.609 62.83 55.846 62.912 56.1 63.045 56.542 63.521 56.885 63.527 56.901 63.736 56.959 63.625 56.605 63.794 56.657 63.711 56.54 63.524 56.305 63.429 56.026 63.331 55.749 63.115 54.401 63.115 53.844 63.115 53.727 63.115 53.642 63.13 53.603 63.13 53.6 63.193 53.412 63.193 53.412 63.337 52.982 63.48 52.506 63.48 52.187L63.476 52.004C63.473 51.94 63.469 51.879 63.469 51.81 63.469 51.689 63.486 51.54 63.514 51.371 64.421 52.409 65.144 53.158 65.22 53.209 65.366 53.307 65.49 53.288 65.566 53.255 65.81 53.151 65.876 52.813 66.031 52.001 66.561 52.018 67.167 52.008 67.47 52.004 67.545 52.46 67.777 53.62 68.23 54.164 68.671 54.687 69.264 54.866 69.908 54.665 70.482 54.485 71.026 53.571 71.026 52.571 71.026 52.416 71.014 52.259 70.985 52.1 70.833 51.263 70.224 50.185 69.635 49.381 70.687 49.397 71.766 49.212 72 49.004 72.08 48.932 72.124 48.834 72.124 48.731z" style="fill:#fff;fill-rule:nonzero"/></g><g transform="matrix(4.16667,0,0,4.16667,0,0)"><path d="M42.396 35.697 41.947 35.514V36.094L42.396 35.905 42.251 36.192C42.136 36.247 42.005 36.277 41.913 36.283 41.607 36.312 41.553 36.224 41.527 36.182 41.446 36.048 41.598 35.797 41.801 35.846 41.801 35.846 41.74 35.499 41.398 35.729 41.398 35.729 41.391 35.329 41.139 35.274 40.974 35.469 41.155 35.811 41.155 35.811 40.735 35.811 40.902 36.149 40.902 36.149 41.036 35.99 41.318 36.084 41.312 36.263 41.307 36.368 41 36.478 40.77 36.39 40.535 36.302 40.343 35.743 40.399 35.655 40.811 35.006 41.738 34.713 41.866 34.668 41.997 34.62 42.076 34.668 42.102 34.73 42.123 34.786 42.247 35.088 42.343 35.299H42.187L42.396 35.697zM42.64 35.687 42.839 35.299H42.685C42.78 35.088 42.903 34.786 42.926 34.73 42.951 34.668 43.03 34.62 43.16 34.668 43.287 34.713 44.215 35.006 44.628 35.655 44.686 35.743 44.488 36.302 44.257 36.39 44.026 36.478 43.722 36.368 43.715 36.263 43.709 36.084 43.991 35.99 44.124 36.149 44.124 36.149 44.292 35.811 43.871 35.811 43.871 35.811 44.055 35.563 43.886 35.365 43.636 35.423 43.629 35.729 43.629 35.729 43.287 35.499 43.224 35.846 43.224 35.846 43.426 35.797 43.579 36.048 43.5 36.182 43.471 36.224 43.42 36.312 43.112 36.283 43.024 36.277 42.894 36.247 42.783 36.192L42.64 35.915 43.078 36.094V35.514L42.64 35.687zM39.774 35.447C39.734 35.492 39.693 35.622 39.757 35.694 39.82 35.765 39.861 35.785 39.926 35.846 39.99 35.912 40.18 37.022 40.221 37.136 40.262 37.25 40.269 37.409 40.269 37.409S40.247 37.617 40.326 37.699C40.391 37.763 40.518 37.754 40.543 37.793 40.567 37.835 40.559 37.89 40.736 37.852 40.914 37.809 41.632 37.536 42.513 37.536 43.398 37.54 44.114 37.809 44.289 37.852 44.466 37.89 44.46 37.835 44.482 37.793 44.508 37.754 44.635 37.763 44.701 37.699 44.78 37.617 44.755 37.409 44.755 37.409S44.764 37.25 44.802 37.136C44.844 37.022 45.037 35.912 45.1 35.846 45.167 35.785 45.205 35.765 45.269 35.694 45.336 35.622 45.294 35.492 45.252 35.447 44.416 34.444 43.382 34.115 42.694 34.04L42.589 33.809 42.859 33.933V33.536L42.589 33.656 42.713 33.389H42.314L42.443 33.659 42.169 33.536V33.933L42.443 33.805 42.339 34.024C41.654 34.056 40.611 34.441 39.774 35.447zm5.399 18.872C45.674 53.847 45.68 53.548 45.68 53.548 45.503 53.369 44.847 53.269 44.847 53.269 45.03 53.614 44.603 53.876 44.603 53.876 45.145 53.903 45.173 54.319 45.173 54.319zM39.672 53.508C39.711 53.756 40.184 54.228 40.184 54.228 40.237 53.837 40.736 53.876 40.736 53.876 40.313 53.535 40.533 53.183 40.533 53.183 39.857 53.269 39.672 53.508 39.672 53.508zm2.997-1.038C42.862 51.965 43.267 52.064 43.267 52.064 42.976 51.446 42.691 51.347 42.691 51.347 42.466 51.459 42.165 52.053 42.165 52.053 42.551 51.986 42.669 52.47 42.669 52.47zm-1.915 3.659C40.627 56.799 40.797 57.047 40.797 57.047 41.046 57.087 41.639 56.784 41.639 56.784 41.286 56.611 41.475 56.149 41.475 56.149 41.02 56.445 40.754 56.129 40.754 56.129zm10.449-15.67C51.324 40.417 51.46 40.287 51.479 40.235 51.498 40.179 51.512 39.997 51.463 39.876 51.152 39.115 50.145 39.105 50.145 39.105 50.015 38.896 49.749 39.007 49.749 39.007 48.946 38.213 47.973 38.031 47.973 38.031 47.719 37.703 47.396 37.884 47.396 37.884 46.698 37.579 45.982 37.259 45.278 36.94 45.25 37.071 45.212 37.247 45.212 37.247 45.202 37.298 45.189 37.334 45.177 37.379 45.18 37.412 45.184 37.481 45.184 37.481 45.184 37.608 45.157 37.774 45.062 37.917 45.709 38.2 46.362 38.49 46.996 38.776 46.996 38.776 47.082 39.134 47.498 39.105 47.498 39.105 48.284 39.708 49.409 39.766 49.409 39.766 49.505 40.042 49.749 40.001 49.749 40.001 50.43 40.743 51.203 40.459zM67.198 58.546C66.771 58.167 66.02 57.792 65.588 57.311 65.426 57.129 64.833 56.917 64.117 56.703 64.098 56.696 64.079 56.682 64.066 56.677 63.892 56.608 63.552 56.509 63.172 56.407 63.368 56.921 64.212 57.624 64.63 57.926 64.916 58.134 64.839 58.339 64.786 58.444 64.786 58.444 64.424 58.108 63.983 58.134 63.543 58.158 63.106 58.004 62.481 58.366 61.863 58.727 61.517 58.906 61.396 59.348 61.317 59.635 61.267 59.84 61.267 59.84S60.826 59.323 60.8 58.988C60.8 58.988 59.868 58.392 59.351 58.339 58.835 58.291 58.214 58.47 58.16 58.754 58.16 58.754 58.097 58.2 58.448 57.848 58.6 57.692 58.86 57.487 58.86 57.487S58.575 57.253 58.395 57.434C58.395 57.434 58.448 56.891 58.702 56.865 58.961 56.838 60.103 56.838 60.515 56.838 60.931 56.838 61.733 56.682 61.913 56.191 61.923 56.162 61.936 56.129 61.942 56.087 61.745 56.039 61.571 55.993 61.453 55.96 61.203 55.885 60.997 55.814 60.867 55.753 60.062 55.378 58.613 55.322 57.804 55.27L57.573 55.202 57.56 53.477 57.338 53.454C56.292 53.346 54.866 53.483 53.943 54.144L53.893 54.129H53.889C53.185 53.929 52.408 53.796 51.257 53.5 51.229 53.49 50.94 53.398 50.747 53.339c1.139-1.477 2.014-3.3 2.29-5.517L52.592 47.829C51.695 54.726 44.787 57.656 42.761 58.105 40.681 57.643 33.479 54.589 32.836 47.366H32.401C32.618 49.886 33.598 51.921 34.895 53.526 33.889 53.672 32.536 53.971 32.04 54.088 31.851 54.133 31.694 54.189 31.543 54.245 31.522 54.251 31.493 54.261 31.471 54.267 30.655 53.412 29.033 53.134 27.83 53.314L27.617 53.343 27.607 55.439C26.739 55.472 25.91 55.452 25.543 55.482 25.2 55.511 24.63 55.754 24.098 55.99 24.318 56.114 24.651 56.188 24.935 56.188 24.935 56.188 26.782 56.217 26.784 56.217 27.185 56.256 27.369 56.7 27.406 57.103 27.406 57.103 27.433 57.382 27.458 57.65 27.583 57.913 27.647 58.18 27.647 58.342 27.647 58.421 27.64 58.476 27.64 58.493L27.435 59.094 26.964 58.558C26.899 58.476 26.528 58.349 26.135 58.388 25.848 58.417 25.297 58.708 24.946 58.918 24.831 59.296 24.525 59.683 24.453 59.768L24.016 60.276 23.721 59.143C23.647 58.876 23.453 58.754 22.898 58.43L22.793 58.369C22.419 58.151 22.143 58.164 21.826 58.18 21.826 58.18 21.449 58.183 21.447 58.183 21.214 58.167 20.976 58.337 20.904 58.401L20.56 58.713 20.352 58.301C20.176 57.949 20.276 57.591 20.615 57.343 20.798 57.211 20.984 57.061 21.16 56.904 21.118 56.914 21.075 56.923 21.035 56.934 20.5 57.041 19.211 57.845 18.459 58.116 17.707 58.382 16.579 58.975 16.633 59.348 16.687 59.723 17.505 61.084 18.472 61.351 18.592 61.383 18.699 61.409 18.802 61.432v-.814h5.214C26.849 60.046 29.926 59.001 30.195 57.611 30.195 57.611 29.22 57.089 28.114 57.187V55.374C28.111 55.374 28.109 55.374 28.105 55.378 28.109 55.019 28.113 54.082 28.117 53.792 29.053 53.701 30.232 53.893 30.921 54.443 30.935 54.457 30.947 54.465 30.96 54.479 31.043 54.576 31.366 54.98 31.366 55.238v5.071S31.311 60.442 31.187 60.618h3.465V60.612h19.11L53.75 60.588 53.844 60.618H53.993C53.87 60.442 53.816 60.309 53.816 60.309V55.238C53.816 55.082 53.933 54.874 54.045 54.71 54.726 54.082 55.988 53.871 57.066 53.942 57.066 54.14 57.068 54.645 57.068 55.055L57.066 55.052v2.135C55.96 57.089 54.983 57.611 54.983 57.611 55.252 59.001 58.331 60.046 61.162 60.618h5.171v1.214C66.469 61.754 66.589 61.676 66.685 61.588V61.591C67.341 61.25 67.885 60.351 68.012 59.945 68.173 59.434 67.631 58.918 67.198 58.546zM45.576 35.172 45.608 35.26C48.16 33.992 50.389 32.881 50.591 32.784 51.08 32.552 51.371 32.012 51.371 32.012S50.769 31.898 50.281 32.132C50.071 32.23 47.643 33.327 44.929 34.551 45.157 34.737 45.379 34.935 45.576 35.172zM36.122 33.249C35.957 33.226 35.859 32.929 36.045 32.803 36.045 32.803 35.702 32.591 35.657 33.041 35.657 33.041 35.409 32.823 35.183 32.982 35.217 33.255 35.546 33.291 35.546 33.291 35.242 33.626 35.63 33.737 35.63 33.737 35.6 33.516 35.881 33.392 36.011 33.5 36.139 33.604 36.048 33.897 35.893 34.049 35.711 34.226 35.436 34.261 35.234 34.171 34.866 34.007 34.764 33.441 35.001 32.907 35.237 32.37 35.729 32.071 36.097 32.233 36.289 32.321 36.438 32.559 36.446 32.794 36.46 33.014 36.287 33.272 36.122 33.249zm2.434.488C38.493 33.473 38.255 33.629 38.255 33.629 37.938 33.194 37.358 33.045 37.358 33.045 37.301 32.946 37.149 32.845 37.016 32.77 36.955 32.321 36.708 31.934 36.313 31.758 35.722 31.495 35.004 31.788 34.6 32.416 34.561 32.364 34.506 32.321 34.438 32.289 34.244 32.201 34.027 32.269 33.951 32.438 33.878 32.608 33.972 32.816 34.166 32.901 34.232 32.933 34.304 32.943 34.37 32.936 34.172 33.656 34.435 34.388 35.026 34.649 35.423 34.828 35.874 34.75 36.252 34.493 36.395 34.542 36.573 34.587 36.683 34.564 36.683 34.564 37.182 34.896 37.718 34.837 37.718 34.837 37.757 35.121 38 34.991 38 34.991 38.352 35.447 38.884 35.303 38.884 35.303 39.052 35.372 39.336 35.488 39.381 35.362 39.446 35.176 39.447 35.172 39.66 34.92 39.882 34.707 40.098 34.528 39.645 34.313 39.381 34.183 39.381 34.183 39.13 33.692 38.556 33.737 38.556 33.737zm-3.957 6.664C34.734 40.338 34.835 40.238 34.886 40.13 35.006 40.15 35.166 40.15 35.339 40.114 35.535 40.075 36.946 39.457 37.62 39.164 37.622 39.167 37.625 39.171 37.629 39.177 37.921 39.609 38.366 40.17 38.747 40.381 39.304 40.697 39.547 40.599 39.659 40.407 39.768 40.218 39.603 39.889 39.16 39.668 38.886 39.532 38.555 39.232 38.297 38.932 38.297 38.929 38.295 38.929 38.294 38.925 38.653 38.747 39.334 38.412 40.09 38.038 40.065 38.021 40.04 38.008 40.026 37.995 39.99 37.969 39.983 37.943 39.972 37.901 39.878 37.754 39.844 37.591 39.844 37.494 39.844 37.494 39.844 37.464 39.847 37.435 39.84 37.4 39.816 37.253 39.816 37.253S39.782 37.1 39.739 36.901C38.905 37.279 38.154 37.621 37.764 37.796 37.764 37.793 37.762 37.793 37.762 37.793 37.692 37.403 37.667 36.959 37.732 36.664 37.84 36.178 37.69 35.843 37.474 35.808 37.259 35.772 37.022 35.899 36.916 36.53 36.844 36.959 37 37.653 37.149 38.158 37.152 38.158 37.152 38.161 37.153 38.165 36.501 38.5 35.127 39.209 34.968 39.339 34.835 39.45 34.733 39.574 34.672 39.681 34.555 39.652 34.416 39.666 34.281 39.73 34.025 39.85 33.893 40.098 33.978 40.283 34.067 40.468 34.344 40.524 34.599 40.401zM43.112 55.124C42.771 55.372 42.291 55.29 42.05 54.948 41.804 54.606 41.886 54.129 42.228 53.883 42.57 53.639 43.046 53.72 43.294 54.062 43.535 54.404 43.458 54.882 43.112 55.124zM44.853 54.267C44.724 54.079 44.207 54.261 44.064 54.345L43.769 54.388 43.592 54.215C43.56 54.137 43.563 54.053 43.61 53.981 43.661 53.893 43.765 53.834 43.889 53.825 44.051 53.811 44.583 53.662 44.583 53.434 44.583 53.239 44.378 52.875 44.045 52.633 43.706 52.389 43.302 52.295 43.122 52.353 42.9 52.421 42.916 52.965 42.951 53.129 42.976 53.251 42.951 53.372 42.881 53.454 42.824 53.515 42.748 53.545 42.663 53.539L42.443 53.417 42.402 53.131C42.437 52.975 42.46 52.421 42.24 52.353 42.057 52.292 41.65 52.376 41.318 52.617 40.979 52.865 40.766 53.219 40.764 53.408 40.762 53.639 41.29 53.796 41.451 53.811L41.712 53.952 41.755 54.192C41.735 54.277 41.683 54.339 41.607 54.375 41.51 54.414 41.391 54.401 41.284 54.337 41.142 54.248 40.63 54.056 40.492 54.245 40.378 54.401 40.332 54.814 40.459 55.205 40.589 55.606 40.859 55.917 41.041 55.976 41.26 56.051 41.569 55.602 41.637 55.449 41.687 55.332 41.779 55.251 41.886 55.227 41.967 55.209 42.047 55.231 42.107 55.29 42.109 55.29 42.215 55.514 42.215 55.514S42.082 55.768 42.08 55.768C41.979 55.859 41.721 56.174 41.721 56.386 41.721 56.425 41.73 56.465 41.753 56.494 41.866 56.653 42.247 56.823 42.656 56.823H42.659C43.075 56.823 43.455 56.66 43.569 56.509 43.592 56.478 43.601 56.442 43.601 56.399 43.601 56.191 43.351 55.869 43.252 55.781L43.119 55.511 43.227 55.292C43.294 55.234 43.373 55.214 43.455 55.234 43.557 55.257 43.646 55.337 43.692 55.452 43.756 55.609 44.057 56.064 44.279 55.993 44.466 55.93 44.746 55.625 44.873 55.231 45.002 54.834 44.964 54.423 44.853 54.267zM44.65 49.443V48.447h.631C45.554 48.808 45.741 49.171 45.855 49.443H44.65zm0-1.65C44.752 47.878 44.847 47.962 44.936 48.05H44.65V47.793zM44.254 48.05H42.998V47.08C43.486 47.152 43.902 47.311 44.254 47.519V48.05zm0 1.393H42.998V48.447h1.256V49.443zM42.599 48.05H41.344V47.598C41.689 47.37 42.107 47.194 42.599 47.106V48.05zm0 1.393H41.346V48.447h1.253V49.443zM40.947 48.05H40.783C40.833 47.999 40.888 47.949 40.947 47.901V48.05zm0 1.393H39.858C39.971 49.173 40.156 48.808 40.437 48.447H40.947V49.443zm9.644 2.256V49.938C50.591 49.892 50.617 49.811 50.769 49.786 50.772 49.782 50.775 49.772 50.775 49.762 50.775 49.727 50.763 49.671 50.737 49.619 50.506 49.179 50.319 48.532 50.309 48.483 50.309 48.483 50.104 44.645 50.104 44.642 50.104 44.293 50.433 43.832 50.497 43.744V42.643C50.497 42.621 50.44 42.582 50.421 42.572H50.094C50.037 42.572 50.018 42.607 50.018 42.591V42.686L49.964 42.712 49.812 42.686 49.761 42.667S49.757 42.555 49.717 42.549L49.339 42.572V43.043H48.797V42.94L48.807 42.549 48.379 42.555 48.373 42.667 48.324 42.686 48.172 42.712 48.115 42.686 48.122 42.621C48.115 42.607 48.1 42.572 48.04 42.572L47.744 42.568C47.694 42.582 47.637 42.621 47.637 42.643v1.105C47.672 43.802 47.947 44.245 47.947 44.245L47.484 44.249S47.329 44.249 47.319 44.274V44.75h-.814V44.648L46.499 44.261H45.83S45.763 44.271 45.763 44.258V44.75L44.955 44.754V42.878C44.961 42.579 45.221 41.934 45.224 41.947V40.782C45.224 40.625 45.068 40.58 45.075 40.577H44.365C44.254 40.577 44.232 40.648 44.232 40.684V41.061h-.25V40.556C43.982 40.489 43.921 40.472 43.893 40.468L43.267 40.504V41.058h-.82V40.954L42.412 40.468H41.829C41.8 40.472 41.733 40.485 41.733 40.556V41.061h-.247V40.687C41.484 40.648 41.461 40.577 41.349 40.577L40.664 40.573C40.647 40.58 40.491 40.625 40.491 40.782L40.483 41.908C40.495 41.934 40.754 42.579 40.762 42.878V44.75H39.952V44.648L39.958 44.274 39.882 44.261 39.21 44.281V44.75H38.395V44.648L38.382 44.249 37.951 44.245 37.761 44.251S38.043 43.802 38.076 43.748V42.643C38.076 42.621 38.018 42.582 37.999 42.572H37.672C37.615 42.572 37.596 42.607 37.596 42.591V42.686L37.542 42.712 37.388 42.686 37.339 42.667S37.337 42.555 37.295 42.549L36.916 42.572V43.043H36.376V42.94L36.382 42.549 35.957 42.555 35.952 42.663 35.904 42.686 35.752 42.712 35.697 42.686 35.704 42.621C35.697 42.607 35.678 42.572 35.62 42.572L35.323 42.568C35.275 42.582 35.217 42.621 35.217 42.643v1.101C35.279 43.832 35.608 44.29 35.608 44.642V44.648S35.405 48.483 35.402 48.506C35.393 48.532 35.207 49.183 34.976 49.619 34.946 49.687 34.933 49.769 34.931 49.786 35.098 49.811 35.12 49.892 35.12 49.938v1.761h3.052V51.178h1.521C39.693 51.003 39.711 49.867 39.711 49.867S39.714 49.853 39.717 49.84h1.23V50.189H40.746L41.144 50.872 41.54 50.189H41.344V49.84h1.255V50.189H42.399L42.799 50.872 43.192 50.189H42.998V49.84h1.256V50.189H44.055L44.451 50.872 44.847 50.189H44.65V49.84h1.345C46.004 49.867 46.006 49.886 46.006 49.889 46.006 49.889 46.02 51.003 46.024 51.178h1.518V51.699h3.049zM32.374 39.349 32.81 39.345V38.529C32.81 34.668 32.794 31.885 32.79 31.127h19.9C52.687 31.885 52.672 34.668 52.672 38.529V39.408L53.106 39.394C53.103 34.373 53.128 30.958 53.128 30.909L53.131 30.687H32.354V30.909C32.354 30.958 32.376 34.32 32.374 39.349zM43.62 56.829C44.222 57.158 44.511 57.07 44.511 57.07 44.625 56.849 44.52 56.191 44.52 56.191 44.244 56.474 43.864 56.149 43.864 56.149 44.006 56.673 43.62 56.829 43.62 56.829z" style="fill:#fff;fill-rule:nonzero"/></g><g transform="matrix(4.16667,0,0,4.16667,0,0)"><path d="M42.516 77.71c-18.905.0-34.232-15.324-34.232-34.23.0-18.905 15.327-34.23 34.232-34.23 18.905.0 34.233 15.325 34.233 34.23.0 18.906-15.328 34.23-34.233 34.23zm0-76.749C19.034.961.0 19.998.0 43.48.0 66.963 19.034 86 42.516 86c23.481.0 42.521-19.037 42.521-42.52C85.037 19.998 65.997.961 42.516.961z" style="fill:#fff;fill-rule:nonzero"/></g><g transform="matrix(4.16667,0,0,4.16667,0,0)"><path d="M106.234 38.246h3.947l-1.426-7.22C108.67 30.604 108.585 30.018 108.458 29.388 108.335 28.296 108.292 27.75 108.25 26.323 108.165 27.75 108.123 28.338 107.995 29.388 107.872 29.974 107.787 30.563 107.703 31.026L106.234 38.246zM102.875 21.413h10.664L121.219 51.674H112.658l-1.596-7.721h-5.667L103.8 51.674H95.238l7.637-30.261z" style="fill:#fff;fill-rule:nonzero"/></g><g transform="matrix(4.16667,0,0,4.16667,0,0)"><path d="M140.788 27.624C139.4 27.164 138.395 26.996 137.305 26.996 133.19 26.996 131.387 29.974 131.387 36.774c0 6.507 1.845 9.404 6.00200000000001 9.404C138.734 46.178 140.117 45.884 141.713 45.126L142.426 50.921c-2.559.881-4.785 1.3-7.05099999999999 1.3-8.102.0-12.676-5.624-12.676-15.53C122.699 26.826 127.358 20.952 135.29 20.952 137.474 20.952 139.612 21.329 141.797 22.127L140.788 27.624z" style="fill:#fff;fill-rule:nonzero"/></g><g transform="matrix(4.16667,0,0,4.16667,0,0)"><path d="M145.244 21.413h21.491v5.751L160.189 27.708V51.674H151.709V27.708l-6.465-.587V21.413z" style="fill:#fff;fill-rule:nonzero"/></g><g transform="matrix(4.16667,0,0,4.16667,0,0)"><path d="M101.627 56.748C100.859 56.224 100.184 55.983 99.462 55.983 98.618 55.983 97.868 56.418 97.491 57.171 97.103 57.921 96.934 58.913 96.934 60.537 96.934 62.025 97.086 62.834 97.448 63.603 97.82 64.368 98.544 64.775 99.519 64.775 100.094 64.775 100.57 64.656 101.146 64.368V60.957H98.843V59.86H102.648v5.351C101.177 65.797 100.376 65.992 99.385 65.992 96.634 65.992 95.238 64.174 95.238 60.566 95.238 56.777 96.634 54.811 99.311 54.811 100.333 54.811 101.192 55.111 102.138 55.742L101.627 56.748z" style="fill:#fff;fill-rule:nonzero"/></g><g transform="matrix(4.16667,0,0,4.16667,0,0)"><path d="M105.513 62.041C105.513 63.948 106.112 64.943 107.27 64.943c1.14.0 1.742-1.009 1.742-2.902.0-1.88-.602000000000004-2.875-1.742-2.875C106.112 59.166 105.513 60.161 105.513 62.041zM107.27 58.089C109.419 58.089 110.531 59.44 110.531 62.041 110.531 64.656 109.419 66.008 107.27 66.008c-2.152.0-3.264-1.35199999999999-3.264-3.967C104.006 59.44 105.118 58.089 107.27 58.089z" style="fill:#fff;fill-rule:nonzero"/></g><g transform="matrix(4.16667,0,0,4.16667,0,0)"><path d="M112.42 58.089l1.669 5.635C114.164 63.948 114.221 64.25 114.282 64.67 114.341 64.25 114.435 63.859 114.477 63.724L116.103 58.266H117.561l-2.42 7.549H113.32L110.915 58.281l1.505-.192z" style="fill:#fff;fill-rule:nonzero"/></g><g transform="matrix(4.16667,0,0,4.16667,0,0)"><path d="M119.405 61.542h3.392V61.513c0-1.531-.585999999999999-2.347-1.648-2.347-1.099.0-1.718.860000000000007-1.744 2.376zM119.523 62.519C119.643 64.023 120.515 64.85 121.928 64.85 122.439 64.85 122.967 64.746 123.673 64.476L123.942 65.556C123.146 65.827 122.364 65.976 121.614 65.976 119.269 65.976 117.943 64.489 117.943 61.936c0-2.391 1.202-3.847 3.22-3.847C123.115 58.089 124.197 59.44 124.197 61.859 124.197 62.008 124.197 62.22 124.185 62.519H119.523z" style="fill:#fff;fill-rule:nonzero"/></g><g transform="matrix(4.16667,0,0,4.16667,0,0)"><path d="M125.505 58.281 126.933 58.222V58.823C127.564 58.327 128.028 58.147 128.81 58.147L128.647 59.515C128.435 59.469 128.328 59.469 128.162 59.469 127.683 59.469 127.322 59.577 126.933 59.86v5.955H125.505V58.281z" style="fill:#fff;fill-rule:nonzero"/></g><g transform="matrix(4.16667,0,0,4.16667,0,0)"><path d="M129.714 58.281l1.399-.192V58.793C131.911 58.281 132.587 58.057 133.308 58.057 134.014 58.057 134.646 58.281 135.065 58.686 135.501 59.11 135.651 59.577 135.651 60.566v5.249H134.238V60.882C134.238 60.595 134.226 60.359 134.177 60.192 134.071 59.619 133.549 59.243 132.843 59.243 132.299 59.243 131.741 59.455 131.129 59.892v5.923H129.714V58.281z" style="fill:#fff;fill-rule:nonzero"/></g><g transform="matrix(4.16667,0,0,4.16667,0,0)"><path d="M137.305 58.281 138.719 58.118V58.686C139.411 58.251 140.008 58.057 140.64 58.057 141.273 58.057 141.859 58.251 142.248 58.628 142.354 58.732 142.428 58.793 142.553 58.991 143.333 58.385 144.085 58.089 144.867 58.089 145.557 58.089 146.16 58.327 146.564 58.747 146.983 59.2 147.12 59.619 147.12 60.628v5.187H145.707V60.944C145.707 60.628 145.692 60.404 145.663 60.22 145.557 59.648 145.031 59.243 144.382 59.243 143.874 59.243 143.423 59.455 142.895 59.917v5.898h-1.41V60.973C141.485 60.581 141.485 60.387 141.467 60.236 141.377 59.667 140.838 59.243 140.146 59.243 139.633 59.243 139.213 59.408 138.719 59.815v6H137.305V58.281z" style="fill:#fff;fill-rule:nonzero"/></g><g transform="matrix(4.16667,0,0,4.16667,0,0)"><path d="M149.934 61.542H153.334V61.513C153.334 59.982 152.747 59.166 151.682 59.166 150.583 59.166 149.968 60.026 149.934 61.542zM150.056 62.519C150.176 64.023 151.046 64.85 152.462 64.85 152.973 64.85 153.498 64.746 154.206 64.476L154.477 65.556C153.678 65.827 152.898 65.976 152.145 65.976 149.802 65.976 148.481 64.489 148.481 61.936c0-2.391 1.20000000000002-3.847 3.215-3.847C153.649 58.089 154.73 59.44 154.73 61.859 154.73 62.008 154.73 62.22 154.717 62.519h-4.661z" style="fill:#fff;fill-rule:nonzero"/></g><g transform="matrix(4.16667,0,0,4.16667,0,0)"><path d="M156.039 58.281 157.435 58.089V58.793C158.232 58.281 158.909 58.057 159.629 58.057 160.337 58.057 160.969 58.281 161.389 58.686 161.826 59.11 161.976 59.577 161.976 60.566v5.249H160.563V60.882C160.563 60.595 160.546 60.359 160.501 60.192 160.395 59.619 159.87 59.243 159.164 59.243 158.619 59.243 158.069 59.455 157.45 59.892v5.923h-1.411V58.281z" style="fill:#fff;fill-rule:nonzero"/></g><g transform="matrix(4.16667,0,0,4.16667,0,0)"><path d="M162.904 58.266H163.833V57.019L165.248 56.796v1.47H166.735V59.215L165.26 59.348v4.511C165.26 64.145 165.26 64.281 165.276 64.386 165.305 64.701 165.563 64.898 165.954 64.898 166.192 64.898 166.418 64.85 166.735 64.746V65.768C166.343 65.905 165.94 65.976 165.502 65.976 164.915 65.976 164.449 65.815 164.163 65.543 163.923 65.289 163.833 64.924 163.833 64.281V59.318L162.904 59.228V58.266z" style="fill:#fff;fill-rule:nonzero"/></g><g transform="matrix(4.16667,0,0,4.16667,0,0)"><path d="M20.181 62.128V62.523H20.818V62.8H20.181V63.345H19.863V61.849h1.04V62.128H20.181z" style="fill:#fff;fill-rule:nonzero"/></g><g transform="matrix(4.16667,0,0,4.16667,0,0)"><path d="M21.992 63.015C22.058 62.975 22.109 62.917 22.147 62.845 22.184 62.773 22.203 62.69 22.203 62.597 22.203 62.504 22.184 62.422 22.147 62.349 22.109 62.277 22.058 62.22 21.992 62.18 21.927 62.138 21.854 62.119 21.772 62.119 21.691 62.119 21.617 62.138 21.552 62.18 21.486 62.22 21.435 62.277 21.398 62.349 21.36 62.422 21.342 62.504 21.342 62.597 21.342 62.69 21.36 62.773 21.398 62.845 21.435 62.917 21.486 62.975 21.552 63.015 21.617 63.056 21.691 63.077 21.772 63.077 21.854 63.077 21.927 63.056 21.992 63.015zM21.386 63.271C21.271 63.204 21.181 63.112 21.116 62.995 21.052 62.876 21.019 62.745 21.019 62.597 21.019 62.451 21.052 62.319 21.116 62.201 21.181 62.084 21.271 61.991 21.386 61.924 21.501 61.858 21.629 61.824 21.772 61.824 21.915 61.824 22.044 61.858 22.157 61.924 22.272 61.991 22.361 62.084 22.427 62.201 22.492 62.319 22.525 62.451 22.525 62.597 22.525 62.745 22.492 62.876 22.427 62.995 22.361 63.112 22.272 63.204 22.157 63.271 22.044 63.337 21.915 63.371 21.772 63.371 21.629 63.371 21.501 63.337 21.386 63.271z" style="fill:#fff;fill-rule:nonzero"/></g><g transform="matrix(4.16667,0,0,4.16667,0,0)"><path d="M23.561 62.199C23.512 62.154 23.439 62.131 23.343 62.131h-.259V62.653h.259C23.439 62.653 23.512 62.63 23.561 62.584 23.611 62.539 23.636 62.474 23.636 62.392 23.636 62.308 23.611 62.244 23.561 62.199zM23.642 63.345 23.377 62.928H23.084V63.345H22.765V61.849h.596C23.483 61.849 23.588 61.872 23.678 61.916 23.768 61.959 23.837 62.022 23.886 62.103 23.935 62.185 23.959 62.282 23.959 62.392 23.959 62.504 23.934 62.599 23.885 62.679 23.836 62.76 23.766 62.822 23.675 62.865L23.984 63.345H23.642z" style="fill:#fff;fill-rule:nonzero"/></g><g transform="matrix(4.16667,0,0,4.16667,0,0)"><path d="M25.249 62.131H24.808V61.849h1.199V62.131H25.567v1.214H25.249V62.131z" style="fill:#fff;fill-rule:nonzero"/></g><g transform="matrix(4.16667,0,0,4.16667,0,0)"><path d="M27.441 61.849v1.496H27.123v-.613H26.497v.613H26.178V61.849H26.497V62.439H27.123V61.849H27.441z" style="fill:#fff;fill-rule:nonzero"/></g><g transform="matrix(4.16667,0,0,4.16667,0,0)"><path d="M28.833 63.067V63.345H27.767V61.849h1.041V62.128h-.724V62.452H28.723V62.721H28.084V63.067H28.833z" style="fill:#fff;fill-rule:nonzero"/></g><g transform="matrix(4.16667,0,0,4.16667,0,0)"><path d="M30.243 62.757 30.058 62.967v.378H29.742V61.849H30.058V62.548L30.668 61.849H31.022L30.452 62.516 31.055 63.345H30.684L30.243 62.757z" style="fill:#fff;fill-rule:nonzero"/></g><g transform="matrix(4.16667,0,0,4.16667,0,0)"><rect x="31.196" y="61.849" width=".319" height="1.496" style="fill:#fff;fill-rule:nonzero"/></g><g transform="matrix(4.16667,0,0,4.16667,0,0)"><path d="M33.104 61.849v1.496h-.262L32.156 62.437V63.345H31.841V61.849H32.105L32.789 62.757V61.849H33.104z" style="fill:#fff;fill-rule:nonzero"/></g><g transform="matrix(4.16667,0,0,4.16667,0,0)"><path d="M34.36 62.574H34.651V63.181C34.576 63.242 34.49 63.289 34.392 63.322 34.293 63.354 34.194 63.371 34.095 63.371 33.952 63.371 33.823 63.337 33.71 63.272 33.595 63.206 33.506 63.114 33.441 62.996 33.376 62.879 33.344 62.746 33.344 62.597 33.344 62.449 33.376 62.317 33.441 62.199 33.506 62.081 33.596 61.989 33.712 61.923 33.827 61.857 33.957 61.824 34.101 61.824 34.221 61.824 34.331 61.846 34.429 61.89 34.527 61.934 34.61 61.999 34.677 62.083L34.472 62.288C34.374 62.174 34.255 62.119 34.116 62.119 34.028 62.119 33.951 62.138 33.882 62.178 33.814 62.218 33.761 62.275 33.723 62.347 33.685 62.421 33.666 62.504 33.666 62.597 33.666 62.69 33.685 62.773 33.723 62.845 33.761 62.917 33.814 62.975 33.881 63.015 33.949 63.056 34.026 63.077 34.112 63.077 34.204 63.077 34.287 63.054 34.36 63.012V62.574z" style="fill:#fff;fill-rule:nonzero"/></g><g transform="matrix(4.16667,0,0,4.16667,0,0)"><path d="M35.198 63.004C35.233 63.042 35.251 63.091 35.251 63.153 35.251 63.182 35.248 63.209 35.241 63.239 35.234 63.267 35.22 63.31 35.198 63.367L35.086 63.675h-.195L34.978 63.334C34.945 63.321 34.919 63.297 34.9 63.265 34.881 63.233 34.871 63.196 34.871 63.153 34.871 63.091 34.889 63.042 34.925 63.004 34.962 62.966 35.007 62.948 35.062 62.948S35.163 62.966 35.198 63.004z" style="fill:#fff;fill-rule:nonzero"/></g><g transform="matrix(4.16667,0,0,4.16667,0,0)"><path d="M36.519 62.131H36.078V61.849h1.2V62.131H36.837v1.214H36.519V62.131z" style="fill:#fff;fill-rule:nonzero"/></g><g transform="matrix(4.16667,0,0,4.16667,0,0)"><path d="M38.711 61.849v1.496H38.393v-.613H37.767v.613H37.449V61.849H37.767V62.439H38.393V61.849H38.711z" style="fill:#fff;fill-rule:nonzero"/></g><g transform="matrix(4.16667,0,0,4.16667,0,0)"><path d="M40.103 63.067V63.345H39.038V61.849H40.078V62.128H39.354V62.452H39.993V62.721H39.354V63.067H40.103z" style="fill:#fff;fill-rule:nonzero"/></g><g transform="matrix(4.16667,0,0,4.16667,0,0)"><path d="M41.012 61.849H41.33V63.063H42.021V63.345H41.012V61.849z" style="fill:#fff;fill-rule:nonzero"/></g><g transform="matrix(4.16667,0,0,4.16667,0,0)"><path d="M43.018 62.761 42.799 62.19 42.581 62.761H43.018zM43.118 63.025H42.479l-.122.32H42.03L42.644 61.849H42.959L43.574 63.345H43.24l-.122-.32z" style="fill:#fff;fill-rule:nonzero"/></g><g transform="matrix(4.16667,0,0,4.16667,0,0)"><path d="M45.723 61.849 45.273 63.345H44.931L44.628 62.333 44.315 63.345H43.975L43.523 61.849H43.853L44.164 62.901 44.488 61.849H44.783L45.098 62.91 45.419 61.849H45.723z" style="fill:#fff;fill-rule:nonzero"/></g><g transform="matrix(4.16667,0,0,4.16667,0,0)"><path d="M46.087 63.004C46.123 63.042 46.14 63.091 46.14 63.153 46.14 63.182 46.137 63.209 46.13 63.239 46.124 63.267 46.109 63.31 46.087 63.367L45.975 63.675H45.781L45.867 63.334C45.834 63.321 45.808 63.297 45.789 63.265 45.77 63.233 45.761 63.196 45.761 63.153 45.761 63.091 45.779 63.042 45.815 63.004 45.851 62.966 45.897 62.948 45.951 62.948 46.007 62.948 46.052 62.966 46.087 63.004z" style="fill:#fff;fill-rule:nonzero"/></g><g transform="matrix(4.16667,0,0,4.16667,0,0)"><path d="M47.831 62.761 47.613 62.19 47.395 62.761h.436zM47.931 63.025H47.293l-.122.32H46.844L47.458 61.849h.314l.616 1.496H48.053l-.122-.32z" style="fill:#fff;fill-rule:nonzero"/></g><g transform="matrix(4.16667,0,0,4.16667,0,0)"><path d="M49.794 61.849v1.496h-.262L48.846 62.437V63.345H48.531V61.849H48.795L49.479 62.757V61.849H49.794z" style="fill:#fff;fill-rule:nonzero"/></g><g transform="matrix(4.16667,0,0,4.16667,0,0)"><path d="M50.73 63.061C50.867 63.061 50.977 63.019 51.059 62.936S51.182 62.74 51.182 62.597C51.182 62.455 51.141 62.342 51.059 62.258 50.977 62.175 50.867 62.133 50.73 62.133H50.439V63.061H50.73zM50.12 61.849H50.746C50.895 61.849 51.027 61.88 51.142 61.942 51.256 62.004 51.345 62.092 51.409 62.205 51.473 62.317 51.504 62.448 51.504 62.597 51.504 62.747 51.473 62.878 51.409 62.991 51.345 63.103 51.256 63.191 51.142 63.253 51.027 63.315 50.895 63.345 50.746 63.345H50.12V61.849z" style="fill:#fff;fill-rule:nonzero"/></g><g transform="matrix(4.16667,0,0,4.16667,0,0)"><path d="M52.684 62.131H52.243V61.849h1.2V62.131H53.003v1.214H52.684V62.131z" style="fill:#fff;fill-rule:nonzero"/></g><g transform="matrix(4.16667,0,0,4.16667,0,0)"><path d="M54.877 61.849v1.496H54.558v-.613H53.932v.613H53.614V61.849H53.932V62.439H54.558V61.849H54.877z" style="fill:#fff;fill-rule:nonzero"/></g><g transform="matrix(4.16667,0,0,4.16667,0,0)"><path d="M56.269 63.067V63.345H55.203V61.849h1.04V62.128H55.519V62.452H56.158V62.721H55.519V63.067h.75z" style="fill:#fff;fill-rule:nonzero"/></g><g transform="matrix(4.16667,0,0,4.16667,0,0)"><path d="M57.974 62.584C58.024 62.539 58.048 62.474 58.048 62.392 58.048 62.308 58.024 62.244 57.974 62.199 57.924 62.154 57.851 62.131 57.755 62.131h-.259V62.651h.259C57.851 62.651 57.924 62.629 57.974 62.584zM58.091 61.916C58.18 61.959 58.25 62.022 58.298 62.103 58.347 62.185 58.371 62.282 58.371 62.392 58.371 62.503 58.347 62.598 58.298 62.679 58.25 62.761 58.18 62.825 58.091 62.868 58.001 62.912 57.895 62.933 57.773 62.933H57.496V63.345H57.177V61.849H57.773C57.895 61.849 58.001 61.872 58.091 61.916z" style="fill:#fff;fill-rule:nonzero"/></g><g transform="matrix(4.16667,0,0,4.16667,0,0)"><path d="M59.663 63.067V63.345H58.597V61.849h1.04V62.128H58.914V62.452H59.552V62.721H58.914V63.067H59.663z" style="fill:#fff;fill-rule:nonzero"/></g><g transform="matrix(4.16667,0,0,4.16667,0,0)"><path d="M60.799 63.015C60.864 62.975 60.916 62.917 60.953 62.845 60.991 62.773 61.009 62.69 61.009 62.597 61.009 62.504 60.991 62.422 60.953 62.349 60.916 62.277 60.864 62.22 60.799 62.18 60.733 62.138 60.66 62.119 60.579 62.119 60.498 62.119 60.424 62.138 60.358 62.18 60.293 62.22 60.241 62.277 60.204 62.349 60.167 62.422 60.148 62.504 60.148 62.597 60.148 62.69 60.167 62.773 60.204 62.845 60.241 62.917 60.293 62.975 60.358 63.015 60.424 63.056 60.498 63.077 60.579 63.077 60.66 63.077 60.733 63.056 60.799 63.015zM60.192 63.271C60.078 63.204 59.988 63.112 59.923 62.995 59.858 62.876 59.826 62.745 59.826 62.597 59.826 62.451 59.858 62.319 59.923 62.201 59.988 62.084 60.078 61.991 60.192 61.924 60.307 61.858 60.436 61.824 60.579 61.824S60.85 61.858 60.964 61.924C61.078 61.991 61.168 62.084 61.233 62.201 61.299 62.319 61.332 62.451 61.332 62.597 61.332 62.745 61.299 62.876 61.233 62.995 61.168 63.112 61.078 63.204 60.964 63.271 60.85 63.337 60.722 63.371 60.579 63.371S60.307 63.337 60.192 63.271z" style="fill:#fff;fill-rule:nonzero"/></g><g transform="matrix(4.16667,0,0,4.16667,0,0)"><path d="M62.368 62.584C62.418 62.539 62.442 62.474 62.442 62.392 62.442 62.308 62.418 62.244 62.368 62.199 62.318 62.154 62.246 62.131 62.15 62.131H61.89V62.651H62.15C62.246 62.651 62.318 62.629 62.368 62.584zM62.485 61.916C62.575 61.959 62.644 62.022 62.692 62.103 62.741 62.185 62.765 62.282 62.765 62.392 62.765 62.503 62.741 62.598 62.692 62.679 62.644 62.761 62.575 62.825 62.485 62.868 62.395 62.912 62.289 62.933 62.168 62.933H61.89V63.345H61.571V61.849H62.168C62.289 61.849 62.395 61.872 62.485 61.916z" style="fill:#fff;fill-rule:nonzero"/></g><g transform="matrix(4.16667,0,0,4.16667,0,0)"><path d="M62.991 61.849H63.31V63.063H64V63.345H62.991V61.849z" style="fill:#fff;fill-rule:nonzero"/></g><g transform="matrix(4.16667,0,0,4.16667,0,0)"><path d="M65.245 63.067V63.345H64.179V61.849H65.219V62.128H64.496V62.452H65.134V62.721H64.496V63.067H65.245z" style="fill:#fff;fill-rule:nonzero"/></g></g></svg>