<svg width="100%" height="100%" viewBox="0 0 90 74" xmlns="http://www.w3.org/2000/svg" xmlns:xlink="http://www.w3.org/1999/xlink" xmlns:serif="http://www.serif.com/" style="fill-rule:evenodd;clip-rule:evenodd;stroke-linecap:round;stroke-linejoin:round;stroke-miterlimit:1.5"><g transform="matrix(1,0,0,1,-21.4994,-13.1976)"><g transform="matrix(1,0,0,1,-169.381,-82.3554)"><g transform="matrix(0.333719,0,0,0.333719,151.696,44.9475)"><path d="M159.488 169.476 153.991 157.382C153.569 156.454 153.647 155.374 154.199 154.517 154.752 153.659 155.702 153.141 156.722 153.141c27.049.0 163.633.0 190.682.0C348.424 153.141 349.374 153.659 349.926 154.517 350.478 155.374 350.557 156.454 350.135 157.382L344.638 169.476h37.571C383.248 169.476 384.214 170.015 384.761 170.899 385.307 171.784 385.357 172.888 384.892 173.818c-11.238 22.476-62.76 125.52-75.146 150.292C309.238 325.126 308.199 325.768 307.063 325.768 305.926 325.768 304.888 325.126 304.379 324.11L288.65 292.65l-33.856 74.482C254.307 368.203 253.239 368.891 252.063 368.891 250.886 368.891 249.818 368.203 249.332 367.132l-31.475-69.244-15.611 31.222C201.738 330.126 200.699 330.768 199.563 330.768 198.426 330.768 197.388 330.126 196.879 329.11c-12.647-25.295-66.172-132.346-77.645-155.292C118.769 172.888 118.818 171.784 119.365 170.899 119.912 170.015 120.877 169.476 121.917 169.476h37.571z" style="fill:#fff;stroke:#fff;stroke-width:3px"/><g transform="matrix(-0.817539,1.0012e-16,-9.87035e-17,-0.805976,441.673,464.037)"><path d="M292.863 167.409C293.484 166.148 294.755 165.351 296.145 165.351 297.535 165.351 298.805 166.148 299.427 167.409c15.47 31.384 80.941 164.205 94.975 192.675C394.971 361.238 394.91 362.608 394.241 363.706 393.573 364.803 392.392 365.471 391.12 365.471c-29.539.0-160.412.0-189.95.0C199.898 365.471 198.717 364.803 198.048 363.706 197.379 362.608 197.319 361.238 197.887 360.084c14.034-28.47 79.505-161.291 94.976-192.675z" style="fill:url(#_Linear1)"/></g><g transform="matrix(-0.792765,9.70857e-17,-9.57125e-17,-0.781552,541.836,455.111)"><path d="M292.76 167.617C293.401 166.316 294.711 165.495 296.145 165.495 297.578 165.495 298.888 166.316 299.529 167.617c15.624 31.696 80.615 163.541 94.79 192.299C394.906 361.106 394.843 362.519 394.153 363.651 393.464 364.782 392.246 365.471 390.934 365.471c-29.834.0-159.744.0-189.579.0C200.044 365.471 198.826 364.782 198.136 363.651 197.447 362.519 197.384 361.106 197.97 359.916c14.176-28.758 79.166-160.603 94.79-192.299z" style="fill:url(#_Linear2)"/></g><g transform="matrix(-0.990957,1.21357e-16,-1.31605e-16,-1.07463,545.529,545.889)"><path d="M293.389 166.341C293.88 165.345 294.958 164.705 296.145 164.705 297.332 164.705 298.409 165.345 298.901 166.341c14.703 29.829 83.707 169.817 96.211 195.183C395.538 362.388 395.458 363.393 394.901 364.191S393.385 365.471 392.356 365.471c-27.296.0-165.126.0-192.422.0C198.904 365.471 197.946 364.989 197.388 364.191 196.831 363.393 196.752 362.388 197.178 361.524c12.504-25.366 81.507-165.354 96.211-195.183z" style="fill:url(#_Linear3)"/></g></g></g></g><defs><linearGradient id="_Linear1" x1="0" y1="0" x2="1" y2="0" gradientUnits="userSpaceOnUse" gradientTransform="matrix(201.825,0,0,204.721,195.232,263.111)"><stop offset="0" style="stop-color:#40e0d0;stop-opacity:1"/><stop offset=".5" style="stop-color:#ff8c00;stop-opacity:.66"/><stop offset="1" style="stop-color:#ff0080;stop-opacity:.32"/></linearGradient><linearGradient id="_Linear2" x1="0" y1="0" x2="1" y2="0" gradientUnits="userSpaceOnUse" gradientTransform="matrix(201.825,0,0,204.721,195.232,263.111)"><stop offset="0" style="stop-color:#40e0d0;stop-opacity:1"/><stop offset=".5" style="stop-color:#ff8c00;stop-opacity:.66"/><stop offset="1" style="stop-color:#ff0080;stop-opacity:.32"/></linearGradient><linearGradient id="_Linear3" x1="0" y1="0" x2="1" y2="0" gradientUnits="userSpaceOnUse" gradientTransform="matrix(201.825,0,0,204.721,195.232,263.111)"><stop offset="0" style="stop-color:#40e0d0;stop-opacity:1"/><stop offset=".5" style="stop-color:#ff8c00;stop-opacity:.66"/><stop offset="1" style="stop-color:#ff0080;stop-opacity:.32"/></linearGradient></defs></svg>