<svg width="100%" height="100%" viewBox="0 0 243 73" xmlns="http://www.w3.org/2000/svg" xmlns:xlink="http://www.w3.org/1999/xlink" xmlns:serif="http://www.serif.com/" style="fill-rule:evenodd;clip-rule:evenodd;stroke-linejoin:round;stroke-miterlimit:2"><g transform="matrix(1,0,0,1,-631.521,-247.945)"><g transform="matrix(1,0,0,1,346.639,149.063)"><g transform="matrix(1,0,0,1,-346.639,-149.063)"><path d="M706.818 254.063h13.821l-27 50L688.243 294.07l-11.604 24.993L665.036 294.07 659.639 304.063l-27-50h13.822l-2.322-5h65L706.818 254.063z" style="fill:#fff"/></g><g><g transform="matrix(-0.818688,-1.0026e-16,9.0172e-17,-0.736311,647.012,249.454)"><path d="M407.985 128.28l32.98 67.906h-65.96l32.98-67.906z" style="fill:url(#_Linear1)"/></g><g transform="matrix(-0.818688,-1.0026e-16,9.0172e-17,-0.736311,681.012,249.454)"><path d="M407.985 128.28l32.98 67.906h-65.96l32.98-67.906z" style="fill:url(#_Linear2)"/></g><g transform="matrix(-0.985458,-1.20684e-16,1.26241e-16,-1.03083,732.052,302.235)"><path d="M407.985 128.28l32.98 67.906h-65.96l32.98-67.906z" style="fill:url(#_Linear3)"/></g></g><g transform="matrix(1,0,0,1,-346.639,-149.063)"><path d="M707.601 253.563l2.322-5H643.356L645.677 253.563H631.801L659.199 304.3H660.079L665.002 295.185 676.186 319.273H677.093L688.277 295.185 693.199 304.3H694.079l27.399-50.737H707.601zM706.818 254.063h13.821l-27 50L688.243 294.07l-11.604 24.993L665.036 294.07 659.639 304.063l-27-50h13.822l-2.322-5h65L706.818 254.063z" style="fill-opacity:.3"/></g><g transform="matrix(1,0,0,1,125.646,-289.776)"><g transform="matrix(40,0,0,40,248.786,435.117)"><path d="M.483-.237c0 .036-.004.069-.014.099C.46-.108.446-.082.427-.06.408-.038.385-.021.357-.009.329.003.296.009.259.009.223.009.191.004.164-.007.137-.018.115-.033.097-.054.079-.074.066-.099.057-.128.048-.158.044-.191.044-.228c0-.036.005-.069.014-.099C.067-.357.081-.383.1-.405.119-.427.142-.444.17-.456.198-.468.231-.474.268-.474.304-.474.336-.468.363-.458c.026.011.049.027.067.047.018.021.031.046.04.075C.479-.307.483-.274.483-.237zM.4-.231C.4-.255.398-.278.393-.299.389-.32.382-.339.371-.354.361-.37.347-.383.33-.392.313-.402.291-.406.265-.406.241-.406.22-.402.203-.394.186-.385.172-.373.16-.358.149-.342.141-.324.136-.303.13-.282.127-.258.127-.233.127-.209.13-.187.134-.166c.005.022.012.04.022.056.011.016.024.028.042.037.017.01.039.014.065.014.024.0.044-.004.062-.012C.342-.08.356-.092.367-.107.379-.122.387-.14.392-.162.397-.183.4-.206.4-.231z" style="fill:#fff;fill-rule:nonzero"/></g><g transform="matrix(40,0,0,40,267.88,435.117)"><path d="M.453-.012c0 .002-.001.005-.002.006C.45-.004.448-.002.445-.001S.438.001.433.002C.427.003.421.003.413.003.405.003.398.003.393.002S.384.0.381-.001.376-.004.375-.006C.373-.007.373-.01.373-.012V-.27C.373-.295.371-.315.367-.33.363-.345.357-.359.35-.37.342-.381.332-.389.321-.395.309-.401.295-.404.279-.404.259-.404.239-.397.219-.382.199-.368.177-.347.155-.319v.307c0 .002.0.005-.002.006C.152-.004.15-.002.147-.001S.14.001.135.002.123.003.115.003C.107.003.1.003.095.002S.086.0.083-.001C.08-.002.078-.004.076-.006.075-.007.075-.01.075-.012v-.44C.075-.454.075-.456.076-.458S.079-.462.082-.463C.085-.465.089-.466.093-.466.098-.467.104-.467.111-.467.118-.467.124-.467.129-.466.134-.466.138-.465.14-.463.143-.462.145-.46.146-.458S.147-.454.147-.452v.058c.025-.027.05-.047.074-.06.025-.013.05-.02.075-.02.029.0.054.005.074.015.02.01.036.023.048.04.013.017.022.036.027.058C.45-.338.453-.312.453-.28v.268z" style="fill:#fff;fill-rule:nonzero"/></g><g transform="matrix(40,0,0,40,286.896,435.117)"><path d="M.155-.012c0 .002.0.005-.002.006C.152-.004.15-.002.147-.001S.14.001.135.002.123.003.115.003C.107.003.1.003.095.002S.086.0.083-.001C.08-.002.078-.004.076-.006.075-.007.075-.01.075-.012V-.665C.075-.667.075-.669.076-.671.078-.673.08-.675.083-.676.086-.678.09-.679.095-.679.1-.68.107-.68.115-.68.123-.68.13-.68.135-.679.14-.679.144-.678.147-.676.15-.675.152-.673.153-.671.155-.669.155-.667.155-.665v.653z" style="fill:#fff;fill-rule:nonzero"/></g><g transform="matrix(40,0,0,40,294.076,435.117)"><path d="M.155-.012c0 .002.0.005-.002.006C.152-.004.15-.002.147-.001S.14.001.135.002.123.003.115.003C.107.003.1.003.095.002S.086.0.083-.001C.08-.002.078-.004.076-.006.075-.007.075-.01.075-.012v-.44C.075-.454.075-.456.076-.458.078-.46.08-.462.083-.463.086-.464.09-.465.095-.466c.005.0.012-.001.02-.001C.123-.467.13-.466.135-.466.14-.465.144-.464.147-.463S.152-.46.153-.458C.155-.456.155-.454.155-.452v.44zM.165-.6C.165-.581.161-.568.154-.562.147-.555.133-.551.114-.551S.082-.555.075-.561C.068-.568.065-.581.065-.599c0-.019.004-.032.011-.039C.083-.645.096-.648.115-.648s.032.003.039.01.011.019.011.038z" style="fill:#fff;fill-rule:nonzero"/></g><g transform="matrix(40,0,0,40,301.255,435.117)"><path d="M.453-.012c0 .002-.001.005-.002.006C.45-.004.448-.002.445-.001S.438.001.433.002C.427.003.421.003.413.003.405.003.398.003.393.002S.384.0.381-.001.376-.004.375-.006C.373-.007.373-.01.373-.012V-.27C.373-.295.371-.315.367-.33.363-.345.357-.359.35-.37.342-.381.332-.389.321-.395.309-.401.295-.404.279-.404.259-.404.239-.397.219-.382.199-.368.177-.347.155-.319v.307c0 .002.0.005-.002.006C.152-.004.15-.002.147-.001S.14.001.135.002.123.003.115.003C.107.003.1.003.095.002S.086.0.083-.001C.08-.002.078-.004.076-.006.075-.007.075-.01.075-.012v-.44C.075-.454.075-.456.076-.458S.079-.462.082-.463C.085-.465.089-.466.093-.466.098-.467.104-.467.111-.467.118-.467.124-.467.129-.466.134-.466.138-.465.14-.463.143-.462.145-.46.146-.458S.147-.454.147-.452v.058c.025-.027.05-.047.074-.06.025-.013.05-.02.075-.02.029.0.054.005.074.015.02.01.036.023.048.04.013.017.022.036.027.058C.45-.338.453-.312.453-.28v.268z" style="fill:#fff;fill-rule:nonzero"/></g><g transform="matrix(40,0,0,40,320.271,435.117)"><path d="M.45-.251c0 .013-.003.022-.01.027C.434-.219.426-.216.418-.216H.129C.129-.191.131-.169.136-.15.141-.13.149-.114.161-.1c.011.014.026.025.044.033C.224-.06.246-.056.273-.056c.021.0.039-.002.056-.005C.345-.065.359-.069.371-.073.383-.077.393-.081.4-.084.408-.088.414-.089.418-.089.42-.089.422-.089.424-.088S.427-.085.428-.083C.429-.08.43-.077.43-.073.431-.069.431-.064.431-.058c0 .004.0.008.0.011C.43-.044.43-.041.429-.039c0 .003-.001.005-.002.007S.424-.028.423-.027C.421-.025.416-.022.407-.018.398-.014.387-.01.373-.006S.342.002.324.005.286.009.265.009C.229.009.197.004.17-.006.143-.016.12-.031.102-.051.083-.071.069-.096.06-.125.05-.155.045-.19.045-.23.045-.268.05-.302.06-.332.07-.362.084-.387.102-.408.121-.429.143-.446.169-.457.195-.468.224-.474.256-.474.291-.474.32-.468.344-.457.369-.446.389-.431.404-.412c.016.018.027.04.035.066C.446-.321.45-.294.45-.266v.015zM.369-.275C.37-.317.36-.35.34-.375.321-.399.291-.411.252-.411.232-.411.215-.407.2-.399.185-.392.172-.382.162-.37.152-.357.144-.343.138-.326.133-.31.13-.293.129-.275h.24z" style="fill:#fff;fill-rule:nonzero"/></g><path d="M268.622 425.644C268.622 424.119 268.435 422.748 268.063 421.533 267.683 420.289 267.111 419.233 266.351 418.362 265.583 417.483 264.625 416.812 263.474 416.352 262.347 415.901 261.026 415.672 259.509 415.672 257.936 415.672 256.562 415.929 255.386 416.435 254.193 416.948 253.199 417.671 252.401 418.6 251.609 419.522 251.016 420.62 250.623 421.893 250.238 423.143 250.044 424.51 250.044 425.996 250.044 427.534 250.228 428.91 250.593 430.124 250.966 431.369 251.536 432.426 252.297 433.297 253.064 434.176 254.022 434.847 255.173 435.308 256.3 435.759 257.621 435.988 259.138 435.988 260.698 435.988 262.069 435.727 263.253 435.214 264.452 434.694 265.449 433.969 266.246 433.04 267.037 432.118 267.634 431.022 268.033 429.749 268.425 428.499 268.622 427.131 268.622 425.644zm-.5.0C268.122 427.076 267.934 428.395 267.556 429.599 267.178 430.804 266.615 431.842 265.867 432.715 265.118 433.587 264.18 434.267 263.054 434.756 261.928 435.244 260.622 435.488 259.138 435.488 257.693 435.488 256.433 435.273 255.359 434.843 254.284 434.414 253.389 433.789 252.673 432.968 251.957 432.148 251.423 431.152 251.072 429.98 250.72 428.808 250.544 427.48 250.544 425.996 250.544 424.563 250.73 423.245 251.101 422.041 251.472 420.836 252.032 419.798 252.781 418.925 253.529 418.053 254.464 417.376 255.583 416.894 256.703 416.412 258.012 416.172 259.509 416.172 260.954 416.172 262.214 416.386 263.288 416.816 264.363 417.246 265.258 417.871 265.974 418.691 266.69 419.511 267.227 420.507 267.585 421.679 267.943 422.851 268.122 424.173 268.122 425.644zM264.783 425.859C264.783 424.909 264.694 424.01 264.516 423.164 264.339 422.317 264.047 421.575 263.639 420.937 263.232 420.299 262.68 419.795 261.984 419.423 261.288 419.052 260.42 418.867 259.382 418.867 258.423 418.867 257.599 419.036 256.909 419.375 256.219 419.713 255.651 420.192 255.204 420.81 254.758 421.429 254.426 422.161 254.209 423.007 253.992 423.854 253.884 424.778 253.884 425.781 253.884 426.744 253.973 427.649 254.15 428.496 254.328 429.342 254.623 430.081 255.037 430.713 255.451 431.344 256.006 431.845 256.702 432.216 257.399 432.588 258.266 432.773 259.304 432.773 260.25 432.773 261.071 432.604 261.767 432.265 262.464 431.927 263.035 431.451 263.482 430.84 263.928 430.228 264.257 429.498 264.467 428.652 264.677 427.806 264.783 426.875 264.783 425.859zm-.5.0C264.283 426.831 264.183 427.722 263.982 428.531 263.788 429.31 263.489 429.982 263.078 430.545 262.68 431.09 262.17 431.514 261.549 431.816 260.914 432.124 260.165 432.273 259.304 432.273 258.36 432.273 257.57 432.113 256.937 431.775 256.318 431.445 255.823 431 255.455 430.439 255.074 429.856 254.803 429.174 254.64 428.393 254.469 427.579 254.384 426.708 254.384 425.781 254.384 424.823 254.487 423.94 254.694 423.132 254.894 422.351 255.198 421.674 255.61 421.103 256.008 420.552 256.515 420.125 257.129 419.824 257.757 419.515 258.509 419.367 259.382 419.367 260.326 419.367 261.116 419.527 261.749 419.865 262.366 420.194 262.857 420.64 263.218 421.206 263.595 421.796 263.863 422.484 264.027 423.266 264.198 424.08 264.283 424.945 264.283 425.859z" style="fill-opacity:.3"/><path d="M286.505 434.629V423.906C286.505 422.61 286.392 421.5 286.169 420.576 285.937 419.614 285.553 418.776 285.019 418.06 284.479 417.335 283.772 416.753 282.897 416.319 282.036 415.892 280.977 415.672 279.716 415.672 278.636 415.672 277.565 415.946 276.506 416.5 275.766 416.887 275.023 417.432 274.279 418.139V417.05C274.279 416.839 274.224 416.663 274.132 416.518 274.049 416.388 273.92 416.262 273.731 416.156 273.58 416.071 273.371 416.005 273.098 415.977 272.895 415.956 272.64 415.945 272.333 415.945 272.012 415.945 271.753 415.956 271.557 415.977 271.305 416.004 271.1 416.063 270.938 416.144 270.706 416.26 270.565 416.406 270.488 416.547 270.413 416.684 270.368 416.851 270.368 417.05v17.579C270.368 434.84 270.423 435.016 270.515 435.161 270.604 435.3 270.756 435.437 270.997 435.539 271.153 435.605 271.363 435.658 271.627 435.691 271.852 435.719 272.133 435.734 272.47 435.734 272.821 435.734 273.108 435.719 273.333 435.691 273.602 435.657 273.811 435.602 273.962 435.535 274.176 435.44 274.322 435.317 274.417 435.186 274.528 435.034 274.591 434.85 274.591 434.629V422.52C275.403 421.523 276.177 420.759 276.92 420.232 277.632 419.726 278.34 419.465 279.052 419.465 279.593 419.465 280.07 419.562 280.481 419.765 280.878 419.96 281.201 420.243 281.45 420.612 281.72 421.01 281.923 421.486 282.064 422.037 282.212 422.618 282.283 423.384 282.283 424.336v10.293C282.283 434.85 282.346 435.034 282.456 435.186 282.551 435.317 282.698 435.44 282.911 435.535 283.063 435.602 283.272 435.657 283.541 435.691 283.765 435.719 284.053 435.734 284.404 435.734 284.741 435.734 285.022 435.719 285.247 435.691 285.516 435.657 285.725 435.602 285.876 435.535 286.09 435.44 286.237 435.317 286.331 435.186 286.442 435.034 286.505 434.85 286.505 434.629zm-.5.0C286.005 434.733 285.979 434.821 285.927 434.892 285.875 434.964 285.79 435.026 285.673 435.078 285.556 435.13 285.393 435.169 285.185 435.195 284.977 435.221 284.716 435.234 284.404 435.234 284.078 435.234 283.811 435.221 283.603 435.195 283.395 435.169 283.232 435.13 283.115 435.078 282.997 435.026 282.913 434.964 282.861 434.892 282.809 434.821 282.783 434.733 282.783 434.629V424.336C282.783 423.333 282.704 422.526 282.548 421.914 282.392 421.302 282.164 420.774 281.865 420.332 281.565 419.889 281.178 419.55 280.702 419.316 280.227 419.082 279.677 418.965 279.052 418.965 278.245 418.965 277.437 419.251 276.63 419.824 275.823 420.397 274.977 421.237 274.091 422.343v12.286C274.091 434.733 274.065 434.821 274.013 434.892 273.961 434.964 273.876 435.026 273.759 435.078 273.642 435.13 273.479 435.169 273.271 435.195 273.062 435.221 272.796 435.234 272.47 435.234 272.158 435.234 271.897 435.221 271.689 435.195 271.48 435.169 271.314 435.13 271.191 435.078 271.067 435.026 270.982 434.964 270.937 434.892 270.891 434.821 270.868 434.733 270.868 434.629V417.05C270.868 416.946 270.888 416.858 270.927 416.787 270.966 416.715 271.044 416.65 271.161 416.591 271.279 416.533 271.428 416.494 271.611 416.474 271.793 416.455 272.034 416.445 272.333 416.445 272.62 416.445 272.857 416.455 273.046 416.474 273.235 416.494 273.381 416.533 273.486 416.591 273.59 416.65 273.665 416.715 273.71 416.787 273.756 416.858 273.779 416.946 273.779 417.05V419.375C274.768 418.268 275.755 417.457 276.738 416.943S278.714 416.172 279.716 416.172C280.888 416.172 281.874 416.37 282.675 416.767S284.124 417.695 284.618 418.359C285.113 419.023 285.468 419.801 285.683 420.693 285.898 421.585 286.005 422.656 286.005 423.906v10.723z" style="fill-opacity:.3"/><path d="M293.607 434.629V408.535C293.607 408.325 293.55 408.142 293.445 407.984 293.347 407.838 293.197 407.707 292.978 407.609 292.826 407.542 292.618 407.486 292.348 407.453 292.124 407.425 291.836 407.41 291.486 407.41 291.148 407.41 290.867 407.425 290.642 407.453 290.378 407.486 290.169 407.539 290.012 407.605 289.767 407.709 289.611 407.854 289.521 408.009 289.433 408.16 289.384 408.334 289.384 408.535v26.094C289.384 434.84 289.438 435.016 289.531 435.161 289.619 435.3 289.772 435.437 290.012 435.539 290.169 435.605 290.378 435.658 290.642 435.691 290.867 435.719 291.148 435.734 291.486 435.734 291.836 435.734 292.124 435.719 292.348 435.691 292.618 435.657 292.826 435.602 292.978 435.535 293.191 435.44 293.338 435.317 293.433 435.186 293.544 435.034 293.607 434.85 293.607 434.629zm-.5.0C293.107 434.733 293.081 434.821 293.029 434.892 292.977 434.964 292.892 435.026 292.775 435.078 292.658 435.13 292.495 435.169 292.286 435.195 292.078 435.221 291.811 435.234 291.486 435.234 291.173 435.234 290.913 435.221 290.704 435.195 290.496 435.169 290.33 435.13 290.206 435.078 290.083 435.026 289.998 434.964 289.952 434.892 289.907 434.821 289.884 434.733 289.884 434.629V408.535C289.884 408.431 289.907 408.34 289.952 408.261 289.998 408.183 290.083 408.118 290.206 408.066 290.33 408.014 290.496 407.975 290.704 407.949 290.913 407.923 291.173 407.91 291.486 407.91 291.811 407.91 292.078 407.923 292.286 407.949 292.495 407.975 292.658 408.014 292.775 408.066 292.892 408.118 292.977 408.183 293.029 408.261 293.081 408.34 293.107 408.431 293.107 408.535v26.094z" style="fill-opacity:.3"/><path d="M300.786 434.629V417.05C300.786 416.86 300.733 416.683 300.624 416.519 300.527 416.373 300.376 416.242 300.157 416.144 300.006 416.077 299.797 416.022 299.528 415.988 299.304 415.96 299.016 415.945 298.665 415.945 298.328 415.945 298.047 415.96 297.822 415.988 297.558 416.021 297.349 416.074 297.192 416.14 296.946 416.244 296.791 416.389 296.7 416.545 296.609 416.7 296.564 416.869 296.564 417.05v17.579C296.564 434.84 296.618 435.016 296.71 435.161 296.799 435.3 296.951 435.437 297.192 435.539 297.349 435.605 297.558 435.658 297.822 435.691 298.047 435.719 298.328 435.734 298.665 435.734 299.016 435.734 299.304 435.719 299.528 435.691 299.797 435.657 300.006 435.602 300.157 435.535 300.371 435.44 300.518 435.317 300.613 435.186 300.723 435.034 300.786 434.85 300.786 434.629zm-.5.0C300.286 434.733 300.26 434.821 300.208 434.892 300.156 434.964 300.072 435.026 299.954 435.078 299.837 435.13 299.674 435.169 299.466 435.195 299.258 435.221 298.991 435.234 298.665 435.234 298.353 435.234 298.092 435.221 297.884 435.195 297.676 435.169 297.51 435.13 297.386 435.078 297.262 435.026 297.178 434.964 297.132 434.892 297.087 434.821 297.064 434.733 297.064 434.629V417.05C297.064 416.959 297.087 416.875 297.132 416.797 297.178 416.718 297.262 416.653 297.386 416.601 297.51 416.549 297.676 416.51 297.884 416.484 298.092 416.458 298.353 416.445 298.665 416.445 298.991 416.445 299.258 416.458 299.466 416.484 299.674 416.51 299.837 416.549 299.954 416.601 300.072 416.653 300.156 416.718 300.208 416.797 300.26 416.875 300.286 416.959 300.286 417.05v17.579zM301.158 411.113C301.158 410.186 300.932 409.571 300.583 409.237 300.238 408.909 299.614 408.699 298.685 408.699 297.743 408.699 297.109 408.912 296.758 409.247 296.401 409.587 296.173 410.213 296.173 411.152 296.173 412.079 296.398 412.694 296.748 413.028 297.092 413.356 297.717 413.566 298.646 413.566 299.588 413.566 300.222 413.353 300.573 413.018 300.929 412.677 301.158 412.052 301.158 411.113zm-.5.0C300.658 411.868 300.514 412.382 300.228 412.656 299.941 412.929 299.414 413.066 298.646 413.066 297.891 413.066 297.373 412.933 297.093 412.666 296.813 412.399 296.673 411.894 296.673 411.152 296.673 410.397 296.816 409.882 297.103 409.609 297.389 409.336 297.917 409.199 298.685 409.199 299.44 409.199 299.958 409.332 300.238 409.599S300.658 410.371 300.658 411.113z" style="fill-opacity:.3"/><path d="M319.88 434.629V423.906C319.88 422.61 319.767 421.5 319.544 420.576 319.312 419.614 318.928 418.776 318.394 418.06 317.854 417.335 317.147 416.753 316.272 416.319 315.411 415.892 314.352 415.672 313.091 415.672 312.011 415.672 310.94 415.946 309.881 416.5 309.141 416.887 308.398 417.432 307.654 418.139V417.05C307.654 416.839 307.599 416.663 307.507 416.518 307.424 416.388 307.295 416.262 307.106 416.156 306.955 416.071 306.746 416.005 306.473 415.977 306.27 415.956 306.015 415.945 305.708 415.945 305.387 415.945 305.128 415.956 304.932 415.977 304.68 416.004 304.475 416.063 304.313 416.144 304.081 416.26 303.94 416.406 303.863 416.547 303.788 416.684 303.743 416.851 303.743 417.05v17.579C303.743 434.84 303.798 435.016 303.89 435.161 303.979 435.3 304.131 435.437 304.372 435.539 304.528 435.605 304.738 435.658 305.002 435.691 305.227 435.719 305.508 435.734 305.845 435.734 306.196 435.734 306.483 435.719 306.708 435.691 306.977 435.657 307.186 435.602 307.337 435.535 307.551 435.44 307.697 435.317 307.792 435.186 307.903 435.034 307.966 434.85 307.966 434.629V422.52C308.778 421.523 309.552 420.759 310.295 420.232 311.007 419.726 311.715 419.465 312.427 419.465 312.968 419.465 313.445 419.562 313.856 419.765 314.253 419.96 314.576 420.243 314.825 420.612 315.095 421.01 315.298 421.486 315.439 422.037 315.587 422.618 315.658 423.384 315.658 424.336v10.293C315.658 434.85 315.721 435.034 315.831 435.186 315.926 435.317 316.073 435.44 316.286 435.535 316.438 435.602 316.647 435.657 316.916 435.691 317.14 435.719 317.428 435.734 317.779 435.734 318.116 435.734 318.397 435.719 318.622 435.691 318.891 435.657 319.1 435.602 319.251 435.535 319.465 435.44 319.612 435.317 319.706 435.186 319.817 435.034 319.88 434.85 319.88 434.629zm-.5.0C319.38 434.733 319.354 434.821 319.302 434.892 319.25 434.964 319.165 435.026 319.048 435.078 318.931 435.13 318.768 435.169 318.56 435.195 318.352 435.221 318.091 435.234 317.779 435.234 317.453 435.234 317.186 435.221 316.978 435.195 316.77 435.169 316.607 435.13 316.49 435.078 316.372 435.026 316.288 434.964 316.236 434.892 316.184 434.821 316.158 434.733 316.158 434.629V424.336C316.158 423.333 316.079 422.526 315.923 421.914 315.767 421.302 315.539 420.774 315.24 420.332 314.94 419.889 314.553 419.55 314.077 419.316 313.602 419.082 313.052 418.965 312.427 418.965 311.62 418.965 310.812 419.251 310.005 419.824 309.198 420.397 308.352 421.237 307.466 422.343v12.286C307.466 434.733 307.44 434.821 307.388 434.892 307.336 434.964 307.251 435.026 307.134 435.078 307.017 435.13 306.854 435.169 306.646 435.195 306.437 435.221 306.171 435.234 305.845 435.234 305.533 435.234 305.272 435.221 305.064 435.195 304.855 435.169 304.689 435.13 304.566 435.078 304.442 435.026 304.357 434.964 304.312 434.892 304.266 434.821 304.243 434.733 304.243 434.629V417.05C304.243 416.946 304.263 416.858 304.302 416.787 304.341 416.715 304.419 416.65 304.536 416.591 304.654 416.533 304.803 416.494 304.986 416.474 305.168 416.455 305.409 416.445 305.708 416.445 305.995 416.445 306.232 416.455 306.421 416.474 306.61 416.494 306.756 416.533 306.861 416.591 306.965 416.65 307.04 416.715 307.085 416.787 307.131 416.858 307.154 416.946 307.154 417.05V419.375C308.143 418.268 309.13 417.457 310.113 416.943S312.089 416.172 313.091 416.172C314.263 416.172 315.249 416.37 316.05 416.767S317.499 417.695 317.993 418.359C318.488 419.023 318.843 419.801 319.058 420.693 319.273 421.585 319.38 422.656 319.38 423.906v10.723z" style="fill-opacity:.3"/><path d="M338.759 425.078V424.492C338.759 423.297 338.605 422.173 338.3 421.12 337.987 420.041 337.495 419.103 336.827 418.302 336.155 417.498 335.3 416.856 334.258 416.381 333.23 415.912 331.987 415.672 330.525 415.672 329.162 415.672 327.931 415.912 326.831 416.386 325.719 416.866 324.771 417.553 323.987 418.45 323.208 419.338 322.611 420.417 322.198 421.691 321.792 422.941 321.587 424.35 321.587 425.918 321.587 427.563 321.786 429.007 322.177 430.248 322.579 431.523 323.178 432.581 323.968 433.427 324.762 434.277 325.74 434.919 326.903 435.351 328.041 435.773 329.365 435.988 330.876 435.988 331.739 435.988 332.551 435.924 333.313 435.795 334.068 435.668 334.733 435.524 335.308 435.364 335.899 435.199 336.379 435.03 336.75 434.858 337.186 434.656 337.44 434.495 337.529 434.406 337.632 434.302 337.717 434.193 337.783 434.08 337.855 433.956 337.908 433.817 337.939 433.662 337.961 433.551 337.98 433.425 337.995 433.284 338.009 433.146 338.017 432.982 338.017 432.793 338.017 432.535 338.005 432.316 337.984 432.137 337.957 431.915 337.912 431.743 337.858 431.618 337.775 431.425 337.652 431.285 337.5 431.189 337.349 431.093 337.179 431.043 336.987 431.043 336.785 431.043 336.482 431.115 336.087 431.291 335.789 431.423 335.408 431.571 334.946 431.735 334.486 431.898 333.942 432.045 333.313 432.176 332.688 432.307 331.977 432.371 331.177 432.371 330.193 432.371 329.359 432.237 328.678 431.959 328.027 431.693 327.497 431.313 327.09 430.816 326.676 430.311 326.383 429.704 326.206 428.999 326.053 428.39 325.964 427.718 325.936 426.984h11.067C337.451 426.984 337.85 426.838 338.199 426.544 338.547 426.251 338.759 425.771 338.759 425.078zm-.5.0C338.259 425.586 338.132 425.947 337.877 426.162 337.622 426.377 337.33 426.484 337.003 426.484H325.427C325.427 427.461 325.525 428.34 325.721 429.121 325.918 429.902 326.245 430.573 326.703 431.132 327.161 431.692 327.756 432.122 328.489 432.422 329.221 432.721 330.118 432.871 331.177 432.871 332.015 432.871 332.761 432.802 333.415 432.666 334.069 432.529 334.635 432.376 335.113 432.207 335.59 432.037 335.983 431.884 336.29 431.748 336.598 431.611 336.83 431.543 336.987 431.543 337.079 431.543 337.16 431.565 337.232 431.611 337.304 431.657 337.36 431.725 337.399 431.816 337.438 431.907 337.468 432.034 337.487 432.197 337.507 432.36 337.517 432.558 337.517 432.793 337.517 432.962 337.51 433.108 337.497 433.232 337.484 433.356 337.468 433.466 337.449 433.564 337.429 433.662 337.396 433.75 337.351 433.828 337.305 433.906 337.247 433.981 337.175 434.052 337.104 434.124 336.892 434.241 336.54 434.404 336.189 434.567 335.733 434.726 335.173 434.882 334.613 435.039 333.965 435.179 333.23 435.302 332.494 435.426 331.71 435.488 330.876 435.488 329.431 435.488 328.165 435.286 327.077 434.882 325.99 434.479 325.076 433.88 324.333 433.086 323.591 432.291 323.031 431.295 322.654 430.097 322.276 428.899 322.087 427.506 322.087 425.918 322.087 424.407 322.283 423.05 322.673 421.845 323.064 420.641 323.627 419.619 324.363 418.779 325.098 417.939 325.987 417.295 327.029 416.845 328.07 416.396 329.236 416.172 330.525 416.172 331.905 416.172 333.08 416.393 334.05 416.836 335.02 417.278 335.818 417.874 336.443 418.623 337.068 419.371 337.527 420.25 337.82 421.259 338.113 422.269 338.259 423.346 338.259 424.492V425.078zM335.017 424.121C335.056 422.428 334.679 421.1 333.887 420.136 333.094 419.173 331.919 418.691 330.36 418.691 329.56 418.691 328.86 418.841 328.257 419.14 327.654 419.44 327.15 419.837 326.744 420.332 326.338 420.826 326.023 421.403 325.8 422.06 325.578 422.718 325.453 423.405 325.427 424.121H335.017zM334.516 423.621H325.965C326.018 423.139 326.121 422.672 326.274 422.221 326.476 421.623 326.761 421.099 327.13 420.649 327.492 420.208 327.942 419.855 328.479 419.588 329.018 419.32 329.645 419.191 330.36 419.191 331.744 419.191 332.797 419.598 333.501 420.454 334.149 421.242 334.478 422.3 334.516 423.621z" style="fill-opacity:.3"/><g transform="matrix(40,0,0,40,338.173,435.117)"><path d="M.538-.017c0 .004-.001.007-.002.009-.002.003-.005.005-.01.007C.521.0.514.001.505.002.495.003.483.003.466.003.453.003.442.003.434.002.425.001.419.0.414-.002.41-.003.406-.006.404-.009.402-.011.401-.015.399-.019L.343-.16C.336-.176.329-.19.323-.202.316-.215.309-.225.301-.233.293-.241.284-.248.273-.252.263-.256.251-.258.237-.258H.197v.24c0 .004-.001.007-.003.009C.192-.006.188-.004.184-.002.179-.001.172.0.164.001.156.002.146.003.133.003.12.003.11.002.102.001.094.0.087-.001.082-.002.077-.004.074-.006.072-.009.07-.011.069-.014.069-.018V-.591C.069-.606.073-.616.08-.622.087-.629.096-.632.107-.632H.271c.016.0.03.0.041.001.01.001.02.002.029.003C.366-.625.389-.619.409-.61.43-.601.447-.59.461-.575.475-.561.486-.545.494-.525.501-.506.505-.484.505-.458.505-.437.502-.418.497-.401.491-.383.484-.368.473-.354.463-.34.45-.328.435-.318.419-.308.402-.3.382-.294c.01.005.019.01.027.017C.417-.271.425-.263.432-.254.44-.244.447-.234.453-.222.46-.21.466-.197.472-.182L.525-.057C.53-.045.534-.036.535-.03c.002.006.003.01.003.013zM.372-.445c0-.021-.005-.039-.014-.053C.348-.512.333-.522.312-.528.305-.53.298-.531.289-.532.281-.533.27-.534.255-.534H.197v.18H.263C.281-.354.297-.357.311-.361.324-.365.336-.372.345-.38.354-.388.361-.397.365-.408.37-.419.372-.432.372-.445z" style="fill:#fff;fill-rule:nonzero"/></g><g transform="matrix(40,0,0,40,359.502,435.117)"><path d="M.443-.189C.443-.156.437-.127.425-.102.412-.077.396-.056.375-.039.353-.023.329-.01.3-.001.272.007.242.011.209.011.188.011.167.009.149.006.13.002.113-.002.099-.007S.073-.017.063-.023C.054-.028.047-.033.042-.038.038-.042.035-.048.033-.056.032-.064.031-.075.031-.09c0-.01.0-.019.001-.026C.032-.123.033-.128.035-.132.036-.137.038-.14.041-.141.043-.143.046-.144.049-.144.054-.144.06-.141.069-.136.077-.131.088-.125.101-.118.114-.112.129-.106.147-.1.165-.095.186-.092.21-.092.226-.092.24-.094.252-.098.264-.102.275-.107.283-.114.292-.121.299-.129.303-.139.308-.149.31-.16.31-.173.31-.187.306-.199.298-.21.291-.22.28-.229.268-.237.255-.245.241-.253.225-.26.209-.267.193-.274.176-.282.159-.29.142-.298.126-.308.111-.318.096-.33.084-.344.071-.358.061-.374.053-.393.045-.412.042-.435.042-.461c0-.03.005-.057.016-.08C.07-.564.085-.583.104-.598.123-.613.145-.624.171-.632.197-.639.224-.643.253-.643c.015.0.03.001.045.003C.313-.637.327-.634.34-.63.353-.626.365-.622.375-.617S.392-.608.395-.605.4-.599.402-.597C.403-.594.404-.591.405-.588.405-.584.406-.579.406-.573.407-.568.407-.561.407-.552S.406-.535.406-.528C.406-.522.405-.516.404-.512.402-.508.401-.505.399-.503S.394-.5.39-.5C.387-.5.381-.502.373-.507.365-.511.356-.516.344-.522.333-.527.32-.532.305-.536.29-.541.273-.543.255-.543c-.014.0-.026.002-.036.005C.208-.534.2-.53.193-.524S.18-.51.177-.502C.174-.493.172-.485.172-.475c0 .014.004.026.011.036C.191-.428.201-.419.214-.411.227-.403.242-.396.258-.389s.033.014.05.022.033.017.049.027c.017.01.031.022.044.036.013.013.023.03.031.048C.439-.237.443-.215.443-.189z" style="fill:#fff;fill-rule:nonzero"/></g><g transform="matrix(40,0,0,40,377.12,435.117)"><path d="M.586-.048C.59-.036.593-.027.594-.02.595-.013.593-.008.59-.005.586-.001.58.001.571.002.562.003.549.003.533.003S.504.003.494.002C.485.002.478.001.473-.001.468-.002.465-.004.463-.007.461-.009.459-.013.458-.017L.416-.144H.178l-.04.123C.137-.016.135-.012.133-.009.131-.006.128-.003.123-.002.118.0.111.001.103.002.094.003.083.003.069.003.054.003.042.002.034.001.025.0.019-.002.016-.006.013-.009.012-.015.013-.021.014-.028.016-.037.02-.049l.195-.56C.217-.615.219-.619.222-.623.224-.626.228-.629.234-.631.24-.632.248-.634.258-.634c.01-.001.023-.001.04-.001.019.0.034.0.046.001.011.0.02.002.026.003C.377-.629.381-.626.384-.623.387-.619.389-.614.391-.608l.195.56zM.296-.511.207-.243H.386L.296-.511z" style="fill:#fff;fill-rule:nonzero"/></g><path d="M360.177 434.453C360.177 434.29 360.142 434.064 360.06 433.778 359.992 433.541 359.857 433.164 359.654 432.648L357.521 427.657C357.266 427.041 357.005 426.489 356.737 426 356.462 425.498 356.17 425.052 355.861 424.661 355.542 424.256 355.201 423.913 354.839 423.63 354.765 423.572 354.69 423.515 354.614 423.461 355.05 423.268 355.456 423.048 355.831 422.8 356.492 422.364 357.047 421.85 357.497 421.26 357.948 420.667 358.291 419.994 358.524 419.239 358.753 418.498 358.868 417.677 358.868 416.777 358.868 415.706 358.705 414.758 358.386 413.931 358.06 413.089 357.589 412.361 356.974 411.746 356.365 411.137 355.624 410.641 354.748 410.263 353.896 409.895 352.939 409.635 351.876 409.485L351.869 409.484C351.502 409.443 351.103 409.41 350.664 409.383 350.227 409.357 349.67 409.343 348.993 409.343H342.451C341.89 409.343 341.421 409.515 341.039 409.846 340.654 410.18 340.427 410.711 340.427 411.465v22.949C340.427 434.655 340.499 434.872 340.644 435.065 340.771 435.234 340.98 435.388 341.296 435.494 341.516 435.567 341.813 435.628 342.187 435.672 342.535 435.713 342.968 435.734 343.486 435.734 344.018 435.734 344.454 435.713 344.795 435.672 345.162 435.628 345.455 435.567 345.675 435.494 345.981 435.391 346.192 435.244 346.325 435.081 346.485 434.883 346.564 434.66 346.564 434.414V425.285s1.101.0 1.101.0C348.141 425.285 348.56 425.355 348.922 425.502 349.274 425.645 349.584 425.857 349.854 426.137 350.143 426.438 350.405 426.815 350.641 427.264 350.895 427.747 351.156 428.3 351.422 428.922L353.681 434.548C353.749 434.749 353.835 434.92 353.937 435.063 354.062 435.241 354.266 435.401 354.568 435.516 354.791 435.6 355.093 435.663 355.477 435.693 355.812 435.72 356.262 435.734 356.826 435.734 357.491 435.734 358.017 435.72 358.403 435.694 358.835 435.664 359.162 435.607 359.386 435.533 359.744 435.413 359.945 435.228 360.04 435.049 360.126 434.888 360.177 434.69 360.177 434.453zm-.5.0C359.677 434.596 359.651 434.716 359.599 434.814 359.547 434.912 359.423 434.993 359.228 435.058S358.746 435.169 358.368 435.195C357.991 435.221 357.477 435.234 356.826 435.234 356.279 435.234 355.842 435.221 355.517 435.195 355.191 435.169 354.934 435.12 354.745 435.048 354.557 434.977 354.423 434.886 354.345 434.775 354.267 434.664 354.202 434.531 354.15 434.375L351.884 428.73C351.611 428.092 351.344 427.526 351.083 427.031 350.823 426.536 350.533 426.123 350.214 425.791S349.527 425.208 349.111 425.039C348.694 424.869 348.212 424.785 347.665 424.785h-1.601V434.414C346.064 434.544 346.021 434.661 345.937 434.765 345.852 434.869 345.712 434.954 345.517 435.019S345.061 435.136 344.736 435.175C344.41 435.215 343.993 435.234 343.486 435.234 342.991 435.234 342.577 435.215 342.245 435.175 341.913 435.136 341.65 435.084 341.454 435.019 341.259 434.954 341.122 434.869 341.044 434.765 340.966 434.661 340.927 434.544 340.927 434.414V411.465C340.927 410.892 341.074 410.478 341.367 410.224 341.659 409.97 342.021 409.843 342.451 409.843H348.993C349.658 409.843 350.204 409.856 350.634 409.882 351.064 409.909 351.454 409.941 351.806 409.98 352.822 410.123 353.736 410.371 354.55 410.722 355.364 411.074 356.054 411.533 356.62 412.099 357.187 412.666 357.62 413.336 357.919 414.111 358.219 414.886 358.368 415.774 358.368 416.777 358.368 417.623 358.261 418.395 358.046 419.091 357.831 419.788 357.516 420.41 357.099 420.957 356.682 421.504 356.168 421.979 355.556 422.382 354.944 422.786 354.247 423.112 353.466 423.359 353.844 423.541 354.199 423.763 354.531 424.023 354.863 424.284 355.175 424.599 355.468 424.97 355.761 425.341 356.038 425.765 356.298 426.24 356.559 426.715 356.812 427.252 357.06 427.851L359.189 432.832C359.384 433.326 359.514 433.688 359.579 433.916 359.645 434.144 359.677 434.323 359.677 434.453zM353.056 417.304C353.056 416.471 352.867 415.768 352.49 415.195 352.112 414.622 351.493 414.218 350.634 413.984 350.374 413.919 350.077 413.867 349.745 413.828 349.413 413.789 348.954 413.769 348.368 413.769H346.064V420.937H348.681C349.41 420.937 350.048 420.849 350.595 420.673 351.142 420.498 351.598 420.25 351.962 419.931 352.327 419.612 352.6 419.231 352.783 418.789 352.965 418.346 353.056 417.851 353.056 417.304zm-.5.0C352.556 417.781 352.479 418.213 352.32 418.598 352.168 418.969 351.938 419.288 351.633 419.555 351.316 419.833 350.918 420.045 350.442 420.197 349.939 420.359 349.352 420.437 348.681 420.437H346.564S346.564 414.269 346.564 414.269 348.368 414.269 348.368 414.269C348.93 414.269 349.369 414.287 349.687 414.324 349.993 414.36 350.267 414.408 350.508 414.468 351.228 414.665 351.755 414.99 352.072 415.47 352.4 415.968 352.556 416.581 352.556 417.304z" style="fill-opacity:.3"/><path d="M377.736 427.539C377.736 426.449 377.564 425.503 377.229 424.7 376.893 423.895 376.451 423.196 375.906 422.601 375.366 422.013 374.751 421.508 374.059 421.086 373.392 420.679 372.711 420.315 372.016 419.995 371.335 419.681 370.667 419.383 370.012 419.101 369.386 418.832 368.825 418.544 368.33 418.237 367.874 417.954 367.508 417.633 367.237 417.269 366.994 416.944 366.877 416.557 366.877 416.113 366.877 415.801 366.933 415.505 367.046 415.226 367.152 414.962 367.315 414.736 367.533 414.549 367.767 414.347 368.06 414.192 368.408 414.078 368.78 413.956 369.217 413.898 369.717 413.898 370.382 413.898 370.993 413.978 371.549 414.142 372.12 414.309 372.624 414.495 373.058 414.7 373.499 414.908 373.87 415.099 374.172 415.275 374.595 415.522 374.914 415.617 375.108 415.617 375.395 415.617 375.619 415.524 375.788 415.367 375.929 415.237 376.052 415.04 376.127 414.759 376.18 414.565 376.219 414.319 376.241 414.021 376.261 413.751 376.272 413.419 376.272 413.027 376.272 412.677 376.265 412.384 376.251 412.149 376.236 411.89 376.209 411.675 376.172 411.505 376.129 411.306 376.074 411.147 376.014 411.026 375.951 410.9 375.836 410.743 375.656 410.564 375.503 410.411 375.195 410.209 374.72 409.979 374.295 409.773 373.808 409.588 373.259 409.423 372.717 409.26 372.134 409.131 371.511 409.037 370.887 408.942 370.263 408.894 369.639 408.894 368.431 408.894 367.288 409.051 366.209 409.363 365.107 409.682 364.152 410.165 363.341 410.809 362.522 411.461 361.87 412.279 361.387 413.266 360.907 414.248 360.662 415.385 360.662 416.679 360.662 417.809 360.834 418.777 361.169 419.585 361.505 420.396 361.943 421.098 362.481 421.693 363.014 422.281 363.619 422.785 364.296 423.207 364.952 423.615 365.628 423.98 366.324 424.301 367.004 424.615 367.664 424.913 368.305 425.194 368.918 425.463 369.465 425.75 369.947 426.056 370.394 426.341 370.759 426.665 371.038 427.031 371.286 427.357 371.404 427.748 371.404 428.203 371.404 428.622 371.33 429.003 371.175 429.345 371.026 429.674 370.811 429.951 370.529 430.174 370.23 430.411 369.865 430.592 369.435 430.722 368.983 430.859 368.472 430.925 367.901 430.925 367.004 430.925 366.215 430.827 365.533 430.624 364.842 430.418 364.247 430.192 363.749 429.943 363.248 429.692 362.837 429.464 362.518 429.258 362.074 428.97 361.718 428.855 361.475 428.855 361.231 428.855 361.02 428.926 360.837 429.059 360.672 429.18 360.525 429.374 360.426 429.66 360.357 429.859 360.304 430.119 360.274 430.441 360.247 430.727 360.233 431.081 360.233 431.504 360.233 432.15 360.275 432.646 360.352 432.99 360.448 433.418 360.621 433.74 360.848 433.966 361.039 434.158 361.348 434.382 361.782 434.632 362.188 434.866 362.694 435.092 363.301 435.305 363.895 435.514 364.579 435.694 365.355 435.842 366.133 435.991 366.975 436.066 367.881 436.066 369.221 436.066 370.479 435.889 371.657 435.537 372.854 435.18 373.899 434.645 374.793 433.936 375.697 433.22 376.414 432.327 376.943 431.256 377.469 430.19 377.736 428.951 377.736 427.539zm-.5.0C377.236 428.867 376.989 430.032 376.494 431.035 375.999 432.037 375.329 432.874 374.483 433.545 373.636 434.215 372.647 434.72 371.514 435.058 370.381 435.397 369.17 435.566 367.881 435.566 367.009 435.566 366.198 435.494 365.449 435.351 364.701 435.208 364.04 435.035 363.467 434.834 362.894 434.632 362.415 434.42 362.031 434.199S361.371 433.782 361.201 433.613C361.032 433.444 360.912 433.2 360.84 432.881 360.768 432.562 360.733 432.103 360.733 431.504 360.733 431.1 360.746 430.761 360.772 430.488S360.84 429.993 360.899 429.824C360.957 429.655 361.035 429.534 361.133 429.463 361.231 429.391 361.345 429.355 361.475 429.355 361.657 429.355 361.914 429.463 362.246 429.677 362.578 429.892 363.005 430.13 363.526 430.39 364.046 430.651 364.668 430.888 365.391 431.103 366.113 431.318 366.95 431.425 367.901 431.425 368.526 431.425 369.085 431.351 369.58 431.201 370.075 431.051 370.495 430.84 370.84 430.566 371.185 430.293 371.449 429.954 371.631 429.55 371.813 429.147 371.904 428.698 371.904 428.203 371.904 427.63 371.748 427.138 371.436 426.728 371.123 426.318 370.716 425.953 370.215 425.634 369.714 425.315 369.144 425.016 368.506 424.736 367.868 424.456 367.21 424.16 366.533 423.847 365.856 423.535 365.199 423.18 364.561 422.783 363.923 422.386 363.353 421.91 362.852 421.357 362.35 420.804 361.943 420.149 361.631 419.394 361.318 418.639 361.162 417.734 361.162 416.679 361.162 415.468 361.387 414.404 361.836 413.486S362.891 411.806 363.652 411.201C364.414 410.595 365.313 410.143 366.348 409.843 367.383 409.544 368.48 409.394 369.639 409.394 370.238 409.394 370.837 409.44 371.436 409.531 372.035 409.622 372.595 409.746 373.115 409.902 373.636 410.058 374.098 410.234 374.502 410.429 374.906 410.625 375.173 410.787 375.303 410.918 375.433 411.048 375.521 411.159 375.567 411.25 375.612 411.341 375.651 411.461 375.684 411.611 375.716 411.761 375.739 411.95 375.752 412.177 375.765 412.405 375.772 412.688 375.772 413.027 375.772 413.405 375.762 413.724 375.742 413.984 375.723 414.244 375.69 414.459 375.645 414.629 375.599 414.798 375.534 414.922 375.449 415 375.365 415.078 375.251 415.117 375.108 415.117 374.964 415.117 374.736 415.026 374.424 414.843 374.111 414.661 373.727 414.463 373.272 414.248 372.816 414.033 372.289 413.838 371.69 413.662 371.091 413.486 370.433 413.398 369.717 413.398 369.157 413.398 368.669 413.466 368.252 413.603 367.835 413.74 367.487 413.929 367.207 414.17 366.927 414.41 366.719 414.7 366.582 415.039 366.445 415.377 366.377 415.735 366.377 416.113 366.377 416.673 366.53 417.158 366.836 417.568 367.142 417.978 367.552 418.343 368.067 418.662 368.581 418.981 369.164 419.28 369.815 419.56 370.466 419.84 371.13 420.136 371.807 420.449 372.484 420.761 373.148 421.116 373.799 421.513 374.45 421.91 375.029 422.386 375.537 422.939 376.045 423.493 376.455 424.144 376.768 424.892 377.08 425.641 377.236 426.523 377.236 427.539z" style="fill-opacity:.3"/><path d="M401.051 433.045 393.239 410.642C393.14 410.332 393.016 410.089 392.877 409.909 392.712 409.695 392.449 409.518 392.07 409.411 391.789 409.332 391.396 409.278 390.891 409.256 390.43 409.236 389.811 409.226 389.034 409.226 388.36 409.226 387.818 409.236 387.408 409.256 386.951 409.278 386.594 409.334 386.335 409.415 385.99 409.524 385.747 409.695 385.59 409.902 385.459 410.074 385.341 410.297 385.242 410.575L377.448 433.001C377.279 433.495 377.175 433.891 377.133 434.187 377.069 434.635 377.174 434.975 377.387 435.22 377.579 435.441 377.911 435.615 378.41 435.672 378.763 435.713 379.251 435.734 379.874 435.734 380.449 435.734 380.914 435.72 381.269 435.694 381.675 435.663 381.988 435.6 382.209 435.516 382.51 435.402 382.72 435.235 382.855 435.038 382.966 434.876 383.058 434.677 383.127 434.439 383.125 434.444 384.612 429.855 384.612 429.855 384.613 429.855 393.381 429.855 393.381 429.855S394.965 434.587 394.965 434.587C395.036 434.817 395.129 435.001 395.236 435.143 395.365 435.316 395.579 435.47 395.902 435.566 396.125 435.633 396.447 435.682 396.869 435.704 397.247 435.724 397.773 435.734 398.448 435.734 399.105 435.734 399.621 435.717 399.997 435.683 400.51 435.637 400.857 435.486 401.059 435.293 401.305 435.058 401.432 434.715 401.365 434.245 401.323 433.951 401.22 433.55 401.051 433.045zM400.577 433.203C400.733 433.672 400.831 434.043 400.87 434.316 400.909 434.59 400.857 434.795 400.714 434.931 400.571 435.068 400.317 435.153 399.952 435.185 399.587 435.218 399.086 435.234 398.448 435.234 397.784 435.234 397.267 435.224 396.895 435.205 396.524 435.185 396.241 435.146 396.046 435.088 395.851 435.029 395.714 434.948 395.636 434.843 395.558 434.739 395.492 434.603 395.44 434.433L393.741 429.355H384.249L382.647 434.297C382.595 434.479 382.527 434.632 382.442 434.756 382.358 434.879 382.221 434.977 382.032 435.048 381.843 435.12 381.576 435.169 381.231 435.195 380.886 435.221 380.434 435.234 379.874 435.234 379.275 435.234 378.806 435.215 378.468 435.175 378.129 435.136 377.895 435.042 377.765 434.892 377.634 434.743 377.589 434.531 377.628 434.257 377.667 433.984 377.765 433.619 377.921 433.164L385.714 410.742C385.792 410.52 385.883 410.341 385.987 410.205 386.091 410.068 386.257 409.964 386.485 409.892 386.713 409.821 387.029 409.775 387.433 409.756 387.836 409.736 388.37 409.726 389.034 409.726 389.802 409.726 390.414 409.736 390.87 409.756 391.326 409.775 391.681 409.821 391.934 409.892 392.188 409.964 392.371 410.071 392.481 410.215 392.592 410.358 392.686 410.553 392.765 410.8L400.577 433.203zm-11.498-18.226L388.976 414.668H388.956L388.889 414.868 388.904 414.941C388.919 415.011 388.935 415.081 388.952 415.15L388.826 415.06 385.382 425.41H392.55L389.089 415.01 388.997 415.138 388.99 415.143C389.008 415.112 389.042 415.052 389.079 414.977zm-.113 1.245L391.856 424.91H386.075L388.966 416.222z" style="fill-opacity:.3"/></g></g></g><defs><linearGradient id="_Linear1" x1="0" y1="0" x2="1" y2="0" gradientUnits="userSpaceOnUse" gradientTransform="matrix(67.0719,0,0,69.2437,374.449,161.564)"><stop offset="0" style="stop-color:#40e0d0;stop-opacity:.7"/><stop offset=".5" style="stop-color:#ff8c00;stop-opacity:.7"/><stop offset="1" style="stop-color:#ff0080;stop-opacity:.7"/></linearGradient><linearGradient id="_Linear2" x1="0" y1="0" x2="1" y2="0" gradientUnits="userSpaceOnUse" gradientTransform="matrix(67.0719,0,0,69.2437,374.449,161.564)"><stop offset="0" style="stop-color:#40e0d0;stop-opacity:.7"/><stop offset=".5" style="stop-color:#ff8c00;stop-opacity:.7"/><stop offset="1" style="stop-color:#ff0080;stop-opacity:.7"/></linearGradient><linearGradient id="_Linear3" x1="0" y1="0" x2="1" y2="0" gradientUnits="userSpaceOnUse" gradientTransform="matrix(67.0719,0,0,69.2437,374.449,161.564)"><stop offset="0" style="stop-color:#40e0d0;stop-opacity:.7"/><stop offset=".5" style="stop-color:#ff8c00;stop-opacity:.7"/><stop offset="1" style="stop-color:#ff0080;stop-opacity:.7"/></linearGradient></defs></svg>